M48
;GenerationSoftware,Autodesk,EAGLE,9.6.2*%
;CreationDate,2022-02-18T22:35:43Z*%
FMAT,2
ICI,OFF
METRIC,TZ,000.000
T11C0.350
T10C0.600
T9C1.000
T8C1.016
T7C1.067
T6C1.100
T5C1.250
T4C1.400
T3C2.500
T2C2.800
T1C3.175
%
G90
M71
T1
X85090Y5080
X82550Y90805
X8890Y90805
X5080Y5080
T2
X14260Y32470
X72260Y32460
X72260Y9460
X14260Y9460
T3
X30306Y55560
X9694Y42860
X9694Y55560
X30306Y42860
T4
X36440Y46670
X36440Y51750
X31360Y51750
X31360Y46670
X79520Y60420
X79520Y55340
X84600Y55340
X84600Y60420
T5
X29320Y31190
X26780Y33730
X26780Y31190
X24240Y33730
X24240Y31190
X21700Y31190
X19160Y33730
X19160Y31190
X21700Y33730
X67420Y33730
X67420Y31190
X62340Y31190
X31860Y33730
X31860Y31190
X29320Y33730
X64880Y33730
X64880Y31190
X62340Y33730
X59800Y33730
X59800Y31190
X57260Y33730
X57260Y31190
X54720Y33730
X54720Y31190
X52180Y33730
X52180Y31190
X49640Y33730
X49640Y31190
X47100Y33730
X47100Y31190
X44560Y33730
X44560Y31190
X42020Y33730
X42020Y31190
X39480Y33730
X39480Y31190
X36940Y33730
X36940Y31190
X34400Y33730
X34400Y31190
T6
X33900Y49210
X82060Y57880
T7
X52070Y90805
X52070Y88265
X49530Y90805
X49530Y88265
X46990Y90805
X46990Y88265
X44450Y90805
X44450Y88265
X41910Y90805
X41910Y88265
X39370Y90805
X39370Y88265
X36830Y90805
X36830Y88265
X34290Y90805
X34290Y88265
X31750Y90805
X31750Y88265
X29210Y90805
X29210Y88265
X26670Y90805
X26670Y88265
X24130Y90805
X24130Y88265
X21590Y90805
X21590Y88265
X19050Y90805
X19050Y88265
X16510Y90805
X16510Y88265
X77470Y85725
X77470Y83223
X13970Y85725
X13970Y83185
X74930Y85725
X74930Y83223
X72390Y85725
X72390Y83223
X69850Y85725
X69850Y83223
X67310Y85725
X67310Y83223
X64770Y85725
X64770Y83223
X62230Y85725
X62230Y83223
X59690Y85725
X59690Y83223
X57150Y85725
X57150Y83223
X54610Y85725
X54610Y83223
X52070Y85725
X52070Y83223
X49530Y85725
X49530Y83223
X46990Y85725
X46990Y83223
X44450Y85725
X44450Y83223
X41910Y85725
X41910Y83223
X39370Y85725
X39370Y83223
X36830Y85725
X36830Y83223
X34290Y85725
X34290Y83223
X31750Y85725
X31750Y83223
X29210Y85725
X29210Y83223
X26670Y85725
X26670Y83223
X24130Y85725
X24130Y83223
X21590Y85725
X21590Y83223
X19050Y85725
X16510Y85725
X16510Y83223
X77470Y90805
X77470Y88265
X13970Y90805
X13970Y88265
X74930Y90805
X74930Y88265
X72390Y90805
X72390Y88265
X69850Y90805
X69850Y88265
X67310Y90805
X67310Y88265
X64770Y90805
X64770Y88265
X62230Y90805
X62230Y88265
X59690Y90805
X59690Y88265
X57150Y90805
X57150Y88265
X54610Y90805
X54610Y88265
T8
X19050Y83223
T9
X32900Y79350
X35440Y79350
X37980Y79350
X12580Y76810
X40520Y64110
X37980Y64110
X35440Y64110
X32900Y64110
X30360Y64110
X20200Y64110
X27820Y64110
X25280Y64110
X22740Y64110
X13504Y42860
X16044Y42860
X18584Y42860
X21124Y42860
X23664Y42860
X26204Y42860
X10040Y64110
X55760Y71730
X12580Y79350
X10040Y79350
X15120Y79350
X60840Y64110
X55760Y69190
X55760Y66650
X55760Y74270
X55760Y76810
X43060Y79350
X43060Y64110
X12580Y64110
X15120Y64110
X17660Y64110
X40520Y79350
X10270Y70730
X10270Y72730
X45600Y79350
X48140Y64110
X26550Y67110
X24010Y67110
X21470Y67110
X18930Y67110
X16390Y67110
X68460Y79350
X65920Y79350
X63380Y79350
X60840Y79350
X58300Y79350
X55760Y79350
X53220Y79350
X50680Y79350
X48140Y79350
X68460Y64110
X65920Y64110
X63380Y64110
X58300Y64110
X55760Y64110
X53220Y64110
X50680Y64110
X45600Y64110
X17660Y79350
X20200Y79350
X22740Y79350
X25280Y79350
X27820Y79350
X30360Y79350
T10
X23010Y74810
X23010Y72810
X25010Y76810
X25010Y74810
X25010Y72810
X23010Y76810
T11
X10160Y1651
X12192Y1651
X13208Y1651
X14224Y1651
X15240Y1651
X16256Y1651
X17272Y1651
X11176Y1651
X26416Y1651
X27432Y1651
X28448Y1651
X29464Y1651
X30480Y1651
X31496Y1651
X32512Y1651
X33528Y1651
X4166Y79654
X4166Y81686
X4166Y82702
X4166Y83718
X4166Y84734
X4166Y85750
X4166Y86766
X4166Y80670
X4166Y63449
X4166Y66497
X4166Y67513
X4166Y68529
X4166Y69545
X4166Y70561
X4166Y64465
X58293Y1651
X60325Y1651
X61341Y1651
X59510Y40530
X40640Y9600
X22060Y13610
X76200Y17290
X72400Y36280
X59420Y60870
X60280Y55700
X72370Y17270
X74340Y17250
X77180Y55210
X76760Y9760
X81170Y54170
X77870Y6430
X79800Y85400
X88621Y76149
X88621Y82245
X88621Y81229
X88621Y80213
X88621Y79197
X14920Y15480
X88621Y78181
X88621Y77165
X88621Y75133
X88519Y10439
X88519Y15519
X88519Y14503
X88519Y13487
X88519Y12471
X88519Y11455
X88519Y9423
X81661Y1651
X79629Y1651
X78613Y1651
X77597Y1651
X76581Y1651
X75565Y1651
X74549Y1651
X59309Y1651
X65405Y1651
X64389Y1651
X63373Y1651
X46820Y26670
X44760Y26660
X42200Y26560
X14880Y17150
X45150Y25640
X62357Y1651
X46090Y59380
X74190Y26520
X74220Y28260
X80645Y1651
X38000Y21080
X37600Y19970
X39390Y16590
X39260Y14290
X78170Y66840
X71740Y64650
X88519Y44479
X88519Y50575
X88519Y49559
X88519Y48543
X88519Y47527
X88519Y46511
X88519Y45495
X88519Y43463
X88549Y60099
X88549Y66195
X88549Y65179
X88549Y64163
X88549Y63147
X88549Y62131
X4166Y65481
X88549Y59083
X88659Y28509
X88659Y34605
X88659Y33589
X88659Y32573
X88659Y31557
X88659Y30541
X88659Y29525
X88659Y27493
X14030Y39330
X38100Y59430
X70230Y23910
X71600Y51170
X45900Y52810
X15950Y22670
X78060Y17290
X25250Y12590
X55420Y59090
X19140Y39590
X51090Y49470
X49160Y41720
X78130Y30310
X45250Y42910
X78190Y29120
X88549Y61115
M30