G04 EAGLE Gerber RS-274X export*
G75*
%MOMM*%
%FSLAX34Y34*%
%LPD*%
%IN*%
%IPPOS*%
%AMOC8*
5,1,8,0,0,1.08239X$1,22.5*%
G01*
%ADD10C,0.254000*%


D10*
X0Y11938D02*
X45Y10898D01*
X181Y9865D01*
X407Y8848D01*
X720Y7855D01*
X1119Y6893D01*
X1599Y5969D01*
X2159Y5091D01*
X2793Y4264D01*
X3497Y3497D01*
X4264Y2793D01*
X5091Y2159D01*
X5969Y1599D01*
X6893Y1119D01*
X7855Y720D01*
X8848Y407D01*
X9865Y181D01*
X10898Y45D01*
X11938Y0D01*
X348742Y0D01*
X349782Y45D01*
X350815Y181D01*
X351832Y407D01*
X352825Y720D01*
X353787Y1119D01*
X354711Y1599D01*
X355589Y2159D01*
X356416Y2793D01*
X357183Y3497D01*
X357887Y4264D01*
X358521Y5091D01*
X359081Y5969D01*
X359562Y6893D01*
X359960Y7855D01*
X360273Y8848D01*
X360499Y9865D01*
X360635Y10898D01*
X360680Y11938D01*
X360680Y17272D01*
X360725Y18312D01*
X360861Y19345D01*
X361087Y20362D01*
X361400Y21355D01*
X361799Y22317D01*
X362279Y23241D01*
X362839Y24119D01*
X363473Y24946D01*
X364177Y25713D01*
X364944Y26417D01*
X365771Y27051D01*
X366649Y27611D01*
X367573Y28092D01*
X368535Y28490D01*
X369528Y28803D01*
X370545Y29029D01*
X371578Y29165D01*
X372618Y29210D01*
X551942Y29210D01*
X552982Y29165D01*
X554015Y29029D01*
X555032Y28803D01*
X556025Y28490D01*
X556987Y28092D01*
X557911Y27611D01*
X558789Y27051D01*
X559616Y26417D01*
X560383Y25713D01*
X561087Y24946D01*
X561721Y24119D01*
X562281Y23241D01*
X562762Y22317D01*
X563160Y21355D01*
X563473Y20362D01*
X563699Y19345D01*
X563835Y18312D01*
X563880Y17272D01*
X563880Y11938D01*
X563925Y10898D01*
X564061Y9865D01*
X564287Y8848D01*
X564600Y7855D01*
X564999Y6893D01*
X565479Y5969D01*
X566039Y5091D01*
X566673Y4264D01*
X567377Y3497D01*
X568144Y2793D01*
X568971Y2159D01*
X569849Y1599D01*
X570773Y1119D01*
X571735Y720D01*
X572728Y407D01*
X573745Y181D01*
X574778Y45D01*
X575818Y0D01*
X889762Y0D01*
X890802Y45D01*
X891835Y181D01*
X892852Y407D01*
X893845Y720D01*
X894807Y1119D01*
X895731Y1599D01*
X896609Y2159D01*
X897436Y2793D01*
X898203Y3497D01*
X898907Y4264D01*
X899541Y5091D01*
X900101Y5969D01*
X900582Y6893D01*
X900980Y7855D01*
X901293Y8848D01*
X901519Y9865D01*
X901655Y10898D01*
X901700Y11938D01*
X901700Y868680D01*
X876300Y868680D01*
X876300Y955040D01*
X574040Y955040D01*
X572933Y954992D01*
X571835Y954847D01*
X570753Y954607D01*
X569696Y954274D01*
X568673Y953850D01*
X567690Y953339D01*
X566756Y952743D01*
X565877Y952069D01*
X565060Y951320D01*
X564311Y950503D01*
X563637Y949624D01*
X563041Y948690D01*
X562530Y947707D01*
X562106Y946684D01*
X561773Y945627D01*
X561533Y944545D01*
X561388Y943447D01*
X561340Y942340D01*
X561292Y941233D01*
X561147Y940135D01*
X560907Y939053D01*
X560574Y937996D01*
X560150Y936973D01*
X559639Y935990D01*
X559043Y935056D01*
X558369Y934177D01*
X557620Y933360D01*
X556803Y932611D01*
X555924Y931937D01*
X554990Y931341D01*
X554007Y930830D01*
X552984Y930406D01*
X551927Y930073D01*
X550845Y929833D01*
X549747Y929688D01*
X548640Y929640D01*
X368300Y929640D01*
X367309Y929794D01*
X366335Y930034D01*
X365385Y930358D01*
X364467Y930764D01*
X363588Y931248D01*
X362755Y931806D01*
X361974Y932436D01*
X361250Y933130D01*
X360590Y933886D01*
X359998Y934696D01*
X359479Y935554D01*
X359036Y936455D01*
X358674Y937390D01*
X358395Y938354D01*
X358201Y939338D01*
X358093Y940336D01*
X358073Y941339D01*
X358140Y942340D01*
X358092Y943447D01*
X357947Y944545D01*
X357707Y945627D01*
X357374Y946684D01*
X356950Y947707D01*
X356439Y948690D01*
X355843Y949624D01*
X355169Y950503D01*
X354420Y951320D01*
X353603Y952069D01*
X352724Y952743D01*
X351790Y953339D01*
X350807Y953850D01*
X349784Y954274D01*
X348727Y954607D01*
X347645Y954847D01*
X346547Y954992D01*
X345440Y955040D01*
X25400Y955040D01*
X25400Y127000D01*
X0Y127000D01*
X0Y11938D01*
X705432Y34510D02*
X705443Y34249D01*
X705478Y33989D01*
X705534Y33734D01*
X705613Y33484D01*
X705713Y33242D01*
X705834Y33010D01*
X705975Y32789D01*
X706134Y32582D01*
X706311Y32389D01*
X706504Y32212D01*
X706711Y32053D01*
X706932Y31912D01*
X707164Y31791D01*
X707406Y31691D01*
X707656Y31612D01*
X707911Y31556D01*
X708171Y31521D01*
X708432Y31510D01*
X708693Y31521D01*
X708953Y31556D01*
X709208Y31612D01*
X709458Y31691D01*
X709700Y31791D01*
X709932Y31912D01*
X710153Y32053D01*
X710360Y32212D01*
X710553Y32389D01*
X710730Y32582D01*
X710889Y32789D01*
X711030Y33010D01*
X711151Y33242D01*
X711251Y33484D01*
X711330Y33734D01*
X711386Y33989D01*
X711421Y34249D01*
X711432Y34510D01*
X711432Y43510D01*
X711421Y43771D01*
X711386Y44031D01*
X711330Y44286D01*
X711251Y44536D01*
X711151Y44778D01*
X711030Y45010D01*
X710889Y45231D01*
X710730Y45438D01*
X710553Y45631D01*
X710360Y45808D01*
X710153Y45967D01*
X709932Y46108D01*
X709700Y46229D01*
X709458Y46329D01*
X709208Y46408D01*
X708953Y46464D01*
X708693Y46499D01*
X708432Y46510D01*
X708171Y46499D01*
X707911Y46464D01*
X707656Y46408D01*
X707406Y46329D01*
X707164Y46229D01*
X706932Y46108D01*
X706711Y45967D01*
X706504Y45808D01*
X706311Y45631D01*
X706134Y45438D01*
X705975Y45231D01*
X705834Y45010D01*
X705713Y44778D01*
X705613Y44536D01*
X705534Y44286D01*
X705478Y44031D01*
X705443Y43771D01*
X705432Y43510D01*
X705432Y34510D01*
X795432Y34510D02*
X795443Y34249D01*
X795478Y33989D01*
X795534Y33734D01*
X795613Y33484D01*
X795713Y33242D01*
X795834Y33010D01*
X795975Y32789D01*
X796134Y32582D01*
X796311Y32389D01*
X796504Y32212D01*
X796711Y32053D01*
X796932Y31912D01*
X797164Y31791D01*
X797406Y31691D01*
X797656Y31612D01*
X797911Y31556D01*
X798171Y31521D01*
X798432Y31510D01*
X798693Y31521D01*
X798953Y31556D01*
X799208Y31612D01*
X799458Y31691D01*
X799700Y31791D01*
X799932Y31912D01*
X800153Y32053D01*
X800360Y32212D01*
X800553Y32389D01*
X800730Y32582D01*
X800889Y32789D01*
X801030Y33010D01*
X801151Y33242D01*
X801251Y33484D01*
X801330Y33734D01*
X801386Y33989D01*
X801421Y34249D01*
X801432Y34510D01*
X801432Y43510D01*
X801421Y43771D01*
X801386Y44031D01*
X801330Y44286D01*
X801251Y44536D01*
X801151Y44778D01*
X801030Y45010D01*
X800889Y45231D01*
X800730Y45438D01*
X800553Y45631D01*
X800360Y45808D01*
X800153Y45967D01*
X799932Y46108D01*
X799700Y46229D01*
X799458Y46329D01*
X799208Y46408D01*
X798953Y46464D01*
X798693Y46499D01*
X798432Y46510D01*
X798171Y46499D01*
X797911Y46464D01*
X797656Y46408D01*
X797406Y46329D01*
X797164Y46229D01*
X796932Y46108D01*
X796711Y45967D01*
X796504Y45808D01*
X796311Y45631D01*
X796134Y45438D01*
X795975Y45231D01*
X795834Y45010D01*
X795713Y44778D01*
X795613Y44536D01*
X795534Y44286D01*
X795478Y44031D01*
X795443Y43771D01*
X795432Y43510D01*
X795432Y34510D01*
X705432Y91010D02*
X705464Y90771D01*
X705517Y90536D01*
X705590Y90307D01*
X705683Y90085D01*
X705795Y89871D01*
X705925Y89669D01*
X706073Y89478D01*
X706236Y89301D01*
X706414Y89139D01*
X706606Y88993D01*
X706809Y88864D01*
X707024Y88753D01*
X707246Y88662D01*
X707476Y88590D01*
X707712Y88539D01*
X707951Y88508D01*
X708191Y88499D01*
X708432Y88510D01*
X712932Y88510D01*
X713150Y88520D01*
X713366Y88548D01*
X713579Y88595D01*
X713787Y88661D01*
X713989Y88744D01*
X714182Y88845D01*
X714366Y88962D01*
X714539Y89095D01*
X714700Y89242D01*
X714847Y89403D01*
X714980Y89576D01*
X715097Y89760D01*
X715198Y89953D01*
X715281Y90155D01*
X715347Y90363D01*
X715394Y90576D01*
X715423Y90792D01*
X715432Y91010D01*
X715423Y91228D01*
X715394Y91444D01*
X715347Y91657D01*
X715281Y91865D01*
X715198Y92067D01*
X715097Y92260D01*
X714980Y92444D01*
X714847Y92617D01*
X714700Y92778D01*
X714539Y92925D01*
X714366Y93058D01*
X714182Y93175D01*
X713989Y93276D01*
X713787Y93359D01*
X713579Y93425D01*
X713366Y93472D01*
X713150Y93501D01*
X712932Y93510D01*
X711432Y93510D01*
X711432Y98510D01*
X711421Y98771D01*
X711386Y99031D01*
X711330Y99286D01*
X711251Y99536D01*
X711151Y99778D01*
X711030Y100010D01*
X710889Y100231D01*
X710730Y100438D01*
X710553Y100631D01*
X710360Y100808D01*
X710153Y100967D01*
X709932Y101108D01*
X709700Y101229D01*
X709458Y101329D01*
X709208Y101408D01*
X708953Y101464D01*
X708693Y101499D01*
X708432Y101510D01*
X708171Y101499D01*
X707911Y101464D01*
X707656Y101408D01*
X707406Y101329D01*
X707164Y101229D01*
X706932Y101108D01*
X706711Y100967D01*
X706504Y100808D01*
X706311Y100631D01*
X706134Y100438D01*
X705975Y100231D01*
X705834Y100010D01*
X705713Y99778D01*
X705613Y99536D01*
X705534Y99286D01*
X705478Y99031D01*
X705443Y98771D01*
X705432Y98510D01*
X705432Y91010D01*
X793932Y88510D02*
X798432Y88510D01*
X798673Y88499D01*
X798913Y88508D01*
X799152Y88539D01*
X799388Y88590D01*
X799618Y88662D01*
X799841Y88753D01*
X800055Y88864D01*
X800258Y88993D01*
X800450Y89139D01*
X800628Y89301D01*
X800791Y89478D01*
X800939Y89669D01*
X801069Y89871D01*
X801181Y90085D01*
X801274Y90307D01*
X801347Y90536D01*
X801400Y90771D01*
X801432Y91010D01*
X801432Y98510D01*
X801421Y98771D01*
X801386Y99031D01*
X801330Y99286D01*
X801251Y99536D01*
X801151Y99778D01*
X801030Y100010D01*
X800889Y100231D01*
X800730Y100438D01*
X800553Y100631D01*
X800360Y100808D01*
X800153Y100967D01*
X799932Y101108D01*
X799700Y101229D01*
X799458Y101329D01*
X799208Y101408D01*
X798953Y101464D01*
X798693Y101499D01*
X798432Y101510D01*
X798171Y101499D01*
X797911Y101464D01*
X797656Y101408D01*
X797406Y101329D01*
X797164Y101229D01*
X796932Y101108D01*
X796711Y100967D01*
X796504Y100808D01*
X796311Y100631D01*
X796134Y100438D01*
X795975Y100231D01*
X795834Y100010D01*
X795713Y99778D01*
X795613Y99536D01*
X795534Y99286D01*
X795478Y99031D01*
X795443Y98771D01*
X795432Y98510D01*
X795432Y93510D01*
X793932Y93510D01*
X793714Y93501D01*
X793498Y93472D01*
X793285Y93425D01*
X793077Y93359D01*
X792875Y93276D01*
X792682Y93175D01*
X792498Y93058D01*
X792325Y92925D01*
X792164Y92778D01*
X792017Y92617D01*
X791884Y92444D01*
X791767Y92260D01*
X791666Y92067D01*
X791583Y91865D01*
X791517Y91657D01*
X791470Y91444D01*
X791442Y91228D01*
X791432Y91010D01*
X791442Y90792D01*
X791470Y90576D01*
X791517Y90363D01*
X791583Y90155D01*
X791666Y89953D01*
X791767Y89760D01*
X791884Y89576D01*
X792017Y89403D01*
X792164Y89242D01*
X792325Y89095D01*
X792498Y88962D01*
X792682Y88845D01*
X792875Y88744D01*
X793077Y88661D01*
X793285Y88595D01*
X793498Y88548D01*
X793714Y88520D01*
X793932Y88510D01*
X719682Y79781D02*
X719622Y79326D01*
X719503Y78883D01*
X719328Y78459D01*
X719098Y78061D01*
X718819Y77697D01*
X718495Y77373D01*
X718131Y77094D01*
X717733Y76864D01*
X717309Y76689D01*
X716866Y76570D01*
X716411Y76510D01*
X715953Y76510D01*
X715498Y76570D01*
X715055Y76689D01*
X714631Y76864D01*
X714233Y77094D01*
X713869Y77373D01*
X713545Y77697D01*
X713266Y78061D01*
X713036Y78459D01*
X712861Y78883D01*
X712742Y79326D01*
X712682Y79781D01*
X712682Y80239D01*
X712742Y80694D01*
X712861Y81137D01*
X713036Y81561D01*
X713266Y81959D01*
X713545Y82323D01*
X713869Y82647D01*
X714233Y82926D01*
X714631Y83156D01*
X715055Y83331D01*
X715498Y83450D01*
X715953Y83510D01*
X716411Y83510D01*
X716866Y83450D01*
X717309Y83331D01*
X717733Y83156D01*
X718131Y82926D01*
X718495Y82647D01*
X718819Y82323D01*
X719098Y81959D01*
X719328Y81561D01*
X719503Y81137D01*
X719622Y80694D01*
X719682Y80239D01*
X719682Y79781D01*
X794182Y79781D02*
X794122Y79326D01*
X794003Y78883D01*
X793828Y78459D01*
X793598Y78061D01*
X793319Y77697D01*
X792995Y77373D01*
X792631Y77094D01*
X792233Y76864D01*
X791809Y76689D01*
X791366Y76570D01*
X790911Y76510D01*
X790453Y76510D01*
X789998Y76570D01*
X789555Y76689D01*
X789131Y76864D01*
X788733Y77094D01*
X788369Y77373D01*
X788045Y77697D01*
X787766Y78061D01*
X787536Y78459D01*
X787361Y78883D01*
X787242Y79326D01*
X787182Y79781D01*
X787182Y80239D01*
X787242Y80694D01*
X787361Y81137D01*
X787536Y81561D01*
X787766Y81959D01*
X788045Y82323D01*
X788369Y82647D01*
X788733Y82926D01*
X789131Y83156D01*
X789555Y83331D01*
X789998Y83450D01*
X790453Y83510D01*
X790911Y83510D01*
X791366Y83450D01*
X791809Y83331D01*
X792233Y83156D01*
X792631Y82926D01*
X792995Y82647D01*
X793319Y82323D01*
X793598Y81959D01*
X793828Y81561D01*
X794003Y81137D01*
X794122Y80694D01*
X794182Y80239D01*
X794182Y79781D01*
M02*
