G04 EAGLE Gerber RS-274X export*
G75*
%MOMM*%
%FSLAX34Y34*%
%LPD*%
%INSoldermask Top*%
%IPPOS*%
%AMOC8*
5,1,8,0,0,1.08239X$1,22.5*%
G01*
%ADD10R,1.403200X1.003200*%
%ADD11R,1.003200X1.403200*%
%ADD12R,1.303200X1.203200*%
%ADD13R,1.803200X2.003200*%
%ADD14R,2.003200X1.803200*%
%ADD15R,1.403200X2.203200*%
%ADD16R,1.016000X1.244600*%
%ADD17R,1.244600X1.016000*%
%ADD18R,1.203200X1.703200*%
%ADD19R,1.423200X1.113200*%
%ADD20C,6.553200*%
%ADD21C,1.981200*%
%ADD22R,1.203200X0.753200*%
%ADD23R,1.503200X1.463200*%
%ADD24R,1.443200X1.003200*%
%ADD25R,2.703200X1.153200*%
%ADD26R,2.403200X1.353200*%
%ADD27R,1.453200X1.363200*%
%ADD28R,1.403200X1.363200*%
%ADD29R,1.353200X1.703200*%
%ADD30R,5.203200X4.703200*%
%ADD31R,0.838200X0.457200*%
%ADD32R,1.905000X2.463800*%
%ADD33R,0.457200X0.838200*%
%ADD34R,2.463800X1.905000*%
%ADD35R,1.203200X1.303200*%
%ADD36C,0.306600*%
%ADD37R,4.953200X2.943200*%
%ADD38C,0.903200*%
%ADD39R,1.600200X0.482600*%
%ADD40R,2.133600X2.362200*%
%ADD41R,0.553200X1.093200*%
%ADD42C,0.803200*%
%ADD43C,1.203200*%
%ADD44C,1.103200*%
%ADD45C,0.903200*%
%ADD46R,0.753200X1.203200*%
%ADD47R,1.463200X1.503200*%
%ADD48R,2.184400X0.762000*%
%ADD49R,2.159000X3.200400*%
%ADD50R,1.193800X0.762000*%
%ADD51R,1.473200X1.498600*%
%ADD52R,0.990600X0.508000*%
%ADD53R,0.508000X0.990600*%
%ADD54R,2.641600X2.641600*%
%ADD55R,1.727200X0.914400*%
%ADD56R,0.762000X1.854200*%
%ADD57C,0.332672*%
%ADD58R,0.914400X1.651000*%
%ADD59R,0.762000X1.663700*%
%ADD60R,1.346200X1.295400*%
%ADD61C,0.353406*%
%ADD62C,2.003200*%
%ADD63C,0.660400*%
%ADD64C,0.728200*%
%ADD65C,0.698500*%
%ADD66C,0.698200*%
%ADD67C,0.736600*%
%ADD68C,0.653200*%
%ADD69C,0.713200*%
%ADD70C,0.622300*%


D10*
X399796Y524146D03*
X399796Y542146D03*
D11*
X550816Y157226D03*
X568816Y157226D03*
D10*
X317706Y173378D03*
X317706Y155378D03*
X435610Y525162D03*
X435610Y543162D03*
X542798Y484488D03*
X542798Y466488D03*
D11*
X288494Y507854D03*
X270494Y507854D03*
D10*
X381508Y477156D03*
X381508Y495156D03*
X334010Y268334D03*
X334010Y250334D03*
X533146Y278274D03*
X533146Y296274D03*
X303276Y268080D03*
X303276Y250080D03*
X468122Y525670D03*
X468122Y543670D03*
D11*
X515256Y524256D03*
X533256Y524256D03*
X398892Y284226D03*
X416892Y284226D03*
X405240Y451612D03*
X387240Y451612D03*
D10*
X319436Y355490D03*
X319436Y373490D03*
X278638Y340216D03*
X278638Y322216D03*
X212598Y321454D03*
X212598Y339454D03*
D11*
X153158Y791824D03*
X171158Y791824D03*
D12*
X774712Y495132D03*
X757712Y495132D03*
D13*
X225328Y537210D03*
X197328Y537210D03*
X210850Y493268D03*
X182850Y493268D03*
X214914Y440944D03*
X186914Y440944D03*
X187422Y371856D03*
X215422Y371856D03*
D14*
X724690Y219068D03*
X724690Y191068D03*
X763434Y219522D03*
X763434Y191522D03*
D13*
X729204Y258064D03*
X757204Y258064D03*
X692180Y258826D03*
X664180Y258826D03*
D10*
X436008Y168102D03*
X436008Y150102D03*
D15*
X607874Y195678D03*
X639874Y195678D03*
D10*
X517324Y151418D03*
X517324Y169418D03*
D11*
X382380Y252476D03*
X364380Y252476D03*
D10*
X608402Y242214D03*
X608402Y224214D03*
D16*
X76546Y810270D03*
X109566Y810270D03*
X105918Y507492D03*
X138938Y507492D03*
X833628Y154432D03*
X800608Y154432D03*
X840832Y449552D03*
X807812Y449552D03*
D17*
X808700Y816010D03*
X808700Y782990D03*
X846400Y816110D03*
X846400Y783090D03*
D18*
X718034Y516758D03*
X718034Y467758D03*
X686034Y516758D03*
X686034Y467758D03*
D19*
X344942Y381011D03*
X344942Y348261D03*
D20*
X50800Y50800D03*
X850900Y50800D03*
X825500Y908050D03*
X88900Y908050D03*
D21*
X774700Y908050D03*
X774700Y882650D03*
X139700Y908050D03*
X139700Y882650D03*
X749300Y908050D03*
X749300Y882650D03*
X723900Y908050D03*
X723900Y882650D03*
X698500Y908050D03*
X698500Y882650D03*
X673100Y908050D03*
X673100Y882650D03*
X647700Y908050D03*
X647700Y882650D03*
X622300Y908050D03*
X622300Y882650D03*
X596900Y908050D03*
X596900Y882650D03*
X571500Y908050D03*
X571500Y882650D03*
X546100Y908050D03*
X546100Y882650D03*
X520700Y908050D03*
X520700Y882650D03*
X495300Y908050D03*
X495300Y882650D03*
X469900Y908050D03*
X469900Y882650D03*
X444500Y908050D03*
X444500Y882650D03*
X419100Y908050D03*
X419100Y882650D03*
X393700Y908050D03*
X393700Y882650D03*
X368300Y908050D03*
X368300Y882650D03*
X342900Y908050D03*
X342900Y882650D03*
X317500Y908050D03*
X317500Y882650D03*
X292100Y908050D03*
X292100Y882650D03*
X266700Y908050D03*
X266700Y882650D03*
X241300Y908050D03*
X241300Y882650D03*
X215900Y908050D03*
X215900Y882650D03*
X190500Y908050D03*
X190500Y882650D03*
X165100Y908050D03*
X165100Y882650D03*
X774700Y857250D03*
X774700Y832231D03*
X139700Y857250D03*
X139700Y831850D03*
X749300Y857250D03*
X749300Y832231D03*
X723900Y857250D03*
X723900Y832231D03*
X698500Y857250D03*
X698500Y832231D03*
X673100Y857250D03*
X673100Y832231D03*
X647700Y857250D03*
X647700Y832231D03*
X622300Y857250D03*
X622300Y832231D03*
X596900Y857250D03*
X596900Y832231D03*
X571500Y857250D03*
X571500Y832231D03*
X546100Y857250D03*
X546100Y832231D03*
X520700Y857250D03*
X520700Y832231D03*
X495300Y857250D03*
X495300Y832231D03*
X469900Y857250D03*
X469900Y832231D03*
X444500Y857250D03*
X444500Y832231D03*
X419100Y857250D03*
X419100Y832231D03*
X393700Y857250D03*
X393700Y832231D03*
X368300Y857250D03*
X368300Y832231D03*
X342900Y857250D03*
X342900Y832231D03*
X317500Y857250D03*
X317500Y832231D03*
X292100Y857250D03*
X292100Y832231D03*
X266700Y857250D03*
X266700Y832231D03*
X241300Y857250D03*
X241300Y832231D03*
X215900Y857250D03*
X215900Y832231D03*
X190500Y857250D03*
X190500Y832231D03*
X165100Y857250D03*
X165100Y832231D03*
D22*
X107184Y755936D03*
X107184Y745936D03*
D23*
X77284Y779686D03*
X77284Y722136D03*
D22*
X109462Y457400D03*
X109462Y447400D03*
D23*
X79562Y481150D03*
X79562Y423600D03*
D24*
X762017Y387907D03*
X762017Y376907D03*
X762017Y365907D03*
X762017Y354907D03*
X762017Y343907D03*
X762017Y332907D03*
X762017Y321907D03*
X762017Y310907D03*
D25*
X755717Y431357D03*
D26*
X757217Y287457D03*
D27*
X735717Y291507D03*
D28*
X645717Y291507D03*
D26*
X642417Y430357D03*
D29*
X634467Y387307D03*
X634467Y309507D03*
D22*
X109414Y160204D03*
X109414Y150204D03*
D23*
X79514Y183954D03*
X79514Y126404D03*
D22*
X800100Y215900D03*
X800100Y225900D03*
D23*
X830000Y192150D03*
X830000Y249700D03*
D22*
X811700Y499900D03*
X811700Y509900D03*
D23*
X841600Y476150D03*
X841600Y533700D03*
D22*
X811700Y735200D03*
X811700Y745200D03*
D23*
X841600Y711450D03*
X841600Y769000D03*
D22*
X108200Y586732D03*
X108200Y576732D03*
X108200Y566732D03*
X108200Y556732D03*
D23*
X78300Y610482D03*
X78300Y532932D03*
D30*
X211808Y229682D03*
X211808Y124682D03*
D31*
X485648Y488950D03*
X485648Y482092D03*
X485648Y495300D03*
X485648Y475488D03*
X516128Y488696D03*
X516128Y482092D03*
X516128Y495300D03*
X516128Y475488D03*
D32*
X504698Y485394D03*
D33*
X545788Y437796D03*
X538930Y437796D03*
X552138Y437796D03*
X532326Y437796D03*
X545534Y407316D03*
X538930Y407316D03*
X552138Y407316D03*
X532326Y407316D03*
D34*
X542232Y418746D03*
D33*
X578152Y295102D03*
X571294Y295102D03*
X584502Y295102D03*
X564690Y295102D03*
X577898Y264622D03*
X571294Y264622D03*
X584502Y264622D03*
X564690Y264622D03*
D34*
X574596Y276052D03*
D31*
X470662Y308102D03*
X470662Y314960D03*
X470662Y301752D03*
X470662Y321564D03*
X440182Y308356D03*
X440182Y314960D03*
X440182Y301752D03*
X440182Y321564D03*
D32*
X451612Y311658D03*
D10*
X451104Y472584D03*
X451104Y490584D03*
X305054Y449216D03*
X305054Y467216D03*
D11*
X244492Y407416D03*
X262492Y407416D03*
X263034Y373126D03*
X281034Y373126D03*
D10*
X246888Y321962D03*
X246888Y339962D03*
X557298Y224472D03*
X557298Y242472D03*
D11*
X241444Y280670D03*
X259444Y280670D03*
D10*
X477266Y266302D03*
X477266Y248302D03*
D35*
X609958Y294592D03*
X609958Y277592D03*
D10*
X635376Y241860D03*
X635376Y223860D03*
X677234Y188552D03*
X677234Y206552D03*
D35*
X719884Y159902D03*
X719884Y142902D03*
X827278Y111370D03*
X827278Y94370D03*
D10*
X511158Y247452D03*
X511158Y229452D03*
X351282Y476902D03*
X351282Y494902D03*
X347946Y155608D03*
X347946Y173608D03*
D11*
X550308Y185928D03*
X568308Y185928D03*
D10*
X476342Y168180D03*
X476342Y150180D03*
X397540Y148502D03*
X397540Y166502D03*
D12*
X48971Y103547D03*
X31971Y103547D03*
D35*
X855218Y110862D03*
X855218Y93862D03*
X825500Y842400D03*
X825500Y859400D03*
X88646Y847226D03*
X88646Y864226D03*
D36*
X485217Y429233D02*
X485217Y415467D01*
X485217Y429233D02*
X488283Y429233D01*
X488283Y415467D01*
X485217Y415467D01*
X485217Y418380D02*
X488283Y418380D01*
X488283Y421293D02*
X485217Y421293D01*
X485217Y424206D02*
X488283Y424206D01*
X488283Y427119D02*
X485217Y427119D01*
X478717Y429233D02*
X478717Y415467D01*
X478717Y429233D02*
X481783Y429233D01*
X481783Y415467D01*
X478717Y415467D01*
X478717Y418380D02*
X481783Y418380D01*
X481783Y421293D02*
X478717Y421293D01*
X478717Y424206D02*
X481783Y424206D01*
X481783Y427119D02*
X478717Y427119D01*
X472217Y429233D02*
X472217Y415467D01*
X472217Y429233D02*
X475283Y429233D01*
X475283Y415467D01*
X472217Y415467D01*
X472217Y418380D02*
X475283Y418380D01*
X475283Y421293D02*
X472217Y421293D01*
X472217Y424206D02*
X475283Y424206D01*
X475283Y427119D02*
X472217Y427119D01*
X465717Y429233D02*
X465717Y415467D01*
X465717Y429233D02*
X468783Y429233D01*
X468783Y415467D01*
X465717Y415467D01*
X465717Y418380D02*
X468783Y418380D01*
X468783Y421293D02*
X465717Y421293D01*
X465717Y424206D02*
X468783Y424206D01*
X468783Y427119D02*
X465717Y427119D01*
X459217Y429233D02*
X459217Y415467D01*
X459217Y429233D02*
X462283Y429233D01*
X462283Y415467D01*
X459217Y415467D01*
X459217Y418380D02*
X462283Y418380D01*
X462283Y421293D02*
X459217Y421293D01*
X459217Y424206D02*
X462283Y424206D01*
X462283Y427119D02*
X459217Y427119D01*
X452717Y429233D02*
X452717Y415467D01*
X452717Y429233D02*
X455783Y429233D01*
X455783Y415467D01*
X452717Y415467D01*
X452717Y418380D02*
X455783Y418380D01*
X455783Y421293D02*
X452717Y421293D01*
X452717Y424206D02*
X455783Y424206D01*
X455783Y427119D02*
X452717Y427119D01*
X446217Y429233D02*
X446217Y415467D01*
X446217Y429233D02*
X449283Y429233D01*
X449283Y415467D01*
X446217Y415467D01*
X446217Y418380D02*
X449283Y418380D01*
X449283Y421293D02*
X446217Y421293D01*
X446217Y424206D02*
X449283Y424206D01*
X449283Y427119D02*
X446217Y427119D01*
X439717Y429233D02*
X439717Y415467D01*
X439717Y429233D02*
X442783Y429233D01*
X442783Y415467D01*
X439717Y415467D01*
X439717Y418380D02*
X442783Y418380D01*
X442783Y421293D02*
X439717Y421293D01*
X439717Y424206D02*
X442783Y424206D01*
X442783Y427119D02*
X439717Y427119D01*
X433217Y429233D02*
X433217Y415467D01*
X433217Y429233D02*
X436283Y429233D01*
X436283Y415467D01*
X433217Y415467D01*
X433217Y418380D02*
X436283Y418380D01*
X436283Y421293D02*
X433217Y421293D01*
X433217Y424206D02*
X436283Y424206D01*
X436283Y427119D02*
X433217Y427119D01*
X426717Y429233D02*
X426717Y415467D01*
X426717Y429233D02*
X429783Y429233D01*
X429783Y415467D01*
X426717Y415467D01*
X426717Y418380D02*
X429783Y418380D01*
X429783Y421293D02*
X426717Y421293D01*
X426717Y424206D02*
X429783Y424206D01*
X429783Y427119D02*
X426717Y427119D01*
X420217Y429233D02*
X420217Y415467D01*
X420217Y429233D02*
X423283Y429233D01*
X423283Y415467D01*
X420217Y415467D01*
X420217Y418380D02*
X423283Y418380D01*
X423283Y421293D02*
X420217Y421293D01*
X420217Y424206D02*
X423283Y424206D01*
X423283Y427119D02*
X420217Y427119D01*
X413717Y429233D02*
X413717Y415467D01*
X413717Y429233D02*
X416783Y429233D01*
X416783Y415467D01*
X413717Y415467D01*
X413717Y418380D02*
X416783Y418380D01*
X416783Y421293D02*
X413717Y421293D01*
X413717Y424206D02*
X416783Y424206D01*
X416783Y427119D02*
X413717Y427119D01*
X407217Y429233D02*
X407217Y415467D01*
X407217Y429233D02*
X410283Y429233D01*
X410283Y415467D01*
X407217Y415467D01*
X407217Y418380D02*
X410283Y418380D01*
X410283Y421293D02*
X407217Y421293D01*
X407217Y424206D02*
X410283Y424206D01*
X410283Y427119D02*
X407217Y427119D01*
X400717Y429233D02*
X400717Y415467D01*
X400717Y429233D02*
X403783Y429233D01*
X403783Y415467D01*
X400717Y415467D01*
X400717Y418380D02*
X403783Y418380D01*
X403783Y421293D02*
X400717Y421293D01*
X400717Y424206D02*
X403783Y424206D01*
X403783Y427119D02*
X400717Y427119D01*
X400717Y371933D02*
X400717Y358167D01*
X400717Y371933D02*
X403783Y371933D01*
X403783Y358167D01*
X400717Y358167D01*
X400717Y361080D02*
X403783Y361080D01*
X403783Y363993D02*
X400717Y363993D01*
X400717Y366906D02*
X403783Y366906D01*
X403783Y369819D02*
X400717Y369819D01*
X407217Y371933D02*
X407217Y358167D01*
X407217Y371933D02*
X410283Y371933D01*
X410283Y358167D01*
X407217Y358167D01*
X407217Y361080D02*
X410283Y361080D01*
X410283Y363993D02*
X407217Y363993D01*
X407217Y366906D02*
X410283Y366906D01*
X410283Y369819D02*
X407217Y369819D01*
X413717Y371933D02*
X413717Y358167D01*
X413717Y371933D02*
X416783Y371933D01*
X416783Y358167D01*
X413717Y358167D01*
X413717Y361080D02*
X416783Y361080D01*
X416783Y363993D02*
X413717Y363993D01*
X413717Y366906D02*
X416783Y366906D01*
X416783Y369819D02*
X413717Y369819D01*
X420217Y371933D02*
X420217Y358167D01*
X420217Y371933D02*
X423283Y371933D01*
X423283Y358167D01*
X420217Y358167D01*
X420217Y361080D02*
X423283Y361080D01*
X423283Y363993D02*
X420217Y363993D01*
X420217Y366906D02*
X423283Y366906D01*
X423283Y369819D02*
X420217Y369819D01*
X426717Y371933D02*
X426717Y358167D01*
X426717Y371933D02*
X429783Y371933D01*
X429783Y358167D01*
X426717Y358167D01*
X426717Y361080D02*
X429783Y361080D01*
X429783Y363993D02*
X426717Y363993D01*
X426717Y366906D02*
X429783Y366906D01*
X429783Y369819D02*
X426717Y369819D01*
X433217Y371933D02*
X433217Y358167D01*
X433217Y371933D02*
X436283Y371933D01*
X436283Y358167D01*
X433217Y358167D01*
X433217Y361080D02*
X436283Y361080D01*
X436283Y363993D02*
X433217Y363993D01*
X433217Y366906D02*
X436283Y366906D01*
X436283Y369819D02*
X433217Y369819D01*
X439717Y371933D02*
X439717Y358167D01*
X439717Y371933D02*
X442783Y371933D01*
X442783Y358167D01*
X439717Y358167D01*
X439717Y361080D02*
X442783Y361080D01*
X442783Y363993D02*
X439717Y363993D01*
X439717Y366906D02*
X442783Y366906D01*
X442783Y369819D02*
X439717Y369819D01*
X446217Y371933D02*
X446217Y358167D01*
X446217Y371933D02*
X449283Y371933D01*
X449283Y358167D01*
X446217Y358167D01*
X446217Y361080D02*
X449283Y361080D01*
X449283Y363993D02*
X446217Y363993D01*
X446217Y366906D02*
X449283Y366906D01*
X449283Y369819D02*
X446217Y369819D01*
X452717Y371933D02*
X452717Y358167D01*
X452717Y371933D02*
X455783Y371933D01*
X455783Y358167D01*
X452717Y358167D01*
X452717Y361080D02*
X455783Y361080D01*
X455783Y363993D02*
X452717Y363993D01*
X452717Y366906D02*
X455783Y366906D01*
X455783Y369819D02*
X452717Y369819D01*
X459217Y371933D02*
X459217Y358167D01*
X459217Y371933D02*
X462283Y371933D01*
X462283Y358167D01*
X459217Y358167D01*
X459217Y361080D02*
X462283Y361080D01*
X462283Y363993D02*
X459217Y363993D01*
X459217Y366906D02*
X462283Y366906D01*
X462283Y369819D02*
X459217Y369819D01*
X465717Y371933D02*
X465717Y358167D01*
X465717Y371933D02*
X468783Y371933D01*
X468783Y358167D01*
X465717Y358167D01*
X465717Y361080D02*
X468783Y361080D01*
X468783Y363993D02*
X465717Y363993D01*
X465717Y366906D02*
X468783Y366906D01*
X468783Y369819D02*
X465717Y369819D01*
X472217Y371933D02*
X472217Y358167D01*
X472217Y371933D02*
X475283Y371933D01*
X475283Y358167D01*
X472217Y358167D01*
X472217Y361080D02*
X475283Y361080D01*
X475283Y363993D02*
X472217Y363993D01*
X472217Y366906D02*
X475283Y366906D01*
X475283Y369819D02*
X472217Y369819D01*
X478717Y371933D02*
X478717Y358167D01*
X478717Y371933D02*
X481783Y371933D01*
X481783Y358167D01*
X478717Y358167D01*
X478717Y361080D02*
X481783Y361080D01*
X481783Y363993D02*
X478717Y363993D01*
X478717Y366906D02*
X481783Y366906D01*
X481783Y369819D02*
X478717Y369819D01*
X485217Y371933D02*
X485217Y358167D01*
X485217Y371933D02*
X488283Y371933D01*
X488283Y358167D01*
X485217Y358167D01*
X485217Y361080D02*
X488283Y361080D01*
X488283Y363993D02*
X485217Y363993D01*
X485217Y366906D02*
X488283Y366906D01*
X488283Y369819D02*
X485217Y369819D01*
D37*
X444500Y393700D03*
D38*
X181604Y749808D02*
X163604Y749808D01*
X163604Y737108D02*
X181604Y737108D01*
X181604Y724408D02*
X163604Y724408D01*
X163604Y711708D02*
X181604Y711708D01*
X212604Y749808D02*
X230604Y749808D01*
X230604Y737108D02*
X212604Y737108D01*
X212604Y724408D02*
X230604Y724408D01*
X230604Y711708D02*
X212604Y711708D01*
D39*
X371856Y213208D03*
X371856Y208204D03*
X371856Y203200D03*
X371856Y198196D03*
X371856Y193192D03*
X415544Y193192D03*
X415544Y198196D03*
X415544Y203200D03*
X415544Y208204D03*
X415544Y213208D03*
D40*
X393700Y203200D03*
D41*
X725932Y99060D03*
X730932Y99060D03*
X735932Y99060D03*
X740932Y99060D03*
X745932Y99060D03*
X750932Y99060D03*
X755932Y99060D03*
X760932Y99060D03*
X765932Y99060D03*
X770932Y99060D03*
X775932Y99060D03*
X780932Y99060D03*
D42*
X749432Y87010D03*
X741432Y87010D03*
X722932Y87010D03*
X757432Y87010D03*
X765432Y87010D03*
X783932Y87010D03*
X745432Y80010D03*
X737432Y80010D03*
X729432Y80010D03*
X761432Y80010D03*
X769432Y80010D03*
X777432Y80010D03*
D43*
X798432Y91510D02*
X798432Y101510D01*
D44*
X793932Y91010D03*
D43*
X708432Y91510D02*
X708432Y101510D01*
D44*
X712932Y91010D03*
D45*
X716182Y80010D03*
X790682Y80010D03*
D43*
X798432Y44010D02*
X798432Y34010D01*
X708432Y34010D02*
X708432Y44010D01*
D46*
X163216Y76630D03*
X173216Y76630D03*
X183216Y76630D03*
X193216Y76630D03*
D47*
X139466Y46730D03*
X217016Y46730D03*
D48*
X674214Y802538D03*
X674214Y789838D03*
X674214Y777138D03*
X674214Y764438D03*
X723490Y764438D03*
X723490Y777138D03*
X723490Y789838D03*
X723490Y802538D03*
D12*
X636366Y747970D03*
X653366Y747970D03*
X654440Y714582D03*
X637440Y714582D03*
D49*
X422204Y85344D03*
X365704Y85344D03*
D22*
X109176Y247930D03*
X109176Y237930D03*
D23*
X79276Y271680D03*
X79276Y214130D03*
D22*
X107538Y679670D03*
X107538Y669670D03*
D23*
X77638Y703420D03*
X77638Y645870D03*
D46*
X276208Y76800D03*
X286208Y76800D03*
D47*
X252458Y46900D03*
X310008Y46900D03*
D22*
X813254Y655537D03*
X813254Y665537D03*
D23*
X843154Y631787D03*
X843154Y689337D03*
D46*
X516128Y98548D03*
X526128Y98548D03*
X536128Y98548D03*
X546128Y98548D03*
D47*
X492378Y68648D03*
X569928Y68648D03*
D11*
X277932Y480242D03*
X259932Y480242D03*
D50*
X112716Y375144D03*
X112716Y365144D03*
X112716Y355144D03*
X112716Y345144D03*
X112716Y335144D03*
X112716Y325144D03*
D51*
X82816Y301394D03*
X82816Y398894D03*
D11*
X195286Y674624D03*
X213286Y674624D03*
D38*
X198368Y626612D02*
X180368Y626612D01*
X180368Y613912D02*
X198368Y613912D01*
X198368Y601212D02*
X180368Y601212D01*
X180368Y588512D02*
X198368Y588512D01*
X229368Y626612D02*
X247368Y626612D01*
X247368Y613912D02*
X229368Y613912D01*
X229368Y601212D02*
X247368Y601212D01*
X247368Y588512D02*
X229368Y588512D01*
D10*
X589400Y480700D03*
X589400Y462700D03*
X624300Y462800D03*
X624300Y480800D03*
X658400Y462200D03*
X658400Y480200D03*
D52*
X349042Y683906D03*
X349042Y679080D03*
X349042Y674000D03*
X349042Y668920D03*
X349042Y664094D03*
D53*
X358694Y654442D03*
X363520Y654442D03*
X368600Y654442D03*
X373680Y654442D03*
X378506Y654442D03*
D52*
X388158Y664094D03*
X388158Y668920D03*
X388158Y674000D03*
X388158Y679080D03*
X388158Y683906D03*
D53*
X378506Y693558D03*
X373680Y693558D03*
X368600Y693558D03*
X363520Y693558D03*
X358694Y693558D03*
D54*
X368600Y674000D03*
D10*
X368300Y572100D03*
X368300Y590100D03*
D11*
X401900Y579100D03*
X419900Y579100D03*
D55*
X368000Y611100D03*
X368000Y630150D03*
D56*
X341750Y606389D03*
X329050Y606389D03*
X316350Y606389D03*
X303650Y606389D03*
X303650Y553811D03*
X316350Y553811D03*
X329050Y553811D03*
X341750Y553811D03*
D11*
X483100Y624500D03*
X501100Y624500D03*
D10*
X507700Y577600D03*
X507700Y595600D03*
X311100Y657500D03*
X311100Y675500D03*
X278200Y675200D03*
X278200Y657200D03*
D11*
X300100Y631700D03*
X282100Y631700D03*
G36*
X647508Y655203D02*
X647491Y645172D01*
X633460Y645197D01*
X633477Y655228D01*
X647508Y655203D01*
G37*
G36*
X647540Y673203D02*
X647523Y663172D01*
X633492Y663197D01*
X633509Y673228D01*
X647540Y673203D01*
G37*
X343500Y759800D03*
X361500Y759800D03*
D57*
X392853Y733903D02*
X392853Y724897D01*
X388947Y724897D01*
X388947Y733903D01*
X392853Y733903D01*
X392853Y728058D02*
X388947Y728058D01*
X388947Y731219D02*
X392853Y731219D01*
X392853Y747897D02*
X392853Y756903D01*
X392853Y747897D02*
X388947Y747897D01*
X388947Y756903D01*
X392853Y756903D01*
X392853Y751058D02*
X388947Y751058D01*
X388947Y754219D02*
X392853Y754219D01*
D11*
X361700Y732800D03*
X343700Y732800D03*
D58*
X459649Y785500D03*
X437551Y785500D03*
D10*
X458000Y740000D03*
X458000Y758000D03*
X493500Y668000D03*
X493500Y650000D03*
D11*
X462300Y706600D03*
X444300Y706600D03*
D10*
X431800Y667900D03*
X431800Y649900D03*
X464800Y650000D03*
X464800Y668000D03*
X476900Y587500D03*
X476900Y569500D03*
X536000Y626200D03*
X536000Y644200D03*
D59*
X271750Y710259D03*
X284450Y710259D03*
X297150Y710259D03*
X309850Y710259D03*
X309850Y764742D03*
X297150Y764742D03*
X284450Y764742D03*
X271750Y764742D03*
D60*
X284433Y797400D03*
X315167Y797400D03*
X578833Y639900D03*
X609567Y639900D03*
D35*
X448300Y575400D03*
X448300Y592400D03*
D11*
X401200Y786100D03*
X383200Y786100D03*
D10*
X420400Y730200D03*
X420400Y748200D03*
D11*
X667100Y684300D03*
X685100Y684300D03*
D61*
X712501Y675401D02*
X730699Y675401D01*
X712501Y675401D02*
X712501Y679899D01*
X730699Y679899D01*
X730699Y675401D01*
X730699Y678758D02*
X712501Y678758D01*
X712501Y662701D02*
X730699Y662701D01*
X712501Y662701D02*
X712501Y667199D01*
X730699Y667199D01*
X730699Y662701D01*
X730699Y666058D02*
X712501Y666058D01*
X712501Y650001D02*
X730699Y650001D01*
X712501Y650001D02*
X712501Y654499D01*
X730699Y654499D01*
X730699Y650001D01*
X730699Y653358D02*
X712501Y653358D01*
X712501Y637301D02*
X730699Y637301D01*
X712501Y637301D02*
X712501Y641799D01*
X730699Y641799D01*
X730699Y637301D01*
X730699Y640658D02*
X712501Y640658D01*
X761901Y637301D02*
X780099Y637301D01*
X761901Y637301D02*
X761901Y641799D01*
X780099Y641799D01*
X780099Y637301D01*
X780099Y640658D02*
X761901Y640658D01*
X761901Y650001D02*
X780099Y650001D01*
X761901Y650001D02*
X761901Y654499D01*
X780099Y654499D01*
X780099Y650001D01*
X780099Y653358D02*
X761901Y653358D01*
X761901Y662701D02*
X780099Y662701D01*
X761901Y662701D02*
X761901Y667199D01*
X780099Y667199D01*
X780099Y662701D01*
X780099Y666058D02*
X761901Y666058D01*
X761901Y675401D02*
X780099Y675401D01*
X761901Y675401D02*
X761901Y679899D01*
X780099Y679899D01*
X780099Y675401D01*
X780099Y678758D02*
X761901Y678758D01*
D11*
X667300Y649300D03*
X685300Y649300D03*
X679800Y578800D03*
X697800Y578800D03*
D61*
X718501Y604601D02*
X736699Y604601D01*
X718501Y604601D02*
X718501Y609099D01*
X736699Y609099D01*
X736699Y604601D01*
X736699Y607958D02*
X718501Y607958D01*
X718501Y591901D02*
X736699Y591901D01*
X718501Y591901D02*
X718501Y596399D01*
X736699Y596399D01*
X736699Y591901D01*
X736699Y595258D02*
X718501Y595258D01*
X718501Y579201D02*
X736699Y579201D01*
X718501Y579201D02*
X718501Y583699D01*
X736699Y583699D01*
X736699Y579201D01*
X736699Y582558D02*
X718501Y582558D01*
X718501Y566501D02*
X736699Y566501D01*
X718501Y566501D02*
X718501Y570999D01*
X736699Y570999D01*
X736699Y566501D01*
X736699Y569858D02*
X718501Y569858D01*
X767901Y566501D02*
X786099Y566501D01*
X767901Y566501D02*
X767901Y570999D01*
X786099Y570999D01*
X786099Y566501D01*
X786099Y569858D02*
X767901Y569858D01*
X767901Y579201D02*
X786099Y579201D01*
X767901Y579201D02*
X767901Y583699D01*
X786099Y583699D01*
X786099Y579201D01*
X786099Y582558D02*
X767901Y582558D01*
X767901Y591901D02*
X786099Y591901D01*
X767901Y591901D02*
X767901Y596399D01*
X786099Y596399D01*
X786099Y591901D01*
X786099Y595258D02*
X767901Y595258D01*
X767901Y604601D02*
X786099Y604601D01*
X767901Y604601D02*
X767901Y609099D01*
X786099Y609099D01*
X786099Y604601D01*
X786099Y607958D02*
X767901Y607958D01*
D11*
X680600Y542500D03*
X698600Y542500D03*
D61*
X618699Y521399D02*
X618699Y503201D01*
X614201Y503201D01*
X614201Y521399D01*
X618699Y521399D01*
X618699Y506558D02*
X614201Y506558D01*
X614201Y509915D02*
X618699Y509915D01*
X618699Y513272D02*
X614201Y513272D01*
X614201Y516629D02*
X618699Y516629D01*
X618699Y519986D02*
X614201Y519986D01*
X631399Y521399D02*
X631399Y503201D01*
X626901Y503201D01*
X626901Y521399D01*
X631399Y521399D01*
X631399Y506558D02*
X626901Y506558D01*
X626901Y509915D02*
X631399Y509915D01*
X631399Y513272D02*
X626901Y513272D01*
X626901Y516629D02*
X631399Y516629D01*
X631399Y519986D02*
X626901Y519986D01*
X644099Y521399D02*
X644099Y503201D01*
X639601Y503201D01*
X639601Y521399D01*
X644099Y521399D01*
X644099Y506558D02*
X639601Y506558D01*
X639601Y509915D02*
X644099Y509915D01*
X644099Y513272D02*
X639601Y513272D01*
X639601Y516629D02*
X644099Y516629D01*
X644099Y519986D02*
X639601Y519986D01*
X656799Y521399D02*
X656799Y503201D01*
X652301Y503201D01*
X652301Y521399D01*
X656799Y521399D01*
X656799Y506558D02*
X652301Y506558D01*
X652301Y509915D02*
X656799Y509915D01*
X656799Y513272D02*
X652301Y513272D01*
X652301Y516629D02*
X656799Y516629D01*
X656799Y519986D02*
X652301Y519986D01*
X656799Y552601D02*
X656799Y570799D01*
X656799Y552601D02*
X652301Y552601D01*
X652301Y570799D01*
X656799Y570799D01*
X656799Y555958D02*
X652301Y555958D01*
X652301Y559315D02*
X656799Y559315D01*
X656799Y562672D02*
X652301Y562672D01*
X652301Y566029D02*
X656799Y566029D01*
X656799Y569386D02*
X652301Y569386D01*
X644099Y570799D02*
X644099Y552601D01*
X639601Y552601D01*
X639601Y570799D01*
X644099Y570799D01*
X644099Y555958D02*
X639601Y555958D01*
X639601Y559315D02*
X644099Y559315D01*
X644099Y562672D02*
X639601Y562672D01*
X639601Y566029D02*
X644099Y566029D01*
X644099Y569386D02*
X639601Y569386D01*
X631399Y570799D02*
X631399Y552601D01*
X626901Y552601D01*
X626901Y570799D01*
X631399Y570799D01*
X631399Y555958D02*
X626901Y555958D01*
X626901Y559315D02*
X631399Y559315D01*
X631399Y562672D02*
X626901Y562672D01*
X626901Y566029D02*
X631399Y566029D01*
X631399Y569386D02*
X626901Y569386D01*
X618699Y570799D02*
X618699Y552601D01*
X614201Y552601D01*
X614201Y570799D01*
X618699Y570799D01*
X618699Y555958D02*
X614201Y555958D01*
X614201Y559315D02*
X618699Y559315D01*
X618699Y562672D02*
X614201Y562672D01*
X614201Y566029D02*
X618699Y566029D01*
X618699Y569386D02*
X614201Y569386D01*
D11*
X695300Y611000D03*
X677300Y611000D03*
D10*
X582100Y559000D03*
X582100Y577000D03*
X635600Y610000D03*
X635600Y592000D03*
X548900Y558500D03*
X548900Y576500D03*
X608200Y592300D03*
X608200Y610300D03*
X752000Y723700D03*
X752000Y741700D03*
X686200Y724000D03*
X686200Y742000D03*
X719800Y740800D03*
X719800Y722800D03*
X851400Y603800D03*
X851400Y585800D03*
D11*
X756300Y528900D03*
X774300Y528900D03*
D10*
X815600Y605200D03*
X815600Y587200D03*
D11*
X831400Y563400D03*
X849400Y563400D03*
D62*
X625500Y135000D03*
X650900Y135000D03*
D63*
X863600Y800100D03*
X860044Y518413D03*
X596900Y213400D03*
D64*
X500300Y330200D03*
X496300Y241100D03*
X334300Y176300D03*
D63*
X456438Y226822D03*
X422800Y136900D03*
X449644Y615130D03*
X171573Y566847D03*
X206950Y662460D03*
D65*
X243840Y518922D03*
D66*
X231140Y469646D03*
X197612Y469900D03*
D63*
X330200Y800100D03*
X386118Y615114D03*
X609600Y304800D03*
X405892Y396748D03*
X372782Y542914D03*
X145528Y639644D03*
X203200Y800100D03*
D67*
X273812Y161036D03*
D63*
X533146Y260096D03*
X395732Y255778D03*
X749300Y800100D03*
D67*
X354792Y533128D03*
X163068Y425704D03*
X330454Y454660D03*
D64*
X341600Y637100D03*
X322900Y699300D03*
D63*
X571500Y355600D03*
X370600Y275862D03*
D67*
X571500Y444500D03*
D63*
X165100Y406400D03*
X152975Y587020D03*
X621300Y260900D03*
X457200Y177800D03*
D65*
X281940Y167894D03*
D68*
X136592Y229460D03*
X167132Y248158D03*
D65*
X345948Y205994D03*
D63*
X245596Y705286D03*
D69*
X791464Y363728D03*
X769844Y457234D03*
D64*
X761600Y627000D03*
X750000Y813000D03*
X744300Y473600D03*
X733360Y757368D03*
D67*
X676490Y232834D03*
X323342Y75184D03*
X704500Y179600D03*
D65*
X142155Y718060D03*
D64*
X622814Y662562D03*
X599600Y573300D03*
X482100Y769600D03*
X317600Y776500D03*
X266900Y624000D03*
X164300Y635900D03*
D67*
X134568Y689454D03*
D63*
X436626Y614680D03*
X635000Y812800D03*
D64*
X518200Y650200D03*
D63*
X635678Y780626D03*
X472174Y613806D03*
X453136Y347980D03*
X448310Y627888D03*
X784098Y793496D03*
D70*
X520446Y447548D03*
X558292Y471932D03*
D63*
X396494Y437642D03*
X69088Y280416D03*
X619736Y390906D03*
X139192Y645414D03*
X170408Y639376D03*
D69*
X778428Y334198D03*
D68*
X797700Y574600D03*
D64*
X327000Y632600D03*
X377800Y373400D03*
X803600Y240900D03*
X394300Y558300D03*
X396100Y505200D03*
X262200Y590400D03*
X560600Y653000D03*
X745100Y629300D03*
D68*
X415100Y715200D03*
D64*
X791500Y663900D03*
X579200Y326700D03*
X209100Y703000D03*
D63*
X164560Y557072D03*
X355600Y800100D03*
X477098Y720004D03*
X319024Y494430D03*
D64*
X731400Y113500D03*
D63*
X319116Y484570D03*
D64*
X775900Y113400D03*
X790800Y533000D03*
X157100Y461100D03*
X121200Y193146D03*
X623900Y673400D03*
X712700Y535600D03*
X812900Y428400D03*
D67*
X114714Y797046D03*
D64*
X766900Y711500D03*
D63*
X142494Y361442D03*
X314706Y392938D03*
D65*
X486664Y547370D03*
D63*
X142240Y349250D03*
D65*
X304038Y375243D03*
X496824Y562610D03*
D63*
X775500Y705100D03*
X761200Y131000D03*
D65*
X366522Y513842D03*
D64*
X838600Y700500D03*
D63*
X812800Y754000D03*
X736600Y165100D03*
D65*
X376174Y532384D03*
D63*
X594360Y410464D03*
D65*
X449834Y513334D03*
D69*
X772160Y409702D03*
X591820Y327152D03*
D63*
X575418Y392254D03*
D65*
X405130Y332994D03*
D69*
X790194Y377698D03*
D65*
X402844Y342646D03*
D69*
X792018Y349244D03*
X508174Y348234D03*
X664210Y336042D03*
D65*
X402844Y351282D03*
D69*
X793464Y334172D03*
D63*
X355200Y129282D03*
X309118Y101600D03*
X235705Y693575D03*
D65*
X356616Y456438D03*
D64*
X205800Y782800D03*
D63*
X406430Y666116D03*
X343716Y532848D03*
D65*
X334010Y472440D03*
X328930Y531876D03*
X323342Y464820D03*
D63*
X404718Y560116D03*
X496970Y762514D03*
X431800Y215900D03*
X343053Y439986D03*
X309900Y300800D03*
D65*
X288290Y417068D03*
X289306Y446024D03*
D63*
X368046Y454406D03*
X377952Y391414D03*
X419100Y508000D03*
X366696Y358390D03*
D65*
X245118Y249954D03*
X475742Y231648D03*
X321310Y319532D03*
D63*
X545338Y255016D03*
X279400Y127000D03*
X403606Y269748D03*
X385826Y348996D03*
X584200Y431800D03*
D65*
X549582Y545218D03*
D63*
X819150Y290830D03*
D65*
X395494Y344686D03*
X461774Y279842D03*
D69*
X803910Y324104D03*
X664368Y323606D03*
D64*
X506730Y563372D03*
X248666Y550468D03*
D63*
X575564Y477520D03*
X739140Y487680D03*
D65*
X773176Y478536D03*
X802894Y311912D03*
X748792Y237998D03*
X742946Y184638D03*
X63500Y813562D03*
X73406Y497840D03*
X114300Y63500D03*
D67*
X837184Y139700D03*
X847598Y826008D03*
D64*
X69596Y200152D03*
D65*
X98044Y93472D03*
X153670Y470662D03*
D68*
X635254Y771398D03*
D65*
X139954Y246380D03*
X142494Y661670D03*
X235084Y32942D03*
D68*
X648718Y793750D03*
D64*
X789900Y676500D03*
D65*
X336296Y515112D03*
X461518Y511556D03*
X579162Y501594D03*
D64*
X667400Y500000D03*
D66*
X276666Y553866D03*
X416280Y705690D03*
D64*
X393300Y689500D03*
X264160Y634746D03*
D66*
X345440Y457200D03*
X181102Y571754D03*
D64*
X641858Y532130D03*
X602234Y536194D03*
D66*
X419100Y558292D03*
D64*
X384700Y625000D03*
X366800Y505100D03*
X331100Y690800D03*
X332900Y778200D03*
X244200Y688400D03*
X344300Y706900D03*
X318400Y688600D03*
X408300Y713100D03*
X351700Y641900D03*
X505100Y357400D03*
X527400Y609300D03*
X733000Y693700D03*
X710100Y567500D03*
X796900Y602400D03*
X667400Y534600D03*
X752800Y624800D03*
X788200Y646600D03*
X707500Y631200D03*
X797800Y585700D03*
X737500Y555600D03*
X669700Y740200D03*
X126100Y802700D03*
X184100Y793300D03*
X706500Y741400D03*
X742700Y512700D03*
X164400Y546600D03*
X386000Y541500D03*
X201700Y556600D03*
X134300Y218800D03*
X654100Y645400D03*
X693200Y562700D03*
X803500Y428600D03*
X84200Y584600D03*
X585800Y616300D03*
X154200Y600300D03*
M02*
