G04 EAGLE Gerber RS-274X export*
G75*
%MOMM*%
%FSLAX34Y34*%
%LPD*%
%INSolderpaste Top*%
%IPPOS*%
%AMOC8*
5,1,8,0,0,1.08239X$1,22.5*%
G01*
%ADD10R,1.200000X0.800000*%
%ADD11R,0.990600X0.558800*%
%ADD12R,1.270000X1.295400*%
%ADD13R,1.020000X1.524000*%
%ADD14R,1.000000X0.550000*%
%ADD15R,1.300000X1.260000*%


D10*
X83890Y858040D03*
X83890Y840040D03*
D11*
X806224Y254200D03*
X806224Y264200D03*
X806224Y274200D03*
X806224Y284200D03*
X806224Y294200D03*
X806224Y304200D03*
D12*
X836124Y327950D03*
X836124Y230450D03*
D13*
X191600Y358140D03*
X217000Y358140D03*
X242400Y358140D03*
X267800Y358140D03*
X293200Y358140D03*
X318600Y358140D03*
X344000Y358140D03*
X369400Y358140D03*
X394800Y358140D03*
X420200Y358140D03*
X445600Y358140D03*
X471000Y358140D03*
X496400Y358140D03*
X521800Y358140D03*
X547200Y358140D03*
X572600Y358140D03*
X598000Y358140D03*
X623400Y358140D03*
X648800Y358140D03*
X674200Y358140D03*
X191600Y291060D03*
X217000Y291060D03*
X242400Y291060D03*
X267800Y291060D03*
X293200Y291060D03*
X318600Y291060D03*
X344000Y291060D03*
X369400Y291060D03*
X394800Y291060D03*
X420200Y291060D03*
X445600Y291060D03*
X471000Y291060D03*
X496400Y291060D03*
X521800Y291060D03*
X547200Y291060D03*
X572600Y291060D03*
X598000Y291060D03*
X623400Y291060D03*
X648800Y291060D03*
X674200Y291060D03*
D14*
X115200Y436400D03*
X115200Y426400D03*
X115200Y416400D03*
X115200Y406400D03*
X115200Y396400D03*
D15*
X85300Y460150D03*
X85300Y372600D03*
D14*
X808700Y611700D03*
X808700Y621700D03*
D15*
X838600Y587950D03*
X838600Y645500D03*
D14*
X115600Y570000D03*
X115600Y560000D03*
D15*
X85700Y593750D03*
X85700Y536200D03*
D11*
X803624Y452100D03*
X803624Y462100D03*
X803624Y472100D03*
X803624Y482100D03*
X803624Y492100D03*
X803624Y502100D03*
D12*
X833524Y525850D03*
X833524Y428350D03*
M02*
