G04 EAGLE Gerber RS-274X export*
G75*
%MOMM*%
%FSLAX34Y34*%
%LPD*%
%INSoldermask Bottom*%
%IPPOS*%
%AMOC8*
5,1,8,0,0,1.08239X$1,22.5*%
G01*
%ADD10C,6.553200*%
%ADD11C,1.981200*%
%ADD12C,0.903200*%
%ADD13R,1.403200X1.003200*%
%ADD14R,0.903200X0.563200*%
%ADD15R,0.563200X0.903200*%
%ADD16C,0.803200*%
%ADD17R,1.003200X1.003200*%
%ADD18R,2.463800X1.244600*%
%ADD19R,1.295400X1.244600*%
%ADD20R,1.879600X0.711200*%
%ADD21R,1.003200X1.403200*%
%ADD22R,4.703200X1.403200*%
%ADD23C,3.759200*%
%ADD24C,1.727200*%
%ADD25R,1.403200X1.673200*%
%ADD26R,1.711200X1.711200*%
%ADD27C,1.879600*%
%ADD28P,1.852186X8X112.500000*%
%ADD29C,1.711200*%
%ADD30C,1.311200*%
%ADD31R,1.203200X0.753200*%
%ADD32R,1.503200X1.463200*%
%ADD33P,2.249423X8X22.500000*%
%ADD34C,0.959600*%
%ADD35C,3.719200*%
%ADD36C,6.203200*%


D10*
X50800Y50800D03*
X850900Y50800D03*
X825500Y908050D03*
X88900Y908050D03*
D11*
X774700Y908050D03*
X774700Y882650D03*
X139700Y908050D03*
X139700Y882650D03*
X749300Y908050D03*
X749300Y882650D03*
X723900Y908050D03*
X723900Y882650D03*
X698500Y908050D03*
X698500Y882650D03*
X673100Y908050D03*
X673100Y882650D03*
X647700Y908050D03*
X647700Y882650D03*
X622300Y908050D03*
X622300Y882650D03*
X596900Y908050D03*
X596900Y882650D03*
X571500Y908050D03*
X571500Y882650D03*
X546100Y908050D03*
X546100Y882650D03*
X520700Y908050D03*
X520700Y882650D03*
X495300Y908050D03*
X495300Y882650D03*
X469900Y908050D03*
X469900Y882650D03*
X444500Y908050D03*
X444500Y882650D03*
X419100Y908050D03*
X419100Y882650D03*
X393700Y908050D03*
X393700Y882650D03*
X368300Y908050D03*
X368300Y882650D03*
X342900Y908050D03*
X342900Y882650D03*
X317500Y908050D03*
X317500Y882650D03*
X292100Y908050D03*
X292100Y882650D03*
X266700Y908050D03*
X266700Y882650D03*
X241300Y908050D03*
X241300Y882650D03*
X215900Y908050D03*
X215900Y882650D03*
X190500Y908050D03*
X190500Y882650D03*
X165100Y908050D03*
X165100Y882650D03*
X774700Y857250D03*
X774700Y832231D03*
X139700Y857250D03*
X139700Y831850D03*
X749300Y857250D03*
X749300Y832231D03*
X723900Y857250D03*
X723900Y832231D03*
X698500Y857250D03*
X698500Y832231D03*
X673100Y857250D03*
X673100Y832231D03*
X647700Y857250D03*
X647700Y832231D03*
X622300Y857250D03*
X622300Y832231D03*
X596900Y857250D03*
X596900Y832231D03*
X571500Y857250D03*
X571500Y832231D03*
X546100Y857250D03*
X546100Y832231D03*
X520700Y857250D03*
X520700Y832231D03*
X495300Y857250D03*
X495300Y832231D03*
X469900Y857250D03*
X469900Y832231D03*
X444500Y857250D03*
X444500Y832231D03*
X419100Y857250D03*
X419100Y832231D03*
X393700Y857250D03*
X393700Y832231D03*
X368300Y857250D03*
X368300Y832231D03*
X342900Y857250D03*
X342900Y832231D03*
X317500Y857250D03*
X317500Y832231D03*
X292100Y857250D03*
X292100Y832231D03*
X266700Y857250D03*
X266700Y832231D03*
X241300Y857250D03*
X241300Y832231D03*
X215900Y857250D03*
X215900Y832231D03*
X190500Y857250D03*
X190500Y832231D03*
X165100Y857250D03*
X165100Y832231D03*
D12*
X779532Y312830D02*
X797532Y312830D01*
X797532Y325530D02*
X779532Y325530D01*
X779532Y338230D02*
X797532Y338230D01*
X797532Y350930D02*
X779532Y350930D01*
X828532Y312830D02*
X846532Y312830D01*
X846532Y325530D02*
X828532Y325530D01*
X828532Y338230D02*
X846532Y338230D01*
X846532Y350930D02*
X828532Y350930D01*
D13*
X775428Y247570D03*
X775428Y229570D03*
X741798Y247766D03*
X741798Y229766D03*
D14*
X259688Y145494D03*
X259688Y153494D03*
X259688Y161494D03*
X259688Y169494D03*
X259688Y177494D03*
X259688Y185494D03*
X259688Y193494D03*
X259688Y201494D03*
X259688Y209494D03*
X259688Y217494D03*
X259688Y225494D03*
D15*
X268088Y233894D03*
X276088Y233894D03*
X284088Y233894D03*
X292088Y233894D03*
X300088Y233894D03*
X308088Y233894D03*
X316188Y233894D03*
X324088Y233894D03*
X332088Y233894D03*
X340088Y233894D03*
X348088Y233894D03*
D14*
X356488Y225494D03*
X356488Y217494D03*
X356488Y209494D03*
X356488Y201494D03*
X356488Y193494D03*
X356488Y185494D03*
X356488Y177494D03*
X356488Y169494D03*
X356488Y161494D03*
X356488Y153494D03*
X356488Y145494D03*
D15*
X348088Y137094D03*
X340088Y137094D03*
X332088Y137094D03*
X324088Y137094D03*
X316088Y137094D03*
X308088Y137094D03*
X300088Y137094D03*
X292088Y137094D03*
X284088Y137094D03*
X276288Y137094D03*
X268088Y137094D03*
D16*
X278088Y155494D03*
X278088Y170494D03*
X278088Y185494D03*
X278088Y200494D03*
X278088Y215494D03*
X293088Y155494D03*
X293088Y170494D03*
X293088Y185494D03*
X293088Y200494D03*
X293088Y215494D03*
X308088Y155494D03*
X308088Y170494D03*
X308088Y185494D03*
X308088Y200494D03*
X308088Y215494D03*
X323088Y155494D03*
X323088Y170494D03*
X323088Y185494D03*
X323088Y200494D03*
X323088Y215494D03*
X338088Y155494D03*
X338088Y170494D03*
X338088Y185494D03*
X338088Y200494D03*
X338088Y215494D03*
D17*
X195326Y168024D03*
X210326Y168024D03*
D18*
X404199Y151195D03*
X404199Y180605D03*
D19*
X388239Y165900D03*
D18*
X761099Y534395D03*
X761099Y563805D03*
D19*
X745139Y549100D03*
D11*
X616660Y104104D03*
X591260Y104104D03*
X565860Y104104D03*
X540460Y104104D03*
X515060Y104104D03*
X489660Y104104D03*
D13*
X847088Y246626D03*
X847088Y228626D03*
X812562Y229074D03*
X812562Y247074D03*
D20*
X817246Y186044D03*
X817246Y173344D03*
X817246Y160644D03*
X817246Y147944D03*
X768986Y147944D03*
X768986Y160644D03*
X768986Y173344D03*
X768986Y186044D03*
D21*
X730878Y186042D03*
X712878Y186042D03*
D22*
X532100Y424900D03*
X532100Y444900D03*
X532100Y464900D03*
X532100Y484900D03*
X532100Y504900D03*
X532100Y524900D03*
X532100Y544900D03*
X696100Y544900D03*
X696100Y524900D03*
X696100Y504900D03*
X696100Y484900D03*
X696100Y464900D03*
X696100Y444900D03*
X696100Y424900D03*
X696100Y404900D03*
X532100Y404900D03*
D23*
X174800Y396300D03*
X378000Y396300D03*
X174800Y599500D03*
X378000Y599500D03*
D24*
X212900Y396300D03*
X238300Y396300D03*
X263700Y396300D03*
X289100Y396300D03*
X314500Y396300D03*
X339900Y396300D03*
D13*
X425500Y426100D03*
X425500Y444100D03*
X216900Y223300D03*
X216900Y205300D03*
X183300Y223900D03*
X183300Y205900D03*
D25*
X410400Y113300D03*
X393200Y113300D03*
D21*
X388500Y234400D03*
X406500Y234400D03*
D26*
X100400Y641100D03*
X557600Y717300D03*
X125800Y793500D03*
D27*
X100400Y793500D03*
D28*
X151200Y793500D03*
X557600Y691900D03*
D29*
X557600Y666500D03*
X557600Y742700D03*
X557600Y768100D03*
X430600Y793500D03*
X430600Y641100D03*
X125800Y641100D03*
X151200Y641100D03*
X176600Y641100D03*
X202000Y641100D03*
X227400Y641100D03*
X252800Y641100D03*
X278200Y641100D03*
X303600Y641100D03*
X329000Y641100D03*
X354400Y641100D03*
X379800Y641100D03*
X405200Y641100D03*
X125800Y768100D03*
X405200Y793500D03*
X379800Y793500D03*
X354400Y793500D03*
X329000Y793500D03*
X303600Y793500D03*
X278200Y793500D03*
X252800Y793500D03*
X227400Y793500D03*
X202000Y793500D03*
X176600Y793500D03*
D28*
X456000Y641100D03*
D29*
X506800Y641100D03*
X532200Y641100D03*
X557600Y641100D03*
X583000Y641100D03*
X608400Y641100D03*
X633800Y641100D03*
X659200Y641100D03*
X684600Y641100D03*
X481400Y793500D03*
X506800Y793500D03*
X532200Y793500D03*
X557600Y793500D03*
X583000Y793500D03*
X608400Y793500D03*
X633800Y793500D03*
X659200Y793500D03*
X684600Y793500D03*
X163900Y671100D03*
X189300Y671100D03*
X214700Y671100D03*
X240100Y671100D03*
X265500Y671100D03*
X481400Y641100D03*
D26*
X456000Y793500D03*
D29*
X102700Y727300D03*
X102700Y707300D03*
D30*
X230100Y768100D03*
X230100Y748100D03*
X230100Y728100D03*
X250100Y768100D03*
X250100Y748100D03*
X250100Y728100D03*
D31*
X809000Y784000D03*
X809000Y774000D03*
D32*
X838900Y807750D03*
X838900Y750200D03*
D31*
X808100Y667100D03*
X808100Y657100D03*
X808100Y647100D03*
X808100Y637100D03*
D32*
X838000Y690850D03*
X838000Y613300D03*
D31*
X103800Y149900D03*
X103800Y159900D03*
D32*
X73900Y126150D03*
X73900Y183700D03*
D31*
X103500Y244900D03*
X103500Y254900D03*
X103500Y264900D03*
X103500Y274900D03*
X103500Y284900D03*
D32*
X73600Y221150D03*
X73600Y308700D03*
D31*
X111300Y425900D03*
X111300Y435900D03*
D32*
X81400Y402150D03*
X81400Y459700D03*
D31*
X111600Y550900D03*
X111600Y560900D03*
X111600Y570900D03*
X111600Y580900D03*
D32*
X81700Y527150D03*
X81700Y604700D03*
D33*
X191600Y311900D03*
X191600Y337300D03*
X217000Y311900D03*
X217000Y337300D03*
X242400Y311900D03*
X242400Y337300D03*
X267800Y311900D03*
X267800Y337300D03*
X293200Y311900D03*
X293200Y337300D03*
X318600Y311900D03*
X318600Y337300D03*
X344000Y311900D03*
X344000Y337300D03*
X369400Y311900D03*
X369400Y337300D03*
X394800Y311900D03*
X394800Y337300D03*
X420200Y311900D03*
X420200Y337300D03*
X445600Y311900D03*
X445600Y337300D03*
X471000Y311900D03*
X471000Y337300D03*
X496400Y311900D03*
X496400Y337300D03*
X521800Y311900D03*
X521800Y337300D03*
X547200Y311900D03*
X547200Y337300D03*
X572600Y311900D03*
X572600Y337300D03*
X598000Y311900D03*
X598000Y337300D03*
X623400Y311900D03*
X623400Y337300D03*
X648800Y311900D03*
X648800Y337300D03*
X674200Y311900D03*
X674200Y337300D03*
D31*
X804900Y497900D03*
X804900Y487900D03*
D32*
X834800Y521650D03*
X834800Y464100D03*
D34*
X101600Y16510D03*
X121920Y16510D03*
X132080Y16510D03*
X142240Y16510D03*
X152400Y16510D03*
X162560Y16510D03*
X172720Y16510D03*
X111760Y16510D03*
X264160Y16510D03*
X274320Y16510D03*
X284480Y16510D03*
X294640Y16510D03*
X304800Y16510D03*
X314960Y16510D03*
X325120Y16510D03*
X335280Y16510D03*
X41656Y796544D03*
X41656Y816864D03*
X41656Y827024D03*
X41656Y837184D03*
X41656Y847344D03*
X41656Y857504D03*
X41656Y867664D03*
X41656Y806704D03*
X41656Y634492D03*
X41656Y654812D03*
X41656Y664972D03*
X41656Y675132D03*
X41656Y685292D03*
X41656Y695452D03*
X41656Y705612D03*
X41656Y644652D03*
X582930Y16510D03*
X603250Y16510D03*
X613410Y16510D03*
X623570Y16510D03*
X633730Y16510D03*
X643890Y16510D03*
X654050Y16510D03*
X593090Y16510D03*
X745490Y16510D03*
X755650Y16510D03*
X765810Y16510D03*
X775970Y16510D03*
X786130Y16510D03*
X796290Y16510D03*
X806450Y16510D03*
X816610Y16510D03*
X885190Y94234D03*
X885190Y114554D03*
X885190Y124714D03*
X885190Y134874D03*
X885190Y145034D03*
X885190Y155194D03*
X885190Y165354D03*
X885190Y104394D03*
X886206Y751332D03*
X886206Y771652D03*
X886206Y781812D03*
X886206Y791972D03*
X886206Y802132D03*
X886206Y812292D03*
X886206Y822452D03*
X886206Y761492D03*
X798000Y854000D03*
X295600Y124000D03*
X272900Y124500D03*
X561700Y615300D03*
X224000Y142100D03*
X358200Y535900D03*
X250300Y270800D03*
X123100Y164600D03*
X280000Y270700D03*
X123100Y149100D03*
X449600Y501700D03*
X471200Y491500D03*
X497000Y482100D03*
X354800Y381200D03*
X782100Y279500D03*
X397500Y380900D03*
X781900Y291200D03*
X446500Y381500D03*
X781300Y303100D03*
X213100Y429100D03*
X844200Y395200D03*
X252500Y125900D03*
X520500Y616800D03*
X159500Y226700D03*
D35*
X448640Y231100D03*
X654760Y104104D03*
X654760Y231104D03*
X448640Y104104D03*
D34*
X793200Y207400D03*
X167500Y506200D03*
X886590Y274934D03*
X886590Y295254D03*
X886590Y305414D03*
X886590Y315574D03*
X886590Y325734D03*
X886590Y335894D03*
X886590Y346054D03*
X886590Y285094D03*
X885490Y590834D03*
X885490Y611154D03*
X885490Y621314D03*
X885490Y631474D03*
X885490Y641634D03*
X885490Y651794D03*
X885490Y661954D03*
X885490Y600994D03*
X885190Y434634D03*
X885190Y454954D03*
X885190Y465114D03*
X885190Y475274D03*
X885190Y485434D03*
X885190Y495594D03*
X885190Y505754D03*
X885190Y444794D03*
D36*
X142600Y324700D03*
X722600Y324600D03*
X722600Y94600D03*
X142600Y94600D03*
M02*
