%TF.GenerationSoftware,KiCad,Pcbnew,(5.1.9)-1*%
%TF.CreationDate,2022-01-06T16:33:17-10:00*%
%TF.ProjectId,batteryboard,62617474-6572-4796-926f-6172642e6b69,rev?*%
%TF.SameCoordinates,Original*%
%TF.FileFunction,Legend,Top*%
%TF.FilePolarity,Positive*%
%FSLAX46Y46*%
G04 Gerber Fmt 4.6, Leading zero omitted, Abs format (unit mm)*
G04 Created by KiCad (PCBNEW (5.1.9)-1) date 2022-01-06 16:33:17*
%MOMM*%
%LPD*%
G01*
G04 APERTURE LIST*
%ADD10C,0.100000*%
%ADD11C,0.300000*%
%ADD12C,0.500000*%
%ADD13C,0.200000*%
%ADD14C,0.381000*%
%ADD15C,0.400000*%
%ADD16C,0.254000*%
%ADD17C,0.127000*%
%ADD18C,0.120000*%
%ADD19C,0.010000*%
%ADD20C,0.150000*%
%ADD21C,0.175000*%
%ADD22C,1.671600*%
%ADD23C,3.551600*%
%ADD24C,4.601600*%
%ADD25C,1.500000*%
%ADD26O,1.501600X1.501600*%
%ADD27C,1.501600*%
%ADD28C,2.101600*%
G04 APERTURE END LIST*
D10*
X85960000Y-57923333D02*
X85960000Y-58623333D01*
X85960000Y-57956666D02*
X86026666Y-57923333D01*
X86160000Y-57923333D01*
X86226666Y-57956666D01*
X86260000Y-57990000D01*
X86293333Y-58056666D01*
X86293333Y-58256666D01*
X86260000Y-58323333D01*
X86226666Y-58356666D01*
X86160000Y-58390000D01*
X86026666Y-58390000D01*
X85960000Y-58356666D01*
X85326666Y-57923333D02*
X85326666Y-58290000D01*
X85360000Y-58356666D01*
X85426666Y-58390000D01*
X85560000Y-58390000D01*
X85626666Y-58356666D01*
X85326666Y-57956666D02*
X85393333Y-57923333D01*
X85560000Y-57923333D01*
X85626666Y-57956666D01*
X85660000Y-58023333D01*
X85660000Y-58090000D01*
X85626666Y-58156666D01*
X85560000Y-58190000D01*
X85393333Y-58190000D01*
X85326666Y-58223333D01*
X85093333Y-58390000D02*
X84826666Y-58390000D01*
X84993333Y-58623333D02*
X84993333Y-58023333D01*
X84960000Y-57956666D01*
X84893333Y-57923333D01*
X84826666Y-57923333D01*
X84293333Y-57923333D02*
X84293333Y-58290000D01*
X84326666Y-58356666D01*
X84393333Y-58390000D01*
X84526666Y-58390000D01*
X84593333Y-58356666D01*
X84293333Y-57956666D02*
X84360000Y-57923333D01*
X84526666Y-57923333D01*
X84593333Y-57956666D01*
X84626666Y-58023333D01*
X84626666Y-58090000D01*
X84593333Y-58156666D01*
X84526666Y-58190000D01*
X84360000Y-58190000D01*
X84293333Y-58223333D01*
X83426666Y-58390000D02*
X83426666Y-57690000D01*
X83426666Y-58356666D02*
X83360000Y-58390000D01*
X83226666Y-58390000D01*
X83160000Y-58356666D01*
X83126666Y-58323333D01*
X83093333Y-58256666D01*
X83093333Y-58056666D01*
X83126666Y-57990000D01*
X83160000Y-57956666D01*
X83226666Y-57923333D01*
X83360000Y-57923333D01*
X83426666Y-57956666D01*
X82860000Y-58390000D02*
X82726666Y-57923333D01*
X82593333Y-58256666D01*
X82460000Y-57923333D01*
X82326666Y-58390000D01*
X82060000Y-57923333D02*
X82060000Y-58390000D01*
X82060000Y-58256666D02*
X82026666Y-58323333D01*
X81993333Y-58356666D01*
X81926666Y-58390000D01*
X81860000Y-58390000D01*
D11*
X90241428Y-57921428D02*
X89384285Y-57921428D01*
X89812857Y-56421428D02*
X89812857Y-57921428D01*
X88312857Y-56492857D02*
X88455714Y-56421428D01*
X88741428Y-56421428D01*
X88884285Y-56492857D01*
X88955714Y-56635714D01*
X88955714Y-57207142D01*
X88884285Y-57350000D01*
X88741428Y-57421428D01*
X88455714Y-57421428D01*
X88312857Y-57350000D01*
X88241428Y-57207142D01*
X88241428Y-57064285D01*
X88955714Y-56921428D01*
X87598571Y-56421428D02*
X87598571Y-57421428D01*
X87598571Y-57278571D02*
X87527142Y-57350000D01*
X87384285Y-57421428D01*
X87170000Y-57421428D01*
X87027142Y-57350000D01*
X86955714Y-57207142D01*
X86955714Y-56421428D01*
X86955714Y-57207142D02*
X86884285Y-57350000D01*
X86741428Y-57421428D01*
X86527142Y-57421428D01*
X86384285Y-57350000D01*
X86312857Y-57207142D01*
X86312857Y-56421428D01*
X85598571Y-57421428D02*
X85598571Y-55921428D01*
X85598571Y-57350000D02*
X85455714Y-57421428D01*
X85170000Y-57421428D01*
X85027142Y-57350000D01*
X84955714Y-57278571D01*
X84884285Y-57135714D01*
X84884285Y-56707142D01*
X84955714Y-56564285D01*
X85027142Y-56492857D01*
X85170000Y-56421428D01*
X85455714Y-56421428D01*
X85598571Y-56492857D01*
D12*
X86619732Y-78352857D02*
X86244732Y-81352857D01*
X86423303Y-79924285D02*
X84709017Y-79924285D01*
X84905446Y-78352857D02*
X84530446Y-81352857D01*
X83601875Y-78495714D02*
X83191160Y-78352857D01*
X82476875Y-78352857D01*
X82173303Y-78495714D01*
X82012589Y-78638571D01*
X81834017Y-78924285D01*
X81798303Y-79210000D01*
X81905446Y-79495714D01*
X82030446Y-79638571D01*
X82298303Y-79781428D01*
X82851875Y-79924285D01*
X83119732Y-80067142D01*
X83244732Y-80210000D01*
X83351875Y-80495714D01*
X83316160Y-80781428D01*
X83137589Y-81067142D01*
X82976875Y-81210000D01*
X82673303Y-81352857D01*
X81959017Y-81352857D01*
X81548303Y-81210000D01*
X79423303Y-79924285D02*
X80423303Y-79924285D01*
X80619732Y-78352857D02*
X80244732Y-81352857D01*
X78816160Y-81352857D01*
X76619732Y-78352857D02*
X78048303Y-78352857D01*
X77673303Y-81352857D01*
D13*
X96526666Y-82837619D02*
X96526666Y-83504285D01*
X96526666Y-83837619D02*
X96574285Y-83790000D01*
X96526666Y-83742380D01*
X96479047Y-83790000D01*
X96526666Y-83837619D01*
X96526666Y-83742380D01*
X96050476Y-83504285D02*
X96050476Y-82837619D01*
X96050476Y-83409047D02*
X96002857Y-83456666D01*
X95907619Y-83504285D01*
X95764761Y-83504285D01*
X95669523Y-83456666D01*
X95621904Y-83361428D01*
X95621904Y-82837619D01*
X93955238Y-82885238D02*
X94050476Y-82837619D01*
X94240952Y-82837619D01*
X94336190Y-82885238D01*
X94383809Y-82932857D01*
X94431428Y-83028095D01*
X94431428Y-83313809D01*
X94383809Y-83409047D01*
X94336190Y-83456666D01*
X94240952Y-83504285D01*
X94050476Y-83504285D01*
X93955238Y-83456666D01*
X93383809Y-82837619D02*
X93479047Y-82885238D01*
X93526666Y-82932857D01*
X93574285Y-83028095D01*
X93574285Y-83313809D01*
X93526666Y-83409047D01*
X93479047Y-83456666D01*
X93383809Y-83504285D01*
X93240952Y-83504285D01*
X93145714Y-83456666D01*
X93098095Y-83409047D01*
X93050476Y-83313809D01*
X93050476Y-83028095D01*
X93098095Y-82932857D01*
X93145714Y-82885238D01*
X93240952Y-82837619D01*
X93383809Y-82837619D01*
X92479047Y-82837619D02*
X92574285Y-82885238D01*
X92621904Y-82980476D01*
X92621904Y-83837619D01*
X91955238Y-82837619D02*
X92050476Y-82885238D01*
X92098095Y-82980476D01*
X92098095Y-83837619D01*
X91145714Y-82837619D02*
X91145714Y-83361428D01*
X91193333Y-83456666D01*
X91288571Y-83504285D01*
X91479047Y-83504285D01*
X91574285Y-83456666D01*
X91145714Y-82885238D02*
X91240952Y-82837619D01*
X91479047Y-82837619D01*
X91574285Y-82885238D01*
X91621904Y-82980476D01*
X91621904Y-83075714D01*
X91574285Y-83170952D01*
X91479047Y-83218571D01*
X91240952Y-83218571D01*
X91145714Y-83266190D01*
X90669523Y-82837619D02*
X90669523Y-83837619D01*
X90669523Y-83456666D02*
X90574285Y-83504285D01*
X90383809Y-83504285D01*
X90288571Y-83456666D01*
X90240952Y-83409047D01*
X90193333Y-83313809D01*
X90193333Y-83028095D01*
X90240952Y-82932857D01*
X90288571Y-82885238D01*
X90383809Y-82837619D01*
X90574285Y-82837619D01*
X90669523Y-82885238D01*
X89621904Y-82837619D02*
X89717142Y-82885238D01*
X89764761Y-82932857D01*
X89812380Y-83028095D01*
X89812380Y-83313809D01*
X89764761Y-83409047D01*
X89717142Y-83456666D01*
X89621904Y-83504285D01*
X89479047Y-83504285D01*
X89383809Y-83456666D01*
X89336190Y-83409047D01*
X89288571Y-83313809D01*
X89288571Y-83028095D01*
X89336190Y-82932857D01*
X89383809Y-82885238D01*
X89479047Y-82837619D01*
X89621904Y-82837619D01*
X88860000Y-82837619D02*
X88860000Y-83504285D01*
X88860000Y-83313809D02*
X88812380Y-83409047D01*
X88764761Y-83456666D01*
X88669523Y-83504285D01*
X88574285Y-83504285D01*
X87812380Y-82837619D02*
X87812380Y-83361428D01*
X87860000Y-83456666D01*
X87955238Y-83504285D01*
X88145714Y-83504285D01*
X88240952Y-83456666D01*
X87812380Y-82885238D02*
X87907619Y-82837619D01*
X88145714Y-82837619D01*
X88240952Y-82885238D01*
X88288571Y-82980476D01*
X88288571Y-83075714D01*
X88240952Y-83170952D01*
X88145714Y-83218571D01*
X87907619Y-83218571D01*
X87812380Y-83266190D01*
X87479047Y-83504285D02*
X87098095Y-83504285D01*
X87336190Y-83837619D02*
X87336190Y-82980476D01*
X87288571Y-82885238D01*
X87193333Y-82837619D01*
X87098095Y-82837619D01*
X86764761Y-82837619D02*
X86764761Y-83504285D01*
X86764761Y-83837619D02*
X86812380Y-83790000D01*
X86764761Y-83742380D01*
X86717142Y-83790000D01*
X86764761Y-83837619D01*
X86764761Y-83742380D01*
X86145714Y-82837619D02*
X86240952Y-82885238D01*
X86288571Y-82932857D01*
X86336190Y-83028095D01*
X86336190Y-83313809D01*
X86288571Y-83409047D01*
X86240952Y-83456666D01*
X86145714Y-83504285D01*
X86002857Y-83504285D01*
X85907619Y-83456666D01*
X85860000Y-83409047D01*
X85812380Y-83313809D01*
X85812380Y-83028095D01*
X85860000Y-82932857D01*
X85907619Y-82885238D01*
X86002857Y-82837619D01*
X86145714Y-82837619D01*
X85383809Y-83504285D02*
X85383809Y-82837619D01*
X85383809Y-83409047D02*
X85336190Y-83456666D01*
X85240952Y-83504285D01*
X85098095Y-83504285D01*
X85002857Y-83456666D01*
X84955238Y-83361428D01*
X84955238Y-82837619D01*
X83812380Y-83504285D02*
X83621904Y-82837619D01*
X83431428Y-83313809D01*
X83240952Y-82837619D01*
X83050476Y-83504285D01*
X82669523Y-82837619D02*
X82669523Y-83504285D01*
X82669523Y-83837619D02*
X82717142Y-83790000D01*
X82669523Y-83742380D01*
X82621904Y-83790000D01*
X82669523Y-83837619D01*
X82669523Y-83742380D01*
X82336190Y-83504285D02*
X81955238Y-83504285D01*
X82193333Y-83837619D02*
X82193333Y-82980476D01*
X82145714Y-82885238D01*
X82050476Y-82837619D01*
X81955238Y-82837619D01*
X81621904Y-82837619D02*
X81621904Y-83837619D01*
X81193333Y-82837619D02*
X81193333Y-83361428D01*
X81240952Y-83456666D01*
X81336190Y-83504285D01*
X81479047Y-83504285D01*
X81574285Y-83456666D01*
X81621904Y-83409047D01*
D11*
X120032857Y-56587142D02*
X119818571Y-56515714D01*
X119747142Y-56444285D01*
X119675714Y-56301428D01*
X119675714Y-56087142D01*
X119747142Y-55944285D01*
X119818571Y-55872857D01*
X119961428Y-55801428D01*
X120532857Y-55801428D01*
X120532857Y-57301428D01*
X120032857Y-57301428D01*
X119890000Y-57230000D01*
X119818571Y-57158571D01*
X119747142Y-57015714D01*
X119747142Y-56872857D01*
X119818571Y-56730000D01*
X119890000Y-56658571D01*
X120032857Y-56587142D01*
X120532857Y-56587142D01*
X118390000Y-55801428D02*
X118390000Y-56587142D01*
X118461428Y-56730000D01*
X118604285Y-56801428D01*
X118890000Y-56801428D01*
X119032857Y-56730000D01*
X118390000Y-55872857D02*
X118532857Y-55801428D01*
X118890000Y-55801428D01*
X119032857Y-55872857D01*
X119104285Y-56015714D01*
X119104285Y-56158571D01*
X119032857Y-56301428D01*
X118890000Y-56372857D01*
X118532857Y-56372857D01*
X118390000Y-56444285D01*
X117890000Y-56801428D02*
X117318571Y-56801428D01*
X117675714Y-57301428D02*
X117675714Y-56015714D01*
X117604285Y-55872857D01*
X117461428Y-55801428D01*
X117318571Y-55801428D01*
X117032857Y-56801428D02*
X116461428Y-56801428D01*
X116818571Y-57301428D02*
X116818571Y-56015714D01*
X116747142Y-55872857D01*
X116604285Y-55801428D01*
X116461428Y-55801428D01*
X115390000Y-55872857D02*
X115532857Y-55801428D01*
X115818571Y-55801428D01*
X115961428Y-55872857D01*
X116032857Y-56015714D01*
X116032857Y-56587142D01*
X115961428Y-56730000D01*
X115818571Y-56801428D01*
X115532857Y-56801428D01*
X115390000Y-56730000D01*
X115318571Y-56587142D01*
X115318571Y-56444285D01*
X116032857Y-56301428D01*
X114675714Y-55801428D02*
X114675714Y-56801428D01*
X114675714Y-56515714D02*
X114604285Y-56658571D01*
X114532857Y-56730000D01*
X114390000Y-56801428D01*
X114247142Y-56801428D01*
X113890000Y-56801428D02*
X113532857Y-55801428D01*
X113175714Y-56801428D02*
X113532857Y-55801428D01*
X113675714Y-55444285D01*
X113747142Y-55372857D01*
X113890000Y-55301428D01*
X112104285Y-56587142D02*
X111890000Y-56515714D01*
X111818571Y-56444285D01*
X111747142Y-56301428D01*
X111747142Y-56087142D01*
X111818571Y-55944285D01*
X111890000Y-55872857D01*
X112032857Y-55801428D01*
X112604285Y-55801428D01*
X112604285Y-57301428D01*
X112104285Y-57301428D01*
X111961428Y-57230000D01*
X111890000Y-57158571D01*
X111818571Y-57015714D01*
X111818571Y-56872857D01*
X111890000Y-56730000D01*
X111961428Y-56658571D01*
X112104285Y-56587142D01*
X112604285Y-56587142D01*
X110890000Y-55801428D02*
X111032857Y-55872857D01*
X111104285Y-55944285D01*
X111175714Y-56087142D01*
X111175714Y-56515714D01*
X111104285Y-56658571D01*
X111032857Y-56730000D01*
X110890000Y-56801428D01*
X110675714Y-56801428D01*
X110532857Y-56730000D01*
X110461428Y-56658571D01*
X110390000Y-56515714D01*
X110390000Y-56087142D01*
X110461428Y-55944285D01*
X110532857Y-55872857D01*
X110675714Y-55801428D01*
X110890000Y-55801428D01*
X109104285Y-55801428D02*
X109104285Y-56587142D01*
X109175714Y-56730000D01*
X109318571Y-56801428D01*
X109604285Y-56801428D01*
X109747142Y-56730000D01*
X109104285Y-55872857D02*
X109247142Y-55801428D01*
X109604285Y-55801428D01*
X109747142Y-55872857D01*
X109818571Y-56015714D01*
X109818571Y-56158571D01*
X109747142Y-56301428D01*
X109604285Y-56372857D01*
X109247142Y-56372857D01*
X109104285Y-56444285D01*
X108390000Y-55801428D02*
X108390000Y-56801428D01*
X108390000Y-56515714D02*
X108318571Y-56658571D01*
X108247142Y-56730000D01*
X108104285Y-56801428D01*
X107961428Y-56801428D01*
X106818571Y-55801428D02*
X106818571Y-57301428D01*
X106818571Y-55872857D02*
X106961428Y-55801428D01*
X107247142Y-55801428D01*
X107390000Y-55872857D01*
X107461428Y-55944285D01*
X107532857Y-56087142D01*
X107532857Y-56515714D01*
X107461428Y-56658571D01*
X107390000Y-56730000D01*
X107247142Y-56801428D01*
X106961428Y-56801428D01*
X106818571Y-56730000D01*
X106247142Y-56801428D02*
X105890000Y-55801428D01*
X105532857Y-56801428D01*
X105032857Y-57158571D02*
X104961428Y-57230000D01*
X104818571Y-57301428D01*
X104461428Y-57301428D01*
X104318571Y-57230000D01*
X104247142Y-57158571D01*
X104175714Y-57015714D01*
X104175714Y-56872857D01*
X104247142Y-56658571D01*
X105104285Y-55801428D01*
X104175714Y-55801428D01*
D14*
X126665000Y-59716071D02*
X128116428Y-59716071D01*
X129023571Y-59716071D02*
X130475000Y-59716071D01*
X129749285Y-60441785D02*
X129749285Y-58990357D01*
D15*
X123752922Y-88290400D02*
G75*
G03*
X123752922Y-88290400I-80322J0D01*
G01*
X109478122Y-82169000D02*
G75*
G03*
X109478122Y-82169000I-80322J0D01*
G01*
D14*
X141534605Y-72056171D02*
X142986034Y-72056171D01*
X145344605Y-72056171D02*
X146796034Y-72056171D01*
X146070320Y-72781885D02*
X146070320Y-71330457D01*
D16*
X88615634Y-71864902D02*
X89301348Y-71864902D01*
X88958491Y-71864902D02*
X88958491Y-73064902D01*
X89072777Y-72893474D01*
X89187062Y-72779188D01*
X89301348Y-72722045D01*
X88101348Y-71979188D02*
X88044205Y-71922045D01*
X88101348Y-71864902D01*
X88158491Y-71922045D01*
X88101348Y-71979188D01*
X88101348Y-71864902D01*
X85929920Y-71979188D02*
X85987062Y-71922045D01*
X86158491Y-71864902D01*
X86272777Y-71864902D01*
X86444205Y-71922045D01*
X86558491Y-72036331D01*
X86615634Y-72150617D01*
X86672777Y-72379188D01*
X86672777Y-72550617D01*
X86615634Y-72779188D01*
X86558491Y-72893474D01*
X86444205Y-73007760D01*
X86272777Y-73064902D01*
X86158491Y-73064902D01*
X85987062Y-73007760D01*
X85929920Y-72950617D01*
X85415634Y-71864902D02*
X85415634Y-73064902D01*
X85415634Y-72493474D02*
X84729920Y-72493474D01*
X84729920Y-71864902D02*
X84729920Y-73064902D01*
X84158491Y-72493474D02*
X83758491Y-72493474D01*
X83587062Y-71864902D02*
X84158491Y-71864902D01*
X84158491Y-73064902D01*
X83587062Y-73064902D01*
X82387062Y-71979188D02*
X82444205Y-71922045D01*
X82615634Y-71864902D01*
X82729920Y-71864902D01*
X82901348Y-71922045D01*
X83015634Y-72036331D01*
X83072777Y-72150617D01*
X83129920Y-72379188D01*
X83129920Y-72550617D01*
X83072777Y-72779188D01*
X83015634Y-72893474D01*
X82901348Y-73007760D01*
X82729920Y-73064902D01*
X82615634Y-73064902D01*
X82444205Y-73007760D01*
X82387062Y-72950617D01*
X81872777Y-71864902D02*
X81872777Y-73064902D01*
X81187062Y-71864902D02*
X81701348Y-72550617D01*
X81187062Y-73064902D02*
X81872777Y-72379188D01*
X79072777Y-71979188D02*
X79129920Y-71922045D01*
X79301348Y-71864902D01*
X79415634Y-71864902D01*
X79587062Y-71922045D01*
X79701348Y-72036331D01*
X79758491Y-72150617D01*
X79815634Y-72379188D01*
X79815634Y-72550617D01*
X79758491Y-72779188D01*
X79701348Y-72893474D01*
X79587062Y-73007760D01*
X79415634Y-73064902D01*
X79301348Y-73064902D01*
X79129920Y-73007760D01*
X79072777Y-72950617D01*
X78558491Y-72493474D02*
X78158491Y-72493474D01*
X77987062Y-71864902D02*
X78558491Y-71864902D01*
X78558491Y-73064902D01*
X77987062Y-73064902D01*
X76901348Y-71864902D02*
X77472777Y-71864902D01*
X77472777Y-73064902D01*
X75929920Y-71864902D02*
X76501348Y-71864902D01*
X76501348Y-73064902D01*
X74615634Y-71864902D02*
X74615634Y-73064902D01*
X74158491Y-73064902D01*
X74044205Y-73007760D01*
X73987062Y-72950617D01*
X73929920Y-72836331D01*
X73929920Y-72664902D01*
X73987062Y-72550617D01*
X74044205Y-72493474D01*
X74158491Y-72436331D01*
X74615634Y-72436331D01*
X73187062Y-73064902D02*
X72958491Y-73064902D01*
X72844205Y-73007760D01*
X72729920Y-72893474D01*
X72672777Y-72664902D01*
X72672777Y-72264902D01*
X72729920Y-72036331D01*
X72844205Y-71922045D01*
X72958491Y-71864902D01*
X73187062Y-71864902D01*
X73301348Y-71922045D01*
X73415634Y-72036331D01*
X73472777Y-72264902D01*
X73472777Y-72664902D01*
X73415634Y-72893474D01*
X73301348Y-73007760D01*
X73187062Y-73064902D01*
X71587062Y-71864902D02*
X72158491Y-71864902D01*
X72158491Y-73064902D01*
X71244205Y-72207760D02*
X70672777Y-72207760D01*
X71358491Y-71864902D02*
X70958491Y-73064902D01*
X70558491Y-71864902D01*
X69472777Y-71864902D02*
X69872777Y-72436331D01*
X70158491Y-71864902D02*
X70158491Y-73064902D01*
X69701348Y-73064902D01*
X69587062Y-73007760D01*
X69529920Y-72950617D01*
X69472777Y-72836331D01*
X69472777Y-72664902D01*
X69529920Y-72550617D01*
X69587062Y-72493474D01*
X69701348Y-72436331D01*
X70158491Y-72436331D01*
X68958491Y-71864902D02*
X68958491Y-73064902D01*
X68558491Y-73064902D02*
X67872777Y-73064902D01*
X68215634Y-71864902D02*
X68215634Y-73064902D01*
X67244205Y-72436331D02*
X67244205Y-71864902D01*
X67644205Y-73064902D02*
X67244205Y-72436331D01*
X66844205Y-73064902D01*
X65129920Y-72493474D02*
X64958491Y-72436331D01*
X64901348Y-72379188D01*
X64844205Y-72264902D01*
X64844205Y-72093474D01*
X64901348Y-71979188D01*
X64958491Y-71922045D01*
X65072777Y-71864902D01*
X65529920Y-71864902D01*
X65529920Y-73064902D01*
X65129920Y-73064902D01*
X65015634Y-73007760D01*
X64958491Y-72950617D01*
X64901348Y-72836331D01*
X64901348Y-72722045D01*
X64958491Y-72607760D01*
X65015634Y-72550617D01*
X65129920Y-72493474D01*
X65529920Y-72493474D01*
X64329920Y-72493474D02*
X63929920Y-72493474D01*
X63758491Y-71864902D02*
X64329920Y-71864902D01*
X64329920Y-73064902D01*
X63758491Y-73064902D01*
X62844205Y-72493474D02*
X63244205Y-72493474D01*
X63244205Y-71864902D02*
X63244205Y-73064902D01*
X62672777Y-73064902D01*
X61987062Y-73064902D02*
X61758491Y-73064902D01*
X61644205Y-73007760D01*
X61529920Y-72893474D01*
X61472777Y-72664902D01*
X61472777Y-72264902D01*
X61529920Y-72036331D01*
X61644205Y-71922045D01*
X61758491Y-71864902D01*
X61987062Y-71864902D01*
X62101348Y-71922045D01*
X62215634Y-72036331D01*
X62272777Y-72264902D01*
X62272777Y-72664902D01*
X62215634Y-72893474D01*
X62101348Y-73007760D01*
X61987062Y-73064902D01*
X60272777Y-71864902D02*
X60672777Y-72436331D01*
X60958491Y-71864902D02*
X60958491Y-73064902D01*
X60501348Y-73064902D01*
X60387062Y-73007760D01*
X60329920Y-72950617D01*
X60272777Y-72836331D01*
X60272777Y-72664902D01*
X60329920Y-72550617D01*
X60387062Y-72493474D01*
X60501348Y-72436331D01*
X60958491Y-72436331D01*
X59758491Y-72493474D02*
X59358491Y-72493474D01*
X59187062Y-71864902D02*
X59758491Y-71864902D01*
X59758491Y-73064902D01*
X59187062Y-73064902D01*
X85587062Y-69810902D02*
X85587062Y-71010902D01*
X85015634Y-69810902D02*
X85015634Y-71010902D01*
X84329920Y-69810902D01*
X84329920Y-71010902D01*
X83815634Y-69868045D02*
X83644205Y-69810902D01*
X83358491Y-69810902D01*
X83244205Y-69868045D01*
X83187062Y-69925188D01*
X83129920Y-70039474D01*
X83129920Y-70153760D01*
X83187062Y-70268045D01*
X83244205Y-70325188D01*
X83358491Y-70382331D01*
X83587062Y-70439474D01*
X83701348Y-70496617D01*
X83758491Y-70553760D01*
X83815634Y-70668045D01*
X83815634Y-70782331D01*
X83758491Y-70896617D01*
X83701348Y-70953760D01*
X83587062Y-71010902D01*
X83301348Y-71010902D01*
X83129920Y-70953760D01*
X82787062Y-71010902D02*
X82101348Y-71010902D01*
X82444205Y-69810902D02*
X82444205Y-71010902D01*
X81758491Y-70153760D02*
X81187062Y-70153760D01*
X81872777Y-69810902D02*
X81472777Y-71010902D01*
X81072777Y-69810902D01*
X80101348Y-69810902D02*
X80672777Y-69810902D01*
X80672777Y-71010902D01*
X79129920Y-69810902D02*
X79701348Y-69810902D01*
X79701348Y-71010902D01*
X78729920Y-69810902D02*
X78729920Y-71010902D01*
X78158491Y-69810902D02*
X78158491Y-71010902D01*
X77472777Y-69810902D01*
X77472777Y-71010902D01*
X76272777Y-70953760D02*
X76387062Y-71010902D01*
X76558491Y-71010902D01*
X76729920Y-70953760D01*
X76844205Y-70839474D01*
X76901348Y-70725188D01*
X76958491Y-70496617D01*
X76958491Y-70325188D01*
X76901348Y-70096617D01*
X76844205Y-69982331D01*
X76729920Y-69868045D01*
X76558491Y-69810902D01*
X76444205Y-69810902D01*
X76272777Y-69868045D01*
X76215634Y-69925188D01*
X76215634Y-70325188D01*
X76444205Y-70325188D01*
X74787062Y-69810902D02*
X74787062Y-71010902D01*
X74215634Y-69810902D02*
X74215634Y-71010902D01*
X73529920Y-69810902D01*
X73529920Y-71010902D01*
X72215634Y-71010902D02*
X71529920Y-71010902D01*
X71872777Y-69810902D02*
X71872777Y-71010902D01*
X70901348Y-71010902D02*
X70672777Y-71010902D01*
X70558491Y-70953760D01*
X70444205Y-70839474D01*
X70387062Y-70610902D01*
X70387062Y-70210902D01*
X70444205Y-69982331D01*
X70558491Y-69868045D01*
X70672777Y-69810902D01*
X70901348Y-69810902D01*
X71015634Y-69868045D01*
X71129920Y-69982331D01*
X71187062Y-70210902D01*
X71187062Y-70610902D01*
X71129920Y-70839474D01*
X71015634Y-70953760D01*
X70901348Y-71010902D01*
X68958491Y-69810902D02*
X68958491Y-71010902D01*
X68501348Y-71010902D01*
X68387062Y-70953760D01*
X68329920Y-70896617D01*
X68272777Y-70782331D01*
X68272777Y-70610902D01*
X68329920Y-70496617D01*
X68387062Y-70439474D01*
X68501348Y-70382331D01*
X68958491Y-70382331D01*
X67815634Y-70153760D02*
X67244205Y-70153760D01*
X67929920Y-69810902D02*
X67529920Y-71010902D01*
X67129920Y-69810902D01*
X66044205Y-69925188D02*
X66101348Y-69868045D01*
X66272777Y-69810902D01*
X66387062Y-69810902D01*
X66558491Y-69868045D01*
X66672777Y-69982331D01*
X66729920Y-70096617D01*
X66787062Y-70325188D01*
X66787062Y-70496617D01*
X66729920Y-70725188D01*
X66672777Y-70839474D01*
X66558491Y-70953760D01*
X66387062Y-71010902D01*
X66272777Y-71010902D01*
X66101348Y-70953760D01*
X66044205Y-70896617D01*
X65529920Y-69810902D02*
X65529920Y-71010902D01*
X64844205Y-69810902D02*
X65358491Y-70496617D01*
X64844205Y-71010902D02*
X65529920Y-70325188D01*
X89301348Y-68842617D02*
X89244205Y-68899760D01*
X89129920Y-68956902D01*
X88844205Y-68956902D01*
X88729920Y-68899760D01*
X88672777Y-68842617D01*
X88615634Y-68728331D01*
X88615634Y-68614045D01*
X88672777Y-68442617D01*
X89358491Y-67756902D01*
X88615634Y-67756902D01*
X88101348Y-67871188D02*
X88044205Y-67814045D01*
X88101348Y-67756902D01*
X88158491Y-67814045D01*
X88101348Y-67871188D01*
X88101348Y-67756902D01*
X86615634Y-67756902D02*
X86615634Y-68956902D01*
X86044205Y-67756902D02*
X86044205Y-68956902D01*
X85358491Y-67756902D01*
X85358491Y-68956902D01*
X84844205Y-67814045D02*
X84672777Y-67756902D01*
X84387062Y-67756902D01*
X84272777Y-67814045D01*
X84215634Y-67871188D01*
X84158491Y-67985474D01*
X84158491Y-68099760D01*
X84215634Y-68214045D01*
X84272777Y-68271188D01*
X84387062Y-68328331D01*
X84615634Y-68385474D01*
X84729920Y-68442617D01*
X84787062Y-68499760D01*
X84844205Y-68614045D01*
X84844205Y-68728331D01*
X84787062Y-68842617D01*
X84729920Y-68899760D01*
X84615634Y-68956902D01*
X84329920Y-68956902D01*
X84158491Y-68899760D01*
X83815634Y-68956902D02*
X83129920Y-68956902D01*
X83472777Y-67756902D02*
X83472777Y-68956902D01*
X82787062Y-68099760D02*
X82215634Y-68099760D01*
X82901348Y-67756902D02*
X82501348Y-68956902D01*
X82101348Y-67756902D01*
X81129920Y-67756902D02*
X81701348Y-67756902D01*
X81701348Y-68956902D01*
X80158491Y-67756902D02*
X80729920Y-67756902D01*
X80729920Y-68956902D01*
X78158491Y-67871188D02*
X78215634Y-67814045D01*
X78387062Y-67756902D01*
X78501348Y-67756902D01*
X78672777Y-67814045D01*
X78787062Y-67928331D01*
X78844205Y-68042617D01*
X78901348Y-68271188D01*
X78901348Y-68442617D01*
X78844205Y-68671188D01*
X78787062Y-68785474D01*
X78672777Y-68899760D01*
X78501348Y-68956902D01*
X78387062Y-68956902D01*
X78215634Y-68899760D01*
X78158491Y-68842617D01*
X77644205Y-68385474D02*
X77244205Y-68385474D01*
X77072777Y-67756902D02*
X77644205Y-67756902D01*
X77644205Y-68956902D01*
X77072777Y-68956902D01*
X75987062Y-67756902D02*
X76558491Y-67756902D01*
X76558491Y-68956902D01*
X75015634Y-67756902D02*
X75587062Y-67756902D01*
X75587062Y-68956902D01*
X74672777Y-67814045D02*
X74501348Y-67756902D01*
X74215634Y-67756902D01*
X74101348Y-67814045D01*
X74044205Y-67871188D01*
X73987062Y-67985474D01*
X73987062Y-68099760D01*
X74044205Y-68214045D01*
X74101348Y-68271188D01*
X74215634Y-68328331D01*
X74444205Y-68385474D01*
X74558491Y-68442617D01*
X74615634Y-68499760D01*
X74672777Y-68614045D01*
X74672777Y-68728331D01*
X74615634Y-68842617D01*
X74558491Y-68899760D01*
X74444205Y-68956902D01*
X74158491Y-68956902D01*
X73987062Y-68899760D01*
X72558491Y-67756902D02*
X72558491Y-68956902D01*
X71987062Y-67756902D02*
X71987062Y-68956902D01*
X71301348Y-67756902D01*
X71301348Y-68956902D01*
X69815634Y-67756902D02*
X69815634Y-68956902D01*
X69129920Y-67756902D01*
X69129920Y-68956902D01*
X68558491Y-68956902D02*
X68558491Y-67985474D01*
X68501348Y-67871188D01*
X68444205Y-67814045D01*
X68329920Y-67756902D01*
X68101348Y-67756902D01*
X67987062Y-67814045D01*
X67929920Y-67871188D01*
X67872777Y-67985474D01*
X67872777Y-68956902D01*
X67301348Y-67756902D02*
X67301348Y-68956902D01*
X66901348Y-68099760D01*
X66501348Y-68956902D01*
X66501348Y-67756902D01*
X65929920Y-68385474D02*
X65529920Y-68385474D01*
X65358491Y-67756902D02*
X65929920Y-67756902D01*
X65929920Y-68956902D01*
X65358491Y-68956902D01*
X64158491Y-67756902D02*
X64558491Y-68328331D01*
X64844205Y-67756902D02*
X64844205Y-68956902D01*
X64387062Y-68956902D01*
X64272777Y-68899760D01*
X64215634Y-68842617D01*
X64158491Y-68728331D01*
X64158491Y-68556902D01*
X64215634Y-68442617D01*
X64272777Y-68385474D01*
X64387062Y-68328331D01*
X64844205Y-68328331D01*
X63644205Y-67756902D02*
X63644205Y-68956902D01*
X62387062Y-67871188D02*
X62444205Y-67814045D01*
X62615634Y-67756902D01*
X62729920Y-67756902D01*
X62901348Y-67814045D01*
X63015634Y-67928331D01*
X63072777Y-68042617D01*
X63129920Y-68271188D01*
X63129920Y-68442617D01*
X63072777Y-68671188D01*
X63015634Y-68785474D01*
X62901348Y-68899760D01*
X62729920Y-68956902D01*
X62615634Y-68956902D01*
X62444205Y-68899760D01*
X62387062Y-68842617D01*
X61929920Y-68099760D02*
X61358491Y-68099760D01*
X62044205Y-67756902D02*
X61644205Y-68956902D01*
X61244205Y-67756902D01*
X60272777Y-67756902D02*
X60844205Y-67756902D01*
X60844205Y-68956902D01*
X85358491Y-66902902D02*
X85129920Y-66902902D01*
X85015634Y-66845760D01*
X84901348Y-66731474D01*
X84844205Y-66502902D01*
X84844205Y-66102902D01*
X84901348Y-65874331D01*
X85015634Y-65760045D01*
X85129920Y-65702902D01*
X85358491Y-65702902D01*
X85472777Y-65760045D01*
X85587062Y-65874331D01*
X85644205Y-66102902D01*
X85644205Y-66502902D01*
X85587062Y-66731474D01*
X85472777Y-66845760D01*
X85358491Y-66902902D01*
X83644205Y-65702902D02*
X84044205Y-66274331D01*
X84329920Y-65702902D02*
X84329920Y-66902902D01*
X83872777Y-66902902D01*
X83758491Y-66845760D01*
X83701348Y-66788617D01*
X83644205Y-66674331D01*
X83644205Y-66502902D01*
X83701348Y-66388617D01*
X83758491Y-66331474D01*
X83872777Y-66274331D01*
X84329920Y-66274331D01*
X83129920Y-65702902D02*
X83129920Y-66902902D01*
X82844205Y-66902902D01*
X82672777Y-66845760D01*
X82558491Y-66731474D01*
X82501348Y-66617188D01*
X82444205Y-66388617D01*
X82444205Y-66217188D01*
X82501348Y-65988617D01*
X82558491Y-65874331D01*
X82672777Y-65760045D01*
X82844205Y-65702902D01*
X83129920Y-65702902D01*
X81929920Y-66331474D02*
X81529920Y-66331474D01*
X81358491Y-65702902D02*
X81929920Y-65702902D01*
X81929920Y-66902902D01*
X81358491Y-66902902D01*
X80158491Y-65702902D02*
X80558491Y-66274331D01*
X80844205Y-65702902D02*
X80844205Y-66902902D01*
X80387062Y-66902902D01*
X80272777Y-66845760D01*
X80215634Y-66788617D01*
X80158491Y-66674331D01*
X80158491Y-66502902D01*
X80215634Y-66388617D01*
X80272777Y-66331474D01*
X80387062Y-66274331D01*
X80844205Y-66274331D01*
X78787062Y-66045760D02*
X78215634Y-66045760D01*
X78901348Y-65702902D02*
X78501348Y-66902902D01*
X78101348Y-65702902D01*
X77758491Y-65760045D02*
X77587062Y-65702902D01*
X77301348Y-65702902D01*
X77187062Y-65760045D01*
X77129920Y-65817188D01*
X77072777Y-65931474D01*
X77072777Y-66045760D01*
X77129920Y-66160045D01*
X77187062Y-66217188D01*
X77301348Y-66274331D01*
X77529920Y-66331474D01*
X77644205Y-66388617D01*
X77701348Y-66445760D01*
X77758491Y-66560045D01*
X77758491Y-66674331D01*
X77701348Y-66788617D01*
X77644205Y-66845760D01*
X77529920Y-66902902D01*
X77244205Y-66902902D01*
X77072777Y-66845760D01*
X75644205Y-65702902D02*
X75644205Y-66902902D01*
X75072777Y-65702902D02*
X75072777Y-66902902D01*
X74387062Y-65702902D01*
X74387062Y-66902902D01*
X73815634Y-65702902D02*
X73815634Y-66902902D01*
X73529920Y-66902902D01*
X73358491Y-66845760D01*
X73244205Y-66731474D01*
X73187062Y-66617188D01*
X73129920Y-66388617D01*
X73129920Y-66217188D01*
X73187062Y-65988617D01*
X73244205Y-65874331D01*
X73358491Y-65760045D01*
X73529920Y-65702902D01*
X73815634Y-65702902D01*
X72615634Y-65702902D02*
X72615634Y-66902902D01*
X71358491Y-65817188D02*
X71415634Y-65760045D01*
X71587062Y-65702902D01*
X71701348Y-65702902D01*
X71872777Y-65760045D01*
X71987062Y-65874331D01*
X72044205Y-65988617D01*
X72101348Y-66217188D01*
X72101348Y-66388617D01*
X72044205Y-66617188D01*
X71987062Y-66731474D01*
X71872777Y-66845760D01*
X71701348Y-66902902D01*
X71587062Y-66902902D01*
X71415634Y-66845760D01*
X71358491Y-66788617D01*
X70901348Y-66045760D02*
X70329920Y-66045760D01*
X71015634Y-65702902D02*
X70615634Y-66902902D01*
X70215634Y-65702902D01*
X69987062Y-66902902D02*
X69301348Y-66902902D01*
X69644205Y-65702902D02*
X69644205Y-66902902D01*
X68901348Y-66331474D02*
X68501348Y-66331474D01*
X68329920Y-65702902D02*
X68901348Y-65702902D01*
X68901348Y-66902902D01*
X68329920Y-66902902D01*
X67815634Y-65702902D02*
X67815634Y-66902902D01*
X67529920Y-66902902D01*
X67358491Y-66845760D01*
X67244205Y-66731474D01*
X67187062Y-66617188D01*
X67129920Y-66388617D01*
X67129920Y-66217188D01*
X67187062Y-65988617D01*
X67244205Y-65874331D01*
X67358491Y-65760045D01*
X67529920Y-65702902D01*
X67815634Y-65702902D01*
X65358491Y-65245760D02*
X65415634Y-65302902D01*
X65529920Y-65474331D01*
X65587062Y-65588617D01*
X65644205Y-65760045D01*
X65701348Y-66045760D01*
X65701348Y-66274331D01*
X65644205Y-66560045D01*
X65587062Y-66731474D01*
X65529920Y-66845760D01*
X65415634Y-67017188D01*
X65358491Y-67074331D01*
X64272777Y-65702902D02*
X64958491Y-65702902D01*
X64615634Y-65702902D02*
X64615634Y-66902902D01*
X64729920Y-66731474D01*
X64844205Y-66617188D01*
X64958491Y-66560045D01*
X63701348Y-65760045D02*
X63701348Y-65702902D01*
X63758491Y-65588617D01*
X63815634Y-65531474D01*
X63244205Y-66788617D02*
X63187062Y-66845760D01*
X63072777Y-66902902D01*
X62787062Y-66902902D01*
X62672777Y-66845760D01*
X62615634Y-66788617D01*
X62558491Y-66674331D01*
X62558491Y-66560045D01*
X62615634Y-66388617D01*
X63301348Y-65702902D01*
X62558491Y-65702902D01*
X61987062Y-65760045D02*
X61987062Y-65702902D01*
X62044205Y-65588617D01*
X62101348Y-65531474D01*
X61587062Y-66902902D02*
X60844205Y-66902902D01*
X61244205Y-66445760D01*
X61072777Y-66445760D01*
X60958491Y-66388617D01*
X60901348Y-66331474D01*
X60844205Y-66217188D01*
X60844205Y-65931474D01*
X60901348Y-65817188D01*
X60958491Y-65760045D01*
X61072777Y-65702902D01*
X61415634Y-65702902D01*
X61529920Y-65760045D01*
X61587062Y-65817188D01*
X60272777Y-65760045D02*
X60272777Y-65702902D01*
X60329920Y-65588617D01*
X60387062Y-65531474D01*
X59301348Y-65760045D02*
X59415634Y-65702902D01*
X59644205Y-65702902D01*
X59758491Y-65760045D01*
X59815634Y-65874331D01*
X59815634Y-66331474D01*
X59758491Y-66445760D01*
X59644205Y-66502902D01*
X59415634Y-66502902D01*
X59301348Y-66445760D01*
X59244205Y-66331474D01*
X59244205Y-66217188D01*
X59815634Y-66102902D01*
X58901348Y-66502902D02*
X58444205Y-66502902D01*
X58729920Y-66902902D02*
X58729920Y-65874331D01*
X58672777Y-65760045D01*
X58558491Y-65702902D01*
X58444205Y-65702902D01*
X57529920Y-65760045D02*
X57644205Y-65702902D01*
X57872777Y-65702902D01*
X57987062Y-65760045D01*
X58044205Y-65817188D01*
X58101348Y-65931474D01*
X58101348Y-66274331D01*
X58044205Y-66388617D01*
X57987062Y-66445759D01*
X57872777Y-66502902D01*
X57644205Y-66502902D01*
X57529920Y-66445759D01*
X57015634Y-65817188D02*
X56958491Y-65760045D01*
X57015634Y-65702902D01*
X57072777Y-65760045D01*
X57015634Y-65817188D01*
X57015634Y-65702902D01*
X56444205Y-65817188D02*
X56387062Y-65760045D01*
X56444205Y-65702902D01*
X56501348Y-65760045D01*
X56444205Y-65817188D01*
X56444205Y-65702902D01*
X55872777Y-65817188D02*
X55815634Y-65760045D01*
X55872777Y-65702902D01*
X55929920Y-65760045D01*
X55872777Y-65817188D01*
X55872777Y-65702902D01*
X55415634Y-65245759D02*
X55358491Y-65302902D01*
X55244205Y-65474331D01*
X55187062Y-65588617D01*
X55129920Y-65760045D01*
X55072777Y-66045759D01*
X55072777Y-66274331D01*
X55129920Y-66560045D01*
X55187062Y-66731474D01*
X55244205Y-66845759D01*
X55358491Y-67017188D01*
X55415634Y-67074331D01*
X96111180Y-142064619D02*
X95772514Y-141580809D01*
X95530609Y-142064619D02*
X95530609Y-141048619D01*
X95917657Y-141048619D01*
X96014419Y-141097000D01*
X96062800Y-141145380D01*
X96111180Y-141242142D01*
X96111180Y-141387285D01*
X96062800Y-141484047D01*
X96014419Y-141532428D01*
X95917657Y-141580809D01*
X95530609Y-141580809D01*
X96885276Y-141532428D02*
X97030419Y-141580809D01*
X97078800Y-141629190D01*
X97127180Y-141725952D01*
X97127180Y-141871095D01*
X97078800Y-141967857D01*
X97030419Y-142016238D01*
X96933657Y-142064619D01*
X96546609Y-142064619D01*
X96546609Y-141048619D01*
X96885276Y-141048619D01*
X96982038Y-141097000D01*
X97030419Y-141145380D01*
X97078800Y-141242142D01*
X97078800Y-141338904D01*
X97030419Y-141435666D01*
X96982038Y-141484047D01*
X96885276Y-141532428D01*
X96546609Y-141532428D01*
X97901276Y-141532428D02*
X97562609Y-141532428D01*
X97562609Y-142064619D02*
X97562609Y-141048619D01*
X98046419Y-141048619D01*
X99207561Y-142064619D02*
X99207561Y-141048619D01*
X99594609Y-141048619D01*
X99691371Y-141097000D01*
X99739752Y-141145380D01*
X99788133Y-141242142D01*
X99788133Y-141387285D01*
X99739752Y-141484047D01*
X99691371Y-141532428D01*
X99594609Y-141580809D01*
X99207561Y-141580809D01*
X100417085Y-141048619D02*
X100610609Y-141048619D01*
X100707371Y-141097000D01*
X100804133Y-141193761D01*
X100852514Y-141387285D01*
X100852514Y-141725952D01*
X100804133Y-141919476D01*
X100707371Y-142016238D01*
X100610609Y-142064619D01*
X100417085Y-142064619D01*
X100320323Y-142016238D01*
X100223561Y-141919476D01*
X100175180Y-141725952D01*
X100175180Y-141387285D01*
X100223561Y-141193761D01*
X100320323Y-141097000D01*
X100417085Y-141048619D01*
X101868514Y-142064619D02*
X101529847Y-141580809D01*
X101287942Y-142064619D02*
X101287942Y-141048619D01*
X101674990Y-141048619D01*
X101771752Y-141097000D01*
X101820133Y-141145380D01*
X101868514Y-141242142D01*
X101868514Y-141387285D01*
X101820133Y-141484047D01*
X101771752Y-141532428D01*
X101674990Y-141580809D01*
X101287942Y-141580809D01*
X102158800Y-141048619D02*
X102739371Y-141048619D01*
X102449085Y-142064619D02*
X102449085Y-141048619D01*
X103803752Y-142016238D02*
X103948895Y-142064619D01*
X104190800Y-142064619D01*
X104287561Y-142016238D01*
X104335942Y-141967857D01*
X104384323Y-141871095D01*
X104384323Y-141774333D01*
X104335942Y-141677571D01*
X104287561Y-141629190D01*
X104190800Y-141580809D01*
X103997276Y-141532428D01*
X103900514Y-141484047D01*
X103852133Y-141435666D01*
X103803752Y-141338904D01*
X103803752Y-141242142D01*
X103852133Y-141145380D01*
X103900514Y-141097000D01*
X103997276Y-141048619D01*
X104239180Y-141048619D01*
X104384323Y-141097000D01*
X104819752Y-142064619D02*
X104819752Y-141048619D01*
X105303561Y-142064619D02*
X105303561Y-141048619D01*
X105545466Y-141048619D01*
X105690609Y-141097000D01*
X105787371Y-141193761D01*
X105835752Y-141290523D01*
X105884133Y-141484047D01*
X105884133Y-141629190D01*
X105835752Y-141822714D01*
X105787371Y-141919476D01*
X105690609Y-142016238D01*
X105545466Y-142064619D01*
X105303561Y-142064619D01*
X106319561Y-141532428D02*
X106658228Y-141532428D01*
X106803371Y-142064619D02*
X106319561Y-142064619D01*
X106319561Y-141048619D01*
X106803371Y-141048619D01*
D17*
X99731285Y-76381428D02*
X99622428Y-76345142D01*
X99586142Y-76308857D01*
X99549857Y-76236285D01*
X99549857Y-76127428D01*
X99586142Y-76054857D01*
X99622428Y-76018571D01*
X99695000Y-75982285D01*
X99985285Y-75982285D01*
X99985285Y-76744285D01*
X99731285Y-76744285D01*
X99658714Y-76708000D01*
X99622428Y-76671714D01*
X99586142Y-76599142D01*
X99586142Y-76526571D01*
X99622428Y-76454000D01*
X99658714Y-76417714D01*
X99731285Y-76381428D01*
X99985285Y-76381428D01*
X99259571Y-76200000D02*
X98896714Y-76200000D01*
X99332142Y-75982285D02*
X99078142Y-76744285D01*
X98824142Y-75982285D01*
X98679000Y-76744285D02*
X98243571Y-76744285D01*
X98461285Y-75982285D02*
X98461285Y-76744285D01*
X98171000Y-75909714D02*
X97590428Y-75909714D01*
X97517857Y-76744285D02*
X97082428Y-76744285D01*
X97300142Y-75982285D02*
X97300142Y-76744285D01*
X96828428Y-75982285D02*
X96828428Y-76744285D01*
X96828428Y-76381428D02*
X96393000Y-76381428D01*
X96393000Y-75982285D02*
X96393000Y-76744285D01*
X96030142Y-76381428D02*
X95776142Y-76381428D01*
X95667285Y-75982285D02*
X96030142Y-75982285D01*
X96030142Y-76744285D01*
X95667285Y-76744285D01*
X94905285Y-75982285D02*
X95159285Y-76345142D01*
X95340714Y-75982285D02*
X95340714Y-76744285D01*
X95050428Y-76744285D01*
X94977857Y-76708000D01*
X94941571Y-76671714D01*
X94905285Y-76599142D01*
X94905285Y-76490285D01*
X94941571Y-76417714D01*
X94977857Y-76381428D01*
X95050428Y-76345142D01*
X95340714Y-76345142D01*
X94578714Y-75982285D02*
X94578714Y-76744285D01*
X94324714Y-76200000D01*
X94070714Y-76744285D01*
X94070714Y-75982285D01*
X99822000Y-74422000D02*
X99858285Y-74458285D01*
X99930857Y-74567142D01*
X99967142Y-74639714D01*
X100003428Y-74748571D01*
X100039714Y-74930000D01*
X100039714Y-75075142D01*
X100003428Y-75256571D01*
X99967142Y-75365428D01*
X99930857Y-75438000D01*
X99858285Y-75546857D01*
X99822000Y-75583142D01*
X99386571Y-75474285D02*
X99241428Y-75474285D01*
X99168857Y-75438000D01*
X99096285Y-75365428D01*
X99060000Y-75220285D01*
X99060000Y-74966285D01*
X99096285Y-74821142D01*
X99168857Y-74748571D01*
X99241428Y-74712285D01*
X99386571Y-74712285D01*
X99459142Y-74748571D01*
X99531714Y-74821142D01*
X99568000Y-74966285D01*
X99568000Y-75220285D01*
X99531714Y-75365428D01*
X99459142Y-75438000D01*
X99386571Y-75474285D01*
X98733428Y-74712285D02*
X98733428Y-75474285D01*
X98443142Y-75474285D01*
X98370571Y-75438000D01*
X98334285Y-75401714D01*
X98298000Y-75329142D01*
X98298000Y-75220285D01*
X98334285Y-75147714D01*
X98370571Y-75111428D01*
X98443142Y-75075142D01*
X98733428Y-75075142D01*
X98080285Y-75474285D02*
X97644857Y-75474285D01*
X97862571Y-74712285D02*
X97862571Y-75474285D01*
X97390857Y-74712285D02*
X97390857Y-75474285D01*
X96882857Y-75474285D02*
X96737714Y-75474285D01*
X96665142Y-75438000D01*
X96592571Y-75365428D01*
X96556285Y-75220285D01*
X96556285Y-74966285D01*
X96592571Y-74821142D01*
X96665142Y-74748571D01*
X96737714Y-74712285D01*
X96882857Y-74712285D01*
X96955428Y-74748571D01*
X97028000Y-74821142D01*
X97064285Y-74966285D01*
X97064285Y-75220285D01*
X97028000Y-75365428D01*
X96955428Y-75438000D01*
X96882857Y-75474285D01*
X96229714Y-74712285D02*
X96229714Y-75474285D01*
X95794285Y-74712285D01*
X95794285Y-75474285D01*
X95467714Y-74930000D02*
X95104857Y-74930000D01*
X95540285Y-74712285D02*
X95286285Y-75474285D01*
X95032285Y-74712285D01*
X94415428Y-74712285D02*
X94778285Y-74712285D01*
X94778285Y-75474285D01*
X94234000Y-74422000D02*
X94197714Y-74458285D01*
X94125142Y-74567142D01*
X94088857Y-74639714D01*
X94052571Y-74748571D01*
X94016285Y-74930000D01*
X94016285Y-75075142D01*
X94052571Y-75256571D01*
X94088857Y-75365428D01*
X94125142Y-75438000D01*
X94197714Y-75546857D01*
X94234000Y-75583142D01*
X103232857Y-96810285D02*
X103232857Y-97572285D01*
X102797428Y-96810285D01*
X102797428Y-97572285D01*
X102543428Y-97572285D02*
X102108000Y-97572285D01*
X102325714Y-96810285D02*
X102325714Y-97572285D01*
X101418571Y-96882857D02*
X101454857Y-96846571D01*
X101563714Y-96810285D01*
X101636285Y-96810285D01*
X101745142Y-96846571D01*
X101817714Y-96919142D01*
X101854000Y-96991714D01*
X101890285Y-97136857D01*
X101890285Y-97245714D01*
X101854000Y-97390857D01*
X101817714Y-97463428D01*
X101745142Y-97536000D01*
X101636285Y-97572285D01*
X101563714Y-97572285D01*
X101454857Y-97536000D01*
X101418571Y-97499714D01*
X100620285Y-97572285D02*
X100184857Y-97572285D01*
X100402571Y-96810285D02*
X100402571Y-97572285D01*
X99930857Y-96810285D02*
X99930857Y-97572285D01*
X99604285Y-96810285D02*
X99604285Y-97209428D01*
X99640571Y-97282000D01*
X99713142Y-97318285D01*
X99822000Y-97318285D01*
X99894571Y-97282000D01*
X99930857Y-97245714D01*
X98951142Y-96846571D02*
X99023714Y-96810285D01*
X99168857Y-96810285D01*
X99241428Y-96846571D01*
X99277714Y-96919142D01*
X99277714Y-97209428D01*
X99241428Y-97282000D01*
X99168857Y-97318285D01*
X99023714Y-97318285D01*
X98951142Y-97282000D01*
X98914857Y-97209428D01*
X98914857Y-97136857D01*
X99277714Y-97064285D01*
X98588285Y-96810285D02*
X98588285Y-97318285D01*
X98588285Y-97173142D02*
X98552000Y-97245714D01*
X98515714Y-97282000D01*
X98443142Y-97318285D01*
X98370571Y-97318285D01*
X98116571Y-96810285D02*
X98116571Y-97318285D01*
X98116571Y-97245714D02*
X98080285Y-97282000D01*
X98007714Y-97318285D01*
X97898857Y-97318285D01*
X97826285Y-97282000D01*
X97790000Y-97209428D01*
X97790000Y-96810285D01*
X97790000Y-97209428D02*
X97753714Y-97282000D01*
X97681142Y-97318285D01*
X97572285Y-97318285D01*
X97499714Y-97282000D01*
X97463428Y-97209428D01*
X97463428Y-96810285D01*
X97100571Y-96810285D02*
X97100571Y-97318285D01*
X97100571Y-97572285D02*
X97136857Y-97536000D01*
X97100571Y-97499714D01*
X97064285Y-97536000D01*
X97100571Y-97572285D01*
X97100571Y-97499714D01*
X96774000Y-96846571D02*
X96701428Y-96810285D01*
X96556285Y-96810285D01*
X96483714Y-96846571D01*
X96447428Y-96919142D01*
X96447428Y-96955428D01*
X96483714Y-97028000D01*
X96556285Y-97064285D01*
X96665142Y-97064285D01*
X96737714Y-97100571D01*
X96774000Y-97173142D01*
X96774000Y-97209428D01*
X96737714Y-97282000D01*
X96665142Y-97318285D01*
X96556285Y-97318285D01*
X96483714Y-97282000D01*
X96229714Y-97318285D02*
X95939428Y-97318285D01*
X96120857Y-97572285D02*
X96120857Y-96919142D01*
X96084571Y-96846571D01*
X96012000Y-96810285D01*
X95939428Y-96810285D01*
X95576571Y-96810285D02*
X95649142Y-96846571D01*
X95685428Y-96882857D01*
X95721714Y-96955428D01*
X95721714Y-97173142D01*
X95685428Y-97245714D01*
X95649142Y-97282000D01*
X95576571Y-97318285D01*
X95467714Y-97318285D01*
X95395142Y-97282000D01*
X95358857Y-97245714D01*
X95322571Y-97173142D01*
X95322571Y-96955428D01*
X95358857Y-96882857D01*
X95395142Y-96846571D01*
X95467714Y-96810285D01*
X95576571Y-96810285D01*
X94996000Y-96810285D02*
X94996000Y-97318285D01*
X94996000Y-97173142D02*
X94959714Y-97245714D01*
X94923428Y-97282000D01*
X94850857Y-97318285D01*
X94778285Y-97318285D01*
X102851857Y-95540285D02*
X103287285Y-95540285D01*
X103069571Y-95540285D02*
X103069571Y-96302285D01*
X103142142Y-96193428D01*
X103214714Y-96120857D01*
X103287285Y-96084571D01*
X102380142Y-96302285D02*
X102307571Y-96302285D01*
X102235000Y-96266000D01*
X102198714Y-96229714D01*
X102162428Y-96157142D01*
X102126142Y-96012000D01*
X102126142Y-95830571D01*
X102162428Y-95685428D01*
X102198714Y-95612857D01*
X102235000Y-95576571D01*
X102307571Y-95540285D01*
X102380142Y-95540285D01*
X102452714Y-95576571D01*
X102489000Y-95612857D01*
X102525285Y-95685428D01*
X102561571Y-95830571D01*
X102561571Y-96012000D01*
X102525285Y-96157142D01*
X102489000Y-96229714D01*
X102452714Y-96266000D01*
X102380142Y-96302285D01*
X101799571Y-95540285D02*
X101799571Y-96302285D01*
X101364142Y-95540285D02*
X101690714Y-95975714D01*
X101364142Y-96302285D02*
X101799571Y-95866857D01*
X100457000Y-95830571D02*
X99876428Y-95830571D01*
X98715285Y-95250000D02*
X98751571Y-95286285D01*
X98824142Y-95395142D01*
X98860428Y-95467714D01*
X98896714Y-95576571D01*
X98933000Y-95758000D01*
X98933000Y-95903142D01*
X98896714Y-96084571D01*
X98860428Y-96193428D01*
X98824142Y-96266000D01*
X98751571Y-96374857D01*
X98715285Y-96411142D01*
X98025857Y-95540285D02*
X98461285Y-95540285D01*
X98243571Y-95540285D02*
X98243571Y-96302285D01*
X98316142Y-96193428D01*
X98388714Y-96120857D01*
X98461285Y-96084571D01*
X97554142Y-96302285D02*
X97481571Y-96302285D01*
X97409000Y-96266000D01*
X97372714Y-96229714D01*
X97336428Y-96157142D01*
X97300142Y-96012000D01*
X97300142Y-95830571D01*
X97336428Y-95685428D01*
X97372714Y-95612857D01*
X97409000Y-95576571D01*
X97481571Y-95540285D01*
X97554142Y-95540285D01*
X97626714Y-95576571D01*
X97663000Y-95612857D01*
X97699285Y-95685428D01*
X97735571Y-95830571D01*
X97735571Y-96012000D01*
X97699285Y-96157142D01*
X97663000Y-96229714D01*
X97626714Y-96266000D01*
X97554142Y-96302285D01*
X97046142Y-96302285D02*
X96574428Y-96302285D01*
X96828428Y-96012000D01*
X96719571Y-96012000D01*
X96647000Y-95975714D01*
X96610714Y-95939428D01*
X96574428Y-95866857D01*
X96574428Y-95685428D01*
X96610714Y-95612857D01*
X96647000Y-95576571D01*
X96719571Y-95540285D01*
X96937285Y-95540285D01*
X97009857Y-95576571D01*
X97046142Y-95612857D01*
X96284142Y-95758000D02*
X95921285Y-95758000D01*
X96356714Y-95540285D02*
X96102714Y-96302285D01*
X95848714Y-95540285D01*
X95703571Y-96302285D02*
X95268142Y-96302285D01*
X95485857Y-95540285D02*
X95485857Y-96302285D01*
X95086714Y-95250000D02*
X95050428Y-95286285D01*
X94977857Y-95395142D01*
X94941571Y-95467714D01*
X94905285Y-95576571D01*
X94869000Y-95758000D01*
X94869000Y-95903142D01*
X94905285Y-96084571D01*
X94941571Y-96193428D01*
X94977857Y-96266000D01*
X95050428Y-96374857D01*
X95086714Y-96411142D01*
D14*
X117235000Y-59696071D02*
X118686428Y-59696071D01*
X119593571Y-59696071D02*
X121045000Y-59696071D01*
X120319285Y-60421785D02*
X120319285Y-58970357D01*
X103996428Y-59696071D02*
X105447857Y-59696071D01*
X106355000Y-59696071D02*
X107806428Y-59696071D01*
X107080714Y-60421785D02*
X107080714Y-58970357D01*
X108713571Y-59696071D02*
X110165000Y-59696071D01*
X111072142Y-59696071D02*
X112523571Y-59696071D01*
X111797857Y-60421785D02*
X111797857Y-58970357D01*
X62928500Y-78368071D02*
X62656357Y-78277357D01*
X62565642Y-78186642D01*
X62474928Y-78005214D01*
X62474928Y-77733071D01*
X62565642Y-77551642D01*
X62656357Y-77460928D01*
X62837785Y-77370214D01*
X63563500Y-77370214D01*
X63563500Y-79275214D01*
X62928500Y-79275214D01*
X62747071Y-79184500D01*
X62656357Y-79093785D01*
X62565642Y-78912357D01*
X62565642Y-78730928D01*
X62656357Y-78549500D01*
X62747071Y-78458785D01*
X62928500Y-78368071D01*
X63563500Y-78368071D01*
X61658500Y-77370214D02*
X61658500Y-79275214D01*
X61023500Y-77914500D01*
X60388500Y-79275214D01*
X60388500Y-77370214D01*
X145823214Y-103278214D02*
X145823214Y-105183214D01*
X145097500Y-105183214D01*
X144916071Y-105092500D01*
X144825357Y-105001785D01*
X144734642Y-104820357D01*
X144734642Y-104548214D01*
X144825357Y-104366785D01*
X144916071Y-104276071D01*
X145097500Y-104185357D01*
X145823214Y-104185357D01*
X143918214Y-104003928D02*
X142466785Y-104003928D01*
X143192500Y-103278214D02*
X143192500Y-104729642D01*
X145188214Y-124850071D02*
X144916071Y-124759357D01*
X144825357Y-124668642D01*
X144734642Y-124487214D01*
X144734642Y-124215071D01*
X144825357Y-124033642D01*
X144916071Y-123942928D01*
X145097500Y-123852214D01*
X145823214Y-123852214D01*
X145823214Y-125757214D01*
X145188214Y-125757214D01*
X145006785Y-125666500D01*
X144916071Y-125575785D01*
X144825357Y-125394357D01*
X144825357Y-125212928D01*
X144916071Y-125031500D01*
X145006785Y-124940785D01*
X145188214Y-124850071D01*
X145823214Y-124850071D01*
X143918214Y-124577928D02*
X142466785Y-124577928D01*
X59118500Y-124850071D02*
X58846357Y-124759357D01*
X58755642Y-124668642D01*
X58664928Y-124487214D01*
X58664928Y-124215071D01*
X58755642Y-124033642D01*
X58846357Y-123942928D01*
X59027785Y-123852214D01*
X59753500Y-123852214D01*
X59753500Y-125757214D01*
X59118500Y-125757214D01*
X58937071Y-125666500D01*
X58846357Y-125575785D01*
X58755642Y-125394357D01*
X58755642Y-125212928D01*
X58846357Y-125031500D01*
X58937071Y-124940785D01*
X59118500Y-124850071D01*
X59753500Y-124850071D01*
X57848500Y-123852214D02*
X57848500Y-125757214D01*
X57213500Y-124396500D01*
X56578500Y-125757214D01*
X56578500Y-123852214D01*
X59118500Y-103895071D02*
X58846357Y-103804357D01*
X58755642Y-103713642D01*
X58664928Y-103532214D01*
X58664928Y-103260071D01*
X58755642Y-103078642D01*
X58846357Y-102987928D01*
X59027785Y-102897214D01*
X59753500Y-102897214D01*
X59753500Y-104802214D01*
X59118500Y-104802214D01*
X58937071Y-104711500D01*
X58846357Y-104620785D01*
X58755642Y-104439357D01*
X58755642Y-104257928D01*
X58846357Y-104076500D01*
X58937071Y-103985785D01*
X59118500Y-103895071D01*
X59753500Y-103895071D01*
X57848500Y-102897214D02*
X57848500Y-104802214D01*
X57213500Y-103441500D01*
X56578500Y-104802214D01*
X56578500Y-102897214D01*
D18*
X81824564Y-75401500D02*
X81370436Y-75401500D01*
X81824564Y-76871500D02*
X81370436Y-76871500D01*
X85761564Y-75401500D02*
X85307436Y-75401500D01*
X85761564Y-76871500D02*
X85307436Y-76871500D01*
D19*
G36*
X61161862Y-89064294D02*
G01*
X61100092Y-89062578D01*
X61049983Y-89060073D01*
X61018314Y-89057035D01*
X61017785Y-89056949D01*
X60970160Y-89049077D01*
X60970160Y-87884000D01*
X61043269Y-87884000D01*
X61093053Y-87886323D01*
X61139989Y-87892260D01*
X61160744Y-87896866D01*
X61188058Y-87902004D01*
X61235467Y-87908052D01*
X61297708Y-87914454D01*
X61369518Y-87920655D01*
X61424128Y-87924678D01*
X61661607Y-87931836D01*
X61891723Y-87920785D01*
X62111172Y-87891888D01*
X62316650Y-87845509D01*
X62413271Y-87815826D01*
X62500510Y-87786398D01*
X62503747Y-86514399D01*
X62506983Y-85242400D01*
X63738760Y-85242400D01*
X63738760Y-89052400D01*
X62506860Y-89052400D01*
X62506860Y-88785700D01*
X62506588Y-88706494D01*
X62505825Y-88636642D01*
X62504655Y-88579855D01*
X62503164Y-88539843D01*
X62501434Y-88520317D01*
X62500835Y-88519000D01*
X62489093Y-88526488D01*
X62462029Y-88546743D01*
X62423980Y-88576452D01*
X62389710Y-88603861D01*
X62205474Y-88741013D01*
X62022804Y-88853369D01*
X61840543Y-88941391D01*
X61657536Y-89005536D01*
X61472624Y-89046265D01*
X61284653Y-89064036D01*
X61228516Y-89064961D01*
X61161862Y-89064294D01*
G37*
X61161862Y-89064294D02*
X61100092Y-89062578D01*
X61049983Y-89060073D01*
X61018314Y-89057035D01*
X61017785Y-89056949D01*
X60970160Y-89049077D01*
X60970160Y-87884000D01*
X61043269Y-87884000D01*
X61093053Y-87886323D01*
X61139989Y-87892260D01*
X61160744Y-87896866D01*
X61188058Y-87902004D01*
X61235467Y-87908052D01*
X61297708Y-87914454D01*
X61369518Y-87920655D01*
X61424128Y-87924678D01*
X61661607Y-87931836D01*
X61891723Y-87920785D01*
X62111172Y-87891888D01*
X62316650Y-87845509D01*
X62413271Y-87815826D01*
X62500510Y-87786398D01*
X62503747Y-86514399D01*
X62506983Y-85242400D01*
X63738760Y-85242400D01*
X63738760Y-89052400D01*
X62506860Y-89052400D01*
X62506860Y-88785700D01*
X62506588Y-88706494D01*
X62505825Y-88636642D01*
X62504655Y-88579855D01*
X62503164Y-88539843D01*
X62501434Y-88520317D01*
X62500835Y-88519000D01*
X62489093Y-88526488D01*
X62462029Y-88546743D01*
X62423980Y-88576452D01*
X62389710Y-88603861D01*
X62205474Y-88741013D01*
X62022804Y-88853369D01*
X61840543Y-88941391D01*
X61657536Y-89005536D01*
X61472624Y-89046265D01*
X61284653Y-89064036D01*
X61228516Y-89064961D01*
X61161862Y-89064294D01*
G36*
X69695060Y-85242400D02*
G01*
X70977760Y-85242400D01*
X70977760Y-86575900D01*
X69695060Y-86575900D01*
X69695060Y-85242400D01*
G37*
X69695060Y-85242400D02*
X70977760Y-85242400D01*
X70977760Y-86575900D01*
X69695060Y-86575900D01*
X69695060Y-85242400D01*
G36*
X103508611Y-90296878D02*
G01*
X103306863Y-90296474D01*
X103127033Y-90295736D01*
X102967382Y-90294608D01*
X102826169Y-90293039D01*
X102701655Y-90290974D01*
X102592098Y-90288359D01*
X102495760Y-90285141D01*
X102410899Y-90281266D01*
X102335776Y-90276680D01*
X102268650Y-90271329D01*
X102207782Y-90265161D01*
X102151431Y-90258120D01*
X102097857Y-90250154D01*
X102070738Y-90245666D01*
X101847153Y-90197534D01*
X101642248Y-90132813D01*
X101456249Y-90051723D01*
X101289384Y-89954482D01*
X101141880Y-89841310D01*
X101013963Y-89712426D01*
X100905861Y-89568049D01*
X100817800Y-89408399D01*
X100750007Y-89233694D01*
X100702711Y-89044155D01*
X100682054Y-88904015D01*
X100672066Y-88707926D01*
X100683066Y-88505787D01*
X100714090Y-88303633D01*
X100764173Y-88107495D01*
X100832350Y-87923405D01*
X100842538Y-87900573D01*
X100925841Y-87746830D01*
X101031517Y-87599653D01*
X101156933Y-87461138D01*
X101299457Y-87333381D01*
X101456458Y-87218481D01*
X101625305Y-87118533D01*
X101803364Y-87035634D01*
X101988005Y-86971881D01*
X102018894Y-86963355D01*
X102081798Y-86947074D01*
X102139888Y-86933358D01*
X102196127Y-86921960D01*
X102253483Y-86912630D01*
X102314921Y-86905122D01*
X102383406Y-86899186D01*
X102461905Y-86894574D01*
X102553384Y-86891038D01*
X102660808Y-86888330D01*
X102787143Y-86886202D01*
X102935355Y-86884404D01*
X102965885Y-86884083D01*
X103540560Y-86878145D01*
X103540560Y-85242400D01*
X104848660Y-85242400D01*
X104848660Y-87845900D01*
X103540560Y-87845900D01*
X103226235Y-87846005D01*
X103131580Y-87846561D01*
X103038306Y-87848064D01*
X102951700Y-87850357D01*
X102877050Y-87853285D01*
X102819645Y-87856689D01*
X102797610Y-87858679D01*
X102652865Y-87879648D01*
X102529368Y-87909004D01*
X102423984Y-87948023D01*
X102333577Y-87997978D01*
X102255011Y-88060147D01*
X102222593Y-88092543D01*
X102153836Y-88177247D01*
X102102148Y-88267917D01*
X102065750Y-88369164D01*
X102042866Y-88485599D01*
X102033691Y-88582500D01*
X102033695Y-88711836D01*
X102051553Y-88825645D01*
X102088601Y-88927698D01*
X102146173Y-89021761D01*
X102218715Y-89104783D01*
X102283529Y-89163215D01*
X102350843Y-89209356D01*
X102427137Y-89246642D01*
X102518890Y-89278508D01*
X102576532Y-89294512D01*
X102638402Y-89306697D01*
X102723500Y-89317391D01*
X102829691Y-89326460D01*
X102954839Y-89333774D01*
X103096809Y-89339200D01*
X103253466Y-89342605D01*
X103372285Y-89343724D01*
X103540560Y-89344500D01*
X103540560Y-87845900D01*
X104848660Y-87845900D01*
X104848660Y-90297000D01*
X103734019Y-90297000D01*
X103508611Y-90296878D01*
G37*
X103508611Y-90296878D02*
X103306863Y-90296474D01*
X103127033Y-90295736D01*
X102967382Y-90294608D01*
X102826169Y-90293039D01*
X102701655Y-90290974D01*
X102592098Y-90288359D01*
X102495760Y-90285141D01*
X102410899Y-90281266D01*
X102335776Y-90276680D01*
X102268650Y-90271329D01*
X102207782Y-90265161D01*
X102151431Y-90258120D01*
X102097857Y-90250154D01*
X102070738Y-90245666D01*
X101847153Y-90197534D01*
X101642248Y-90132813D01*
X101456249Y-90051723D01*
X101289384Y-89954482D01*
X101141880Y-89841310D01*
X101013963Y-89712426D01*
X100905861Y-89568049D01*
X100817800Y-89408399D01*
X100750007Y-89233694D01*
X100702711Y-89044155D01*
X100682054Y-88904015D01*
X100672066Y-88707926D01*
X100683066Y-88505787D01*
X100714090Y-88303633D01*
X100764173Y-88107495D01*
X100832350Y-87923405D01*
X100842538Y-87900573D01*
X100925841Y-87746830D01*
X101031517Y-87599653D01*
X101156933Y-87461138D01*
X101299457Y-87333381D01*
X101456458Y-87218481D01*
X101625305Y-87118533D01*
X101803364Y-87035634D01*
X101988005Y-86971881D01*
X102018894Y-86963355D01*
X102081798Y-86947074D01*
X102139888Y-86933358D01*
X102196127Y-86921960D01*
X102253483Y-86912630D01*
X102314921Y-86905122D01*
X102383406Y-86899186D01*
X102461905Y-86894574D01*
X102553384Y-86891038D01*
X102660808Y-86888330D01*
X102787143Y-86886202D01*
X102935355Y-86884404D01*
X102965885Y-86884083D01*
X103540560Y-86878145D01*
X103540560Y-85242400D01*
X104848660Y-85242400D01*
X104848660Y-87845900D01*
X103540560Y-87845900D01*
X103226235Y-87846005D01*
X103131580Y-87846561D01*
X103038306Y-87848064D01*
X102951700Y-87850357D01*
X102877050Y-87853285D01*
X102819645Y-87856689D01*
X102797610Y-87858679D01*
X102652865Y-87879648D01*
X102529368Y-87909004D01*
X102423984Y-87948023D01*
X102333577Y-87997978D01*
X102255011Y-88060147D01*
X102222593Y-88092543D01*
X102153836Y-88177247D01*
X102102148Y-88267917D01*
X102065750Y-88369164D01*
X102042866Y-88485599D01*
X102033691Y-88582500D01*
X102033695Y-88711836D01*
X102051553Y-88825645D01*
X102088601Y-88927698D01*
X102146173Y-89021761D01*
X102218715Y-89104783D01*
X102283529Y-89163215D01*
X102350843Y-89209356D01*
X102427137Y-89246642D01*
X102518890Y-89278508D01*
X102576532Y-89294512D01*
X102638402Y-89306697D01*
X102723500Y-89317391D01*
X102829691Y-89326460D01*
X102954839Y-89333774D01*
X103096809Y-89339200D01*
X103253466Y-89342605D01*
X103372285Y-89343724D01*
X103540560Y-89344500D01*
X103540560Y-87845900D01*
X104848660Y-87845900D01*
X104848660Y-90297000D01*
X103734019Y-90297000D01*
X103508611Y-90296878D01*
G36*
X84106468Y-89598337D02*
G01*
X84103210Y-88671073D01*
X83982560Y-88758578D01*
X83896599Y-88817913D01*
X83801986Y-88878116D01*
X83705173Y-88935427D01*
X83612614Y-88986084D01*
X83530760Y-89026328D01*
X83500728Y-89039384D01*
X83360967Y-89089625D01*
X83219842Y-89124618D01*
X83070665Y-89145585D01*
X82906746Y-89153746D01*
X82872822Y-89153949D01*
X82679688Y-89145767D01*
X82504155Y-89120784D01*
X82344076Y-89078173D01*
X82197305Y-89017108D01*
X82061693Y-88936761D01*
X81935094Y-88836305D01*
X81860716Y-88764111D01*
X81753072Y-88641008D01*
X81662464Y-88512057D01*
X81585662Y-88371774D01*
X81519438Y-88214672D01*
X81493064Y-88139541D01*
X81450122Y-87998813D01*
X81416588Y-87860815D01*
X81391705Y-87720176D01*
X81374715Y-87571526D01*
X81364863Y-87409496D01*
X81361393Y-87228716D01*
X81361370Y-87204550D01*
X81363529Y-87052183D01*
X81370202Y-86918857D01*
X81382098Y-86798500D01*
X81399927Y-86685040D01*
X81424398Y-86572405D01*
X81443998Y-86497493D01*
X81510212Y-86299831D01*
X81595876Y-86112185D01*
X81699318Y-85936413D01*
X81818865Y-85774373D01*
X81952844Y-85627924D01*
X82099582Y-85498922D01*
X82257408Y-85389228D01*
X82424648Y-85300697D01*
X82572860Y-85243505D01*
X82649662Y-85220133D01*
X82719148Y-85202577D01*
X82787583Y-85189946D01*
X82861234Y-85181349D01*
X82946367Y-85175896D01*
X83049249Y-85172697D01*
X83074510Y-85172214D01*
X83156941Y-85171454D01*
X83236775Y-85171961D01*
X83308122Y-85173607D01*
X83365092Y-85176263D01*
X83398360Y-85179293D01*
X83615715Y-85221662D01*
X83824992Y-85287906D01*
X83997715Y-85363762D01*
X84108120Y-85418956D01*
X84128479Y-85346553D01*
X84140384Y-85304731D01*
X84150008Y-85271833D01*
X84154201Y-85258275D01*
X84160775Y-85254403D01*
X84178838Y-85251168D01*
X84210165Y-85248523D01*
X84256529Y-85246421D01*
X84319706Y-85244815D01*
X84401469Y-85243658D01*
X84503593Y-85242901D01*
X84627851Y-85242499D01*
X84750512Y-85242400D01*
X85341460Y-85242400D01*
X85341460Y-88025312D01*
X84109560Y-88025312D01*
X84109560Y-86123339D01*
X84042885Y-86102791D01*
X83970373Y-86083711D01*
X83881169Y-86065427D01*
X83785710Y-86049969D01*
X83740893Y-86046608D01*
X83677794Y-86045790D01*
X83602877Y-86047196D01*
X83522608Y-86050510D01*
X83443449Y-86055415D01*
X83371867Y-86061594D01*
X83314325Y-86068729D01*
X83284060Y-86074572D01*
X83145108Y-86122191D01*
X83021432Y-86189943D01*
X82913903Y-86277050D01*
X82823391Y-86382733D01*
X82750765Y-86506214D01*
X82719308Y-86579973D01*
X82680175Y-86708468D01*
X82651649Y-86854465D01*
X82633966Y-87012282D01*
X82627362Y-87176236D01*
X82632070Y-87340644D01*
X82648328Y-87499823D01*
X82675254Y-87643428D01*
X82703400Y-87738175D01*
X82741639Y-87832884D01*
X82786643Y-87920889D01*
X82835085Y-87995522D01*
X82873387Y-88040436D01*
X82962743Y-88111910D01*
X83068238Y-88165916D01*
X83187490Y-88202365D01*
X83318119Y-88221173D01*
X83457742Y-88222254D01*
X83603980Y-88205520D01*
X83754451Y-88170887D01*
X83906773Y-88118268D01*
X83992085Y-88080871D01*
X84109560Y-88025312D01*
X85341460Y-88025312D01*
X85341460Y-90525600D01*
X84109725Y-90525600D01*
X84106468Y-89598337D01*
G37*
X84106468Y-89598337D02*
X84103210Y-88671073D01*
X83982560Y-88758578D01*
X83896599Y-88817913D01*
X83801986Y-88878116D01*
X83705173Y-88935427D01*
X83612614Y-88986084D01*
X83530760Y-89026328D01*
X83500728Y-89039384D01*
X83360967Y-89089625D01*
X83219842Y-89124618D01*
X83070665Y-89145585D01*
X82906746Y-89153746D01*
X82872822Y-89153949D01*
X82679688Y-89145767D01*
X82504155Y-89120784D01*
X82344076Y-89078173D01*
X82197305Y-89017108D01*
X82061693Y-88936761D01*
X81935094Y-88836305D01*
X81860716Y-88764111D01*
X81753072Y-88641008D01*
X81662464Y-88512057D01*
X81585662Y-88371774D01*
X81519438Y-88214672D01*
X81493064Y-88139541D01*
X81450122Y-87998813D01*
X81416588Y-87860815D01*
X81391705Y-87720176D01*
X81374715Y-87571526D01*
X81364863Y-87409496D01*
X81361393Y-87228716D01*
X81361370Y-87204550D01*
X81363529Y-87052183D01*
X81370202Y-86918857D01*
X81382098Y-86798500D01*
X81399927Y-86685040D01*
X81424398Y-86572405D01*
X81443998Y-86497493D01*
X81510212Y-86299831D01*
X81595876Y-86112185D01*
X81699318Y-85936413D01*
X81818865Y-85774373D01*
X81952844Y-85627924D01*
X82099582Y-85498922D01*
X82257408Y-85389228D01*
X82424648Y-85300697D01*
X82572860Y-85243505D01*
X82649662Y-85220133D01*
X82719148Y-85202577D01*
X82787583Y-85189946D01*
X82861234Y-85181349D01*
X82946367Y-85175896D01*
X83049249Y-85172697D01*
X83074510Y-85172214D01*
X83156941Y-85171454D01*
X83236775Y-85171961D01*
X83308122Y-85173607D01*
X83365092Y-85176263D01*
X83398360Y-85179293D01*
X83615715Y-85221662D01*
X83824992Y-85287906D01*
X83997715Y-85363762D01*
X84108120Y-85418956D01*
X84128479Y-85346553D01*
X84140384Y-85304731D01*
X84150008Y-85271833D01*
X84154201Y-85258275D01*
X84160775Y-85254403D01*
X84178838Y-85251168D01*
X84210165Y-85248523D01*
X84256529Y-85246421D01*
X84319706Y-85244815D01*
X84401469Y-85243658D01*
X84503593Y-85242901D01*
X84627851Y-85242499D01*
X84750512Y-85242400D01*
X85341460Y-85242400D01*
X85341460Y-88025312D01*
X84109560Y-88025312D01*
X84109560Y-86123339D01*
X84042885Y-86102791D01*
X83970373Y-86083711D01*
X83881169Y-86065427D01*
X83785710Y-86049969D01*
X83740893Y-86046608D01*
X83677794Y-86045790D01*
X83602877Y-86047196D01*
X83522608Y-86050510D01*
X83443449Y-86055415D01*
X83371867Y-86061594D01*
X83314325Y-86068729D01*
X83284060Y-86074572D01*
X83145108Y-86122191D01*
X83021432Y-86189943D01*
X82913903Y-86277050D01*
X82823391Y-86382733D01*
X82750765Y-86506214D01*
X82719308Y-86579973D01*
X82680175Y-86708468D01*
X82651649Y-86854465D01*
X82633966Y-87012282D01*
X82627362Y-87176236D01*
X82632070Y-87340644D01*
X82648328Y-87499823D01*
X82675254Y-87643428D01*
X82703400Y-87738175D01*
X82741639Y-87832884D01*
X82786643Y-87920889D01*
X82835085Y-87995522D01*
X82873387Y-88040436D01*
X82962743Y-88111910D01*
X83068238Y-88165916D01*
X83187490Y-88202365D01*
X83318119Y-88221173D01*
X83457742Y-88222254D01*
X83603980Y-88205520D01*
X83754451Y-88170887D01*
X83906773Y-88118268D01*
X83992085Y-88080871D01*
X84109560Y-88025312D01*
X85341460Y-88025312D01*
X85341460Y-90525600D01*
X84109725Y-90525600D01*
X84106468Y-89598337D01*
G36*
X78454790Y-89164573D02*
G01*
X78355213Y-89161108D01*
X78271477Y-89155736D01*
X78244835Y-89153151D01*
X78022431Y-89118395D01*
X77816705Y-89064942D01*
X77627913Y-88992996D01*
X77456314Y-88902757D01*
X77302165Y-88794427D01*
X77165725Y-88668209D01*
X77047251Y-88524305D01*
X76947001Y-88362916D01*
X76865233Y-88184243D01*
X76814555Y-88033375D01*
X76794590Y-87961702D01*
X76778437Y-87896770D01*
X76765640Y-87834478D01*
X76755744Y-87770730D01*
X76748294Y-87701426D01*
X76742836Y-87622467D01*
X76738914Y-87529755D01*
X76736074Y-87419192D01*
X76734189Y-87309325D01*
X76728406Y-86918800D01*
X79512160Y-86918800D01*
X79512160Y-86870032D01*
X79506611Y-86812856D01*
X79491426Y-86740991D01*
X79468800Y-86662223D01*
X79440926Y-86584340D01*
X79414966Y-86525100D01*
X79367626Y-86446690D01*
X79302831Y-86365586D01*
X79226861Y-86288149D01*
X79145993Y-86220734D01*
X79066507Y-86169701D01*
X79061310Y-86166985D01*
X78912617Y-86103276D01*
X78747744Y-86055542D01*
X78570316Y-86023852D01*
X78383957Y-86008278D01*
X78192291Y-86008888D01*
X77998943Y-86025754D01*
X77807537Y-86058944D01*
X77621697Y-86108529D01*
X77537214Y-86137551D01*
X77452321Y-86171143D01*
X77359715Y-86211454D01*
X77265561Y-86255491D01*
X77176029Y-86300260D01*
X77097286Y-86342765D01*
X77035500Y-86380013D01*
X77029310Y-86384127D01*
X76985925Y-86411769D01*
X76952256Y-86427305D01*
X76917937Y-86434182D01*
X76873735Y-86435841D01*
X76794360Y-86436200D01*
X76794360Y-85451169D01*
X76835635Y-85435013D01*
X76918212Y-85404358D01*
X77017437Y-85370134D01*
X77125307Y-85334893D01*
X77233821Y-85301190D01*
X77334975Y-85271576D01*
X77417045Y-85249537D01*
X77530221Y-85222263D01*
X77633606Y-85200254D01*
X77732250Y-85182939D01*
X77831206Y-85169747D01*
X77935525Y-85160106D01*
X78050258Y-85153443D01*
X78180457Y-85149189D01*
X78324710Y-85146839D01*
X78426846Y-85146153D01*
X78526247Y-85146254D01*
X78618522Y-85147078D01*
X78699280Y-85148563D01*
X78764131Y-85150649D01*
X78808684Y-85153273D01*
X78813660Y-85153741D01*
X79076876Y-85189914D01*
X79321766Y-85242848D01*
X79548118Y-85312464D01*
X79755719Y-85398682D01*
X79944356Y-85501425D01*
X80113818Y-85620611D01*
X80153510Y-85653264D01*
X80289602Y-85783413D01*
X80412389Y-85930177D01*
X80517447Y-86087820D01*
X80580319Y-86206303D01*
X80646711Y-86371389D01*
X80698602Y-86553515D01*
X80735595Y-86748597D01*
X80757292Y-86952551D01*
X80763295Y-87161292D01*
X80753209Y-87370738D01*
X80726634Y-87576802D01*
X80718190Y-87623068D01*
X80713310Y-87642700D01*
X79525344Y-87642700D01*
X77948039Y-87642700D01*
X77956982Y-87728425D01*
X77981294Y-87877679D01*
X78021251Y-88007119D01*
X78077247Y-88117240D01*
X78149672Y-88208541D01*
X78238921Y-88281517D01*
X78345387Y-88336665D01*
X78467702Y-88374091D01*
X78556159Y-88387242D01*
X78659252Y-88392135D01*
X78768338Y-88389167D01*
X78874773Y-88378735D01*
X78969916Y-88361233D01*
X79013235Y-88349088D01*
X79141493Y-88295128D01*
X79252068Y-88223352D01*
X79344135Y-88134716D01*
X79416866Y-88030175D01*
X79469433Y-87910686D01*
X79499501Y-87786983D01*
X79507489Y-87738367D01*
X79514725Y-87696373D01*
X79519410Y-87671275D01*
X79525344Y-87642700D01*
X80713310Y-87642700D01*
X80664470Y-87839150D01*
X80589789Y-88041388D01*
X80494882Y-88229147D01*
X80380486Y-88401788D01*
X80247336Y-88558675D01*
X80096167Y-88699171D01*
X79927717Y-88822639D01*
X79742719Y-88928443D01*
X79541911Y-89015944D01*
X79326028Y-89084506D01*
X79095805Y-89133492D01*
X78950686Y-89153267D01*
X78874589Y-89159350D01*
X78780105Y-89163521D01*
X78674081Y-89165781D01*
X78563361Y-89166132D01*
X78454790Y-89164573D01*
G37*
X78454790Y-89164573D02*
X78355213Y-89161108D01*
X78271477Y-89155736D01*
X78244835Y-89153151D01*
X78022431Y-89118395D01*
X77816705Y-89064942D01*
X77627913Y-88992996D01*
X77456314Y-88902757D01*
X77302165Y-88794427D01*
X77165725Y-88668209D01*
X77047251Y-88524305D01*
X76947001Y-88362916D01*
X76865233Y-88184243D01*
X76814555Y-88033375D01*
X76794590Y-87961702D01*
X76778437Y-87896770D01*
X76765640Y-87834478D01*
X76755744Y-87770730D01*
X76748294Y-87701426D01*
X76742836Y-87622467D01*
X76738914Y-87529755D01*
X76736074Y-87419192D01*
X76734189Y-87309325D01*
X76728406Y-86918800D01*
X79512160Y-86918800D01*
X79512160Y-86870032D01*
X79506611Y-86812856D01*
X79491426Y-86740991D01*
X79468800Y-86662223D01*
X79440926Y-86584340D01*
X79414966Y-86525100D01*
X79367626Y-86446690D01*
X79302831Y-86365586D01*
X79226861Y-86288149D01*
X79145993Y-86220734D01*
X79066507Y-86169701D01*
X79061310Y-86166985D01*
X78912617Y-86103276D01*
X78747744Y-86055542D01*
X78570316Y-86023852D01*
X78383957Y-86008278D01*
X78192291Y-86008888D01*
X77998943Y-86025754D01*
X77807537Y-86058944D01*
X77621697Y-86108529D01*
X77537214Y-86137551D01*
X77452321Y-86171143D01*
X77359715Y-86211454D01*
X77265561Y-86255491D01*
X77176029Y-86300260D01*
X77097286Y-86342765D01*
X77035500Y-86380013D01*
X77029310Y-86384127D01*
X76985925Y-86411769D01*
X76952256Y-86427305D01*
X76917937Y-86434182D01*
X76873735Y-86435841D01*
X76794360Y-86436200D01*
X76794360Y-85451169D01*
X76835635Y-85435013D01*
X76918212Y-85404358D01*
X77017437Y-85370134D01*
X77125307Y-85334893D01*
X77233821Y-85301190D01*
X77334975Y-85271576D01*
X77417045Y-85249537D01*
X77530221Y-85222263D01*
X77633606Y-85200254D01*
X77732250Y-85182939D01*
X77831206Y-85169747D01*
X77935525Y-85160106D01*
X78050258Y-85153443D01*
X78180457Y-85149189D01*
X78324710Y-85146839D01*
X78426846Y-85146153D01*
X78526247Y-85146254D01*
X78618522Y-85147078D01*
X78699280Y-85148563D01*
X78764131Y-85150649D01*
X78808684Y-85153273D01*
X78813660Y-85153741D01*
X79076876Y-85189914D01*
X79321766Y-85242848D01*
X79548118Y-85312464D01*
X79755719Y-85398682D01*
X79944356Y-85501425D01*
X80113818Y-85620611D01*
X80153510Y-85653264D01*
X80289602Y-85783413D01*
X80412389Y-85930177D01*
X80517447Y-86087820D01*
X80580319Y-86206303D01*
X80646711Y-86371389D01*
X80698602Y-86553515D01*
X80735595Y-86748597D01*
X80757292Y-86952551D01*
X80763295Y-87161292D01*
X80753209Y-87370738D01*
X80726634Y-87576802D01*
X80718190Y-87623068D01*
X80713310Y-87642700D01*
X79525344Y-87642700D01*
X77948039Y-87642700D01*
X77956982Y-87728425D01*
X77981294Y-87877679D01*
X78021251Y-88007119D01*
X78077247Y-88117240D01*
X78149672Y-88208541D01*
X78238921Y-88281517D01*
X78345387Y-88336665D01*
X78467702Y-88374091D01*
X78556159Y-88387242D01*
X78659252Y-88392135D01*
X78768338Y-88389167D01*
X78874773Y-88378735D01*
X78969916Y-88361233D01*
X79013235Y-88349088D01*
X79141493Y-88295128D01*
X79252068Y-88223352D01*
X79344135Y-88134716D01*
X79416866Y-88030175D01*
X79469433Y-87910686D01*
X79499501Y-87786983D01*
X79507489Y-87738367D01*
X79514725Y-87696373D01*
X79519410Y-87671275D01*
X79525344Y-87642700D01*
X80713310Y-87642700D01*
X80664470Y-87839150D01*
X80589789Y-88041388D01*
X80494882Y-88229147D01*
X80380486Y-88401788D01*
X80247336Y-88558675D01*
X80096167Y-88699171D01*
X79927717Y-88822639D01*
X79742719Y-88928443D01*
X79541911Y-89015944D01*
X79326028Y-89084506D01*
X79095805Y-89133492D01*
X78950686Y-89153267D01*
X78874589Y-89159350D01*
X78780105Y-89163521D01*
X78674081Y-89165781D01*
X78563361Y-89166132D01*
X78454790Y-89164573D01*
G36*
X92929710Y-90379005D02*
G01*
X92811537Y-90378693D01*
X92714699Y-90377911D01*
X92635134Y-90376457D01*
X92568780Y-90374131D01*
X92511574Y-90370730D01*
X92459452Y-90366055D01*
X92408353Y-90359902D01*
X92354213Y-90352071D01*
X92339160Y-90349739D01*
X92146233Y-90315858D01*
X91970652Y-90276610D01*
X91804554Y-90229712D01*
X91640074Y-90172882D01*
X91469348Y-90103840D01*
X91425079Y-90084541D01*
X91359169Y-90055585D01*
X91298999Y-90029423D01*
X91249513Y-90008185D01*
X91215655Y-89994000D01*
X91205685Y-89990050D01*
X91170760Y-89977016D01*
X91170760Y-88734900D01*
X91250368Y-88734900D01*
X91295619Y-88736155D01*
X91327164Y-88742558D01*
X91355722Y-88758069D01*
X91392011Y-88786646D01*
X91393243Y-88787673D01*
X91594769Y-88946588D01*
X91789924Y-89081470D01*
X91979686Y-89192600D01*
X92165030Y-89280259D01*
X92346933Y-89344728D01*
X92526372Y-89386289D01*
X92704323Y-89405223D01*
X92881762Y-89401810D01*
X93059667Y-89376332D01*
X93239014Y-89329071D01*
X93255297Y-89323746D01*
X93406883Y-89261450D01*
X93550940Y-89178938D01*
X93682818Y-89079496D01*
X93797871Y-88966413D01*
X93849346Y-88903524D01*
X93899650Y-88829441D01*
X93952281Y-88739264D01*
X94002905Y-88641412D01*
X94047190Y-88544302D01*
X94080806Y-88456353D01*
X94083167Y-88449150D01*
X94132579Y-88259891D01*
X94164310Y-88054112D01*
X94178134Y-87833747D01*
X94176434Y-87655400D01*
X94162893Y-87459484D01*
X94137744Y-87282968D01*
X94099944Y-87122155D01*
X94048449Y-86973348D01*
X93982216Y-86832847D01*
X93910183Y-86712029D01*
X93838109Y-86610128D01*
X93764856Y-86524910D01*
X93683065Y-86448423D01*
X93619218Y-86397645D01*
X93508860Y-86321610D01*
X93398906Y-86261693D01*
X93281315Y-86214189D01*
X93148043Y-86175391D01*
X93124627Y-86169719D01*
X92929270Y-86135871D01*
X92734016Y-86126816D01*
X92538650Y-86142624D01*
X92342956Y-86183365D01*
X92146718Y-86249111D01*
X91949721Y-86339933D01*
X91751748Y-86455900D01*
X91552584Y-86597084D01*
X91375347Y-86742957D01*
X91340708Y-86771124D01*
X91312140Y-86785724D01*
X91277965Y-86791136D01*
X91245050Y-86791800D01*
X91170517Y-86791800D01*
X91173814Y-86181391D01*
X91177110Y-85570981D01*
X91388956Y-85477825D01*
X91517402Y-85422512D01*
X91630152Y-85376839D01*
X91733905Y-85338456D01*
X91835357Y-85305017D01*
X91941206Y-85274175D01*
X92054923Y-85244390D01*
X92165235Y-85217516D01*
X92261774Y-85196233D01*
X92350232Y-85179854D01*
X92436296Y-85167686D01*
X92525657Y-85159042D01*
X92624004Y-85153230D01*
X92737026Y-85149560D01*
X92853510Y-85147551D01*
X92945505Y-85146599D01*
X93031648Y-85146121D01*
X93107888Y-85146105D01*
X93170172Y-85146544D01*
X93214446Y-85147426D01*
X93234510Y-85148477D01*
X93475521Y-85178827D01*
X93696140Y-85219603D01*
X93899578Y-85271848D01*
X94089046Y-85336605D01*
X94267757Y-85414919D01*
X94438922Y-85507832D01*
X94543568Y-85573829D01*
X94650390Y-85652424D01*
X94761845Y-85747982D01*
X94871887Y-85854457D01*
X94974470Y-85965804D01*
X95063547Y-86075977D01*
X95106361Y-86136537D01*
X95213647Y-86312319D01*
X95303980Y-86492466D01*
X95379046Y-86681401D01*
X95440531Y-86883547D01*
X95490123Y-87103327D01*
X95503938Y-87179150D01*
X95512074Y-87228592D01*
X95518524Y-87274675D01*
X95523481Y-87321271D01*
X95527142Y-87372249D01*
X95529701Y-87431479D01*
X95531355Y-87502832D01*
X95532298Y-87590176D01*
X95532726Y-87697382D01*
X95532801Y-87750650D01*
X95532468Y-87884972D01*
X95530885Y-87998504D01*
X95527570Y-88095844D01*
X95522042Y-88181591D01*
X95513820Y-88260343D01*
X95502423Y-88336699D01*
X95487371Y-88415258D01*
X95468181Y-88500617D01*
X95444373Y-88597375D01*
X95444109Y-88598418D01*
X95378802Y-88813522D01*
X95293876Y-89022731D01*
X95191291Y-89222751D01*
X95073007Y-89410289D01*
X94940984Y-89582052D01*
X94797182Y-89734746D01*
X94733196Y-89792874D01*
X94547663Y-89936511D01*
X94345152Y-90061348D01*
X94125866Y-90167295D01*
X93890008Y-90254259D01*
X93637781Y-90322148D01*
X93501210Y-90349704D01*
X93452746Y-90358110D01*
X93408513Y-90364769D01*
X93364683Y-90369878D01*
X93317430Y-90373633D01*
X93262925Y-90376229D01*
X93197342Y-90377864D01*
X93116852Y-90378734D01*
X93017629Y-90379034D01*
X92929710Y-90379005D01*
G37*
X92929710Y-90379005D02*
X92811537Y-90378693D01*
X92714699Y-90377911D01*
X92635134Y-90376457D01*
X92568780Y-90374131D01*
X92511574Y-90370730D01*
X92459452Y-90366055D01*
X92408353Y-90359902D01*
X92354213Y-90352071D01*
X92339160Y-90349739D01*
X92146233Y-90315858D01*
X91970652Y-90276610D01*
X91804554Y-90229712D01*
X91640074Y-90172882D01*
X91469348Y-90103840D01*
X91425079Y-90084541D01*
X91359169Y-90055585D01*
X91298999Y-90029423D01*
X91249513Y-90008185D01*
X91215655Y-89994000D01*
X91205685Y-89990050D01*
X91170760Y-89977016D01*
X91170760Y-88734900D01*
X91250368Y-88734900D01*
X91295619Y-88736155D01*
X91327164Y-88742558D01*
X91355722Y-88758069D01*
X91392011Y-88786646D01*
X91393243Y-88787673D01*
X91594769Y-88946588D01*
X91789924Y-89081470D01*
X91979686Y-89192600D01*
X92165030Y-89280259D01*
X92346933Y-89344728D01*
X92526372Y-89386289D01*
X92704323Y-89405223D01*
X92881762Y-89401810D01*
X93059667Y-89376332D01*
X93239014Y-89329071D01*
X93255297Y-89323746D01*
X93406883Y-89261450D01*
X93550940Y-89178938D01*
X93682818Y-89079496D01*
X93797871Y-88966413D01*
X93849346Y-88903524D01*
X93899650Y-88829441D01*
X93952281Y-88739264D01*
X94002905Y-88641412D01*
X94047190Y-88544302D01*
X94080806Y-88456353D01*
X94083167Y-88449150D01*
X94132579Y-88259891D01*
X94164310Y-88054112D01*
X94178134Y-87833747D01*
X94176434Y-87655400D01*
X94162893Y-87459484D01*
X94137744Y-87282968D01*
X94099944Y-87122155D01*
X94048449Y-86973348D01*
X93982216Y-86832847D01*
X93910183Y-86712029D01*
X93838109Y-86610128D01*
X93764856Y-86524910D01*
X93683065Y-86448423D01*
X93619218Y-86397645D01*
X93508860Y-86321610D01*
X93398906Y-86261693D01*
X93281315Y-86214189D01*
X93148043Y-86175391D01*
X93124627Y-86169719D01*
X92929270Y-86135871D01*
X92734016Y-86126816D01*
X92538650Y-86142624D01*
X92342956Y-86183365D01*
X92146718Y-86249111D01*
X91949721Y-86339933D01*
X91751748Y-86455900D01*
X91552584Y-86597084D01*
X91375347Y-86742957D01*
X91340708Y-86771124D01*
X91312140Y-86785724D01*
X91277965Y-86791136D01*
X91245050Y-86791800D01*
X91170517Y-86791800D01*
X91173814Y-86181391D01*
X91177110Y-85570981D01*
X91388956Y-85477825D01*
X91517402Y-85422512D01*
X91630152Y-85376839D01*
X91733905Y-85338456D01*
X91835357Y-85305017D01*
X91941206Y-85274175D01*
X92054923Y-85244390D01*
X92165235Y-85217516D01*
X92261774Y-85196233D01*
X92350232Y-85179854D01*
X92436296Y-85167686D01*
X92525657Y-85159042D01*
X92624004Y-85153230D01*
X92737026Y-85149560D01*
X92853510Y-85147551D01*
X92945505Y-85146599D01*
X93031648Y-85146121D01*
X93107888Y-85146105D01*
X93170172Y-85146544D01*
X93214446Y-85147426D01*
X93234510Y-85148477D01*
X93475521Y-85178827D01*
X93696140Y-85219603D01*
X93899578Y-85271848D01*
X94089046Y-85336605D01*
X94267757Y-85414919D01*
X94438922Y-85507832D01*
X94543568Y-85573829D01*
X94650390Y-85652424D01*
X94761845Y-85747982D01*
X94871887Y-85854457D01*
X94974470Y-85965804D01*
X95063547Y-86075977D01*
X95106361Y-86136537D01*
X95213647Y-86312319D01*
X95303980Y-86492466D01*
X95379046Y-86681401D01*
X95440531Y-86883547D01*
X95490123Y-87103327D01*
X95503938Y-87179150D01*
X95512074Y-87228592D01*
X95518524Y-87274675D01*
X95523481Y-87321271D01*
X95527142Y-87372249D01*
X95529701Y-87431479D01*
X95531355Y-87502832D01*
X95532298Y-87590176D01*
X95532726Y-87697382D01*
X95532801Y-87750650D01*
X95532468Y-87884972D01*
X95530885Y-87998504D01*
X95527570Y-88095844D01*
X95522042Y-88181591D01*
X95513820Y-88260343D01*
X95502423Y-88336699D01*
X95487371Y-88415258D01*
X95468181Y-88500617D01*
X95444373Y-88597375D01*
X95444109Y-88598418D01*
X95378802Y-88813522D01*
X95293876Y-89022731D01*
X95191291Y-89222751D01*
X95073007Y-89410289D01*
X94940984Y-89582052D01*
X94797182Y-89734746D01*
X94733196Y-89792874D01*
X94547663Y-89936511D01*
X94345152Y-90061348D01*
X94125866Y-90167295D01*
X93890008Y-90254259D01*
X93637781Y-90322148D01*
X93501210Y-90349704D01*
X93452746Y-90358110D01*
X93408513Y-90364769D01*
X93364683Y-90369878D01*
X93317430Y-90373633D01*
X93262925Y-90376229D01*
X93197342Y-90377864D01*
X93116852Y-90378734D01*
X93017629Y-90379034D01*
X92929710Y-90379005D01*
G36*
X72158860Y-85242400D02*
G01*
X73390760Y-85242400D01*
X73390760Y-85625834D01*
X73451085Y-85579857D01*
X73543310Y-85512677D01*
X73643607Y-85444961D01*
X73745187Y-85380984D01*
X73841259Y-85325019D01*
X73925031Y-85281343D01*
X73926228Y-85280770D01*
X74081019Y-85217283D01*
X74242204Y-85172529D01*
X74416324Y-85144762D01*
X74446076Y-85141754D01*
X74520007Y-85135278D01*
X74577216Y-85131691D01*
X74626195Y-85130836D01*
X74675440Y-85132555D01*
X74730610Y-85136460D01*
X74923242Y-85163418D01*
X75103098Y-85212289D01*
X75270310Y-85283155D01*
X75425009Y-85376094D01*
X75567329Y-85491188D01*
X75697399Y-85628516D01*
X75815353Y-85788158D01*
X75822531Y-85799195D01*
X75919707Y-85972242D01*
X75999791Y-86163317D01*
X76062565Y-86371461D01*
X76107812Y-86595719D01*
X76135314Y-86835133D01*
X76144853Y-87088746D01*
X76143382Y-87194100D01*
X74873660Y-87194100D01*
X74872244Y-87051178D01*
X74872075Y-87045800D01*
X74861616Y-86872368D01*
X74841804Y-86720782D01*
X74812122Y-86589078D01*
X74772052Y-86475287D01*
X74721076Y-86377445D01*
X74681224Y-86320673D01*
X74599749Y-86237178D01*
X74500974Y-86170350D01*
X74387256Y-86120772D01*
X74260954Y-86089028D01*
X74124426Y-86075700D01*
X73980029Y-86081371D01*
X73830121Y-86106624D01*
X73822560Y-86108402D01*
X73706897Y-86143476D01*
X73585802Y-86193543D01*
X73470089Y-86254065D01*
X73457435Y-86261599D01*
X73390760Y-86301867D01*
X73390760Y-88150360D01*
X73438385Y-88170402D01*
X73528683Y-88200664D01*
X73636628Y-88224441D01*
X73755152Y-88241104D01*
X73877189Y-88250024D01*
X73995670Y-88250573D01*
X74103528Y-88242121D01*
X74152957Y-88233982D01*
X74298080Y-88193504D01*
X74426525Y-88134076D01*
X74538631Y-88055392D01*
X74634736Y-87957144D01*
X74715178Y-87839025D01*
X74780296Y-87700728D01*
X74799980Y-87646158D01*
X74831790Y-87538691D01*
X74854177Y-87431658D01*
X74867886Y-87318860D01*
X74873660Y-87194100D01*
X76143382Y-87194100D01*
X76143171Y-87209150D01*
X76131768Y-87410314D01*
X76109357Y-87593185D01*
X76074898Y-87762833D01*
X76027351Y-87924329D01*
X75965675Y-88082741D01*
X75962288Y-88090475D01*
X75863337Y-88288622D01*
X75749796Y-88466097D01*
X75621180Y-88623354D01*
X75477002Y-88760846D01*
X75316776Y-88879027D01*
X75140017Y-88978351D01*
X74946237Y-89059271D01*
X74910292Y-89071656D01*
X74789800Y-89107637D01*
X74674019Y-89132390D01*
X74554247Y-89147239D01*
X74421782Y-89153512D01*
X74370172Y-89153926D01*
X74221156Y-89149809D01*
X74083961Y-89136646D01*
X73952207Y-89113027D01*
X73819513Y-89077542D01*
X73679501Y-89028781D01*
X73535025Y-88969367D01*
X73482270Y-88946655D01*
X73438458Y-88928282D01*
X73408581Y-88916308D01*
X73397823Y-88912701D01*
X73396592Y-88925045D01*
X73395430Y-88960655D01*
X73394354Y-89017399D01*
X73393383Y-89093141D01*
X73392537Y-89185748D01*
X73391834Y-89293086D01*
X73391292Y-89413023D01*
X73390931Y-89543423D01*
X73390768Y-89682153D01*
X73390760Y-89719150D01*
X73390760Y-90525600D01*
X72158860Y-90525600D01*
X72158860Y-85242400D01*
G37*
X72158860Y-85242400D02*
X73390760Y-85242400D01*
X73390760Y-85625834D01*
X73451085Y-85579857D01*
X73543310Y-85512677D01*
X73643607Y-85444961D01*
X73745187Y-85380984D01*
X73841259Y-85325019D01*
X73925031Y-85281343D01*
X73926228Y-85280770D01*
X74081019Y-85217283D01*
X74242204Y-85172529D01*
X74416324Y-85144762D01*
X74446076Y-85141754D01*
X74520007Y-85135278D01*
X74577216Y-85131691D01*
X74626195Y-85130836D01*
X74675440Y-85132555D01*
X74730610Y-85136460D01*
X74923242Y-85163418D01*
X75103098Y-85212289D01*
X75270310Y-85283155D01*
X75425009Y-85376094D01*
X75567329Y-85491188D01*
X75697399Y-85628516D01*
X75815353Y-85788158D01*
X75822531Y-85799195D01*
X75919707Y-85972242D01*
X75999791Y-86163317D01*
X76062565Y-86371461D01*
X76107812Y-86595719D01*
X76135314Y-86835133D01*
X76144853Y-87088746D01*
X76143382Y-87194100D01*
X74873660Y-87194100D01*
X74872244Y-87051178D01*
X74872075Y-87045800D01*
X74861616Y-86872368D01*
X74841804Y-86720782D01*
X74812122Y-86589078D01*
X74772052Y-86475287D01*
X74721076Y-86377445D01*
X74681224Y-86320673D01*
X74599749Y-86237178D01*
X74500974Y-86170350D01*
X74387256Y-86120772D01*
X74260954Y-86089028D01*
X74124426Y-86075700D01*
X73980029Y-86081371D01*
X73830121Y-86106624D01*
X73822560Y-86108402D01*
X73706897Y-86143476D01*
X73585802Y-86193543D01*
X73470089Y-86254065D01*
X73457435Y-86261599D01*
X73390760Y-86301867D01*
X73390760Y-88150360D01*
X73438385Y-88170402D01*
X73528683Y-88200664D01*
X73636628Y-88224441D01*
X73755152Y-88241104D01*
X73877189Y-88250024D01*
X73995670Y-88250573D01*
X74103528Y-88242121D01*
X74152957Y-88233982D01*
X74298080Y-88193504D01*
X74426525Y-88134076D01*
X74538631Y-88055392D01*
X74634736Y-87957144D01*
X74715178Y-87839025D01*
X74780296Y-87700728D01*
X74799980Y-87646158D01*
X74831790Y-87538691D01*
X74854177Y-87431658D01*
X74867886Y-87318860D01*
X74873660Y-87194100D01*
X76143382Y-87194100D01*
X76143171Y-87209150D01*
X76131768Y-87410314D01*
X76109357Y-87593185D01*
X76074898Y-87762833D01*
X76027351Y-87924329D01*
X75965675Y-88082741D01*
X75962288Y-88090475D01*
X75863337Y-88288622D01*
X75749796Y-88466097D01*
X75621180Y-88623354D01*
X75477002Y-88760846D01*
X75316776Y-88879027D01*
X75140017Y-88978351D01*
X74946237Y-89059271D01*
X74910292Y-89071656D01*
X74789800Y-89107637D01*
X74674019Y-89132390D01*
X74554247Y-89147239D01*
X74421782Y-89153512D01*
X74370172Y-89153926D01*
X74221156Y-89149809D01*
X74083961Y-89136646D01*
X73952207Y-89113027D01*
X73819513Y-89077542D01*
X73679501Y-89028781D01*
X73535025Y-88969367D01*
X73482270Y-88946655D01*
X73438458Y-88928282D01*
X73408581Y-88916308D01*
X73397823Y-88912701D01*
X73396592Y-88925045D01*
X73395430Y-88960655D01*
X73394354Y-89017399D01*
X73393383Y-89093141D01*
X73392537Y-89185748D01*
X73391834Y-89293086D01*
X73391292Y-89413023D01*
X73390931Y-89543423D01*
X73390768Y-89682153D01*
X73390760Y-89719150D01*
X73390760Y-90525600D01*
X72158860Y-90525600D01*
X72158860Y-85242400D01*
G36*
X89075156Y-87931625D02*
G01*
X89075069Y-87721693D01*
X89074808Y-87535489D01*
X89074315Y-87371342D01*
X89073531Y-87227581D01*
X89072398Y-87102535D01*
X89070857Y-86994533D01*
X89068848Y-86901903D01*
X89066314Y-86822974D01*
X89063195Y-86756076D01*
X89059433Y-86699536D01*
X89054969Y-86651684D01*
X89049745Y-86610848D01*
X89043700Y-86575357D01*
X89036778Y-86543540D01*
X89028918Y-86513726D01*
X89024815Y-86499700D01*
X88985724Y-86396504D01*
X88935164Y-86312556D01*
X88871145Y-86246481D01*
X88791678Y-86196906D01*
X88694772Y-86162454D01*
X88578437Y-86141751D01*
X88497410Y-86135302D01*
X88330896Y-86139396D01*
X88161849Y-86167732D01*
X87992874Y-86219682D01*
X87826573Y-86294611D01*
X87814798Y-86300862D01*
X87716386Y-86353650D01*
X87716360Y-89052400D01*
X86484460Y-89052400D01*
X86484460Y-85242400D01*
X87716360Y-85242400D01*
X87716360Y-85647952D01*
X87827485Y-85568493D01*
X87981859Y-85462131D01*
X88122911Y-85373794D01*
X88253629Y-85302038D01*
X88377000Y-85245415D01*
X88496011Y-85202480D01*
X88613651Y-85171786D01*
X88668860Y-85161255D01*
X88768013Y-85148187D01*
X88880825Y-85139421D01*
X88997530Y-85135314D01*
X89108362Y-85136224D01*
X89197861Y-85141910D01*
X89383358Y-85171404D01*
X89553044Y-85220501D01*
X89706612Y-85288966D01*
X89843755Y-85376562D01*
X89964165Y-85483053D01*
X90067536Y-85608204D01*
X90153558Y-85751776D01*
X90221926Y-85913536D01*
X90229060Y-85934550D01*
X90241696Y-85972623D01*
X90252990Y-86007302D01*
X90263020Y-86040162D01*
X90271867Y-86072778D01*
X90279609Y-86106722D01*
X90286327Y-86143570D01*
X90292100Y-86184896D01*
X90297007Y-86232272D01*
X90301128Y-86287274D01*
X90304542Y-86351475D01*
X90307329Y-86426450D01*
X90309568Y-86513772D01*
X90311340Y-86615016D01*
X90312722Y-86731755D01*
X90313796Y-86865563D01*
X90314640Y-87018016D01*
X90315334Y-87190685D01*
X90315958Y-87385147D01*
X90316590Y-87602974D01*
X90316788Y-87671275D01*
X90320818Y-89052400D01*
X89075260Y-89052400D01*
X89075156Y-87931625D01*
G37*
X89075156Y-87931625D02*
X89075069Y-87721693D01*
X89074808Y-87535489D01*
X89074315Y-87371342D01*
X89073531Y-87227581D01*
X89072398Y-87102535D01*
X89070857Y-86994533D01*
X89068848Y-86901903D01*
X89066314Y-86822974D01*
X89063195Y-86756076D01*
X89059433Y-86699536D01*
X89054969Y-86651684D01*
X89049745Y-86610848D01*
X89043700Y-86575357D01*
X89036778Y-86543540D01*
X89028918Y-86513726D01*
X89024815Y-86499700D01*
X88985724Y-86396504D01*
X88935164Y-86312556D01*
X88871145Y-86246481D01*
X88791678Y-86196906D01*
X88694772Y-86162454D01*
X88578437Y-86141751D01*
X88497410Y-86135302D01*
X88330896Y-86139396D01*
X88161849Y-86167732D01*
X87992874Y-86219682D01*
X87826573Y-86294611D01*
X87814798Y-86300862D01*
X87716386Y-86353650D01*
X87716360Y-89052400D01*
X86484460Y-89052400D01*
X86484460Y-85242400D01*
X87716360Y-85242400D01*
X87716360Y-85647952D01*
X87827485Y-85568493D01*
X87981859Y-85462131D01*
X88122911Y-85373794D01*
X88253629Y-85302038D01*
X88377000Y-85245415D01*
X88496011Y-85202480D01*
X88613651Y-85171786D01*
X88668860Y-85161255D01*
X88768013Y-85148187D01*
X88880825Y-85139421D01*
X88997530Y-85135314D01*
X89108362Y-85136224D01*
X89197861Y-85141910D01*
X89383358Y-85171404D01*
X89553044Y-85220501D01*
X89706612Y-85288966D01*
X89843755Y-85376562D01*
X89964165Y-85483053D01*
X90067536Y-85608204D01*
X90153558Y-85751776D01*
X90221926Y-85913536D01*
X90229060Y-85934550D01*
X90241696Y-85972623D01*
X90252990Y-86007302D01*
X90263020Y-86040162D01*
X90271867Y-86072778D01*
X90279609Y-86106722D01*
X90286327Y-86143570D01*
X90292100Y-86184896D01*
X90297007Y-86232272D01*
X90301128Y-86287274D01*
X90304542Y-86351475D01*
X90307329Y-86426450D01*
X90309568Y-86513772D01*
X90311340Y-86615016D01*
X90312722Y-86731755D01*
X90313796Y-86865563D01*
X90314640Y-87018016D01*
X90315334Y-87190685D01*
X90315958Y-87385147D01*
X90316590Y-87602974D01*
X90316788Y-87671275D01*
X90320818Y-89052400D01*
X89075260Y-89052400D01*
X89075156Y-87931625D01*
G36*
X66536758Y-89163960D02*
G01*
X66383083Y-89155189D01*
X66242499Y-89139566D01*
X66109123Y-89116270D01*
X65977068Y-89084478D01*
X65850918Y-89046770D01*
X65661497Y-88974321D01*
X65488285Y-88883993D01*
X65327817Y-88773627D01*
X65176628Y-88641062D01*
X65138357Y-88602637D01*
X65002873Y-88446259D01*
X64888074Y-88277449D01*
X64793717Y-88095529D01*
X64719557Y-87899822D01*
X64665350Y-87689651D01*
X64630851Y-87464339D01*
X64615816Y-87223209D01*
X64615060Y-87152599D01*
X64622125Y-86928409D01*
X64643795Y-86722119D01*
X64680791Y-86530365D01*
X64733828Y-86349782D01*
X64803625Y-86177004D01*
X64838412Y-86105365D01*
X64944725Y-85923577D01*
X65069007Y-85759597D01*
X65210852Y-85613696D01*
X65369855Y-85486144D01*
X65545613Y-85377209D01*
X65737720Y-85287163D01*
X65945772Y-85216275D01*
X66169365Y-85164815D01*
X66273467Y-85148272D01*
X66339727Y-85140841D01*
X66422522Y-85134171D01*
X66515510Y-85128520D01*
X66612353Y-85124147D01*
X66706710Y-85121309D01*
X66792243Y-85120266D01*
X66862611Y-85121275D01*
X66894710Y-85122958D01*
X67137985Y-85149657D01*
X67361872Y-85191669D01*
X67567614Y-85249491D01*
X67756458Y-85323623D01*
X67929646Y-85414562D01*
X68088424Y-85522806D01*
X68234035Y-85648855D01*
X68251977Y-85666490D01*
X68388638Y-85820554D01*
X68505735Y-85990576D01*
X68603110Y-86176127D01*
X68680607Y-86376779D01*
X68738070Y-86592104D01*
X68775342Y-86821674D01*
X68792267Y-87065061D01*
X68793360Y-87147400D01*
X68792973Y-87156832D01*
X67508696Y-87156832D01*
X67508319Y-87050032D01*
X67505680Y-86949256D01*
X67500698Y-86859732D01*
X67493290Y-86786687D01*
X67492346Y-86780031D01*
X67459563Y-86610605D01*
X67413886Y-86462714D01*
X67354804Y-86335718D01*
X67281808Y-86228973D01*
X67194386Y-86141841D01*
X67092029Y-86073679D01*
X66974227Y-86023846D01*
X66869310Y-85996900D01*
X66788289Y-85987056D01*
X66693770Y-85984879D01*
X66596348Y-85989986D01*
X66506615Y-86001991D01*
X66463602Y-86011604D01*
X66342081Y-86056755D01*
X66234432Y-86123053D01*
X66140848Y-86210239D01*
X66061522Y-86318059D01*
X65996646Y-86446255D01*
X65946415Y-86594571D01*
X65914567Y-86741000D01*
X65905172Y-86816095D01*
X65898508Y-86910172D01*
X65894569Y-87016961D01*
X65893346Y-87130192D01*
X65894832Y-87243595D01*
X65899021Y-87350901D01*
X65905906Y-87445839D01*
X65915463Y-87522050D01*
X65948144Y-87679303D01*
X65990238Y-87815214D01*
X66042932Y-87932469D01*
X66107413Y-88033757D01*
X66176584Y-88113565D01*
X66258663Y-88184454D01*
X66347776Y-88237676D01*
X66447579Y-88274524D01*
X66561732Y-88296293D01*
X66693890Y-88304275D01*
X66716065Y-88304362D01*
X66843658Y-88298136D01*
X66953002Y-88279041D01*
X67048674Y-88245346D01*
X67135249Y-88195322D01*
X67217306Y-88127238D01*
X67237610Y-88107234D01*
X67309977Y-88020466D01*
X67371532Y-87917184D01*
X67423399Y-87795025D01*
X67466701Y-87651625D01*
X67479527Y-87598250D01*
X67489229Y-87539735D01*
X67497078Y-87461108D01*
X67502994Y-87367597D01*
X67506894Y-87264429D01*
X67508696Y-87156832D01*
X68792973Y-87156832D01*
X68783112Y-87396685D01*
X68752384Y-87631193D01*
X68701206Y-87850846D01*
X68629604Y-88055566D01*
X68537607Y-88245273D01*
X68425241Y-88419889D01*
X68292536Y-88579336D01*
X68286307Y-88585921D01*
X68138395Y-88725057D01*
X67977549Y-88844612D01*
X67802998Y-88944870D01*
X67613965Y-89026116D01*
X67409679Y-89088635D01*
X67189365Y-89132713D01*
X66952250Y-89158634D01*
X66709409Y-89166700D01*
X66536758Y-89163960D01*
G37*
X66536758Y-89163960D02*
X66383083Y-89155189D01*
X66242499Y-89139566D01*
X66109123Y-89116270D01*
X65977068Y-89084478D01*
X65850918Y-89046770D01*
X65661497Y-88974321D01*
X65488285Y-88883993D01*
X65327817Y-88773627D01*
X65176628Y-88641062D01*
X65138357Y-88602637D01*
X65002873Y-88446259D01*
X64888074Y-88277449D01*
X64793717Y-88095529D01*
X64719557Y-87899822D01*
X64665350Y-87689651D01*
X64630851Y-87464339D01*
X64615816Y-87223209D01*
X64615060Y-87152599D01*
X64622125Y-86928409D01*
X64643795Y-86722119D01*
X64680791Y-86530365D01*
X64733828Y-86349782D01*
X64803625Y-86177004D01*
X64838412Y-86105365D01*
X64944725Y-85923577D01*
X65069007Y-85759597D01*
X65210852Y-85613696D01*
X65369855Y-85486144D01*
X65545613Y-85377209D01*
X65737720Y-85287163D01*
X65945772Y-85216275D01*
X66169365Y-85164815D01*
X66273467Y-85148272D01*
X66339727Y-85140841D01*
X66422522Y-85134171D01*
X66515510Y-85128520D01*
X66612353Y-85124147D01*
X66706710Y-85121309D01*
X66792243Y-85120266D01*
X66862611Y-85121275D01*
X66894710Y-85122958D01*
X67137985Y-85149657D01*
X67361872Y-85191669D01*
X67567614Y-85249491D01*
X67756458Y-85323623D01*
X67929646Y-85414562D01*
X68088424Y-85522806D01*
X68234035Y-85648855D01*
X68251977Y-85666490D01*
X68388638Y-85820554D01*
X68505735Y-85990576D01*
X68603110Y-86176127D01*
X68680607Y-86376779D01*
X68738070Y-86592104D01*
X68775342Y-86821674D01*
X68792267Y-87065061D01*
X68793360Y-87147400D01*
X68792973Y-87156832D01*
X67508696Y-87156832D01*
X67508319Y-87050032D01*
X67505680Y-86949256D01*
X67500698Y-86859732D01*
X67493290Y-86786687D01*
X67492346Y-86780031D01*
X67459563Y-86610605D01*
X67413886Y-86462714D01*
X67354804Y-86335718D01*
X67281808Y-86228973D01*
X67194386Y-86141841D01*
X67092029Y-86073679D01*
X66974227Y-86023846D01*
X66869310Y-85996900D01*
X66788289Y-85987056D01*
X66693770Y-85984879D01*
X66596348Y-85989986D01*
X66506615Y-86001991D01*
X66463602Y-86011604D01*
X66342081Y-86056755D01*
X66234432Y-86123053D01*
X66140848Y-86210239D01*
X66061522Y-86318059D01*
X65996646Y-86446255D01*
X65946415Y-86594571D01*
X65914567Y-86741000D01*
X65905172Y-86816095D01*
X65898508Y-86910172D01*
X65894569Y-87016961D01*
X65893346Y-87130192D01*
X65894832Y-87243595D01*
X65899021Y-87350901D01*
X65905906Y-87445839D01*
X65915463Y-87522050D01*
X65948144Y-87679303D01*
X65990238Y-87815214D01*
X66042932Y-87932469D01*
X66107413Y-88033757D01*
X66176584Y-88113565D01*
X66258663Y-88184454D01*
X66347776Y-88237676D01*
X66447579Y-88274524D01*
X66561732Y-88296293D01*
X66693890Y-88304275D01*
X66716065Y-88304362D01*
X66843658Y-88298136D01*
X66953002Y-88279041D01*
X67048674Y-88245346D01*
X67135249Y-88195322D01*
X67217306Y-88127238D01*
X67237610Y-88107234D01*
X67309977Y-88020466D01*
X67371532Y-87917184D01*
X67423399Y-87795025D01*
X67466701Y-87651625D01*
X67479527Y-87598250D01*
X67489229Y-87539735D01*
X67497078Y-87461108D01*
X67502994Y-87367597D01*
X67506894Y-87264429D01*
X67508696Y-87156832D01*
X68792973Y-87156832D01*
X68783112Y-87396685D01*
X68752384Y-87631193D01*
X68701206Y-87850846D01*
X68629604Y-88055566D01*
X68537607Y-88245273D01*
X68425241Y-88419889D01*
X68292536Y-88579336D01*
X68286307Y-88585921D01*
X68138395Y-88725057D01*
X67977549Y-88844612D01*
X67802998Y-88944870D01*
X67613965Y-89026116D01*
X67409679Y-89088635D01*
X67189365Y-89132713D01*
X66952250Y-89158634D01*
X66709409Y-89166700D01*
X66536758Y-89163960D01*
G36*
X96471192Y-89052320D02*
G01*
X96351338Y-89052159D01*
X96252799Y-89051794D01*
X96173536Y-89051153D01*
X96111504Y-89050163D01*
X96064663Y-89048753D01*
X96030971Y-89046850D01*
X96008386Y-89044381D01*
X95994865Y-89041276D01*
X95988368Y-89037461D01*
X95986851Y-89032865D01*
X95987344Y-89030175D01*
X95992489Y-89017038D01*
X96006674Y-88981687D01*
X96029366Y-88925434D01*
X96060030Y-88849592D01*
X96098133Y-88755475D01*
X96143142Y-88644395D01*
X96194523Y-88517664D01*
X96251743Y-88376596D01*
X96314268Y-88222504D01*
X96381565Y-88056699D01*
X96453100Y-87880495D01*
X96528340Y-87695205D01*
X96606751Y-87502141D01*
X96687799Y-87302616D01*
X96770952Y-87097943D01*
X96855675Y-86889434D01*
X96941435Y-86678403D01*
X97027699Y-86466162D01*
X97113933Y-86254024D01*
X97199604Y-86043301D01*
X97284178Y-85835307D01*
X97367121Y-85631354D01*
X97447901Y-85432755D01*
X97525983Y-85240823D01*
X97600834Y-85056870D01*
X97671920Y-84882210D01*
X97738709Y-84718154D01*
X97800666Y-84566016D01*
X97857258Y-84427109D01*
X97907952Y-84302745D01*
X97952214Y-84194237D01*
X97989510Y-84102898D01*
X98019307Y-84030041D01*
X98031217Y-84000975D01*
X98095028Y-83845400D01*
X98761876Y-83845400D01*
X98909141Y-83845439D01*
X99032996Y-83845598D01*
X99135432Y-83845945D01*
X99218440Y-83846547D01*
X99284009Y-83847471D01*
X99334131Y-83848784D01*
X99370795Y-83850553D01*
X99395992Y-83852845D01*
X99411713Y-83855727D01*
X99419947Y-83859266D01*
X99422686Y-83863528D01*
X99422223Y-83867625D01*
X99416187Y-83883075D01*
X99401086Y-83919768D01*
X99377813Y-83975581D01*
X99347264Y-84048391D01*
X99310331Y-84136076D01*
X99267908Y-84236513D01*
X99220891Y-84347578D01*
X99170172Y-84467150D01*
X99122094Y-84580295D01*
X98828466Y-85270739D01*
X99565263Y-87149518D01*
X99647204Y-87358536D01*
X99726589Y-87561179D01*
X99802923Y-87756180D01*
X99875714Y-87942273D01*
X99944468Y-88118192D01*
X100008692Y-88282671D01*
X100067892Y-88434445D01*
X100121576Y-88572246D01*
X100169249Y-88694808D01*
X100210419Y-88800867D01*
X100244592Y-88889154D01*
X100271275Y-88958405D01*
X100289973Y-89007354D01*
X100300195Y-89034733D01*
X100302060Y-89040348D01*
X100289574Y-89043124D01*
X100252967Y-89045580D01*
X100193516Y-89047692D01*
X100112498Y-89049435D01*
X100011190Y-89050788D01*
X99890871Y-89051726D01*
X99752816Y-89052225D01*
X99657535Y-89052303D01*
X99013010Y-89052206D01*
X98562160Y-87834426D01*
X98499904Y-87666605D01*
X98440043Y-87505905D01*
X98383171Y-87353880D01*
X98329880Y-87212083D01*
X98280762Y-87082069D01*
X98236409Y-86965391D01*
X98197414Y-86863602D01*
X98164368Y-86778256D01*
X98137864Y-86710907D01*
X98118494Y-86663109D01*
X98106850Y-86636415D01*
X98103533Y-86631198D01*
X98098310Y-86644972D01*
X98085232Y-86681079D01*
X98064875Y-86737893D01*
X98037818Y-86813789D01*
X98004635Y-86907139D01*
X97965904Y-87016318D01*
X97922201Y-87139698D01*
X97874103Y-87275655D01*
X97822186Y-87422562D01*
X97767028Y-87578792D01*
X97709204Y-87742719D01*
X97671733Y-87849024D01*
X97247710Y-89052298D01*
X96614404Y-89052349D01*
X96471192Y-89052320D01*
G37*
X96471192Y-89052320D02*
X96351338Y-89052159D01*
X96252799Y-89051794D01*
X96173536Y-89051153D01*
X96111504Y-89050163D01*
X96064663Y-89048753D01*
X96030971Y-89046850D01*
X96008386Y-89044381D01*
X95994865Y-89041276D01*
X95988368Y-89037461D01*
X95986851Y-89032865D01*
X95987344Y-89030175D01*
X95992489Y-89017038D01*
X96006674Y-88981687D01*
X96029366Y-88925434D01*
X96060030Y-88849592D01*
X96098133Y-88755475D01*
X96143142Y-88644395D01*
X96194523Y-88517664D01*
X96251743Y-88376596D01*
X96314268Y-88222504D01*
X96381565Y-88056699D01*
X96453100Y-87880495D01*
X96528340Y-87695205D01*
X96606751Y-87502141D01*
X96687799Y-87302616D01*
X96770952Y-87097943D01*
X96855675Y-86889434D01*
X96941435Y-86678403D01*
X97027699Y-86466162D01*
X97113933Y-86254024D01*
X97199604Y-86043301D01*
X97284178Y-85835307D01*
X97367121Y-85631354D01*
X97447901Y-85432755D01*
X97525983Y-85240823D01*
X97600834Y-85056870D01*
X97671920Y-84882210D01*
X97738709Y-84718154D01*
X97800666Y-84566016D01*
X97857258Y-84427109D01*
X97907952Y-84302745D01*
X97952214Y-84194237D01*
X97989510Y-84102898D01*
X98019307Y-84030041D01*
X98031217Y-84000975D01*
X98095028Y-83845400D01*
X98761876Y-83845400D01*
X98909141Y-83845439D01*
X99032996Y-83845598D01*
X99135432Y-83845945D01*
X99218440Y-83846547D01*
X99284009Y-83847471D01*
X99334131Y-83848784D01*
X99370795Y-83850553D01*
X99395992Y-83852845D01*
X99411713Y-83855727D01*
X99419947Y-83859266D01*
X99422686Y-83863528D01*
X99422223Y-83867625D01*
X99416187Y-83883075D01*
X99401086Y-83919768D01*
X99377813Y-83975581D01*
X99347264Y-84048391D01*
X99310331Y-84136076D01*
X99267908Y-84236513D01*
X99220891Y-84347578D01*
X99170172Y-84467150D01*
X99122094Y-84580295D01*
X98828466Y-85270739D01*
X99565263Y-87149518D01*
X99647204Y-87358536D01*
X99726589Y-87561179D01*
X99802923Y-87756180D01*
X99875714Y-87942273D01*
X99944468Y-88118192D01*
X100008692Y-88282671D01*
X100067892Y-88434445D01*
X100121576Y-88572246D01*
X100169249Y-88694808D01*
X100210419Y-88800867D01*
X100244592Y-88889154D01*
X100271275Y-88958405D01*
X100289973Y-89007354D01*
X100300195Y-89034733D01*
X100302060Y-89040348D01*
X100289574Y-89043124D01*
X100252967Y-89045580D01*
X100193516Y-89047692D01*
X100112498Y-89049435D01*
X100011190Y-89050788D01*
X99890871Y-89051726D01*
X99752816Y-89052225D01*
X99657535Y-89052303D01*
X99013010Y-89052206D01*
X98562160Y-87834426D01*
X98499904Y-87666605D01*
X98440043Y-87505905D01*
X98383171Y-87353880D01*
X98329880Y-87212083D01*
X98280762Y-87082069D01*
X98236409Y-86965391D01*
X98197414Y-86863602D01*
X98164368Y-86778256D01*
X98137864Y-86710907D01*
X98118494Y-86663109D01*
X98106850Y-86636415D01*
X98103533Y-86631198D01*
X98098310Y-86644972D01*
X98085232Y-86681079D01*
X98064875Y-86737893D01*
X98037818Y-86813789D01*
X98004635Y-86907139D01*
X97965904Y-87016318D01*
X97922201Y-87139698D01*
X97874103Y-87275655D01*
X97822186Y-87422562D01*
X97767028Y-87578792D01*
X97709204Y-87742719D01*
X97671733Y-87849024D01*
X97247710Y-89052298D01*
X96614404Y-89052349D01*
X96471192Y-89052320D01*
G36*
X58669209Y-89148405D02*
G01*
X58486269Y-89131705D01*
X58314615Y-89098795D01*
X58149372Y-89048689D01*
X57985665Y-88980400D01*
X57952698Y-88964483D01*
X57809031Y-88893607D01*
X57801392Y-88925379D01*
X57792908Y-88959522D01*
X57782380Y-89000520D01*
X57781267Y-89004775D01*
X57768781Y-89052400D01*
X56575234Y-89052400D01*
X56582710Y-85324950D01*
X56611380Y-85175447D01*
X56661909Y-84964617D01*
X56729169Y-84772831D01*
X56813515Y-84599718D01*
X56915300Y-84444908D01*
X57034879Y-84308031D01*
X57172605Y-84188716D01*
X57328831Y-84086593D01*
X57503913Y-84001290D01*
X57698203Y-83932438D01*
X57832448Y-83896915D01*
X57937342Y-83873774D01*
X58035808Y-83855272D01*
X58132911Y-83840897D01*
X58233715Y-83830135D01*
X58343284Y-83822475D01*
X58466682Y-83817403D01*
X58608974Y-83814407D01*
X58652410Y-83813875D01*
X58749320Y-83813023D01*
X58840257Y-83812572D01*
X58921458Y-83812515D01*
X58989158Y-83812844D01*
X59039593Y-83813549D01*
X59068999Y-83814622D01*
X59071510Y-83814828D01*
X59103724Y-83817770D01*
X59154429Y-83822214D01*
X59216801Y-83827567D01*
X59284018Y-83833239D01*
X59287410Y-83833523D01*
X59486489Y-83854043D01*
X59697701Y-83882913D01*
X59909804Y-83918544D01*
X59970035Y-83929946D01*
X60144660Y-83963898D01*
X60144660Y-84937600D01*
X60077306Y-84937600D01*
X60018348Y-84931216D01*
X59940805Y-84912548D01*
X59877281Y-84892588D01*
X59648747Y-84822419D01*
X59423146Y-84767579D01*
X59203681Y-84728551D01*
X58993555Y-84705819D01*
X58795973Y-84699868D01*
X58651223Y-84707315D01*
X58480857Y-84729698D01*
X58332394Y-84763727D01*
X58204809Y-84810118D01*
X58097076Y-84869586D01*
X58008170Y-84942848D01*
X57937065Y-85030620D01*
X57882736Y-85133618D01*
X57844158Y-85252558D01*
X57839071Y-85274515D01*
X57831650Y-85316454D01*
X57824673Y-85370320D01*
X57818482Y-85431045D01*
X57813420Y-85493561D01*
X57809831Y-85552798D01*
X57808056Y-85603688D01*
X57808440Y-85641163D01*
X57811325Y-85660154D01*
X57812887Y-85661500D01*
X57826868Y-85654469D01*
X57854777Y-85636102D01*
X57887780Y-85612422D01*
X58014895Y-85528749D01*
X58157375Y-85453368D01*
X58306699Y-85390148D01*
X58454347Y-85342957D01*
X58511070Y-85329427D01*
X58604411Y-85314044D01*
X58714814Y-85303057D01*
X58834269Y-85296789D01*
X58954767Y-85295562D01*
X59068298Y-85299702D01*
X59126674Y-85304570D01*
X59335606Y-85337052D01*
X59528248Y-85389011D01*
X59704555Y-85460398D01*
X59864484Y-85551165D01*
X60007991Y-85661265D01*
X60135031Y-85790649D01*
X60245562Y-85939269D01*
X60339538Y-86107077D01*
X60416917Y-86294025D01*
X60477653Y-86500065D01*
X60521704Y-86725150D01*
X60537919Y-86848950D01*
X60544795Y-86932197D01*
X60549349Y-87032241D01*
X60551626Y-87142867D01*
X60551639Y-87178053D01*
X59283746Y-87178053D01*
X59276237Y-87014327D01*
X59256610Y-86862917D01*
X59225328Y-86727319D01*
X59182855Y-86611029D01*
X59179614Y-86603998D01*
X59119541Y-86504711D01*
X59040169Y-86420129D01*
X58943415Y-86350991D01*
X58831194Y-86298033D01*
X58705420Y-86261990D01*
X58568010Y-86243601D01*
X58420879Y-86243603D01*
X58284110Y-86259532D01*
X58173100Y-86285248D01*
X58055252Y-86324467D01*
X57941554Y-86373059D01*
X57849135Y-86423060D01*
X57807860Y-86448527D01*
X57807860Y-88160319D01*
X57842785Y-88174055D01*
X57943613Y-88205513D01*
X58061484Y-88228850D01*
X58189550Y-88243723D01*
X58320961Y-88249789D01*
X58448869Y-88246707D01*
X58566426Y-88234135D01*
X58656711Y-88214711D01*
X58794576Y-88163206D01*
X58916216Y-88092407D01*
X59021202Y-88002907D01*
X59109106Y-87895304D01*
X59179499Y-87770193D01*
X59231952Y-87628168D01*
X59266037Y-87469826D01*
X59278672Y-87350600D01*
X59283746Y-87178053D01*
X60551639Y-87178053D01*
X60551669Y-87257856D01*
X60549521Y-87370989D01*
X60545227Y-87476050D01*
X60538831Y-87566818D01*
X60532468Y-87623284D01*
X60490874Y-87838807D01*
X60429103Y-88042227D01*
X60347979Y-88232305D01*
X60248328Y-88407802D01*
X60130974Y-88567481D01*
X59996742Y-88710103D01*
X59846457Y-88834430D01*
X59680943Y-88939223D01*
X59642290Y-88959676D01*
X59507177Y-89023538D01*
X59378671Y-89072420D01*
X59250039Y-89107976D01*
X59114549Y-89131860D01*
X58965465Y-89145727D01*
X58868310Y-89149883D01*
X58669209Y-89148405D01*
G37*
X58669209Y-89148405D02*
X58486269Y-89131705D01*
X58314615Y-89098795D01*
X58149372Y-89048689D01*
X57985665Y-88980400D01*
X57952698Y-88964483D01*
X57809031Y-88893607D01*
X57801392Y-88925379D01*
X57792908Y-88959522D01*
X57782380Y-89000520D01*
X57781267Y-89004775D01*
X57768781Y-89052400D01*
X56575234Y-89052400D01*
X56582710Y-85324950D01*
X56611380Y-85175447D01*
X56661909Y-84964617D01*
X56729169Y-84772831D01*
X56813515Y-84599718D01*
X56915300Y-84444908D01*
X57034879Y-84308031D01*
X57172605Y-84188716D01*
X57328831Y-84086593D01*
X57503913Y-84001290D01*
X57698203Y-83932438D01*
X57832448Y-83896915D01*
X57937342Y-83873774D01*
X58035808Y-83855272D01*
X58132911Y-83840897D01*
X58233715Y-83830135D01*
X58343284Y-83822475D01*
X58466682Y-83817403D01*
X58608974Y-83814407D01*
X58652410Y-83813875D01*
X58749320Y-83813023D01*
X58840257Y-83812572D01*
X58921458Y-83812515D01*
X58989158Y-83812844D01*
X59039593Y-83813549D01*
X59068999Y-83814622D01*
X59071510Y-83814828D01*
X59103724Y-83817770D01*
X59154429Y-83822214D01*
X59216801Y-83827567D01*
X59284018Y-83833239D01*
X59287410Y-83833523D01*
X59486489Y-83854043D01*
X59697701Y-83882913D01*
X59909804Y-83918544D01*
X59970035Y-83929946D01*
X60144660Y-83963898D01*
X60144660Y-84937600D01*
X60077306Y-84937600D01*
X60018348Y-84931216D01*
X59940805Y-84912548D01*
X59877281Y-84892588D01*
X59648747Y-84822419D01*
X59423146Y-84767579D01*
X59203681Y-84728551D01*
X58993555Y-84705819D01*
X58795973Y-84699868D01*
X58651223Y-84707315D01*
X58480857Y-84729698D01*
X58332394Y-84763727D01*
X58204809Y-84810118D01*
X58097076Y-84869586D01*
X58008170Y-84942848D01*
X57937065Y-85030620D01*
X57882736Y-85133618D01*
X57844158Y-85252558D01*
X57839071Y-85274515D01*
X57831650Y-85316454D01*
X57824673Y-85370320D01*
X57818482Y-85431045D01*
X57813420Y-85493561D01*
X57809831Y-85552798D01*
X57808056Y-85603688D01*
X57808440Y-85641163D01*
X57811325Y-85660154D01*
X57812887Y-85661500D01*
X57826868Y-85654469D01*
X57854777Y-85636102D01*
X57887780Y-85612422D01*
X58014895Y-85528749D01*
X58157375Y-85453368D01*
X58306699Y-85390148D01*
X58454347Y-85342957D01*
X58511070Y-85329427D01*
X58604411Y-85314044D01*
X58714814Y-85303057D01*
X58834269Y-85296789D01*
X58954767Y-85295562D01*
X59068298Y-85299702D01*
X59126674Y-85304570D01*
X59335606Y-85337052D01*
X59528248Y-85389011D01*
X59704555Y-85460398D01*
X59864484Y-85551165D01*
X60007991Y-85661265D01*
X60135031Y-85790649D01*
X60245562Y-85939269D01*
X60339538Y-86107077D01*
X60416917Y-86294025D01*
X60477653Y-86500065D01*
X60521704Y-86725150D01*
X60537919Y-86848950D01*
X60544795Y-86932197D01*
X60549349Y-87032241D01*
X60551626Y-87142867D01*
X60551639Y-87178053D01*
X59283746Y-87178053D01*
X59276237Y-87014327D01*
X59256610Y-86862917D01*
X59225328Y-86727319D01*
X59182855Y-86611029D01*
X59179614Y-86603998D01*
X59119541Y-86504711D01*
X59040169Y-86420129D01*
X58943415Y-86350991D01*
X58831194Y-86298033D01*
X58705420Y-86261990D01*
X58568010Y-86243601D01*
X58420879Y-86243603D01*
X58284110Y-86259532D01*
X58173100Y-86285248D01*
X58055252Y-86324467D01*
X57941554Y-86373059D01*
X57849135Y-86423060D01*
X57807860Y-86448527D01*
X57807860Y-88160319D01*
X57842785Y-88174055D01*
X57943613Y-88205513D01*
X58061484Y-88228850D01*
X58189550Y-88243723D01*
X58320961Y-88249789D01*
X58448869Y-88246707D01*
X58566426Y-88234135D01*
X58656711Y-88214711D01*
X58794576Y-88163206D01*
X58916216Y-88092407D01*
X59021202Y-88002907D01*
X59109106Y-87895304D01*
X59179499Y-87770193D01*
X59231952Y-87628168D01*
X59266037Y-87469826D01*
X59278672Y-87350600D01*
X59283746Y-87178053D01*
X60551639Y-87178053D01*
X60551669Y-87257856D01*
X60549521Y-87370989D01*
X60545227Y-87476050D01*
X60538831Y-87566818D01*
X60532468Y-87623284D01*
X60490874Y-87838807D01*
X60429103Y-88042227D01*
X60347979Y-88232305D01*
X60248328Y-88407802D01*
X60130974Y-88567481D01*
X59996742Y-88710103D01*
X59846457Y-88834430D01*
X59680943Y-88939223D01*
X59642290Y-88959676D01*
X59507177Y-89023538D01*
X59378671Y-89072420D01*
X59250039Y-89107976D01*
X59114549Y-89131860D01*
X58965465Y-89145727D01*
X58868310Y-89149883D01*
X58669209Y-89148405D01*
D12*
X139877800Y-99034600D02*
X140258800Y-99034600D01*
X139877800Y-119354600D02*
X140258800Y-119354600D01*
X140258800Y-99034600D02*
X140258800Y-119354600D01*
X140131800Y-99034600D02*
X140131800Y-119354600D01*
X140004800Y-99034600D02*
X140004800Y-119354600D01*
X139877800Y-99034600D02*
X139877800Y-119354600D01*
D10*
X62617800Y-119519600D02*
X62617800Y-98869600D01*
X139877800Y-119519600D02*
X62617800Y-119519600D01*
X139667800Y-98869600D02*
X139667800Y-119519600D01*
X62617800Y-98869600D02*
X140258800Y-98869600D01*
D12*
X62382400Y-140004800D02*
X62001400Y-140004800D01*
X62382400Y-119684800D02*
X62001400Y-119684800D01*
X62001400Y-140004800D02*
X62001400Y-119684800D01*
X62128400Y-140004800D02*
X62128400Y-119684800D01*
X62255400Y-140004800D02*
X62255400Y-119684800D01*
X62382400Y-140004800D02*
X62382400Y-119684800D01*
D10*
X139642400Y-119519800D02*
X139642400Y-140169800D01*
X62382400Y-119519800D02*
X139642400Y-119519800D01*
X62592400Y-140169800D02*
X62592400Y-119519800D01*
X139642400Y-140169800D02*
X62001400Y-140169800D01*
D18*
X100426000Y-93726000D02*
X97266000Y-93726000D01*
X102266000Y-93726000D02*
G75*
G03*
X102266000Y-93726000I-920000J0D01*
G01*
X100651000Y-75007000D02*
X101346000Y-75007000D01*
X100651000Y-75692000D02*
X100651000Y-75007000D01*
X101954276Y-76377000D02*
X102041000Y-76377000D01*
X100651000Y-76377000D02*
X100737724Y-76377000D01*
X102041000Y-76377000D02*
X102041000Y-76252000D01*
X100651000Y-76377000D02*
X100651000Y-76252000D01*
X100651000Y-76377000D02*
X102041000Y-76377000D01*
X147677000Y-75565000D02*
G75*
G03*
X147677000Y-75565000I-1500000J0D01*
G01*
X143562200Y-75565000D02*
G75*
G03*
X143562200Y-75565000I-1500000J0D01*
G01*
X59666000Y-78105000D02*
G75*
G03*
X59666000Y-78105000I-1500000J0D01*
G01*
X145645000Y-121285000D02*
G75*
G03*
X145645000Y-121285000I-1500000J0D01*
G01*
X127988279Y-82167000D02*
X127662721Y-82167000D01*
X127988279Y-83187000D02*
X127662721Y-83187000D01*
X113282000Y-94833221D02*
X113282000Y-95158779D01*
X114302000Y-94833221D02*
X114302000Y-95158779D01*
X119255000Y-95158779D02*
X119255000Y-94833221D01*
X118235000Y-95158779D02*
X118235000Y-94833221D01*
X123225779Y-92771500D02*
X122900221Y-92771500D01*
X123225779Y-93791500D02*
X122900221Y-93791500D01*
X130297500Y-89872564D02*
X130297500Y-85768436D01*
X126877500Y-89872564D02*
X126877500Y-85768436D01*
X111887000Y-82657000D02*
X108437000Y-82657000D01*
X111887000Y-82657000D02*
X113837000Y-82657000D01*
X111887000Y-87777000D02*
X109937000Y-87777000D01*
X111887000Y-87777000D02*
X113837000Y-87777000D01*
X121158000Y-87777000D02*
X124608000Y-87777000D01*
X121158000Y-87777000D02*
X119208000Y-87777000D01*
X121158000Y-82657000D02*
X123108000Y-82657000D01*
X121158000Y-82657000D02*
X119208000Y-82657000D01*
X115060000Y-94833221D02*
X115060000Y-95158779D01*
X116080000Y-94833221D02*
X116080000Y-95158779D01*
X118235000Y-91531221D02*
X118235000Y-91856779D01*
X119255000Y-91531221D02*
X119255000Y-91856779D01*
X120013000Y-91531221D02*
X120013000Y-91856779D01*
X121033000Y-91531221D02*
X121033000Y-91856779D01*
D13*
X113289000Y-90094000D02*
X114289000Y-90094000D01*
X114639000Y-93144000D02*
X114639000Y-90244000D01*
X115739000Y-93144000D02*
X114639000Y-93144000D01*
X115739000Y-90244000D02*
X115739000Y-93144000D01*
X114639000Y-90244000D02*
X115739000Y-90244000D01*
D18*
X131770000Y-67580000D02*
X129970000Y-67580000D01*
X131770000Y-65380000D02*
X131770000Y-67580000D01*
X131770000Y-62380000D02*
X131770000Y-63580000D01*
X129570000Y-62380000D02*
X131770000Y-62380000D01*
X129570000Y-63180000D02*
X129570000Y-62380000D01*
X127570000Y-63180000D02*
X129570000Y-63180000D01*
X127570000Y-62380000D02*
X127570000Y-63180000D01*
X125570000Y-62380000D02*
X127570000Y-62380000D01*
X125570000Y-63580000D02*
X125570000Y-62380000D01*
X125570000Y-67580000D02*
X125570000Y-65380000D01*
X127370000Y-67580000D02*
X125570000Y-67580000D01*
X117820000Y-67580000D02*
X116020000Y-67580000D01*
X116020000Y-67580000D02*
X116020000Y-65380000D01*
X116020000Y-63580000D02*
X116020000Y-62380000D01*
X116020000Y-62380000D02*
X118020000Y-62380000D01*
X118020000Y-62380000D02*
X118020000Y-63180000D01*
X118020000Y-63180000D02*
X120020000Y-63180000D01*
X120020000Y-63180000D02*
X120020000Y-62380000D01*
X120020000Y-62380000D02*
X122220000Y-62380000D01*
X122220000Y-62380000D02*
X122220000Y-63580000D01*
X122220000Y-65380000D02*
X122220000Y-67580000D01*
X122220000Y-67580000D02*
X120420000Y-67580000D01*
X106150000Y-63280001D02*
X106150000Y-62280001D01*
X106150000Y-62280001D02*
X104150000Y-62280001D01*
X104150000Y-62280001D02*
X104150000Y-67630001D01*
X104150000Y-67630001D02*
X106150000Y-67630001D01*
X106150000Y-63280001D02*
X110550000Y-63280001D01*
X110550000Y-63280001D02*
X110550000Y-62280001D01*
X110550000Y-62280001D02*
X112400000Y-62280001D01*
X112400000Y-62280001D02*
X112400000Y-67630001D01*
X112400000Y-67630001D02*
X110550000Y-67630001D01*
X133080000Y-72530000D02*
X133080000Y-70730000D01*
X133080000Y-70730000D02*
X135280000Y-70730000D01*
X137080000Y-70730000D02*
X138280000Y-70730000D01*
X138280000Y-70730000D02*
X138280000Y-72730000D01*
X138280000Y-72730000D02*
X137480000Y-72730000D01*
X137480000Y-72730000D02*
X137480000Y-74730000D01*
X137480000Y-74730000D02*
X138280000Y-74730000D01*
X138280000Y-74730000D02*
X138280000Y-76930000D01*
X138280000Y-76930000D02*
X137080000Y-76930000D01*
X135280000Y-76930000D02*
X133080000Y-76930000D01*
X133080000Y-76930000D02*
X133080000Y-75130000D01*
X69025420Y-74897851D02*
X69306580Y-74897851D01*
X69025420Y-73877851D02*
X69306580Y-73877851D01*
D17*
X60041001Y-119369001D02*
X56041001Y-119369001D01*
X56041001Y-114369001D02*
X60041001Y-114369001D01*
D10*
X61091001Y-119519001D02*
G75*
G03*
X61091001Y-119519001I-250000J0D01*
G01*
D17*
X82924000Y-64126500D02*
X80774000Y-64126500D01*
X87374000Y-64126500D02*
X85224000Y-64126500D01*
X87374000Y-58936500D02*
X80774000Y-58936500D01*
X87374000Y-61796500D02*
X87374000Y-64126500D01*
X80774000Y-64126500D02*
X80774000Y-61796500D01*
X84924000Y-65276500D02*
X84324000Y-65276500D01*
X84324000Y-65276500D02*
X84624000Y-64776500D01*
X84624000Y-64776500D02*
X84924000Y-65276500D01*
X87374000Y-58936500D02*
X87374000Y-59796500D01*
X80774000Y-58936500D02*
X80774000Y-59796500D01*
D18*
X137082000Y-65578758D02*
X137082000Y-65104242D01*
X138127000Y-65578758D02*
X138127000Y-65104242D01*
D20*
X81430833Y-75001380D02*
X81097500Y-74525190D01*
X80859404Y-75001380D02*
X80859404Y-74001380D01*
X81240357Y-74001380D01*
X81335595Y-74049000D01*
X81383214Y-74096619D01*
X81430833Y-74191857D01*
X81430833Y-74334714D01*
X81383214Y-74429952D01*
X81335595Y-74477571D01*
X81240357Y-74525190D01*
X80859404Y-74525190D01*
X82287976Y-74001380D02*
X82097500Y-74001380D01*
X82002261Y-74049000D01*
X81954642Y-74096619D01*
X81859404Y-74239476D01*
X81811785Y-74429952D01*
X81811785Y-74810904D01*
X81859404Y-74906142D01*
X81907023Y-74953761D01*
X82002261Y-75001380D01*
X82192738Y-75001380D01*
X82287976Y-74953761D01*
X82335595Y-74906142D01*
X82383214Y-74810904D01*
X82383214Y-74572809D01*
X82335595Y-74477571D01*
X82287976Y-74429952D01*
X82192738Y-74382333D01*
X82002261Y-74382333D01*
X81907023Y-74429952D01*
X81859404Y-74477571D01*
X81811785Y-74572809D01*
X85367833Y-75064880D02*
X85034500Y-74588690D01*
X84796404Y-75064880D02*
X84796404Y-74064880D01*
X85177357Y-74064880D01*
X85272595Y-74112500D01*
X85320214Y-74160119D01*
X85367833Y-74255357D01*
X85367833Y-74398214D01*
X85320214Y-74493452D01*
X85272595Y-74541071D01*
X85177357Y-74588690D01*
X84796404Y-74588690D01*
X86272595Y-74064880D02*
X85796404Y-74064880D01*
X85748785Y-74541071D01*
X85796404Y-74493452D01*
X85891642Y-74445833D01*
X86129738Y-74445833D01*
X86224976Y-74493452D01*
X86272595Y-74541071D01*
X86320214Y-74636309D01*
X86320214Y-74874404D01*
X86272595Y-74969642D01*
X86224976Y-75017261D01*
X86129738Y-75064880D01*
X85891642Y-75064880D01*
X85796404Y-75017261D01*
X85748785Y-74969642D01*
D16*
X100719466Y-108499123D02*
X100719466Y-109406266D01*
X100658990Y-109587695D01*
X100538038Y-109708647D01*
X100356609Y-109769123D01*
X100235657Y-109769123D01*
X101868514Y-108499123D02*
X101626609Y-108499123D01*
X101505657Y-108559600D01*
X101445180Y-108620076D01*
X101324228Y-108801504D01*
X101263752Y-109043409D01*
X101263752Y-109527219D01*
X101324228Y-109648171D01*
X101384704Y-109708647D01*
X101505657Y-109769123D01*
X101747561Y-109769123D01*
X101868514Y-109708647D01*
X101928990Y-109648171D01*
X101989466Y-109527219D01*
X101989466Y-109224838D01*
X101928990Y-109103885D01*
X101868514Y-109043409D01*
X101747561Y-108982933D01*
X101505657Y-108982933D01*
X101384704Y-109043409D01*
X101324228Y-109103885D01*
X101263752Y-109224838D01*
D12*
X74713038Y-109551742D02*
X78522561Y-109551742D01*
X123763038Y-109551742D02*
X127572561Y-109551742D01*
X125667800Y-111456504D02*
X125667800Y-107646980D01*
D16*
X100694066Y-129149323D02*
X100694066Y-130056466D01*
X100633590Y-130237895D01*
X100512638Y-130358847D01*
X100331209Y-130419323D01*
X100210257Y-130419323D01*
X101903590Y-129149323D02*
X101298828Y-129149323D01*
X101238352Y-129754085D01*
X101298828Y-129693609D01*
X101419780Y-129633133D01*
X101722161Y-129633133D01*
X101843114Y-129693609D01*
X101903590Y-129754085D01*
X101964066Y-129875038D01*
X101964066Y-130177419D01*
X101903590Y-130298371D01*
X101843114Y-130358847D01*
X101722161Y-130419323D01*
X101419780Y-130419323D01*
X101298828Y-130358847D01*
X101238352Y-130298371D01*
D12*
X123737638Y-130201942D02*
X127547161Y-130201942D01*
X74687638Y-130201942D02*
X78497161Y-130201942D01*
X76592400Y-132106704D02*
X76592400Y-128297180D01*
D20*
X130659166Y-82319857D02*
X130706785Y-82272238D01*
X130849642Y-82224619D01*
X130944880Y-82224619D01*
X131087738Y-82272238D01*
X131182976Y-82367476D01*
X131230595Y-82462714D01*
X131278214Y-82653190D01*
X131278214Y-82796047D01*
X131230595Y-82986523D01*
X131182976Y-83081761D01*
X131087738Y-83177000D01*
X130944880Y-83224619D01*
X130849642Y-83224619D01*
X130706785Y-83177000D01*
X130659166Y-83129380D01*
X130325833Y-83224619D02*
X129706785Y-83224619D01*
X130040119Y-82843666D01*
X129897261Y-82843666D01*
X129802023Y-82796047D01*
X129754404Y-82748428D01*
X129706785Y-82653190D01*
X129706785Y-82415095D01*
X129754404Y-82319857D01*
X129802023Y-82272238D01*
X129897261Y-82224619D01*
X130182976Y-82224619D01*
X130278214Y-82272238D01*
X130325833Y-82319857D01*
X114244380Y-97702666D02*
X113768190Y-98036000D01*
X114244380Y-98274095D02*
X113244380Y-98274095D01*
X113244380Y-97893142D01*
X113292000Y-97797904D01*
X113339619Y-97750285D01*
X113434857Y-97702666D01*
X113577714Y-97702666D01*
X113672952Y-97750285D01*
X113720571Y-97797904D01*
X113768190Y-97893142D01*
X113768190Y-98274095D01*
X113577714Y-96845523D02*
X114244380Y-96845523D01*
X113196761Y-97083619D02*
X113911047Y-97321714D01*
X113911047Y-96702666D01*
X119197380Y-97702666D02*
X118721190Y-98036000D01*
X119197380Y-98274095D02*
X118197380Y-98274095D01*
X118197380Y-97893142D01*
X118245000Y-97797904D01*
X118292619Y-97750285D01*
X118387857Y-97702666D01*
X118530714Y-97702666D01*
X118625952Y-97750285D01*
X118673571Y-97797904D01*
X118721190Y-97893142D01*
X118721190Y-98274095D01*
X118292619Y-97321714D02*
X118245000Y-97274095D01*
X118197380Y-97178857D01*
X118197380Y-96940761D01*
X118245000Y-96845523D01*
X118292619Y-96797904D01*
X118387857Y-96750285D01*
X118483095Y-96750285D01*
X118625952Y-96797904D01*
X119197380Y-97369333D01*
X119197380Y-96750285D01*
X125642666Y-92829119D02*
X125976000Y-93305309D01*
X126214095Y-92829119D02*
X126214095Y-93829119D01*
X125833142Y-93829119D01*
X125737904Y-93781500D01*
X125690285Y-93733880D01*
X125642666Y-93638642D01*
X125642666Y-93495785D01*
X125690285Y-93400547D01*
X125737904Y-93352928D01*
X125833142Y-93305309D01*
X126214095Y-93305309D01*
X124690285Y-92829119D02*
X125261714Y-92829119D01*
X124976000Y-92829119D02*
X124976000Y-93829119D01*
X125071238Y-93686261D01*
X125166476Y-93591023D01*
X125261714Y-93543404D01*
X131897380Y-87923666D02*
X131421190Y-88257000D01*
X131897380Y-88495095D02*
X130897380Y-88495095D01*
X130897380Y-88114142D01*
X130945000Y-88018904D01*
X130992619Y-87971285D01*
X131087857Y-87923666D01*
X131230714Y-87923666D01*
X131325952Y-87971285D01*
X131373571Y-88018904D01*
X131421190Y-88114142D01*
X131421190Y-88495095D01*
X130897380Y-87590333D02*
X130897380Y-86971285D01*
X131278333Y-87304619D01*
X131278333Y-87161761D01*
X131325952Y-87066523D01*
X131373571Y-87018904D01*
X131468809Y-86971285D01*
X131706904Y-86971285D01*
X131802142Y-87018904D01*
X131849761Y-87066523D01*
X131897380Y-87161761D01*
X131897380Y-87447476D01*
X131849761Y-87542714D01*
X131802142Y-87590333D01*
X111982238Y-81176880D02*
X112077476Y-81224500D01*
X112172714Y-81319738D01*
X112315571Y-81462595D01*
X112410809Y-81510214D01*
X112506047Y-81510214D01*
X112458428Y-81272119D02*
X112553666Y-81319738D01*
X112648904Y-81414976D01*
X112696523Y-81605452D01*
X112696523Y-81938785D01*
X112648904Y-82129261D01*
X112553666Y-82224500D01*
X112458428Y-82272119D01*
X112267952Y-82272119D01*
X112172714Y-82224500D01*
X112077476Y-82129261D01*
X112029857Y-81938785D01*
X112029857Y-81605452D01*
X112077476Y-81414976D01*
X112172714Y-81319738D01*
X112267952Y-81272119D01*
X112458428Y-81272119D01*
X111648904Y-82176880D02*
X111601285Y-82224500D01*
X111506047Y-82272119D01*
X111267952Y-82272119D01*
X111172714Y-82224500D01*
X111125095Y-82176880D01*
X111077476Y-82081642D01*
X111077476Y-81986404D01*
X111125095Y-81843547D01*
X111696523Y-81272119D01*
X111077476Y-81272119D01*
X121253238Y-81113380D02*
X121348476Y-81161000D01*
X121443714Y-81256238D01*
X121586571Y-81399095D01*
X121681809Y-81446714D01*
X121777047Y-81446714D01*
X121729428Y-81208619D02*
X121824666Y-81256238D01*
X121919904Y-81351476D01*
X121967523Y-81541952D01*
X121967523Y-81875285D01*
X121919904Y-82065761D01*
X121824666Y-82161000D01*
X121729428Y-82208619D01*
X121538952Y-82208619D01*
X121443714Y-82161000D01*
X121348476Y-82065761D01*
X121300857Y-81875285D01*
X121300857Y-81541952D01*
X121348476Y-81351476D01*
X121443714Y-81256238D01*
X121538952Y-81208619D01*
X121729428Y-81208619D01*
X120348476Y-81208619D02*
X120919904Y-81208619D01*
X120634190Y-81208619D02*
X120634190Y-82208619D01*
X120729428Y-82065761D01*
X120824666Y-81970523D01*
X120919904Y-81922904D01*
X115927142Y-97702666D02*
X115974761Y-97750285D01*
X116022380Y-97893142D01*
X116022380Y-97988380D01*
X115974761Y-98131238D01*
X115879523Y-98226476D01*
X115784285Y-98274095D01*
X115593809Y-98321714D01*
X115450952Y-98321714D01*
X115260476Y-98274095D01*
X115165238Y-98226476D01*
X115070000Y-98131238D01*
X115022380Y-97988380D01*
X115022380Y-97893142D01*
X115070000Y-97750285D01*
X115117619Y-97702666D01*
X115355714Y-96845523D02*
X116022380Y-96845523D01*
X114974761Y-97083619D02*
X115689047Y-97321714D01*
X115689047Y-96702666D01*
X119102142Y-89447666D02*
X119149761Y-89495285D01*
X119197380Y-89638142D01*
X119197380Y-89733380D01*
X119149761Y-89876238D01*
X119054523Y-89971476D01*
X118959285Y-90019095D01*
X118768809Y-90066714D01*
X118625952Y-90066714D01*
X118435476Y-90019095D01*
X118340238Y-89971476D01*
X118245000Y-89876238D01*
X118197380Y-89733380D01*
X118197380Y-89638142D01*
X118245000Y-89495285D01*
X118292619Y-89447666D01*
X118292619Y-89066714D02*
X118245000Y-89019095D01*
X118197380Y-88923857D01*
X118197380Y-88685761D01*
X118245000Y-88590523D01*
X118292619Y-88542904D01*
X118387857Y-88495285D01*
X118483095Y-88495285D01*
X118625952Y-88542904D01*
X119197380Y-89114333D01*
X119197380Y-88495285D01*
X120880142Y-89447666D02*
X120927761Y-89495285D01*
X120975380Y-89638142D01*
X120975380Y-89733380D01*
X120927761Y-89876238D01*
X120832523Y-89971476D01*
X120737285Y-90019095D01*
X120546809Y-90066714D01*
X120403952Y-90066714D01*
X120213476Y-90019095D01*
X120118238Y-89971476D01*
X120023000Y-89876238D01*
X119975380Y-89733380D01*
X119975380Y-89638142D01*
X120023000Y-89495285D01*
X120070619Y-89447666D01*
X120975380Y-88495285D02*
X120975380Y-89066714D01*
X120975380Y-88781000D02*
X119975380Y-88781000D01*
X120118238Y-88876238D01*
X120213476Y-88971476D01*
X120261095Y-89066714D01*
X115950904Y-89765119D02*
X115950904Y-88955595D01*
X115903285Y-88860357D01*
X115855666Y-88812738D01*
X115760428Y-88765119D01*
X115569952Y-88765119D01*
X115474714Y-88812738D01*
X115427095Y-88860357D01*
X115379476Y-88955595D01*
X115379476Y-89765119D01*
X114379476Y-88765119D02*
X114950904Y-88765119D01*
X114665190Y-88765119D02*
X114665190Y-89765119D01*
X114760428Y-89622261D01*
X114855666Y-89527023D01*
X114950904Y-89479404D01*
X132686666Y-66402380D02*
X132686666Y-67116666D01*
X132639047Y-67259523D01*
X132543809Y-67354761D01*
X132400952Y-67402380D01*
X132305714Y-67402380D01*
X133067619Y-66402380D02*
X133734285Y-66402380D01*
X133305714Y-67402380D01*
X122896666Y-66352380D02*
X122896666Y-67066666D01*
X122849047Y-67209523D01*
X122753809Y-67304761D01*
X122610952Y-67352380D01*
X122515714Y-67352380D01*
X123515714Y-66780952D02*
X123420476Y-66733333D01*
X123372857Y-66685714D01*
X123325238Y-66590476D01*
X123325238Y-66542857D01*
X123372857Y-66447619D01*
X123420476Y-66400000D01*
X123515714Y-66352380D01*
X123706190Y-66352380D01*
X123801428Y-66400000D01*
X123849047Y-66447619D01*
X123896666Y-66542857D01*
X123896666Y-66590476D01*
X123849047Y-66685714D01*
X123801428Y-66733333D01*
X123706190Y-66780952D01*
X123515714Y-66780952D01*
X123420476Y-66828571D01*
X123372857Y-66876190D01*
X123325238Y-66971428D01*
X123325238Y-67161904D01*
X123372857Y-67257142D01*
X123420476Y-67304761D01*
X123515714Y-67352380D01*
X123706190Y-67352380D01*
X123801428Y-67304761D01*
X123849047Y-67257142D01*
X123896666Y-67161904D01*
X123896666Y-66971428D01*
X123849047Y-66876190D01*
X123801428Y-66828571D01*
X123706190Y-66780952D01*
X103323333Y-63347619D02*
X103323333Y-62633333D01*
X103370952Y-62490476D01*
X103466190Y-62395238D01*
X103609047Y-62347619D01*
X103704285Y-62347619D01*
X102799523Y-62347619D02*
X102609047Y-62347619D01*
X102513809Y-62395238D01*
X102466190Y-62442857D01*
X102370952Y-62585714D01*
X102323333Y-62776190D01*
X102323333Y-63157142D01*
X102370952Y-63252380D01*
X102418571Y-63300000D01*
X102513809Y-63347619D01*
X102704285Y-63347619D01*
X102799523Y-63300000D01*
X102847142Y-63252380D01*
X102894761Y-63157142D01*
X102894761Y-62919047D01*
X102847142Y-62823809D01*
X102799523Y-62776190D01*
X102704285Y-62728571D01*
X102513809Y-62728571D01*
X102418571Y-62776190D01*
X102370952Y-62823809D01*
X102323333Y-62919047D01*
X139502380Y-76019523D02*
X140216666Y-76019523D01*
X140359523Y-76067142D01*
X140454761Y-76162380D01*
X140502380Y-76305238D01*
X140502380Y-76400476D01*
X140502380Y-75019523D02*
X140502380Y-75590952D01*
X140502380Y-75305238D02*
X139502380Y-75305238D01*
X139645238Y-75400476D01*
X139740476Y-75495714D01*
X139788095Y-75590952D01*
X139502380Y-74400476D02*
X139502380Y-74305238D01*
X139550000Y-74210000D01*
X139597619Y-74162380D01*
X139692857Y-74114761D01*
X139883333Y-74067142D01*
X140121428Y-74067142D01*
X140311904Y-74114761D01*
X140407142Y-74162380D01*
X140454761Y-74210000D01*
X140502380Y-74305238D01*
X140502380Y-74400476D01*
X140454761Y-74495714D01*
X140407142Y-74543333D01*
X140311904Y-74590952D01*
X140121428Y-74638571D01*
X139883333Y-74638571D01*
X139692857Y-74590952D01*
X139597619Y-74543333D01*
X139550000Y-74495714D01*
X139502380Y-74400476D01*
X66522833Y-74744993D02*
X66475214Y-74792612D01*
X66332357Y-74840231D01*
X66237119Y-74840231D01*
X66094261Y-74792612D01*
X65999023Y-74697374D01*
X65951404Y-74602136D01*
X65903785Y-74411660D01*
X65903785Y-74268803D01*
X65951404Y-74078327D01*
X65999023Y-73983089D01*
X66094261Y-73887851D01*
X66237119Y-73840231D01*
X66332357Y-73840231D01*
X66475214Y-73887851D01*
X66522833Y-73935470D01*
X67427595Y-73840231D02*
X66951404Y-73840231D01*
X66903785Y-74316422D01*
X66951404Y-74268803D01*
X67046642Y-74221184D01*
X67284738Y-74221184D01*
X67379976Y-74268803D01*
X67427595Y-74316422D01*
X67475214Y-74411660D01*
X67475214Y-74649755D01*
X67427595Y-74744993D01*
X67379976Y-74792612D01*
X67284738Y-74840231D01*
X67046642Y-74840231D01*
X66951404Y-74792612D01*
X66903785Y-74744993D01*
X56999307Y-119570306D02*
X56999307Y-120089437D01*
X57029844Y-120150511D01*
X57060381Y-120181048D01*
X57121455Y-120211585D01*
X57243604Y-120211585D01*
X57304678Y-120181048D01*
X57335215Y-120150511D01*
X57365752Y-120089437D01*
X57365752Y-119570306D01*
X57640586Y-119631380D02*
X57671123Y-119600843D01*
X57732197Y-119570306D01*
X57884883Y-119570306D01*
X57945957Y-119600843D01*
X57976494Y-119631380D01*
X58007031Y-119692454D01*
X58007031Y-119753528D01*
X57976494Y-119845140D01*
X57610049Y-120211585D01*
X58007031Y-120211585D01*
X88344476Y-63015880D02*
X88344476Y-63730166D01*
X88296857Y-63873023D01*
X88201619Y-63968261D01*
X88058761Y-64015880D01*
X87963523Y-64015880D01*
X89344476Y-64015880D02*
X88773047Y-64015880D01*
X89058761Y-64015880D02*
X89058761Y-63015880D01*
X88963523Y-63158738D01*
X88868285Y-63253976D01*
X88773047Y-63301595D01*
X90296857Y-64015880D02*
X89725428Y-64015880D01*
X90011142Y-64015880D02*
X90011142Y-63015880D01*
X89915904Y-63158738D01*
X89820666Y-63253976D01*
X89725428Y-63301595D01*
X136626880Y-65508166D02*
X136150690Y-65841500D01*
X136626880Y-66079595D02*
X135626880Y-66079595D01*
X135626880Y-65698642D01*
X135674500Y-65603404D01*
X135722119Y-65555785D01*
X135817357Y-65508166D01*
X135960214Y-65508166D01*
X136055452Y-65555785D01*
X136103071Y-65603404D01*
X136150690Y-65698642D01*
X136150690Y-66079595D01*
X135626880Y-65174833D02*
X135626880Y-64508166D01*
X136626880Y-64936738D01*
%LPC*%
D21*
X110741020Y-97757813D02*
X110741020Y-98457813D01*
X110741020Y-98124480D02*
X110341020Y-98124480D01*
X110341020Y-97757813D02*
X110341020Y-98457813D01*
X109874353Y-98457813D02*
X109741020Y-98457813D01*
X109674353Y-98424480D01*
X109607686Y-98357813D01*
X109574353Y-98224480D01*
X109574353Y-97991146D01*
X109607686Y-97857813D01*
X109674353Y-97791146D01*
X109741020Y-97757813D01*
X109874353Y-97757813D01*
X109941020Y-97791146D01*
X110007686Y-97857813D01*
X110041020Y-97991146D01*
X110041020Y-98224480D01*
X110007686Y-98357813D01*
X109941020Y-98424480D01*
X109874353Y-98457813D01*
X108941020Y-97757813D02*
X109274353Y-97757813D01*
X109274353Y-98457813D01*
X108374353Y-97757813D02*
X108707686Y-97757813D01*
X108707686Y-98457813D01*
X108141020Y-97757813D02*
X108141020Y-98457813D01*
X107807686Y-97757813D02*
X107807686Y-98457813D01*
X107641020Y-98457813D01*
X107541020Y-98424480D01*
X107474353Y-98357813D01*
X107441020Y-98291146D01*
X107407686Y-98157813D01*
X107407686Y-98057813D01*
X107441020Y-97924480D01*
X107474353Y-97857813D01*
X107541020Y-97791146D01*
X107641020Y-97757813D01*
X107807686Y-97757813D01*
X107141020Y-97957813D02*
X106807686Y-97957813D01*
X107207686Y-97757813D02*
X106974353Y-98457813D01*
X106741020Y-97757813D01*
X106374353Y-98091146D02*
X106374353Y-97757813D01*
X106607686Y-98457813D02*
X106374353Y-98091146D01*
X106141020Y-98457813D01*
D19*
G36*
X84222800Y-63220300D02*
G01*
X84925200Y-63220300D01*
X84925200Y-64372700D01*
X84222800Y-64372700D01*
X84222800Y-63220300D01*
G37*
X84222800Y-63220300D02*
X84925200Y-63220300D01*
X84925200Y-64372700D01*
X84222800Y-64372700D01*
X84222800Y-63220300D01*
G36*
X86242800Y-60080300D02*
G01*
X87655200Y-60080300D01*
X87655200Y-61532700D01*
X86242800Y-61532700D01*
X86242800Y-60080300D01*
G37*
X86242800Y-60080300D02*
X87655200Y-60080300D01*
X87655200Y-61532700D01*
X86242800Y-61532700D01*
X86242800Y-60080300D01*
G36*
X83222800Y-63220300D02*
G01*
X83925200Y-63220300D01*
X83925200Y-64372700D01*
X83222800Y-64372700D01*
X83222800Y-63220300D01*
G37*
X83222800Y-63220300D02*
X83925200Y-63220300D01*
X83925200Y-64372700D01*
X83222800Y-64372700D01*
X83222800Y-63220300D01*
G36*
X80492800Y-60080300D02*
G01*
X81905200Y-60080300D01*
X81905200Y-61532700D01*
X80492800Y-61532700D01*
X80492800Y-60080300D01*
G37*
X80492800Y-60080300D02*
X81905200Y-60080300D01*
X81905200Y-61532700D01*
X80492800Y-61532700D01*
X80492800Y-60080300D01*
G36*
G01*
X83073300Y-75660479D02*
X83073300Y-76612521D01*
G75*
G02*
X82798521Y-76887300I-274779J0D01*
G01*
X82221479Y-76887300D01*
G75*
G02*
X81946700Y-76612521I0J274779D01*
G01*
X81946700Y-75660479D01*
G75*
G02*
X82221479Y-75385700I274779J0D01*
G01*
X82798521Y-75385700D01*
G75*
G02*
X83073300Y-75660479I0J-274779D01*
G01*
G37*
G36*
G01*
X81248300Y-75660479D02*
X81248300Y-76612521D01*
G75*
G02*
X80973521Y-76887300I-274779J0D01*
G01*
X80396479Y-76887300D01*
G75*
G02*
X80121700Y-76612521I0J274779D01*
G01*
X80121700Y-75660479D01*
G75*
G02*
X80396479Y-75385700I274779J0D01*
G01*
X80973521Y-75385700D01*
G75*
G02*
X81248300Y-75660479I0J-274779D01*
G01*
G37*
G36*
G01*
X87010300Y-75660479D02*
X87010300Y-76612521D01*
G75*
G02*
X86735521Y-76887300I-274779J0D01*
G01*
X86158479Y-76887300D01*
G75*
G02*
X85883700Y-76612521I0J274779D01*
G01*
X85883700Y-75660479D01*
G75*
G02*
X86158479Y-75385700I274779J0D01*
G01*
X86735521Y-75385700D01*
G75*
G02*
X87010300Y-75660479I0J-274779D01*
G01*
G37*
G36*
G01*
X85185300Y-75660479D02*
X85185300Y-76612521D01*
G75*
G02*
X84910521Y-76887300I-274779J0D01*
G01*
X84333479Y-76887300D01*
G75*
G02*
X84058700Y-76612521I0J274779D01*
G01*
X84058700Y-75660479D01*
G75*
G02*
X84333479Y-75385700I274779J0D01*
G01*
X84910521Y-75385700D01*
G75*
G02*
X85185300Y-75660479I0J-274779D01*
G01*
G37*
D22*
X137047400Y-80569800D03*
D23*
X128717400Y-96569800D03*
X73517400Y-80569800D03*
D22*
X137047400Y-59919600D03*
D23*
X128717400Y-75919600D03*
X73517400Y-59919600D03*
D24*
X144005300Y-62689900D03*
X144005300Y-136349900D03*
X58280300Y-58889900D03*
X58280300Y-138889900D03*
D22*
X137072800Y-117194600D03*
D23*
X128742800Y-101194600D03*
X73542800Y-117194600D03*
G36*
G01*
X147812800Y-112420400D02*
X140472800Y-112420400D01*
G75*
G02*
X140422000Y-112369600I0J50800D01*
G01*
X140422000Y-106019600D01*
G75*
G02*
X140472800Y-105968800I50800J0D01*
G01*
X147812800Y-105968800D01*
G75*
G02*
X147863600Y-106019600I0J-50800D01*
G01*
X147863600Y-112369600D01*
G75*
G02*
X147812800Y-112420400I-50800J0D01*
G01*
G37*
G36*
G01*
X61812800Y-112420400D02*
X54472800Y-112420400D01*
G75*
G02*
X54422000Y-112369600I0J50800D01*
G01*
X54422000Y-106019600D01*
G75*
G02*
X54472800Y-105968800I50800J0D01*
G01*
X61812800Y-105968800D01*
G75*
G02*
X61863600Y-106019600I0J-50800D01*
G01*
X61863600Y-112369600D01*
G75*
G02*
X61812800Y-112420400I-50800J0D01*
G01*
G37*
D22*
X65187400Y-121844800D03*
D23*
X73517400Y-137844800D03*
X128717400Y-121844800D03*
G36*
G01*
X54447400Y-126619000D02*
X61787400Y-126619000D01*
G75*
G02*
X61838200Y-126669800I0J-50800D01*
G01*
X61838200Y-133019800D01*
G75*
G02*
X61787400Y-133070600I-50800J0D01*
G01*
X54447400Y-133070600D01*
G75*
G02*
X54396600Y-133019800I0J50800D01*
G01*
X54396600Y-126669800D01*
G75*
G02*
X54447400Y-126619000I50800J0D01*
G01*
G37*
G36*
G01*
X140447400Y-126619000D02*
X147787400Y-126619000D01*
G75*
G02*
X147838200Y-126669800I0J-50800D01*
G01*
X147838200Y-133019800D01*
G75*
G02*
X147787400Y-133070600I-50800J0D01*
G01*
X140447400Y-133070600D01*
G75*
G02*
X140396600Y-133019800I0J50800D01*
G01*
X140396600Y-126669800D01*
G75*
G02*
X140447400Y-126619000I50800J0D01*
G01*
G37*
D22*
X65212800Y-117194600D03*
D23*
X73542800Y-101194600D03*
X128742800Y-117194600D03*
D22*
X65212800Y-137844800D03*
D23*
X73542800Y-121844800D03*
X128742800Y-137844800D03*
D25*
X147193000Y-56261000D03*
X55118000Y-56261000D03*
X56007000Y-142494000D03*
D26*
X96266000Y-93726000D03*
D27*
X101346000Y-93726000D03*
G36*
G01*
X100870200Y-76117000D02*
X100870200Y-75267000D01*
G75*
G02*
X100921000Y-75216200I50800J0D01*
G01*
X101771000Y-75216200D01*
G75*
G02*
X101821800Y-75267000I0J-50800D01*
G01*
X101821800Y-76117000D01*
G75*
G02*
X101771000Y-76167800I-50800J0D01*
G01*
X100921000Y-76167800D01*
G75*
G02*
X100870200Y-76117000I0J50800D01*
G01*
G37*
D28*
X146177000Y-75565000D03*
X142062200Y-75565000D03*
X58166000Y-78105000D03*
X144145000Y-121285000D03*
G36*
G01*
X127526300Y-82395350D02*
X127526300Y-82958650D01*
G75*
G02*
X127282150Y-83202800I-244150J0D01*
G01*
X126793850Y-83202800D01*
G75*
G02*
X126549700Y-82958650I0J244150D01*
G01*
X126549700Y-82395350D01*
G75*
G02*
X126793850Y-82151200I244150J0D01*
G01*
X127282150Y-82151200D01*
G75*
G02*
X127526300Y-82395350I0J-244150D01*
G01*
G37*
G36*
G01*
X129101300Y-82395350D02*
X129101300Y-82958650D01*
G75*
G02*
X128857150Y-83202800I-244150J0D01*
G01*
X128368850Y-83202800D01*
G75*
G02*
X128124700Y-82958650I0J244150D01*
G01*
X128124700Y-82395350D01*
G75*
G02*
X128368850Y-82151200I244150J0D01*
G01*
X128857150Y-82151200D01*
G75*
G02*
X129101300Y-82395350I0J-244150D01*
G01*
G37*
G36*
G01*
X113510350Y-95295200D02*
X114073650Y-95295200D01*
G75*
G02*
X114317800Y-95539350I0J-244150D01*
G01*
X114317800Y-96027650D01*
G75*
G02*
X114073650Y-96271800I-244150J0D01*
G01*
X113510350Y-96271800D01*
G75*
G02*
X113266200Y-96027650I0J244150D01*
G01*
X113266200Y-95539350D01*
G75*
G02*
X113510350Y-95295200I244150J0D01*
G01*
G37*
G36*
G01*
X113510350Y-93720200D02*
X114073650Y-93720200D01*
G75*
G02*
X114317800Y-93964350I0J-244150D01*
G01*
X114317800Y-94452650D01*
G75*
G02*
X114073650Y-94696800I-244150J0D01*
G01*
X113510350Y-94696800D01*
G75*
G02*
X113266200Y-94452650I0J244150D01*
G01*
X113266200Y-93964350D01*
G75*
G02*
X113510350Y-93720200I244150J0D01*
G01*
G37*
G36*
G01*
X119026650Y-94696800D02*
X118463350Y-94696800D01*
G75*
G02*
X118219200Y-94452650I0J244150D01*
G01*
X118219200Y-93964350D01*
G75*
G02*
X118463350Y-93720200I244150J0D01*
G01*
X119026650Y-93720200D01*
G75*
G02*
X119270800Y-93964350I0J-244150D01*
G01*
X119270800Y-94452650D01*
G75*
G02*
X119026650Y-94696800I-244150J0D01*
G01*
G37*
G36*
G01*
X119026650Y-96271800D02*
X118463350Y-96271800D01*
G75*
G02*
X118219200Y-96027650I0J244150D01*
G01*
X118219200Y-95539350D01*
G75*
G02*
X118463350Y-95295200I244150J0D01*
G01*
X119026650Y-95295200D01*
G75*
G02*
X119270800Y-95539350I0J-244150D01*
G01*
X119270800Y-96027650D01*
G75*
G02*
X119026650Y-96271800I-244150J0D01*
G01*
G37*
G36*
G01*
X122763800Y-92999850D02*
X122763800Y-93563150D01*
G75*
G02*
X122519650Y-93807300I-244150J0D01*
G01*
X122031350Y-93807300D01*
G75*
G02*
X121787200Y-93563150I0J244150D01*
G01*
X121787200Y-92999850D01*
G75*
G02*
X122031350Y-92755700I244150J0D01*
G01*
X122519650Y-92755700D01*
G75*
G02*
X122763800Y-92999850I0J-244150D01*
G01*
G37*
G36*
G01*
X124338800Y-92999850D02*
X124338800Y-93563150D01*
G75*
G02*
X124094650Y-93807300I-244150J0D01*
G01*
X123606350Y-93807300D01*
G75*
G02*
X123362200Y-93563150I0J244150D01*
G01*
X123362200Y-92999850D01*
G75*
G02*
X123606350Y-92755700I244150J0D01*
G01*
X124094650Y-92755700D01*
G75*
G02*
X124338800Y-92999850I0J-244150D01*
G01*
G37*
G36*
G01*
X130044487Y-85646300D02*
X127130513Y-85646300D01*
G75*
G02*
X126861700Y-85377487I0J268813D01*
G01*
X126861700Y-84463513D01*
G75*
G02*
X127130513Y-84194700I268813J0D01*
G01*
X130044487Y-84194700D01*
G75*
G02*
X130313300Y-84463513I0J-268813D01*
G01*
X130313300Y-85377487D01*
G75*
G02*
X130044487Y-85646300I-268813J0D01*
G01*
G37*
G36*
G01*
X130044487Y-91446300D02*
X127130513Y-91446300D01*
G75*
G02*
X126861700Y-91177487I0J268813D01*
G01*
X126861700Y-90263513D01*
G75*
G02*
X127130513Y-89994700I268813J0D01*
G01*
X130044487Y-89994700D01*
G75*
G02*
X130313300Y-90263513I0J-268813D01*
G01*
X130313300Y-91177487D01*
G75*
G02*
X130044487Y-91446300I-268813J0D01*
G01*
G37*
G36*
G01*
X113336200Y-83487400D02*
X113336200Y-83136600D01*
G75*
G02*
X113511600Y-82961200I175400J0D01*
G01*
X115212400Y-82961200D01*
G75*
G02*
X115387800Y-83136600I0J-175400D01*
G01*
X115387800Y-83487400D01*
G75*
G02*
X115212400Y-83662800I-175400J0D01*
G01*
X113511600Y-83662800D01*
G75*
G02*
X113336200Y-83487400I0J175400D01*
G01*
G37*
G36*
G01*
X113336200Y-84757400D02*
X113336200Y-84406600D01*
G75*
G02*
X113511600Y-84231200I175400J0D01*
G01*
X115212400Y-84231200D01*
G75*
G02*
X115387800Y-84406600I0J-175400D01*
G01*
X115387800Y-84757400D01*
G75*
G02*
X115212400Y-84932800I-175400J0D01*
G01*
X113511600Y-84932800D01*
G75*
G02*
X113336200Y-84757400I0J175400D01*
G01*
G37*
G36*
G01*
X113336200Y-86027400D02*
X113336200Y-85676600D01*
G75*
G02*
X113511600Y-85501200I175400J0D01*
G01*
X115212400Y-85501200D01*
G75*
G02*
X115387800Y-85676600I0J-175400D01*
G01*
X115387800Y-86027400D01*
G75*
G02*
X115212400Y-86202800I-175400J0D01*
G01*
X113511600Y-86202800D01*
G75*
G02*
X113336200Y-86027400I0J175400D01*
G01*
G37*
G36*
G01*
X113336200Y-87297400D02*
X113336200Y-86946600D01*
G75*
G02*
X113511600Y-86771200I175400J0D01*
G01*
X115212400Y-86771200D01*
G75*
G02*
X115387800Y-86946600I0J-175400D01*
G01*
X115387800Y-87297400D01*
G75*
G02*
X115212400Y-87472800I-175400J0D01*
G01*
X113511600Y-87472800D01*
G75*
G02*
X113336200Y-87297400I0J175400D01*
G01*
G37*
G36*
G01*
X108386200Y-87297400D02*
X108386200Y-86946600D01*
G75*
G02*
X108561600Y-86771200I175400J0D01*
G01*
X110262400Y-86771200D01*
G75*
G02*
X110437800Y-86946600I0J-175400D01*
G01*
X110437800Y-87297400D01*
G75*
G02*
X110262400Y-87472800I-175400J0D01*
G01*
X108561600Y-87472800D01*
G75*
G02*
X108386200Y-87297400I0J175400D01*
G01*
G37*
G36*
G01*
X108386200Y-86027400D02*
X108386200Y-85676600D01*
G75*
G02*
X108561600Y-85501200I175400J0D01*
G01*
X110262400Y-85501200D01*
G75*
G02*
X110437800Y-85676600I0J-175400D01*
G01*
X110437800Y-86027400D01*
G75*
G02*
X110262400Y-86202800I-175400J0D01*
G01*
X108561600Y-86202800D01*
G75*
G02*
X108386200Y-86027400I0J175400D01*
G01*
G37*
G36*
G01*
X108386200Y-84757400D02*
X108386200Y-84406600D01*
G75*
G02*
X108561600Y-84231200I175400J0D01*
G01*
X110262400Y-84231200D01*
G75*
G02*
X110437800Y-84406600I0J-175400D01*
G01*
X110437800Y-84757400D01*
G75*
G02*
X110262400Y-84932800I-175400J0D01*
G01*
X108561600Y-84932800D01*
G75*
G02*
X108386200Y-84757400I0J175400D01*
G01*
G37*
G36*
G01*
X108386200Y-83487400D02*
X108386200Y-83136600D01*
G75*
G02*
X108561600Y-82961200I175400J0D01*
G01*
X110262400Y-82961200D01*
G75*
G02*
X110437800Y-83136600I0J-175400D01*
G01*
X110437800Y-83487400D01*
G75*
G02*
X110262400Y-83662800I-175400J0D01*
G01*
X108561600Y-83662800D01*
G75*
G02*
X108386200Y-83487400I0J175400D01*
G01*
G37*
G36*
G01*
X119708800Y-86946600D02*
X119708800Y-87297400D01*
G75*
G02*
X119533400Y-87472800I-175400J0D01*
G01*
X117832600Y-87472800D01*
G75*
G02*
X117657200Y-87297400I0J175400D01*
G01*
X117657200Y-86946600D01*
G75*
G02*
X117832600Y-86771200I175400J0D01*
G01*
X119533400Y-86771200D01*
G75*
G02*
X119708800Y-86946600I0J-175400D01*
G01*
G37*
G36*
G01*
X119708800Y-85676600D02*
X119708800Y-86027400D01*
G75*
G02*
X119533400Y-86202800I-175400J0D01*
G01*
X117832600Y-86202800D01*
G75*
G02*
X117657200Y-86027400I0J175400D01*
G01*
X117657200Y-85676600D01*
G75*
G02*
X117832600Y-85501200I175400J0D01*
G01*
X119533400Y-85501200D01*
G75*
G02*
X119708800Y-85676600I0J-175400D01*
G01*
G37*
G36*
G01*
X119708800Y-84406600D02*
X119708800Y-84757400D01*
G75*
G02*
X119533400Y-84932800I-175400J0D01*
G01*
X117832600Y-84932800D01*
G75*
G02*
X117657200Y-84757400I0J175400D01*
G01*
X117657200Y-84406600D01*
G75*
G02*
X117832600Y-84231200I175400J0D01*
G01*
X119533400Y-84231200D01*
G75*
G02*
X119708800Y-84406600I0J-175400D01*
G01*
G37*
G36*
G01*
X119708800Y-83136600D02*
X119708800Y-83487400D01*
G75*
G02*
X119533400Y-83662800I-175400J0D01*
G01*
X117832600Y-83662800D01*
G75*
G02*
X117657200Y-83487400I0J175400D01*
G01*
X117657200Y-83136600D01*
G75*
G02*
X117832600Y-82961200I175400J0D01*
G01*
X119533400Y-82961200D01*
G75*
G02*
X119708800Y-83136600I0J-175400D01*
G01*
G37*
G36*
G01*
X124658800Y-83136600D02*
X124658800Y-83487400D01*
G75*
G02*
X124483400Y-83662800I-175400J0D01*
G01*
X122782600Y-83662800D01*
G75*
G02*
X122607200Y-83487400I0J175400D01*
G01*
X122607200Y-83136600D01*
G75*
G02*
X122782600Y-82961200I175400J0D01*
G01*
X124483400Y-82961200D01*
G75*
G02*
X124658800Y-83136600I0J-175400D01*
G01*
G37*
G36*
G01*
X124658800Y-84406600D02*
X124658800Y-84757400D01*
G75*
G02*
X124483400Y-84932800I-175400J0D01*
G01*
X122782600Y-84932800D01*
G75*
G02*
X122607200Y-84757400I0J175400D01*
G01*
X122607200Y-84406600D01*
G75*
G02*
X122782600Y-84231200I175400J0D01*
G01*
X124483400Y-84231200D01*
G75*
G02*
X124658800Y-84406600I0J-175400D01*
G01*
G37*
G36*
G01*
X124658800Y-85676600D02*
X124658800Y-86027400D01*
G75*
G02*
X124483400Y-86202800I-175400J0D01*
G01*
X122782600Y-86202800D01*
G75*
G02*
X122607200Y-86027400I0J175400D01*
G01*
X122607200Y-85676600D01*
G75*
G02*
X122782600Y-85501200I175400J0D01*
G01*
X124483400Y-85501200D01*
G75*
G02*
X124658800Y-85676600I0J-175400D01*
G01*
G37*
G36*
G01*
X124658800Y-86946600D02*
X124658800Y-87297400D01*
G75*
G02*
X124483400Y-87472800I-175400J0D01*
G01*
X122782600Y-87472800D01*
G75*
G02*
X122607200Y-87297400I0J175400D01*
G01*
X122607200Y-86946600D01*
G75*
G02*
X122782600Y-86771200I175400J0D01*
G01*
X124483400Y-86771200D01*
G75*
G02*
X124658800Y-86946600I0J-175400D01*
G01*
G37*
G36*
G01*
X115288350Y-95295200D02*
X115851650Y-95295200D01*
G75*
G02*
X116095800Y-95539350I0J-244150D01*
G01*
X116095800Y-96027650D01*
G75*
G02*
X115851650Y-96271800I-244150J0D01*
G01*
X115288350Y-96271800D01*
G75*
G02*
X115044200Y-96027650I0J244150D01*
G01*
X115044200Y-95539350D01*
G75*
G02*
X115288350Y-95295200I244150J0D01*
G01*
G37*
G36*
G01*
X115288350Y-93720200D02*
X115851650Y-93720200D01*
G75*
G02*
X116095800Y-93964350I0J-244150D01*
G01*
X116095800Y-94452650D01*
G75*
G02*
X115851650Y-94696800I-244150J0D01*
G01*
X115288350Y-94696800D01*
G75*
G02*
X115044200Y-94452650I0J244150D01*
G01*
X115044200Y-93964350D01*
G75*
G02*
X115288350Y-93720200I244150J0D01*
G01*
G37*
G36*
G01*
X118463350Y-91993200D02*
X119026650Y-91993200D01*
G75*
G02*
X119270800Y-92237350I0J-244150D01*
G01*
X119270800Y-92725650D01*
G75*
G02*
X119026650Y-92969800I-244150J0D01*
G01*
X118463350Y-92969800D01*
G75*
G02*
X118219200Y-92725650I0J244150D01*
G01*
X118219200Y-92237350D01*
G75*
G02*
X118463350Y-91993200I244150J0D01*
G01*
G37*
G36*
G01*
X118463350Y-90418200D02*
X119026650Y-90418200D01*
G75*
G02*
X119270800Y-90662350I0J-244150D01*
G01*
X119270800Y-91150650D01*
G75*
G02*
X119026650Y-91394800I-244150J0D01*
G01*
X118463350Y-91394800D01*
G75*
G02*
X118219200Y-91150650I0J244150D01*
G01*
X118219200Y-90662350D01*
G75*
G02*
X118463350Y-90418200I244150J0D01*
G01*
G37*
G36*
G01*
X120241350Y-91993200D02*
X120804650Y-91993200D01*
G75*
G02*
X121048800Y-92237350I0J-244150D01*
G01*
X121048800Y-92725650D01*
G75*
G02*
X120804650Y-92969800I-244150J0D01*
G01*
X120241350Y-92969800D01*
G75*
G02*
X119997200Y-92725650I0J244150D01*
G01*
X119997200Y-92237350D01*
G75*
G02*
X120241350Y-91993200I244150J0D01*
G01*
G37*
G36*
G01*
X120241350Y-90418200D02*
X120804650Y-90418200D01*
G75*
G02*
X121048800Y-90662350I0J-244150D01*
G01*
X121048800Y-91150650D01*
G75*
G02*
X120804650Y-91394800I-244150J0D01*
G01*
X120241350Y-91394800D01*
G75*
G02*
X119997200Y-91150650I0J244150D01*
G01*
X119997200Y-90662350D01*
G75*
G02*
X120241350Y-90418200I244150J0D01*
G01*
G37*
G36*
G01*
X117089000Y-91094800D02*
X116089000Y-91094800D01*
G75*
G02*
X116038200Y-91044000I0J50800D01*
G01*
X116038200Y-90444000D01*
G75*
G02*
X116089000Y-90393200I50800J0D01*
G01*
X117089000Y-90393200D01*
G75*
G02*
X117139800Y-90444000I0J-50800D01*
G01*
X117139800Y-91044000D01*
G75*
G02*
X117089000Y-91094800I-50800J0D01*
G01*
G37*
G36*
G01*
X117089000Y-92044800D02*
X116089000Y-92044800D01*
G75*
G02*
X116038200Y-91994000I0J50800D01*
G01*
X116038200Y-91394000D01*
G75*
G02*
X116089000Y-91343200I50800J0D01*
G01*
X117089000Y-91343200D01*
G75*
G02*
X117139800Y-91394000I0J-50800D01*
G01*
X117139800Y-91994000D01*
G75*
G02*
X117089000Y-92044800I-50800J0D01*
G01*
G37*
G36*
G01*
X117089000Y-92994800D02*
X116089000Y-92994800D01*
G75*
G02*
X116038200Y-92944000I0J50800D01*
G01*
X116038200Y-92344000D01*
G75*
G02*
X116089000Y-92293200I50800J0D01*
G01*
X117089000Y-92293200D01*
G75*
G02*
X117139800Y-92344000I0J-50800D01*
G01*
X117139800Y-92944000D01*
G75*
G02*
X117089000Y-92994800I-50800J0D01*
G01*
G37*
G36*
G01*
X114289000Y-92994800D02*
X113289000Y-92994800D01*
G75*
G02*
X113238200Y-92944000I0J50800D01*
G01*
X113238200Y-92344000D01*
G75*
G02*
X113289000Y-92293200I50800J0D01*
G01*
X114289000Y-92293200D01*
G75*
G02*
X114339800Y-92344000I0J-50800D01*
G01*
X114339800Y-92944000D01*
G75*
G02*
X114289000Y-92994800I-50800J0D01*
G01*
G37*
G36*
G01*
X114289000Y-92044800D02*
X113289000Y-92044800D01*
G75*
G02*
X113238200Y-91994000I0J50800D01*
G01*
X113238200Y-91394000D01*
G75*
G02*
X113289000Y-91343200I50800J0D01*
G01*
X114289000Y-91343200D01*
G75*
G02*
X114339800Y-91394000I0J-50800D01*
G01*
X114339800Y-91994000D01*
G75*
G02*
X114289000Y-92044800I-50800J0D01*
G01*
G37*
G36*
G01*
X114289000Y-91094800D02*
X113289000Y-91094800D01*
G75*
G02*
X113238200Y-91044000I0J50800D01*
G01*
X113238200Y-90444000D01*
G75*
G02*
X113289000Y-90393200I50800J0D01*
G01*
X114289000Y-90393200D01*
G75*
G02*
X114339800Y-90444000I0J-50800D01*
G01*
X114339800Y-91044000D01*
G75*
G02*
X114289000Y-91094800I-50800J0D01*
G01*
G37*
G36*
G01*
X126700800Y-63800000D02*
X126700800Y-65100000D01*
G75*
G02*
X126650000Y-65150800I-50800J0D01*
G01*
X125390000Y-65150800D01*
G75*
G02*
X125339200Y-65100000I0J50800D01*
G01*
X125339200Y-63800000D01*
G75*
G02*
X125390000Y-63749200I50800J0D01*
G01*
X126650000Y-63749200D01*
G75*
G02*
X126700800Y-63800000I0J-50800D01*
G01*
G37*
G36*
G01*
X128495800Y-66880000D02*
X128495800Y-67880000D01*
G75*
G02*
X128445000Y-67930800I-50800J0D01*
G01*
X127895000Y-67930800D01*
G75*
G02*
X127844200Y-67880000I0J50800D01*
G01*
X127844200Y-66880000D01*
G75*
G02*
X127895000Y-66829200I50800J0D01*
G01*
X128445000Y-66829200D01*
G75*
G02*
X128495800Y-66880000I0J-50800D01*
G01*
G37*
G36*
G01*
X132000800Y-63800000D02*
X132000800Y-65100000D01*
G75*
G02*
X131950000Y-65150800I-50800J0D01*
G01*
X130690000Y-65150800D01*
G75*
G02*
X130639200Y-65100000I0J50800D01*
G01*
X130639200Y-63800000D01*
G75*
G02*
X130690000Y-63749200I50800J0D01*
G01*
X131950000Y-63749200D01*
G75*
G02*
X132000800Y-63800000I0J-50800D01*
G01*
G37*
G36*
G01*
X129495800Y-66880000D02*
X129495800Y-67880000D01*
G75*
G02*
X129445000Y-67930800I-50800J0D01*
G01*
X128895000Y-67930800D01*
G75*
G02*
X128844200Y-67880000I0J50800D01*
G01*
X128844200Y-66880000D01*
G75*
G02*
X128895000Y-66829200I50800J0D01*
G01*
X129445000Y-66829200D01*
G75*
G02*
X129495800Y-66880000I0J-50800D01*
G01*
G37*
G36*
G01*
X119945800Y-66880000D02*
X119945800Y-67880000D01*
G75*
G02*
X119895000Y-67930800I-50800J0D01*
G01*
X119345000Y-67930800D01*
G75*
G02*
X119294200Y-67880000I0J50800D01*
G01*
X119294200Y-66880000D01*
G75*
G02*
X119345000Y-66829200I50800J0D01*
G01*
X119895000Y-66829200D01*
G75*
G02*
X119945800Y-66880000I0J-50800D01*
G01*
G37*
G36*
G01*
X122450800Y-63800000D02*
X122450800Y-65100000D01*
G75*
G02*
X122400000Y-65150800I-50800J0D01*
G01*
X121140000Y-65150800D01*
G75*
G02*
X121089200Y-65100000I0J50800D01*
G01*
X121089200Y-63800000D01*
G75*
G02*
X121140000Y-63749200I50800J0D01*
G01*
X122400000Y-63749200D01*
G75*
G02*
X122450800Y-63800000I0J-50800D01*
G01*
G37*
G36*
G01*
X118945800Y-66880000D02*
X118945800Y-67880000D01*
G75*
G02*
X118895000Y-67930800I-50800J0D01*
G01*
X118345000Y-67930800D01*
G75*
G02*
X118294200Y-67880000I0J50800D01*
G01*
X118294200Y-66880000D01*
G75*
G02*
X118345000Y-66829200I50800J0D01*
G01*
X118895000Y-66829200D01*
G75*
G02*
X118945800Y-66880000I0J-50800D01*
G01*
G37*
G36*
G01*
X117150800Y-63800000D02*
X117150800Y-65100000D01*
G75*
G02*
X117100000Y-65150800I-50800J0D01*
G01*
X115840000Y-65150800D01*
G75*
G02*
X115789200Y-65100000I0J50800D01*
G01*
X115789200Y-63800000D01*
G75*
G02*
X115840000Y-63749200I50800J0D01*
G01*
X117100000Y-63749200D01*
G75*
G02*
X117150800Y-63800000I0J-50800D01*
G01*
G37*
G36*
G01*
X112630800Y-63750001D02*
X112630800Y-65050001D01*
G75*
G02*
X112580000Y-65100801I-50800J0D01*
G01*
X111320000Y-65100801D01*
G75*
G02*
X111269200Y-65050001I0J50800D01*
G01*
X111269200Y-63750001D01*
G75*
G02*
X111320000Y-63699201I50800J0D01*
G01*
X112580000Y-63699201D01*
G75*
G02*
X112630800Y-63750001I0J-50800D01*
G01*
G37*
G36*
G01*
X110125800Y-66880001D02*
X110125800Y-67880001D01*
G75*
G02*
X110075000Y-67930801I-50800J0D01*
G01*
X109525000Y-67930801D01*
G75*
G02*
X109474200Y-67880001I0J50800D01*
G01*
X109474200Y-66880001D01*
G75*
G02*
X109525000Y-66829201I50800J0D01*
G01*
X110075000Y-66829201D01*
G75*
G02*
X110125800Y-66880001I0J-50800D01*
G01*
G37*
G36*
G01*
X105330800Y-63750001D02*
X105330800Y-65050001D01*
G75*
G02*
X105280000Y-65100801I-50800J0D01*
G01*
X104020000Y-65100801D01*
G75*
G02*
X103969200Y-65050001I0J50800D01*
G01*
X103969200Y-63750001D01*
G75*
G02*
X104020000Y-63699201I50800J0D01*
G01*
X105280000Y-63699201D01*
G75*
G02*
X105330800Y-63750001I0J-50800D01*
G01*
G37*
G36*
G01*
X109125800Y-66880001D02*
X109125800Y-67880001D01*
G75*
G02*
X109075000Y-67930801I-50800J0D01*
G01*
X108525000Y-67930801D01*
G75*
G02*
X108474200Y-67880001I0J50800D01*
G01*
X108474200Y-66880001D01*
G75*
G02*
X108525000Y-66829201I50800J0D01*
G01*
X109075000Y-66829201D01*
G75*
G02*
X109125800Y-66880001I0J-50800D01*
G01*
G37*
G36*
G01*
X108125800Y-66880001D02*
X108125800Y-67880001D01*
G75*
G02*
X108075000Y-67930801I-50800J0D01*
G01*
X107525000Y-67930801D01*
G75*
G02*
X107474200Y-67880001I0J50800D01*
G01*
X107474200Y-66880001D01*
G75*
G02*
X107525000Y-66829201I50800J0D01*
G01*
X108075000Y-66829201D01*
G75*
G02*
X108125800Y-66880001I0J-50800D01*
G01*
G37*
G36*
G01*
X107125800Y-66880001D02*
X107125800Y-67880001D01*
G75*
G02*
X107075000Y-67930801I-50800J0D01*
G01*
X106525000Y-67930801D01*
G75*
G02*
X106474200Y-67880001I0J50800D01*
G01*
X106474200Y-66880001D01*
G75*
G02*
X106525000Y-66829201I50800J0D01*
G01*
X107075000Y-66829201D01*
G75*
G02*
X107125800Y-66880001I0J-50800D01*
G01*
G37*
G36*
G01*
X136860000Y-71860800D02*
X135560000Y-71860800D01*
G75*
G02*
X135509200Y-71810000I0J50800D01*
G01*
X135509200Y-70550000D01*
G75*
G02*
X135560000Y-70499200I50800J0D01*
G01*
X136860000Y-70499200D01*
G75*
G02*
X136910800Y-70550000I0J-50800D01*
G01*
X136910800Y-71810000D01*
G75*
G02*
X136860000Y-71860800I-50800J0D01*
G01*
G37*
G36*
G01*
X133780000Y-73655800D02*
X132780000Y-73655800D01*
G75*
G02*
X132729200Y-73605000I0J50800D01*
G01*
X132729200Y-73055000D01*
G75*
G02*
X132780000Y-73004200I50800J0D01*
G01*
X133780000Y-73004200D01*
G75*
G02*
X133830800Y-73055000I0J-50800D01*
G01*
X133830800Y-73605000D01*
G75*
G02*
X133780000Y-73655800I-50800J0D01*
G01*
G37*
G36*
G01*
X136860000Y-77160800D02*
X135560000Y-77160800D01*
G75*
G02*
X135509200Y-77110000I0J50800D01*
G01*
X135509200Y-75850000D01*
G75*
G02*
X135560000Y-75799200I50800J0D01*
G01*
X136860000Y-75799200D01*
G75*
G02*
X136910800Y-75850000I0J-50800D01*
G01*
X136910800Y-77110000D01*
G75*
G02*
X136860000Y-77160800I-50800J0D01*
G01*
G37*
G36*
G01*
X133780000Y-74655800D02*
X132780000Y-74655800D01*
G75*
G02*
X132729200Y-74605000I0J50800D01*
G01*
X132729200Y-74055000D01*
G75*
G02*
X132780000Y-74004200I50800J0D01*
G01*
X133780000Y-74004200D01*
G75*
G02*
X133830800Y-74055000I0J-50800D01*
G01*
X133830800Y-74605000D01*
G75*
G02*
X133780000Y-74655800I-50800J0D01*
G01*
G37*
G36*
G01*
X69440200Y-74663251D02*
X69440200Y-74112451D01*
G75*
G02*
X69690600Y-73862051I250400J0D01*
G01*
X70191400Y-73862051D01*
G75*
G02*
X70441800Y-74112451I0J-250400D01*
G01*
X70441800Y-74663251D01*
G75*
G02*
X70191400Y-74913651I-250400J0D01*
G01*
X69690600Y-74913651D01*
G75*
G02*
X69440200Y-74663251I0J250400D01*
G01*
G37*
G36*
G01*
X67890200Y-74663251D02*
X67890200Y-74112451D01*
G75*
G02*
X68140600Y-73862051I250400J0D01*
G01*
X68641400Y-73862051D01*
G75*
G02*
X68891800Y-74112451I0J-250400D01*
G01*
X68891800Y-74663251D01*
G75*
G02*
X68641400Y-74913651I-250400J0D01*
G01*
X68140600Y-74913651D01*
G75*
G02*
X67890200Y-74663251I0J250400D01*
G01*
G37*
G36*
G01*
X56701801Y-118774001D02*
X56701801Y-118774001D01*
G75*
G02*
X56321001Y-119154801I-380800J0D01*
G01*
X54911001Y-119154801D01*
G75*
G02*
X54530201Y-118774001I0J380800D01*
G01*
X54530201Y-118774001D01*
G75*
G02*
X54911001Y-118393201I380800J0D01*
G01*
X56321001Y-118393201D01*
G75*
G02*
X56701801Y-118774001I0J-380800D01*
G01*
G37*
G36*
G01*
X56701801Y-117504001D02*
X56701801Y-117504001D01*
G75*
G02*
X56321001Y-117884801I-380800J0D01*
G01*
X54911001Y-117884801D01*
G75*
G02*
X54530201Y-117504001I0J380800D01*
G01*
X54530201Y-117504001D01*
G75*
G02*
X54911001Y-117123201I380800J0D01*
G01*
X56321001Y-117123201D01*
G75*
G02*
X56701801Y-117504001I0J-380800D01*
G01*
G37*
G36*
G01*
X56701801Y-116234001D02*
X56701801Y-116234001D01*
G75*
G02*
X56321001Y-116614801I-380800J0D01*
G01*
X54911001Y-116614801D01*
G75*
G02*
X54530201Y-116234001I0J380800D01*
G01*
X54530201Y-116234001D01*
G75*
G02*
X54911001Y-115853201I380800J0D01*
G01*
X56321001Y-115853201D01*
G75*
G02*
X56701801Y-116234001I0J-380800D01*
G01*
G37*
G36*
G01*
X56701801Y-114964001D02*
X56701801Y-114964001D01*
G75*
G02*
X56321001Y-115344801I-380800J0D01*
G01*
X54911001Y-115344801D01*
G75*
G02*
X54530201Y-114964001I0J380800D01*
G01*
X54530201Y-114964001D01*
G75*
G02*
X54911001Y-114583201I380800J0D01*
G01*
X56321001Y-114583201D01*
G75*
G02*
X56701801Y-114964001I0J-380800D01*
G01*
G37*
G36*
G01*
X61551801Y-114964001D02*
X61551801Y-114964001D01*
G75*
G02*
X61171001Y-115344801I-380800J0D01*
G01*
X59761001Y-115344801D01*
G75*
G02*
X59380201Y-114964001I0J380800D01*
G01*
X59380201Y-114964001D01*
G75*
G02*
X59761001Y-114583201I380800J0D01*
G01*
X61171001Y-114583201D01*
G75*
G02*
X61551801Y-114964001I0J-380800D01*
G01*
G37*
G36*
G01*
X61551801Y-116234001D02*
X61551801Y-116234001D01*
G75*
G02*
X61171001Y-116614801I-380800J0D01*
G01*
X59761001Y-116614801D01*
G75*
G02*
X59380201Y-116234001I0J380800D01*
G01*
X59380201Y-116234001D01*
G75*
G02*
X59761001Y-115853201I380800J0D01*
G01*
X61171001Y-115853201D01*
G75*
G02*
X61551801Y-116234001I0J-380800D01*
G01*
G37*
G36*
G01*
X61551801Y-117504001D02*
X61551801Y-117504001D01*
G75*
G02*
X61171001Y-117884801I-380800J0D01*
G01*
X59761001Y-117884801D01*
G75*
G02*
X59380201Y-117504001I0J380800D01*
G01*
X59380201Y-117504001D01*
G75*
G02*
X59761001Y-117123201I380800J0D01*
G01*
X61171001Y-117123201D01*
G75*
G02*
X61551801Y-117504001I0J-380800D01*
G01*
G37*
G36*
G01*
X61551801Y-118774001D02*
X61551801Y-118774001D01*
G75*
G02*
X61171001Y-119154801I-380800J0D01*
G01*
X59761001Y-119154801D01*
G75*
G02*
X59380201Y-118774001I0J380800D01*
G01*
X59380201Y-118774001D01*
G75*
G02*
X59761001Y-118393201I380800J0D01*
G01*
X61171001Y-118393201D01*
G75*
G02*
X61551801Y-118774001I0J-380800D01*
G01*
G37*
G36*
G01*
X137904900Y-66617300D02*
X137304100Y-66617300D01*
G75*
G02*
X137078700Y-66391900I0J225400D01*
G01*
X137078700Y-65941100D01*
G75*
G02*
X137304100Y-65715700I225400J0D01*
G01*
X137904900Y-65715700D01*
G75*
G02*
X138130300Y-65941100I0J-225400D01*
G01*
X138130300Y-66391900D01*
G75*
G02*
X137904900Y-66617300I-225400J0D01*
G01*
G37*
G36*
G01*
X137904900Y-64967300D02*
X137304100Y-64967300D01*
G75*
G02*
X137078700Y-64741900I0J225400D01*
G01*
X137078700Y-64291100D01*
G75*
G02*
X137304100Y-64065700I225400J0D01*
G01*
X137904900Y-64065700D01*
G75*
G02*
X138130300Y-64291100I0J-225400D01*
G01*
X138130300Y-64741900D01*
G75*
G02*
X137904900Y-64967300I-225400J0D01*
G01*
G37*
M02*
