%TF.GenerationSoftware,KiCad,Pcbnew,(5.1.9)-1*%
%TF.CreationDate,2022-01-06T16:33:17-10:00*%
%TF.ProjectId,batteryboard,62617474-6572-4796-926f-6172642e6b69,rev?*%
%TF.SameCoordinates,Original*%
%TF.FileFunction,Soldermask,Bot*%
%TF.FilePolarity,Negative*%
%FSLAX46Y46*%
G04 Gerber Fmt 4.6, Leading zero omitted, Abs format (unit mm)*
G04 Created by KiCad (PCBNEW (5.1.9)-1) date 2022-01-06 16:33:17*
%MOMM*%
%LPD*%
G01*
G04 APERTURE LIST*
%ADD10C,1.671600*%
%ADD11C,3.551600*%
%ADD12C,4.601600*%
%ADD13C,1.500000*%
%ADD14O,1.501600X1.501600*%
%ADD15C,1.501600*%
%ADD16C,2.101600*%
G04 APERTURE END LIST*
D10*
X137047400Y-80569800D03*
D11*
X128717400Y-96569800D03*
X73517400Y-80569800D03*
G36*
G01*
X140447400Y-85344000D02*
X147787400Y-85344000D01*
G75*
G02*
X147838200Y-85394800I0J-50800D01*
G01*
X147838200Y-91744800D01*
G75*
G02*
X147787400Y-91795600I-50800J0D01*
G01*
X140447400Y-91795600D01*
G75*
G02*
X140396600Y-91744800I0J50800D01*
G01*
X140396600Y-85394800D01*
G75*
G02*
X140447400Y-85344000I50800J0D01*
G01*
G37*
G36*
G01*
X54447400Y-85344000D02*
X61787400Y-85344000D01*
G75*
G02*
X61838200Y-85394800I0J-50800D01*
G01*
X61838200Y-91744800D01*
G75*
G02*
X61787400Y-91795600I-50800J0D01*
G01*
X54447400Y-91795600D01*
G75*
G02*
X54396600Y-91744800I0J50800D01*
G01*
X54396600Y-85394800D01*
G75*
G02*
X54447400Y-85344000I50800J0D01*
G01*
G37*
D10*
X137047400Y-59919600D03*
D11*
X128717400Y-75919600D03*
X73517400Y-59919600D03*
G36*
G01*
X140447400Y-66543800D02*
X147787400Y-66543800D01*
G75*
G02*
X147838200Y-66594600I0J-50800D01*
G01*
X147838200Y-71094600D01*
G75*
G02*
X147787400Y-71145400I-50800J0D01*
G01*
X140447400Y-71145400D01*
G75*
G02*
X140396600Y-71094600I0J50800D01*
G01*
X140396600Y-66594600D01*
G75*
G02*
X140447400Y-66543800I50800J0D01*
G01*
G37*
G36*
G01*
X54447400Y-64693800D02*
X61787400Y-64693800D01*
G75*
G02*
X61838200Y-64744600I0J-50800D01*
G01*
X61838200Y-71094600D01*
G75*
G02*
X61787400Y-71145400I-50800J0D01*
G01*
X54447400Y-71145400D01*
G75*
G02*
X54396600Y-71094600I0J50800D01*
G01*
X54396600Y-64744600D01*
G75*
G02*
X54447400Y-64693800I50800J0D01*
G01*
G37*
D12*
X144005300Y-136349900D03*
X58280300Y-58889900D03*
X58280300Y-138889900D03*
D10*
X137072800Y-117194600D03*
D11*
X128742800Y-101194600D03*
X73542800Y-117194600D03*
D10*
X65187400Y-121844800D03*
D11*
X73517400Y-137844800D03*
X128717400Y-121844800D03*
D10*
X65212800Y-117194600D03*
D11*
X73542800Y-101194600D03*
X128742800Y-117194600D03*
G36*
G01*
X61812800Y-112420400D02*
X54472800Y-112420400D01*
G75*
G02*
X54422000Y-112369600I0J50800D01*
G01*
X54422000Y-106019600D01*
G75*
G02*
X54472800Y-105968800I50800J0D01*
G01*
X61812800Y-105968800D01*
G75*
G02*
X61863600Y-106019600I0J-50800D01*
G01*
X61863600Y-112369600D01*
G75*
G02*
X61812800Y-112420400I-50800J0D01*
G01*
G37*
G36*
G01*
X147812800Y-112420400D02*
X140472800Y-112420400D01*
G75*
G02*
X140422000Y-112369600I0J50800D01*
G01*
X140422000Y-106019600D01*
G75*
G02*
X140472800Y-105968800I50800J0D01*
G01*
X147812800Y-105968800D01*
G75*
G02*
X147863600Y-106019600I0J-50800D01*
G01*
X147863600Y-112369600D01*
G75*
G02*
X147812800Y-112420400I-50800J0D01*
G01*
G37*
D10*
X65212800Y-137844800D03*
D11*
X73542800Y-121844800D03*
X128742800Y-137844800D03*
G36*
G01*
X61812800Y-133070600D02*
X54472800Y-133070600D01*
G75*
G02*
X54422000Y-133019800I0J50800D01*
G01*
X54422000Y-126669800D01*
G75*
G02*
X54472800Y-126619000I50800J0D01*
G01*
X61812800Y-126619000D01*
G75*
G02*
X61863600Y-126669800I0J-50800D01*
G01*
X61863600Y-133019800D01*
G75*
G02*
X61812800Y-133070600I-50800J0D01*
G01*
G37*
G36*
G01*
X147812800Y-133070600D02*
X140472800Y-133070600D01*
G75*
G02*
X140422000Y-133019800I0J50800D01*
G01*
X140422000Y-126669800D01*
G75*
G02*
X140472800Y-126619000I50800J0D01*
G01*
X147812800Y-126619000D01*
G75*
G02*
X147863600Y-126669800I0J-50800D01*
G01*
X147863600Y-133019800D01*
G75*
G02*
X147812800Y-133070600I-50800J0D01*
G01*
G37*
D13*
X147193000Y-56261000D03*
X55118000Y-56261000D03*
X56007000Y-142494000D03*
D14*
X96266000Y-93726000D03*
D15*
X101346000Y-93726000D03*
G36*
G01*
X100870200Y-76117000D02*
X100870200Y-75267000D01*
G75*
G02*
X100921000Y-75216200I50800J0D01*
G01*
X101771000Y-75216200D01*
G75*
G02*
X101821800Y-75267000I0J-50800D01*
G01*
X101821800Y-76117000D01*
G75*
G02*
X101771000Y-76167800I-50800J0D01*
G01*
X100921000Y-76167800D01*
G75*
G02*
X100870200Y-76117000I0J50800D01*
G01*
G37*
D16*
X146177000Y-75565000D03*
X142062200Y-75565000D03*
X58166000Y-78105000D03*
X144145000Y-121285000D03*
M02*
