%TF.GenerationSoftware,KiCad,Pcbnew,(5.1.9)-1*%
%TF.CreationDate,2022-01-06T16:33:17-10:00*%
%TF.ProjectId,batteryboard,62617474-6572-4796-926f-6172642e6b69,rev?*%
%TF.SameCoordinates,Original*%
%TF.FileFunction,Soldermask,Top*%
%TF.FilePolarity,Negative*%
%FSLAX46Y46*%
G04 Gerber Fmt 4.6, Leading zero omitted, Abs format (unit mm)*
G04 Created by KiCad (PCBNEW (5.1.9)-1) date 2022-01-06 16:33:17*
%MOMM*%
%LPD*%
G01*
G04 APERTURE LIST*
%ADD10C,0.175000*%
%ADD11C,0.010000*%
%ADD12C,1.671600*%
%ADD13C,3.551600*%
%ADD14C,4.601600*%
%ADD15C,1.500000*%
%ADD16O,1.501600X1.501600*%
%ADD17C,1.501600*%
%ADD18C,2.101600*%
G04 APERTURE END LIST*
D10*
X110741020Y-97757813D02*
X110741020Y-98457813D01*
X110741020Y-98124480D02*
X110341020Y-98124480D01*
X110341020Y-97757813D02*
X110341020Y-98457813D01*
X109874353Y-98457813D02*
X109741020Y-98457813D01*
X109674353Y-98424480D01*
X109607686Y-98357813D01*
X109574353Y-98224480D01*
X109574353Y-97991146D01*
X109607686Y-97857813D01*
X109674353Y-97791146D01*
X109741020Y-97757813D01*
X109874353Y-97757813D01*
X109941020Y-97791146D01*
X110007686Y-97857813D01*
X110041020Y-97991146D01*
X110041020Y-98224480D01*
X110007686Y-98357813D01*
X109941020Y-98424480D01*
X109874353Y-98457813D01*
X108941020Y-97757813D02*
X109274353Y-97757813D01*
X109274353Y-98457813D01*
X108374353Y-97757813D02*
X108707686Y-97757813D01*
X108707686Y-98457813D01*
X108141020Y-97757813D02*
X108141020Y-98457813D01*
X107807686Y-97757813D02*
X107807686Y-98457813D01*
X107641020Y-98457813D01*
X107541020Y-98424480D01*
X107474353Y-98357813D01*
X107441020Y-98291146D01*
X107407686Y-98157813D01*
X107407686Y-98057813D01*
X107441020Y-97924480D01*
X107474353Y-97857813D01*
X107541020Y-97791146D01*
X107641020Y-97757813D01*
X107807686Y-97757813D01*
X107141020Y-97957813D02*
X106807686Y-97957813D01*
X107207686Y-97757813D02*
X106974353Y-98457813D01*
X106741020Y-97757813D01*
X106374353Y-98091146D02*
X106374353Y-97757813D01*
X106607686Y-98457813D02*
X106374353Y-98091146D01*
X106141020Y-98457813D01*
D11*
G36*
X84222800Y-63220300D02*
G01*
X84925200Y-63220300D01*
X84925200Y-64372700D01*
X84222800Y-64372700D01*
X84222800Y-63220300D01*
G37*
X84222800Y-63220300D02*
X84925200Y-63220300D01*
X84925200Y-64372700D01*
X84222800Y-64372700D01*
X84222800Y-63220300D01*
G36*
X86242800Y-60080300D02*
G01*
X87655200Y-60080300D01*
X87655200Y-61532700D01*
X86242800Y-61532700D01*
X86242800Y-60080300D01*
G37*
X86242800Y-60080300D02*
X87655200Y-60080300D01*
X87655200Y-61532700D01*
X86242800Y-61532700D01*
X86242800Y-60080300D01*
G36*
X83222800Y-63220300D02*
G01*
X83925200Y-63220300D01*
X83925200Y-64372700D01*
X83222800Y-64372700D01*
X83222800Y-63220300D01*
G37*
X83222800Y-63220300D02*
X83925200Y-63220300D01*
X83925200Y-64372700D01*
X83222800Y-64372700D01*
X83222800Y-63220300D01*
G36*
X80492800Y-60080300D02*
G01*
X81905200Y-60080300D01*
X81905200Y-61532700D01*
X80492800Y-61532700D01*
X80492800Y-60080300D01*
G37*
X80492800Y-60080300D02*
X81905200Y-60080300D01*
X81905200Y-61532700D01*
X80492800Y-61532700D01*
X80492800Y-60080300D01*
G36*
G01*
X83073300Y-75660479D02*
X83073300Y-76612521D01*
G75*
G02*
X82798521Y-76887300I-274779J0D01*
G01*
X82221479Y-76887300D01*
G75*
G02*
X81946700Y-76612521I0J274779D01*
G01*
X81946700Y-75660479D01*
G75*
G02*
X82221479Y-75385700I274779J0D01*
G01*
X82798521Y-75385700D01*
G75*
G02*
X83073300Y-75660479I0J-274779D01*
G01*
G37*
G36*
G01*
X81248300Y-75660479D02*
X81248300Y-76612521D01*
G75*
G02*
X80973521Y-76887300I-274779J0D01*
G01*
X80396479Y-76887300D01*
G75*
G02*
X80121700Y-76612521I0J274779D01*
G01*
X80121700Y-75660479D01*
G75*
G02*
X80396479Y-75385700I274779J0D01*
G01*
X80973521Y-75385700D01*
G75*
G02*
X81248300Y-75660479I0J-274779D01*
G01*
G37*
G36*
G01*
X87010300Y-75660479D02*
X87010300Y-76612521D01*
G75*
G02*
X86735521Y-76887300I-274779J0D01*
G01*
X86158479Y-76887300D01*
G75*
G02*
X85883700Y-76612521I0J274779D01*
G01*
X85883700Y-75660479D01*
G75*
G02*
X86158479Y-75385700I274779J0D01*
G01*
X86735521Y-75385700D01*
G75*
G02*
X87010300Y-75660479I0J-274779D01*
G01*
G37*
G36*
G01*
X85185300Y-75660479D02*
X85185300Y-76612521D01*
G75*
G02*
X84910521Y-76887300I-274779J0D01*
G01*
X84333479Y-76887300D01*
G75*
G02*
X84058700Y-76612521I0J274779D01*
G01*
X84058700Y-75660479D01*
G75*
G02*
X84333479Y-75385700I274779J0D01*
G01*
X84910521Y-75385700D01*
G75*
G02*
X85185300Y-75660479I0J-274779D01*
G01*
G37*
D12*
X137047400Y-80569800D03*
D13*
X128717400Y-96569800D03*
X73517400Y-80569800D03*
D12*
X137047400Y-59919600D03*
D13*
X128717400Y-75919600D03*
X73517400Y-59919600D03*
D14*
X144005300Y-62689900D03*
X144005300Y-136349900D03*
X58280300Y-58889900D03*
X58280300Y-138889900D03*
D12*
X137072800Y-117194600D03*
D13*
X128742800Y-101194600D03*
X73542800Y-117194600D03*
G36*
G01*
X147812800Y-112420400D02*
X140472800Y-112420400D01*
G75*
G02*
X140422000Y-112369600I0J50800D01*
G01*
X140422000Y-106019600D01*
G75*
G02*
X140472800Y-105968800I50800J0D01*
G01*
X147812800Y-105968800D01*
G75*
G02*
X147863600Y-106019600I0J-50800D01*
G01*
X147863600Y-112369600D01*
G75*
G02*
X147812800Y-112420400I-50800J0D01*
G01*
G37*
G36*
G01*
X61812800Y-112420400D02*
X54472800Y-112420400D01*
G75*
G02*
X54422000Y-112369600I0J50800D01*
G01*
X54422000Y-106019600D01*
G75*
G02*
X54472800Y-105968800I50800J0D01*
G01*
X61812800Y-105968800D01*
G75*
G02*
X61863600Y-106019600I0J-50800D01*
G01*
X61863600Y-112369600D01*
G75*
G02*
X61812800Y-112420400I-50800J0D01*
G01*
G37*
D12*
X65187400Y-121844800D03*
D13*
X73517400Y-137844800D03*
X128717400Y-121844800D03*
G36*
G01*
X54447400Y-126619000D02*
X61787400Y-126619000D01*
G75*
G02*
X61838200Y-126669800I0J-50800D01*
G01*
X61838200Y-133019800D01*
G75*
G02*
X61787400Y-133070600I-50800J0D01*
G01*
X54447400Y-133070600D01*
G75*
G02*
X54396600Y-133019800I0J50800D01*
G01*
X54396600Y-126669800D01*
G75*
G02*
X54447400Y-126619000I50800J0D01*
G01*
G37*
G36*
G01*
X140447400Y-126619000D02*
X147787400Y-126619000D01*
G75*
G02*
X147838200Y-126669800I0J-50800D01*
G01*
X147838200Y-133019800D01*
G75*
G02*
X147787400Y-133070600I-50800J0D01*
G01*
X140447400Y-133070600D01*
G75*
G02*
X140396600Y-133019800I0J50800D01*
G01*
X140396600Y-126669800D01*
G75*
G02*
X140447400Y-126619000I50800J0D01*
G01*
G37*
D12*
X65212800Y-117194600D03*
D13*
X73542800Y-101194600D03*
X128742800Y-117194600D03*
D12*
X65212800Y-137844800D03*
D13*
X73542800Y-121844800D03*
X128742800Y-137844800D03*
D15*
X147193000Y-56261000D03*
X55118000Y-56261000D03*
X56007000Y-142494000D03*
D16*
X96266000Y-93726000D03*
D17*
X101346000Y-93726000D03*
G36*
G01*
X100870200Y-76117000D02*
X100870200Y-75267000D01*
G75*
G02*
X100921000Y-75216200I50800J0D01*
G01*
X101771000Y-75216200D01*
G75*
G02*
X101821800Y-75267000I0J-50800D01*
G01*
X101821800Y-76117000D01*
G75*
G02*
X101771000Y-76167800I-50800J0D01*
G01*
X100921000Y-76167800D01*
G75*
G02*
X100870200Y-76117000I0J50800D01*
G01*
G37*
D18*
X146177000Y-75565000D03*
X142062200Y-75565000D03*
X58166000Y-78105000D03*
X144145000Y-121285000D03*
G36*
G01*
X127526300Y-82395350D02*
X127526300Y-82958650D01*
G75*
G02*
X127282150Y-83202800I-244150J0D01*
G01*
X126793850Y-83202800D01*
G75*
G02*
X126549700Y-82958650I0J244150D01*
G01*
X126549700Y-82395350D01*
G75*
G02*
X126793850Y-82151200I244150J0D01*
G01*
X127282150Y-82151200D01*
G75*
G02*
X127526300Y-82395350I0J-244150D01*
G01*
G37*
G36*
G01*
X129101300Y-82395350D02*
X129101300Y-82958650D01*
G75*
G02*
X128857150Y-83202800I-244150J0D01*
G01*
X128368850Y-83202800D01*
G75*
G02*
X128124700Y-82958650I0J244150D01*
G01*
X128124700Y-82395350D01*
G75*
G02*
X128368850Y-82151200I244150J0D01*
G01*
X128857150Y-82151200D01*
G75*
G02*
X129101300Y-82395350I0J-244150D01*
G01*
G37*
G36*
G01*
X113510350Y-95295200D02*
X114073650Y-95295200D01*
G75*
G02*
X114317800Y-95539350I0J-244150D01*
G01*
X114317800Y-96027650D01*
G75*
G02*
X114073650Y-96271800I-244150J0D01*
G01*
X113510350Y-96271800D01*
G75*
G02*
X113266200Y-96027650I0J244150D01*
G01*
X113266200Y-95539350D01*
G75*
G02*
X113510350Y-95295200I244150J0D01*
G01*
G37*
G36*
G01*
X113510350Y-93720200D02*
X114073650Y-93720200D01*
G75*
G02*
X114317800Y-93964350I0J-244150D01*
G01*
X114317800Y-94452650D01*
G75*
G02*
X114073650Y-94696800I-244150J0D01*
G01*
X113510350Y-94696800D01*
G75*
G02*
X113266200Y-94452650I0J244150D01*
G01*
X113266200Y-93964350D01*
G75*
G02*
X113510350Y-93720200I244150J0D01*
G01*
G37*
G36*
G01*
X119026650Y-94696800D02*
X118463350Y-94696800D01*
G75*
G02*
X118219200Y-94452650I0J244150D01*
G01*
X118219200Y-93964350D01*
G75*
G02*
X118463350Y-93720200I244150J0D01*
G01*
X119026650Y-93720200D01*
G75*
G02*
X119270800Y-93964350I0J-244150D01*
G01*
X119270800Y-94452650D01*
G75*
G02*
X119026650Y-94696800I-244150J0D01*
G01*
G37*
G36*
G01*
X119026650Y-96271800D02*
X118463350Y-96271800D01*
G75*
G02*
X118219200Y-96027650I0J244150D01*
G01*
X118219200Y-95539350D01*
G75*
G02*
X118463350Y-95295200I244150J0D01*
G01*
X119026650Y-95295200D01*
G75*
G02*
X119270800Y-95539350I0J-244150D01*
G01*
X119270800Y-96027650D01*
G75*
G02*
X119026650Y-96271800I-244150J0D01*
G01*
G37*
G36*
G01*
X122763800Y-92999850D02*
X122763800Y-93563150D01*
G75*
G02*
X122519650Y-93807300I-244150J0D01*
G01*
X122031350Y-93807300D01*
G75*
G02*
X121787200Y-93563150I0J244150D01*
G01*
X121787200Y-92999850D01*
G75*
G02*
X122031350Y-92755700I244150J0D01*
G01*
X122519650Y-92755700D01*
G75*
G02*
X122763800Y-92999850I0J-244150D01*
G01*
G37*
G36*
G01*
X124338800Y-92999850D02*
X124338800Y-93563150D01*
G75*
G02*
X124094650Y-93807300I-244150J0D01*
G01*
X123606350Y-93807300D01*
G75*
G02*
X123362200Y-93563150I0J244150D01*
G01*
X123362200Y-92999850D01*
G75*
G02*
X123606350Y-92755700I244150J0D01*
G01*
X124094650Y-92755700D01*
G75*
G02*
X124338800Y-92999850I0J-244150D01*
G01*
G37*
G36*
G01*
X130044487Y-85646300D02*
X127130513Y-85646300D01*
G75*
G02*
X126861700Y-85377487I0J268813D01*
G01*
X126861700Y-84463513D01*
G75*
G02*
X127130513Y-84194700I268813J0D01*
G01*
X130044487Y-84194700D01*
G75*
G02*
X130313300Y-84463513I0J-268813D01*
G01*
X130313300Y-85377487D01*
G75*
G02*
X130044487Y-85646300I-268813J0D01*
G01*
G37*
G36*
G01*
X130044487Y-91446300D02*
X127130513Y-91446300D01*
G75*
G02*
X126861700Y-91177487I0J268813D01*
G01*
X126861700Y-90263513D01*
G75*
G02*
X127130513Y-89994700I268813J0D01*
G01*
X130044487Y-89994700D01*
G75*
G02*
X130313300Y-90263513I0J-268813D01*
G01*
X130313300Y-91177487D01*
G75*
G02*
X130044487Y-91446300I-268813J0D01*
G01*
G37*
G36*
G01*
X113336200Y-83487400D02*
X113336200Y-83136600D01*
G75*
G02*
X113511600Y-82961200I175400J0D01*
G01*
X115212400Y-82961200D01*
G75*
G02*
X115387800Y-83136600I0J-175400D01*
G01*
X115387800Y-83487400D01*
G75*
G02*
X115212400Y-83662800I-175400J0D01*
G01*
X113511600Y-83662800D01*
G75*
G02*
X113336200Y-83487400I0J175400D01*
G01*
G37*
G36*
G01*
X113336200Y-84757400D02*
X113336200Y-84406600D01*
G75*
G02*
X113511600Y-84231200I175400J0D01*
G01*
X115212400Y-84231200D01*
G75*
G02*
X115387800Y-84406600I0J-175400D01*
G01*
X115387800Y-84757400D01*
G75*
G02*
X115212400Y-84932800I-175400J0D01*
G01*
X113511600Y-84932800D01*
G75*
G02*
X113336200Y-84757400I0J175400D01*
G01*
G37*
G36*
G01*
X113336200Y-86027400D02*
X113336200Y-85676600D01*
G75*
G02*
X113511600Y-85501200I175400J0D01*
G01*
X115212400Y-85501200D01*
G75*
G02*
X115387800Y-85676600I0J-175400D01*
G01*
X115387800Y-86027400D01*
G75*
G02*
X115212400Y-86202800I-175400J0D01*
G01*
X113511600Y-86202800D01*
G75*
G02*
X113336200Y-86027400I0J175400D01*
G01*
G37*
G36*
G01*
X113336200Y-87297400D02*
X113336200Y-86946600D01*
G75*
G02*
X113511600Y-86771200I175400J0D01*
G01*
X115212400Y-86771200D01*
G75*
G02*
X115387800Y-86946600I0J-175400D01*
G01*
X115387800Y-87297400D01*
G75*
G02*
X115212400Y-87472800I-175400J0D01*
G01*
X113511600Y-87472800D01*
G75*
G02*
X113336200Y-87297400I0J175400D01*
G01*
G37*
G36*
G01*
X108386200Y-87297400D02*
X108386200Y-86946600D01*
G75*
G02*
X108561600Y-86771200I175400J0D01*
G01*
X110262400Y-86771200D01*
G75*
G02*
X110437800Y-86946600I0J-175400D01*
G01*
X110437800Y-87297400D01*
G75*
G02*
X110262400Y-87472800I-175400J0D01*
G01*
X108561600Y-87472800D01*
G75*
G02*
X108386200Y-87297400I0J175400D01*
G01*
G37*
G36*
G01*
X108386200Y-86027400D02*
X108386200Y-85676600D01*
G75*
G02*
X108561600Y-85501200I175400J0D01*
G01*
X110262400Y-85501200D01*
G75*
G02*
X110437800Y-85676600I0J-175400D01*
G01*
X110437800Y-86027400D01*
G75*
G02*
X110262400Y-86202800I-175400J0D01*
G01*
X108561600Y-86202800D01*
G75*
G02*
X108386200Y-86027400I0J175400D01*
G01*
G37*
G36*
G01*
X108386200Y-84757400D02*
X108386200Y-84406600D01*
G75*
G02*
X108561600Y-84231200I175400J0D01*
G01*
X110262400Y-84231200D01*
G75*
G02*
X110437800Y-84406600I0J-175400D01*
G01*
X110437800Y-84757400D01*
G75*
G02*
X110262400Y-84932800I-175400J0D01*
G01*
X108561600Y-84932800D01*
G75*
G02*
X108386200Y-84757400I0J175400D01*
G01*
G37*
G36*
G01*
X108386200Y-83487400D02*
X108386200Y-83136600D01*
G75*
G02*
X108561600Y-82961200I175400J0D01*
G01*
X110262400Y-82961200D01*
G75*
G02*
X110437800Y-83136600I0J-175400D01*
G01*
X110437800Y-83487400D01*
G75*
G02*
X110262400Y-83662800I-175400J0D01*
G01*
X108561600Y-83662800D01*
G75*
G02*
X108386200Y-83487400I0J175400D01*
G01*
G37*
G36*
G01*
X119708800Y-86946600D02*
X119708800Y-87297400D01*
G75*
G02*
X119533400Y-87472800I-175400J0D01*
G01*
X117832600Y-87472800D01*
G75*
G02*
X117657200Y-87297400I0J175400D01*
G01*
X117657200Y-86946600D01*
G75*
G02*
X117832600Y-86771200I175400J0D01*
G01*
X119533400Y-86771200D01*
G75*
G02*
X119708800Y-86946600I0J-175400D01*
G01*
G37*
G36*
G01*
X119708800Y-85676600D02*
X119708800Y-86027400D01*
G75*
G02*
X119533400Y-86202800I-175400J0D01*
G01*
X117832600Y-86202800D01*
G75*
G02*
X117657200Y-86027400I0J175400D01*
G01*
X117657200Y-85676600D01*
G75*
G02*
X117832600Y-85501200I175400J0D01*
G01*
X119533400Y-85501200D01*
G75*
G02*
X119708800Y-85676600I0J-175400D01*
G01*
G37*
G36*
G01*
X119708800Y-84406600D02*
X119708800Y-84757400D01*
G75*
G02*
X119533400Y-84932800I-175400J0D01*
G01*
X117832600Y-84932800D01*
G75*
G02*
X117657200Y-84757400I0J175400D01*
G01*
X117657200Y-84406600D01*
G75*
G02*
X117832600Y-84231200I175400J0D01*
G01*
X119533400Y-84231200D01*
G75*
G02*
X119708800Y-84406600I0J-175400D01*
G01*
G37*
G36*
G01*
X119708800Y-83136600D02*
X119708800Y-83487400D01*
G75*
G02*
X119533400Y-83662800I-175400J0D01*
G01*
X117832600Y-83662800D01*
G75*
G02*
X117657200Y-83487400I0J175400D01*
G01*
X117657200Y-83136600D01*
G75*
G02*
X117832600Y-82961200I175400J0D01*
G01*
X119533400Y-82961200D01*
G75*
G02*
X119708800Y-83136600I0J-175400D01*
G01*
G37*
G36*
G01*
X124658800Y-83136600D02*
X124658800Y-83487400D01*
G75*
G02*
X124483400Y-83662800I-175400J0D01*
G01*
X122782600Y-83662800D01*
G75*
G02*
X122607200Y-83487400I0J175400D01*
G01*
X122607200Y-83136600D01*
G75*
G02*
X122782600Y-82961200I175400J0D01*
G01*
X124483400Y-82961200D01*
G75*
G02*
X124658800Y-83136600I0J-175400D01*
G01*
G37*
G36*
G01*
X124658800Y-84406600D02*
X124658800Y-84757400D01*
G75*
G02*
X124483400Y-84932800I-175400J0D01*
G01*
X122782600Y-84932800D01*
G75*
G02*
X122607200Y-84757400I0J175400D01*
G01*
X122607200Y-84406600D01*
G75*
G02*
X122782600Y-84231200I175400J0D01*
G01*
X124483400Y-84231200D01*
G75*
G02*
X124658800Y-84406600I0J-175400D01*
G01*
G37*
G36*
G01*
X124658800Y-85676600D02*
X124658800Y-86027400D01*
G75*
G02*
X124483400Y-86202800I-175400J0D01*
G01*
X122782600Y-86202800D01*
G75*
G02*
X122607200Y-86027400I0J175400D01*
G01*
X122607200Y-85676600D01*
G75*
G02*
X122782600Y-85501200I175400J0D01*
G01*
X124483400Y-85501200D01*
G75*
G02*
X124658800Y-85676600I0J-175400D01*
G01*
G37*
G36*
G01*
X124658800Y-86946600D02*
X124658800Y-87297400D01*
G75*
G02*
X124483400Y-87472800I-175400J0D01*
G01*
X122782600Y-87472800D01*
G75*
G02*
X122607200Y-87297400I0J175400D01*
G01*
X122607200Y-86946600D01*
G75*
G02*
X122782600Y-86771200I175400J0D01*
G01*
X124483400Y-86771200D01*
G75*
G02*
X124658800Y-86946600I0J-175400D01*
G01*
G37*
G36*
G01*
X115288350Y-95295200D02*
X115851650Y-95295200D01*
G75*
G02*
X116095800Y-95539350I0J-244150D01*
G01*
X116095800Y-96027650D01*
G75*
G02*
X115851650Y-96271800I-244150J0D01*
G01*
X115288350Y-96271800D01*
G75*
G02*
X115044200Y-96027650I0J244150D01*
G01*
X115044200Y-95539350D01*
G75*
G02*
X115288350Y-95295200I244150J0D01*
G01*
G37*
G36*
G01*
X115288350Y-93720200D02*
X115851650Y-93720200D01*
G75*
G02*
X116095800Y-93964350I0J-244150D01*
G01*
X116095800Y-94452650D01*
G75*
G02*
X115851650Y-94696800I-244150J0D01*
G01*
X115288350Y-94696800D01*
G75*
G02*
X115044200Y-94452650I0J244150D01*
G01*
X115044200Y-93964350D01*
G75*
G02*
X115288350Y-93720200I244150J0D01*
G01*
G37*
G36*
G01*
X118463350Y-91993200D02*
X119026650Y-91993200D01*
G75*
G02*
X119270800Y-92237350I0J-244150D01*
G01*
X119270800Y-92725650D01*
G75*
G02*
X119026650Y-92969800I-244150J0D01*
G01*
X118463350Y-92969800D01*
G75*
G02*
X118219200Y-92725650I0J244150D01*
G01*
X118219200Y-92237350D01*
G75*
G02*
X118463350Y-91993200I244150J0D01*
G01*
G37*
G36*
G01*
X118463350Y-90418200D02*
X119026650Y-90418200D01*
G75*
G02*
X119270800Y-90662350I0J-244150D01*
G01*
X119270800Y-91150650D01*
G75*
G02*
X119026650Y-91394800I-244150J0D01*
G01*
X118463350Y-91394800D01*
G75*
G02*
X118219200Y-91150650I0J244150D01*
G01*
X118219200Y-90662350D01*
G75*
G02*
X118463350Y-90418200I244150J0D01*
G01*
G37*
G36*
G01*
X120241350Y-91993200D02*
X120804650Y-91993200D01*
G75*
G02*
X121048800Y-92237350I0J-244150D01*
G01*
X121048800Y-92725650D01*
G75*
G02*
X120804650Y-92969800I-244150J0D01*
G01*
X120241350Y-92969800D01*
G75*
G02*
X119997200Y-92725650I0J244150D01*
G01*
X119997200Y-92237350D01*
G75*
G02*
X120241350Y-91993200I244150J0D01*
G01*
G37*
G36*
G01*
X120241350Y-90418200D02*
X120804650Y-90418200D01*
G75*
G02*
X121048800Y-90662350I0J-244150D01*
G01*
X121048800Y-91150650D01*
G75*
G02*
X120804650Y-91394800I-244150J0D01*
G01*
X120241350Y-91394800D01*
G75*
G02*
X119997200Y-91150650I0J244150D01*
G01*
X119997200Y-90662350D01*
G75*
G02*
X120241350Y-90418200I244150J0D01*
G01*
G37*
G36*
G01*
X117089000Y-91094800D02*
X116089000Y-91094800D01*
G75*
G02*
X116038200Y-91044000I0J50800D01*
G01*
X116038200Y-90444000D01*
G75*
G02*
X116089000Y-90393200I50800J0D01*
G01*
X117089000Y-90393200D01*
G75*
G02*
X117139800Y-90444000I0J-50800D01*
G01*
X117139800Y-91044000D01*
G75*
G02*
X117089000Y-91094800I-50800J0D01*
G01*
G37*
G36*
G01*
X117089000Y-92044800D02*
X116089000Y-92044800D01*
G75*
G02*
X116038200Y-91994000I0J50800D01*
G01*
X116038200Y-91394000D01*
G75*
G02*
X116089000Y-91343200I50800J0D01*
G01*
X117089000Y-91343200D01*
G75*
G02*
X117139800Y-91394000I0J-50800D01*
G01*
X117139800Y-91994000D01*
G75*
G02*
X117089000Y-92044800I-50800J0D01*
G01*
G37*
G36*
G01*
X117089000Y-92994800D02*
X116089000Y-92994800D01*
G75*
G02*
X116038200Y-92944000I0J50800D01*
G01*
X116038200Y-92344000D01*
G75*
G02*
X116089000Y-92293200I50800J0D01*
G01*
X117089000Y-92293200D01*
G75*
G02*
X117139800Y-92344000I0J-50800D01*
G01*
X117139800Y-92944000D01*
G75*
G02*
X117089000Y-92994800I-50800J0D01*
G01*
G37*
G36*
G01*
X114289000Y-92994800D02*
X113289000Y-92994800D01*
G75*
G02*
X113238200Y-92944000I0J50800D01*
G01*
X113238200Y-92344000D01*
G75*
G02*
X113289000Y-92293200I50800J0D01*
G01*
X114289000Y-92293200D01*
G75*
G02*
X114339800Y-92344000I0J-50800D01*
G01*
X114339800Y-92944000D01*
G75*
G02*
X114289000Y-92994800I-50800J0D01*
G01*
G37*
G36*
G01*
X114289000Y-92044800D02*
X113289000Y-92044800D01*
G75*
G02*
X113238200Y-91994000I0J50800D01*
G01*
X113238200Y-91394000D01*
G75*
G02*
X113289000Y-91343200I50800J0D01*
G01*
X114289000Y-91343200D01*
G75*
G02*
X114339800Y-91394000I0J-50800D01*
G01*
X114339800Y-91994000D01*
G75*
G02*
X114289000Y-92044800I-50800J0D01*
G01*
G37*
G36*
G01*
X114289000Y-91094800D02*
X113289000Y-91094800D01*
G75*
G02*
X113238200Y-91044000I0J50800D01*
G01*
X113238200Y-90444000D01*
G75*
G02*
X113289000Y-90393200I50800J0D01*
G01*
X114289000Y-90393200D01*
G75*
G02*
X114339800Y-90444000I0J-50800D01*
G01*
X114339800Y-91044000D01*
G75*
G02*
X114289000Y-91094800I-50800J0D01*
G01*
G37*
G36*
G01*
X126700800Y-63800000D02*
X126700800Y-65100000D01*
G75*
G02*
X126650000Y-65150800I-50800J0D01*
G01*
X125390000Y-65150800D01*
G75*
G02*
X125339200Y-65100000I0J50800D01*
G01*
X125339200Y-63800000D01*
G75*
G02*
X125390000Y-63749200I50800J0D01*
G01*
X126650000Y-63749200D01*
G75*
G02*
X126700800Y-63800000I0J-50800D01*
G01*
G37*
G36*
G01*
X128495800Y-66880000D02*
X128495800Y-67880000D01*
G75*
G02*
X128445000Y-67930800I-50800J0D01*
G01*
X127895000Y-67930800D01*
G75*
G02*
X127844200Y-67880000I0J50800D01*
G01*
X127844200Y-66880000D01*
G75*
G02*
X127895000Y-66829200I50800J0D01*
G01*
X128445000Y-66829200D01*
G75*
G02*
X128495800Y-66880000I0J-50800D01*
G01*
G37*
G36*
G01*
X132000800Y-63800000D02*
X132000800Y-65100000D01*
G75*
G02*
X131950000Y-65150800I-50800J0D01*
G01*
X130690000Y-65150800D01*
G75*
G02*
X130639200Y-65100000I0J50800D01*
G01*
X130639200Y-63800000D01*
G75*
G02*
X130690000Y-63749200I50800J0D01*
G01*
X131950000Y-63749200D01*
G75*
G02*
X132000800Y-63800000I0J-50800D01*
G01*
G37*
G36*
G01*
X129495800Y-66880000D02*
X129495800Y-67880000D01*
G75*
G02*
X129445000Y-67930800I-50800J0D01*
G01*
X128895000Y-67930800D01*
G75*
G02*
X128844200Y-67880000I0J50800D01*
G01*
X128844200Y-66880000D01*
G75*
G02*
X128895000Y-66829200I50800J0D01*
G01*
X129445000Y-66829200D01*
G75*
G02*
X129495800Y-66880000I0J-50800D01*
G01*
G37*
G36*
G01*
X119945800Y-66880000D02*
X119945800Y-67880000D01*
G75*
G02*
X119895000Y-67930800I-50800J0D01*
G01*
X119345000Y-67930800D01*
G75*
G02*
X119294200Y-67880000I0J50800D01*
G01*
X119294200Y-66880000D01*
G75*
G02*
X119345000Y-66829200I50800J0D01*
G01*
X119895000Y-66829200D01*
G75*
G02*
X119945800Y-66880000I0J-50800D01*
G01*
G37*
G36*
G01*
X122450800Y-63800000D02*
X122450800Y-65100000D01*
G75*
G02*
X122400000Y-65150800I-50800J0D01*
G01*
X121140000Y-65150800D01*
G75*
G02*
X121089200Y-65100000I0J50800D01*
G01*
X121089200Y-63800000D01*
G75*
G02*
X121140000Y-63749200I50800J0D01*
G01*
X122400000Y-63749200D01*
G75*
G02*
X122450800Y-63800000I0J-50800D01*
G01*
G37*
G36*
G01*
X118945800Y-66880000D02*
X118945800Y-67880000D01*
G75*
G02*
X118895000Y-67930800I-50800J0D01*
G01*
X118345000Y-67930800D01*
G75*
G02*
X118294200Y-67880000I0J50800D01*
G01*
X118294200Y-66880000D01*
G75*
G02*
X118345000Y-66829200I50800J0D01*
G01*
X118895000Y-66829200D01*
G75*
G02*
X118945800Y-66880000I0J-50800D01*
G01*
G37*
G36*
G01*
X117150800Y-63800000D02*
X117150800Y-65100000D01*
G75*
G02*
X117100000Y-65150800I-50800J0D01*
G01*
X115840000Y-65150800D01*
G75*
G02*
X115789200Y-65100000I0J50800D01*
G01*
X115789200Y-63800000D01*
G75*
G02*
X115840000Y-63749200I50800J0D01*
G01*
X117100000Y-63749200D01*
G75*
G02*
X117150800Y-63800000I0J-50800D01*
G01*
G37*
G36*
G01*
X112630800Y-63750001D02*
X112630800Y-65050001D01*
G75*
G02*
X112580000Y-65100801I-50800J0D01*
G01*
X111320000Y-65100801D01*
G75*
G02*
X111269200Y-65050001I0J50800D01*
G01*
X111269200Y-63750001D01*
G75*
G02*
X111320000Y-63699201I50800J0D01*
G01*
X112580000Y-63699201D01*
G75*
G02*
X112630800Y-63750001I0J-50800D01*
G01*
G37*
G36*
G01*
X110125800Y-66880001D02*
X110125800Y-67880001D01*
G75*
G02*
X110075000Y-67930801I-50800J0D01*
G01*
X109525000Y-67930801D01*
G75*
G02*
X109474200Y-67880001I0J50800D01*
G01*
X109474200Y-66880001D01*
G75*
G02*
X109525000Y-66829201I50800J0D01*
G01*
X110075000Y-66829201D01*
G75*
G02*
X110125800Y-66880001I0J-50800D01*
G01*
G37*
G36*
G01*
X105330800Y-63750001D02*
X105330800Y-65050001D01*
G75*
G02*
X105280000Y-65100801I-50800J0D01*
G01*
X104020000Y-65100801D01*
G75*
G02*
X103969200Y-65050001I0J50800D01*
G01*
X103969200Y-63750001D01*
G75*
G02*
X104020000Y-63699201I50800J0D01*
G01*
X105280000Y-63699201D01*
G75*
G02*
X105330800Y-63750001I0J-50800D01*
G01*
G37*
G36*
G01*
X109125800Y-66880001D02*
X109125800Y-67880001D01*
G75*
G02*
X109075000Y-67930801I-50800J0D01*
G01*
X108525000Y-67930801D01*
G75*
G02*
X108474200Y-67880001I0J50800D01*
G01*
X108474200Y-66880001D01*
G75*
G02*
X108525000Y-66829201I50800J0D01*
G01*
X109075000Y-66829201D01*
G75*
G02*
X109125800Y-66880001I0J-50800D01*
G01*
G37*
G36*
G01*
X108125800Y-66880001D02*
X108125800Y-67880001D01*
G75*
G02*
X108075000Y-67930801I-50800J0D01*
G01*
X107525000Y-67930801D01*
G75*
G02*
X107474200Y-67880001I0J50800D01*
G01*
X107474200Y-66880001D01*
G75*
G02*
X107525000Y-66829201I50800J0D01*
G01*
X108075000Y-66829201D01*
G75*
G02*
X108125800Y-66880001I0J-50800D01*
G01*
G37*
G36*
G01*
X107125800Y-66880001D02*
X107125800Y-67880001D01*
G75*
G02*
X107075000Y-67930801I-50800J0D01*
G01*
X106525000Y-67930801D01*
G75*
G02*
X106474200Y-67880001I0J50800D01*
G01*
X106474200Y-66880001D01*
G75*
G02*
X106525000Y-66829201I50800J0D01*
G01*
X107075000Y-66829201D01*
G75*
G02*
X107125800Y-66880001I0J-50800D01*
G01*
G37*
G36*
G01*
X136860000Y-71860800D02*
X135560000Y-71860800D01*
G75*
G02*
X135509200Y-71810000I0J50800D01*
G01*
X135509200Y-70550000D01*
G75*
G02*
X135560000Y-70499200I50800J0D01*
G01*
X136860000Y-70499200D01*
G75*
G02*
X136910800Y-70550000I0J-50800D01*
G01*
X136910800Y-71810000D01*
G75*
G02*
X136860000Y-71860800I-50800J0D01*
G01*
G37*
G36*
G01*
X133780000Y-73655800D02*
X132780000Y-73655800D01*
G75*
G02*
X132729200Y-73605000I0J50800D01*
G01*
X132729200Y-73055000D01*
G75*
G02*
X132780000Y-73004200I50800J0D01*
G01*
X133780000Y-73004200D01*
G75*
G02*
X133830800Y-73055000I0J-50800D01*
G01*
X133830800Y-73605000D01*
G75*
G02*
X133780000Y-73655800I-50800J0D01*
G01*
G37*
G36*
G01*
X136860000Y-77160800D02*
X135560000Y-77160800D01*
G75*
G02*
X135509200Y-77110000I0J50800D01*
G01*
X135509200Y-75850000D01*
G75*
G02*
X135560000Y-75799200I50800J0D01*
G01*
X136860000Y-75799200D01*
G75*
G02*
X136910800Y-75850000I0J-50800D01*
G01*
X136910800Y-77110000D01*
G75*
G02*
X136860000Y-77160800I-50800J0D01*
G01*
G37*
G36*
G01*
X133780000Y-74655800D02*
X132780000Y-74655800D01*
G75*
G02*
X132729200Y-74605000I0J50800D01*
G01*
X132729200Y-74055000D01*
G75*
G02*
X132780000Y-74004200I50800J0D01*
G01*
X133780000Y-74004200D01*
G75*
G02*
X133830800Y-74055000I0J-50800D01*
G01*
X133830800Y-74605000D01*
G75*
G02*
X133780000Y-74655800I-50800J0D01*
G01*
G37*
G36*
G01*
X69440200Y-74663251D02*
X69440200Y-74112451D01*
G75*
G02*
X69690600Y-73862051I250400J0D01*
G01*
X70191400Y-73862051D01*
G75*
G02*
X70441800Y-74112451I0J-250400D01*
G01*
X70441800Y-74663251D01*
G75*
G02*
X70191400Y-74913651I-250400J0D01*
G01*
X69690600Y-74913651D01*
G75*
G02*
X69440200Y-74663251I0J250400D01*
G01*
G37*
G36*
G01*
X67890200Y-74663251D02*
X67890200Y-74112451D01*
G75*
G02*
X68140600Y-73862051I250400J0D01*
G01*
X68641400Y-73862051D01*
G75*
G02*
X68891800Y-74112451I0J-250400D01*
G01*
X68891800Y-74663251D01*
G75*
G02*
X68641400Y-74913651I-250400J0D01*
G01*
X68140600Y-74913651D01*
G75*
G02*
X67890200Y-74663251I0J250400D01*
G01*
G37*
G36*
G01*
X56701801Y-118774001D02*
X56701801Y-118774001D01*
G75*
G02*
X56321001Y-119154801I-380800J0D01*
G01*
X54911001Y-119154801D01*
G75*
G02*
X54530201Y-118774001I0J380800D01*
G01*
X54530201Y-118774001D01*
G75*
G02*
X54911001Y-118393201I380800J0D01*
G01*
X56321001Y-118393201D01*
G75*
G02*
X56701801Y-118774001I0J-380800D01*
G01*
G37*
G36*
G01*
X56701801Y-117504001D02*
X56701801Y-117504001D01*
G75*
G02*
X56321001Y-117884801I-380800J0D01*
G01*
X54911001Y-117884801D01*
G75*
G02*
X54530201Y-117504001I0J380800D01*
G01*
X54530201Y-117504001D01*
G75*
G02*
X54911001Y-117123201I380800J0D01*
G01*
X56321001Y-117123201D01*
G75*
G02*
X56701801Y-117504001I0J-380800D01*
G01*
G37*
G36*
G01*
X56701801Y-116234001D02*
X56701801Y-116234001D01*
G75*
G02*
X56321001Y-116614801I-380800J0D01*
G01*
X54911001Y-116614801D01*
G75*
G02*
X54530201Y-116234001I0J380800D01*
G01*
X54530201Y-116234001D01*
G75*
G02*
X54911001Y-115853201I380800J0D01*
G01*
X56321001Y-115853201D01*
G75*
G02*
X56701801Y-116234001I0J-380800D01*
G01*
G37*
G36*
G01*
X56701801Y-114964001D02*
X56701801Y-114964001D01*
G75*
G02*
X56321001Y-115344801I-380800J0D01*
G01*
X54911001Y-115344801D01*
G75*
G02*
X54530201Y-114964001I0J380800D01*
G01*
X54530201Y-114964001D01*
G75*
G02*
X54911001Y-114583201I380800J0D01*
G01*
X56321001Y-114583201D01*
G75*
G02*
X56701801Y-114964001I0J-380800D01*
G01*
G37*
G36*
G01*
X61551801Y-114964001D02*
X61551801Y-114964001D01*
G75*
G02*
X61171001Y-115344801I-380800J0D01*
G01*
X59761001Y-115344801D01*
G75*
G02*
X59380201Y-114964001I0J380800D01*
G01*
X59380201Y-114964001D01*
G75*
G02*
X59761001Y-114583201I380800J0D01*
G01*
X61171001Y-114583201D01*
G75*
G02*
X61551801Y-114964001I0J-380800D01*
G01*
G37*
G36*
G01*
X61551801Y-116234001D02*
X61551801Y-116234001D01*
G75*
G02*
X61171001Y-116614801I-380800J0D01*
G01*
X59761001Y-116614801D01*
G75*
G02*
X59380201Y-116234001I0J380800D01*
G01*
X59380201Y-116234001D01*
G75*
G02*
X59761001Y-115853201I380800J0D01*
G01*
X61171001Y-115853201D01*
G75*
G02*
X61551801Y-116234001I0J-380800D01*
G01*
G37*
G36*
G01*
X61551801Y-117504001D02*
X61551801Y-117504001D01*
G75*
G02*
X61171001Y-117884801I-380800J0D01*
G01*
X59761001Y-117884801D01*
G75*
G02*
X59380201Y-117504001I0J380800D01*
G01*
X59380201Y-117504001D01*
G75*
G02*
X59761001Y-117123201I380800J0D01*
G01*
X61171001Y-117123201D01*
G75*
G02*
X61551801Y-117504001I0J-380800D01*
G01*
G37*
G36*
G01*
X61551801Y-118774001D02*
X61551801Y-118774001D01*
G75*
G02*
X61171001Y-119154801I-380800J0D01*
G01*
X59761001Y-119154801D01*
G75*
G02*
X59380201Y-118774001I0J380800D01*
G01*
X59380201Y-118774001D01*
G75*
G02*
X59761001Y-118393201I380800J0D01*
G01*
X61171001Y-118393201D01*
G75*
G02*
X61551801Y-118774001I0J-380800D01*
G01*
G37*
G36*
G01*
X137904900Y-66617300D02*
X137304100Y-66617300D01*
G75*
G02*
X137078700Y-66391900I0J225400D01*
G01*
X137078700Y-65941100D01*
G75*
G02*
X137304100Y-65715700I225400J0D01*
G01*
X137904900Y-65715700D01*
G75*
G02*
X138130300Y-65941100I0J-225400D01*
G01*
X138130300Y-66391900D01*
G75*
G02*
X137904900Y-66617300I-225400J0D01*
G01*
G37*
G36*
G01*
X137904900Y-64967300D02*
X137304100Y-64967300D01*
G75*
G02*
X137078700Y-64741900I0J225400D01*
G01*
X137078700Y-64291100D01*
G75*
G02*
X137304100Y-64065700I225400J0D01*
G01*
X137904900Y-64065700D01*
G75*
G02*
X138130300Y-64291100I0J-225400D01*
G01*
X138130300Y-64741900D01*
G75*
G02*
X137904900Y-64967300I-225400J0D01*
G01*
G37*
M02*
