%TF.GenerationSoftware,KiCad,Pcbnew,(5.1.9)-1*%
%TF.CreationDate,2022-01-06T16:33:17-10:00*%
%TF.ProjectId,batteryboard,62617474-6572-4796-926f-6172642e6b69,rev?*%
%TF.SameCoordinates,Original*%
%TF.FileFunction,Legend,Bot*%
%TF.FilePolarity,Positive*%
%FSLAX46Y46*%
G04 Gerber Fmt 4.6, Leading zero omitted, Abs format (unit mm)*
G04 Created by KiCad (PCBNEW (5.1.9)-1) date 2022-01-06 16:33:17*
%MOMM*%
%LPD*%
G01*
G04 APERTURE LIST*
%ADD10C,0.200000*%
%ADD11C,0.254000*%
%ADD12C,0.381000*%
%ADD13C,0.500000*%
%ADD14C,0.100000*%
%ADD15C,1.671600*%
%ADD16C,3.551600*%
%ADD17C,4.601600*%
%ADD18C,1.500000*%
%ADD19O,1.501600X1.501600*%
%ADD20C,1.501600*%
%ADD21C,2.101600*%
G04 APERTURE END LIST*
D10*
X104771142Y-55863404D02*
X104771142Y-57163404D01*
X104771142Y-56668166D02*
X104894952Y-56730071D01*
X105142571Y-56730071D01*
X105266380Y-56668166D01*
X105328285Y-56606261D01*
X105390190Y-56482452D01*
X105390190Y-56111023D01*
X105328285Y-55987214D01*
X105266380Y-55925309D01*
X105142571Y-55863404D01*
X104894952Y-55863404D01*
X104771142Y-55925309D01*
X106504476Y-55863404D02*
X106504476Y-56544357D01*
X106442571Y-56668166D01*
X106318761Y-56730071D01*
X106071142Y-56730071D01*
X105947333Y-56668166D01*
X106504476Y-55925309D02*
X106380666Y-55863404D01*
X106071142Y-55863404D01*
X105947333Y-55925309D01*
X105885428Y-56049119D01*
X105885428Y-56172928D01*
X105947333Y-56296738D01*
X106071142Y-56358642D01*
X106380666Y-56358642D01*
X106504476Y-56420547D01*
X106937809Y-56730071D02*
X107433047Y-56730071D01*
X107123523Y-57163404D02*
X107123523Y-56049119D01*
X107185428Y-55925309D01*
X107309238Y-55863404D01*
X107433047Y-55863404D01*
X107680666Y-56730071D02*
X108175904Y-56730071D01*
X107866380Y-57163404D02*
X107866380Y-56049119D01*
X107928285Y-55925309D01*
X108052095Y-55863404D01*
X108175904Y-55863404D01*
X109104476Y-55925309D02*
X108980666Y-55863404D01*
X108733047Y-55863404D01*
X108609238Y-55925309D01*
X108547333Y-56049119D01*
X108547333Y-56544357D01*
X108609238Y-56668166D01*
X108733047Y-56730071D01*
X108980666Y-56730071D01*
X109104476Y-56668166D01*
X109166380Y-56544357D01*
X109166380Y-56420547D01*
X108547333Y-56296738D01*
X109723523Y-55863404D02*
X109723523Y-56730071D01*
X109723523Y-56482452D02*
X109785428Y-56606261D01*
X109847333Y-56668166D01*
X109971142Y-56730071D01*
X110094952Y-56730071D01*
X110404476Y-56730071D02*
X110714000Y-55863404D01*
X111023523Y-56730071D02*
X110714000Y-55863404D01*
X110590190Y-55553880D01*
X110528285Y-55491976D01*
X110404476Y-55430071D01*
X111518761Y-55863404D02*
X111518761Y-57163404D01*
X111518761Y-56668166D02*
X111642571Y-56730071D01*
X111890190Y-56730071D01*
X112014000Y-56668166D01*
X112075904Y-56606261D01*
X112137809Y-56482452D01*
X112137809Y-56111023D01*
X112075904Y-55987214D01*
X112014000Y-55925309D01*
X111890190Y-55863404D01*
X111642571Y-55863404D01*
X111518761Y-55925309D01*
X112880666Y-55863404D02*
X112756857Y-55925309D01*
X112694952Y-55987214D01*
X112633047Y-56111023D01*
X112633047Y-56482452D01*
X112694952Y-56606261D01*
X112756857Y-56668166D01*
X112880666Y-56730071D01*
X113066380Y-56730071D01*
X113190190Y-56668166D01*
X113252095Y-56606261D01*
X113314000Y-56482452D01*
X113314000Y-56111023D01*
X113252095Y-55987214D01*
X113190190Y-55925309D01*
X113066380Y-55863404D01*
X112880666Y-55863404D01*
X114428285Y-55863404D02*
X114428285Y-56544357D01*
X114366380Y-56668166D01*
X114242571Y-56730071D01*
X113994952Y-56730071D01*
X113871142Y-56668166D01*
X114428285Y-55925309D02*
X114304476Y-55863404D01*
X113994952Y-55863404D01*
X113871142Y-55925309D01*
X113809238Y-56049119D01*
X113809238Y-56172928D01*
X113871142Y-56296738D01*
X113994952Y-56358642D01*
X114304476Y-56358642D01*
X114428285Y-56420547D01*
X115047333Y-55863404D02*
X115047333Y-56730071D01*
X115047333Y-56482452D02*
X115109238Y-56606261D01*
X115171142Y-56668166D01*
X115294952Y-56730071D01*
X115418761Y-56730071D01*
X116409238Y-55863404D02*
X116409238Y-57163404D01*
X116409238Y-55925309D02*
X116285428Y-55863404D01*
X116037809Y-55863404D01*
X115914000Y-55925309D01*
X115852095Y-55987214D01*
X115790190Y-56111023D01*
X115790190Y-56482452D01*
X115852095Y-56606261D01*
X115914000Y-56668166D01*
X116037809Y-56730071D01*
X116285428Y-56730071D01*
X116409238Y-56668166D01*
X117028285Y-55987214D02*
X117090190Y-55925309D01*
X117028285Y-55863404D01*
X116966380Y-55925309D01*
X117028285Y-55987214D01*
X117028285Y-55863404D01*
X117523523Y-56730071D02*
X117833047Y-55863404D01*
X118142571Y-56730071D01*
X118575904Y-57039595D02*
X118637809Y-57101500D01*
X118761619Y-57163404D01*
X119071142Y-57163404D01*
X119194952Y-57101500D01*
X119256857Y-57039595D01*
X119318761Y-56915785D01*
X119318761Y-56791976D01*
X119256857Y-56606261D01*
X118514000Y-55863404D01*
X119318761Y-55863404D01*
D11*
X106174419Y-142064619D02*
X106513085Y-141580809D01*
X106754990Y-142064619D02*
X106754990Y-141048619D01*
X106367942Y-141048619D01*
X106271180Y-141097000D01*
X106222800Y-141145380D01*
X106174419Y-141242142D01*
X106174419Y-141387285D01*
X106222800Y-141484047D01*
X106271180Y-141532428D01*
X106367942Y-141580809D01*
X106754990Y-141580809D01*
X105400323Y-141532428D02*
X105255180Y-141580809D01*
X105206800Y-141629190D01*
X105158419Y-141725952D01*
X105158419Y-141871095D01*
X105206800Y-141967857D01*
X105255180Y-142016238D01*
X105351942Y-142064619D01*
X105738990Y-142064619D01*
X105738990Y-141048619D01*
X105400323Y-141048619D01*
X105303561Y-141097000D01*
X105255180Y-141145380D01*
X105206800Y-141242142D01*
X105206800Y-141338904D01*
X105255180Y-141435666D01*
X105303561Y-141484047D01*
X105400323Y-141532428D01*
X105738990Y-141532428D01*
X104384323Y-141532428D02*
X104722990Y-141532428D01*
X104722990Y-142064619D02*
X104722990Y-141048619D01*
X104239180Y-141048619D01*
X103078038Y-142064619D02*
X103078038Y-141048619D01*
X102690990Y-141048619D01*
X102594228Y-141097000D01*
X102545847Y-141145380D01*
X102497466Y-141242142D01*
X102497466Y-141387285D01*
X102545847Y-141484047D01*
X102594228Y-141532428D01*
X102690990Y-141580809D01*
X103078038Y-141580809D01*
X101868514Y-141048619D02*
X101674990Y-141048619D01*
X101578228Y-141097000D01*
X101481466Y-141193761D01*
X101433085Y-141387285D01*
X101433085Y-141725952D01*
X101481466Y-141919476D01*
X101578228Y-142016238D01*
X101674990Y-142064619D01*
X101868514Y-142064619D01*
X101965276Y-142016238D01*
X102062038Y-141919476D01*
X102110419Y-141725952D01*
X102110419Y-141387285D01*
X102062038Y-141193761D01*
X101965276Y-141097000D01*
X101868514Y-141048619D01*
X100417085Y-142064619D02*
X100755752Y-141580809D01*
X100997657Y-142064619D02*
X100997657Y-141048619D01*
X100610609Y-141048619D01*
X100513847Y-141097000D01*
X100465466Y-141145380D01*
X100417085Y-141242142D01*
X100417085Y-141387285D01*
X100465466Y-141484047D01*
X100513847Y-141532428D01*
X100610609Y-141580809D01*
X100997657Y-141580809D01*
X100126800Y-141048619D02*
X99546228Y-141048619D01*
X99836514Y-142064619D02*
X99836514Y-141048619D01*
X98481847Y-142016238D02*
X98336704Y-142064619D01*
X98094800Y-142064619D01*
X97998038Y-142016238D01*
X97949657Y-141967857D01*
X97901276Y-141871095D01*
X97901276Y-141774333D01*
X97949657Y-141677571D01*
X97998038Y-141629190D01*
X98094800Y-141580809D01*
X98288323Y-141532428D01*
X98385085Y-141484047D01*
X98433466Y-141435666D01*
X98481847Y-141338904D01*
X98481847Y-141242142D01*
X98433466Y-141145380D01*
X98385085Y-141097000D01*
X98288323Y-141048619D01*
X98046419Y-141048619D01*
X97901276Y-141097000D01*
X97465847Y-142064619D02*
X97465847Y-141048619D01*
X96982038Y-142064619D02*
X96982038Y-141048619D01*
X96740133Y-141048619D01*
X96594990Y-141097000D01*
X96498228Y-141193761D01*
X96449847Y-141290523D01*
X96401466Y-141484047D01*
X96401466Y-141629190D01*
X96449847Y-141822714D01*
X96498228Y-141919476D01*
X96594990Y-142016238D01*
X96740133Y-142064619D01*
X96982038Y-142064619D01*
X95966038Y-141532428D02*
X95627371Y-141532428D01*
X95482228Y-142064619D02*
X95966038Y-142064619D01*
X95966038Y-141048619D01*
X95482228Y-141048619D01*
D12*
X109818714Y-78114071D02*
X108367285Y-78114071D01*
X106008714Y-78114071D02*
X104557285Y-78114071D01*
X105283000Y-78839785D02*
X105283000Y-77388357D01*
X119470714Y-78114071D02*
X118019285Y-78114071D01*
X115660714Y-78114071D02*
X114209285Y-78114071D01*
X114935000Y-78839785D02*
X114935000Y-77388357D01*
X114209285Y-60061928D02*
X115660714Y-60061928D01*
X118019285Y-60061928D02*
X119470714Y-60061928D01*
X118745000Y-59336214D02*
X118745000Y-60787642D01*
X104557285Y-60061928D02*
X106008714Y-60061928D01*
X108367285Y-60061928D02*
X109818714Y-60061928D01*
X109093000Y-59336214D02*
X109093000Y-60787642D01*
X145416814Y-59865985D02*
X145416814Y-57960985D01*
X144691100Y-57960985D01*
X144509671Y-58051700D01*
X144418957Y-58142414D01*
X144328242Y-58323842D01*
X144328242Y-58595985D01*
X144418957Y-58777414D01*
X144509671Y-58868128D01*
X144691100Y-58958842D01*
X145416814Y-58958842D01*
X143511814Y-59140271D02*
X142060385Y-59140271D01*
X142786100Y-59865985D02*
X142786100Y-58414557D01*
X143283214Y-79728785D02*
X143283214Y-77823785D01*
X142557500Y-77823785D01*
X142376071Y-77914500D01*
X142285357Y-78005214D01*
X142194642Y-78186642D01*
X142194642Y-78458785D01*
X142285357Y-78640214D01*
X142376071Y-78730928D01*
X142557500Y-78821642D01*
X143283214Y-78821642D01*
X141378214Y-79003071D02*
X139926785Y-79003071D01*
X147728214Y-79728785D02*
X147728214Y-77823785D01*
X147002500Y-77823785D01*
X146821071Y-77914500D01*
X146730357Y-78005214D01*
X146639642Y-78186642D01*
X146639642Y-78458785D01*
X146730357Y-78640214D01*
X146821071Y-78730928D01*
X147002500Y-78821642D01*
X147728214Y-78821642D01*
X145823214Y-79003071D02*
X144371785Y-79003071D01*
X145097500Y-79728785D02*
X145097500Y-78277357D01*
X145950214Y-84554785D02*
X145950214Y-82649785D01*
X145224500Y-82649785D01*
X145043071Y-82740500D01*
X144952357Y-82831214D01*
X144861642Y-83012642D01*
X144861642Y-83284785D01*
X144952357Y-83466214D01*
X145043071Y-83556928D01*
X145224500Y-83647642D01*
X145950214Y-83647642D01*
X144045214Y-83829071D02*
X142593785Y-83829071D01*
X143319500Y-84554785D02*
X143319500Y-83103357D01*
X145315214Y-103622928D02*
X145043071Y-103713642D01*
X144952357Y-103804357D01*
X144861642Y-103985785D01*
X144861642Y-104257928D01*
X144952357Y-104439357D01*
X145043071Y-104530071D01*
X145224500Y-104620785D01*
X145950214Y-104620785D01*
X145950214Y-102715785D01*
X145315214Y-102715785D01*
X145133785Y-102806500D01*
X145043071Y-102897214D01*
X144952357Y-103078642D01*
X144952357Y-103260071D01*
X145043071Y-103441500D01*
X145133785Y-103532214D01*
X145315214Y-103622928D01*
X145950214Y-103622928D01*
X144045214Y-103895071D02*
X142593785Y-103895071D01*
X145315214Y-124323928D02*
X145043071Y-124414642D01*
X144952357Y-124505357D01*
X144861642Y-124686785D01*
X144861642Y-124958928D01*
X144952357Y-125140357D01*
X145043071Y-125231071D01*
X145224500Y-125321785D01*
X145950214Y-125321785D01*
X145950214Y-123416785D01*
X145315214Y-123416785D01*
X145133785Y-123507500D01*
X145043071Y-123598214D01*
X144952357Y-123779642D01*
X144952357Y-123961071D01*
X145043071Y-124142500D01*
X145133785Y-124233214D01*
X145315214Y-124323928D01*
X145950214Y-124323928D01*
X144045214Y-124596071D02*
X142593785Y-124596071D01*
X59118500Y-124704928D02*
X58846357Y-124795642D01*
X58755642Y-124886357D01*
X58664928Y-125067785D01*
X58664928Y-125339928D01*
X58755642Y-125521357D01*
X58846357Y-125612071D01*
X59027785Y-125702785D01*
X59753500Y-125702785D01*
X59753500Y-123797785D01*
X59118500Y-123797785D01*
X58937071Y-123888500D01*
X58846357Y-123979214D01*
X58755642Y-124160642D01*
X58755642Y-124342071D01*
X58846357Y-124523500D01*
X58937071Y-124614214D01*
X59118500Y-124704928D01*
X59753500Y-124704928D01*
X57848500Y-125702785D02*
X57848500Y-123797785D01*
X57213500Y-125158500D01*
X56578500Y-123797785D01*
X56578500Y-125702785D01*
X59118500Y-73142928D02*
X58846357Y-73233642D01*
X58755642Y-73324357D01*
X58664928Y-73505785D01*
X58664928Y-73777928D01*
X58755642Y-73959357D01*
X58846357Y-74050071D01*
X59027785Y-74140785D01*
X59753500Y-74140785D01*
X59753500Y-72235785D01*
X59118500Y-72235785D01*
X58937071Y-72326500D01*
X58846357Y-72417214D01*
X58755642Y-72598642D01*
X58755642Y-72780071D01*
X58846357Y-72961500D01*
X58937071Y-73052214D01*
X59118500Y-73142928D01*
X59753500Y-73142928D01*
X57848500Y-74140785D02*
X57848500Y-72235785D01*
X57213500Y-73596500D01*
X56578500Y-72235785D01*
X56578500Y-74140785D01*
X59118500Y-83048928D02*
X58846357Y-83139642D01*
X58755642Y-83230357D01*
X58664928Y-83411785D01*
X58664928Y-83683928D01*
X58755642Y-83865357D01*
X58846357Y-83956071D01*
X59027785Y-84046785D01*
X59753500Y-84046785D01*
X59753500Y-82141785D01*
X59118500Y-82141785D01*
X58937071Y-82232500D01*
X58846357Y-82323214D01*
X58755642Y-82504642D01*
X58755642Y-82686071D01*
X58846357Y-82867500D01*
X58937071Y-82958214D01*
X59118500Y-83048928D01*
X59753500Y-83048928D01*
X57848500Y-84046785D02*
X57848500Y-82141785D01*
X57213500Y-83502500D01*
X56578500Y-82141785D01*
X56578500Y-84046785D01*
X59118500Y-103495928D02*
X58846357Y-103586642D01*
X58755642Y-103677357D01*
X58664928Y-103858785D01*
X58664928Y-104130928D01*
X58755642Y-104312357D01*
X58846357Y-104403071D01*
X59027785Y-104493785D01*
X59753500Y-104493785D01*
X59753500Y-102588785D01*
X59118500Y-102588785D01*
X58937071Y-102679500D01*
X58846357Y-102770214D01*
X58755642Y-102951642D01*
X58755642Y-103133071D01*
X58846357Y-103314500D01*
X58937071Y-103405214D01*
X59118500Y-103495928D01*
X59753500Y-103495928D01*
X57848500Y-104493785D02*
X57848500Y-102588785D01*
X57213500Y-103949500D01*
X56578500Y-102588785D01*
X56578500Y-104493785D01*
D13*
X139852400Y-98729800D02*
X140233400Y-98729800D01*
X139852400Y-78409800D02*
X140233400Y-78409800D01*
X140233400Y-98729800D02*
X140233400Y-78409800D01*
X140106400Y-98729800D02*
X140106400Y-78409800D01*
X139979400Y-98729800D02*
X139979400Y-78409800D01*
X139852400Y-98729800D02*
X139852400Y-78409800D01*
D14*
X62592400Y-78244800D02*
X62592400Y-98894800D01*
X139852400Y-78244800D02*
X62592400Y-78244800D01*
X139642400Y-98894800D02*
X139642400Y-78244800D01*
X62592400Y-98894800D02*
X140233400Y-98894800D01*
D13*
X139852400Y-78079600D02*
X140233400Y-78079600D01*
X139852400Y-57759600D02*
X140233400Y-57759600D01*
X140233400Y-78079600D02*
X140233400Y-57759600D01*
X140106400Y-78079600D02*
X140106400Y-57759600D01*
X139979400Y-78079600D02*
X139979400Y-57759600D01*
X139852400Y-78079600D02*
X139852400Y-57759600D01*
D14*
X62592400Y-57594600D02*
X62592400Y-78244600D01*
X139852400Y-57594600D02*
X62592400Y-57594600D01*
X139642400Y-78244600D02*
X139642400Y-57594600D01*
X62592400Y-78244600D02*
X140233400Y-78244600D01*
D13*
X62407800Y-99034600D02*
X62026800Y-99034600D01*
X62407800Y-119354600D02*
X62026800Y-119354600D01*
X62026800Y-99034600D02*
X62026800Y-119354600D01*
X62153800Y-99034600D02*
X62153800Y-119354600D01*
X62280800Y-99034600D02*
X62280800Y-119354600D01*
X62407800Y-99034600D02*
X62407800Y-119354600D01*
D14*
X139667800Y-119519600D02*
X139667800Y-98869600D01*
X62407800Y-119519600D02*
X139667800Y-119519600D01*
X62617800Y-98869600D02*
X62617800Y-119519600D01*
X139667800Y-98869600D02*
X62026800Y-98869600D01*
D13*
X62407800Y-119684800D02*
X62026800Y-119684800D01*
X62407800Y-140004800D02*
X62026800Y-140004800D01*
X62026800Y-119684800D02*
X62026800Y-140004800D01*
X62153800Y-119684800D02*
X62153800Y-140004800D01*
X62280800Y-119684800D02*
X62280800Y-140004800D01*
X62407800Y-119684800D02*
X62407800Y-140004800D01*
D14*
X139667800Y-140169800D02*
X139667800Y-119519800D01*
X62407800Y-140169800D02*
X139667800Y-140169800D01*
X62617800Y-119519800D02*
X62617800Y-140169800D01*
X139667800Y-119519800D02*
X62026800Y-119519800D01*
D11*
X101540733Y-87874323D02*
X101540733Y-88781466D01*
X101601209Y-88962895D01*
X101722161Y-89083847D01*
X101903590Y-89144323D01*
X102024542Y-89144323D01*
X100996447Y-87995276D02*
X100935971Y-87934800D01*
X100815019Y-87874323D01*
X100512638Y-87874323D01*
X100391685Y-87934800D01*
X100331209Y-87995276D01*
X100270733Y-88116228D01*
X100270733Y-88237180D01*
X100331209Y-88418609D01*
X101056923Y-89144323D01*
X100270733Y-89144323D01*
D13*
X78497161Y-88926942D02*
X74687638Y-88926942D01*
X127547161Y-88926942D02*
X123737638Y-88926942D01*
X125642400Y-90831704D02*
X125642400Y-87022180D01*
D11*
X101540733Y-67224123D02*
X101540733Y-68131266D01*
X101601209Y-68312695D01*
X101722161Y-68433647D01*
X101903590Y-68494123D01*
X102024542Y-68494123D01*
X100391685Y-67647457D02*
X100391685Y-68494123D01*
X100694066Y-67163647D02*
X100996447Y-68070790D01*
X100210257Y-68070790D01*
D13*
X78497161Y-68276742D02*
X74687638Y-68276742D01*
X127547161Y-68276742D02*
X123737638Y-68276742D01*
X125642400Y-70181504D02*
X125642400Y-66371980D01*
D11*
X101566133Y-108499123D02*
X101566133Y-109406266D01*
X101626609Y-109587695D01*
X101747561Y-109708647D01*
X101928990Y-109769123D01*
X102049942Y-109769123D01*
X101082323Y-108499123D02*
X100296133Y-108499123D01*
X100719466Y-108982933D01*
X100538038Y-108982933D01*
X100417085Y-109043409D01*
X100356609Y-109103885D01*
X100296133Y-109224838D01*
X100296133Y-109527219D01*
X100356609Y-109648171D01*
X100417085Y-109708647D01*
X100538038Y-109769123D01*
X100900895Y-109769123D01*
X101021847Y-109708647D01*
X101082323Y-109648171D01*
D13*
X127572561Y-109551742D02*
X123763038Y-109551742D01*
X78522561Y-109551742D02*
X74713038Y-109551742D01*
X76617800Y-111456504D02*
X76617800Y-107646980D01*
D11*
X101566133Y-129149323D02*
X101566133Y-130056466D01*
X101626609Y-130237895D01*
X101747561Y-130358847D01*
X101928990Y-130419323D01*
X102049942Y-130419323D01*
X100296133Y-130419323D02*
X101021847Y-130419323D01*
X100658990Y-130419323D02*
X100658990Y-129149323D01*
X100779942Y-129330752D01*
X100900895Y-129451704D01*
X101021847Y-129512180D01*
D13*
X127572561Y-130201942D02*
X123763038Y-130201942D01*
X78522561Y-130201942D02*
X74713038Y-130201942D01*
X76617800Y-132106704D02*
X76617800Y-128297180D01*
%LPC*%
D15*
X137047400Y-80569800D03*
D16*
X128717400Y-96569800D03*
X73517400Y-80569800D03*
G36*
G01*
X140447400Y-85344000D02*
X147787400Y-85344000D01*
G75*
G02*
X147838200Y-85394800I0J-50800D01*
G01*
X147838200Y-91744800D01*
G75*
G02*
X147787400Y-91795600I-50800J0D01*
G01*
X140447400Y-91795600D01*
G75*
G02*
X140396600Y-91744800I0J50800D01*
G01*
X140396600Y-85394800D01*
G75*
G02*
X140447400Y-85344000I50800J0D01*
G01*
G37*
G36*
G01*
X54447400Y-85344000D02*
X61787400Y-85344000D01*
G75*
G02*
X61838200Y-85394800I0J-50800D01*
G01*
X61838200Y-91744800D01*
G75*
G02*
X61787400Y-91795600I-50800J0D01*
G01*
X54447400Y-91795600D01*
G75*
G02*
X54396600Y-91744800I0J50800D01*
G01*
X54396600Y-85394800D01*
G75*
G02*
X54447400Y-85344000I50800J0D01*
G01*
G37*
D15*
X137047400Y-59919600D03*
D16*
X128717400Y-75919600D03*
X73517400Y-59919600D03*
G36*
G01*
X140447400Y-66543800D02*
X147787400Y-66543800D01*
G75*
G02*
X147838200Y-66594600I0J-50800D01*
G01*
X147838200Y-71094600D01*
G75*
G02*
X147787400Y-71145400I-50800J0D01*
G01*
X140447400Y-71145400D01*
G75*
G02*
X140396600Y-71094600I0J50800D01*
G01*
X140396600Y-66594600D01*
G75*
G02*
X140447400Y-66543800I50800J0D01*
G01*
G37*
G36*
G01*
X54447400Y-64693800D02*
X61787400Y-64693800D01*
G75*
G02*
X61838200Y-64744600I0J-50800D01*
G01*
X61838200Y-71094600D01*
G75*
G02*
X61787400Y-71145400I-50800J0D01*
G01*
X54447400Y-71145400D01*
G75*
G02*
X54396600Y-71094600I0J50800D01*
G01*
X54396600Y-64744600D01*
G75*
G02*
X54447400Y-64693800I50800J0D01*
G01*
G37*
D17*
X144005300Y-136349900D03*
X58280300Y-58889900D03*
X58280300Y-138889900D03*
D15*
X137072800Y-117194600D03*
D16*
X128742800Y-101194600D03*
X73542800Y-117194600D03*
D15*
X65187400Y-121844800D03*
D16*
X73517400Y-137844800D03*
X128717400Y-121844800D03*
D15*
X65212800Y-117194600D03*
D16*
X73542800Y-101194600D03*
X128742800Y-117194600D03*
G36*
G01*
X61812800Y-112420400D02*
X54472800Y-112420400D01*
G75*
G02*
X54422000Y-112369600I0J50800D01*
G01*
X54422000Y-106019600D01*
G75*
G02*
X54472800Y-105968800I50800J0D01*
G01*
X61812800Y-105968800D01*
G75*
G02*
X61863600Y-106019600I0J-50800D01*
G01*
X61863600Y-112369600D01*
G75*
G02*
X61812800Y-112420400I-50800J0D01*
G01*
G37*
G36*
G01*
X147812800Y-112420400D02*
X140472800Y-112420400D01*
G75*
G02*
X140422000Y-112369600I0J50800D01*
G01*
X140422000Y-106019600D01*
G75*
G02*
X140472800Y-105968800I50800J0D01*
G01*
X147812800Y-105968800D01*
G75*
G02*
X147863600Y-106019600I0J-50800D01*
G01*
X147863600Y-112369600D01*
G75*
G02*
X147812800Y-112420400I-50800J0D01*
G01*
G37*
D15*
X65212800Y-137844800D03*
D16*
X73542800Y-121844800D03*
X128742800Y-137844800D03*
G36*
G01*
X61812800Y-133070600D02*
X54472800Y-133070600D01*
G75*
G02*
X54422000Y-133019800I0J50800D01*
G01*
X54422000Y-126669800D01*
G75*
G02*
X54472800Y-126619000I50800J0D01*
G01*
X61812800Y-126619000D01*
G75*
G02*
X61863600Y-126669800I0J-50800D01*
G01*
X61863600Y-133019800D01*
G75*
G02*
X61812800Y-133070600I-50800J0D01*
G01*
G37*
G36*
G01*
X147812800Y-133070600D02*
X140472800Y-133070600D01*
G75*
G02*
X140422000Y-133019800I0J50800D01*
G01*
X140422000Y-126669800D01*
G75*
G02*
X140472800Y-126619000I50800J0D01*
G01*
X147812800Y-126619000D01*
G75*
G02*
X147863600Y-126669800I0J-50800D01*
G01*
X147863600Y-133019800D01*
G75*
G02*
X147812800Y-133070600I-50800J0D01*
G01*
G37*
D18*
X147193000Y-56261000D03*
X55118000Y-56261000D03*
X56007000Y-142494000D03*
D19*
X96266000Y-93726000D03*
D20*
X101346000Y-93726000D03*
G36*
G01*
X100870200Y-76117000D02*
X100870200Y-75267000D01*
G75*
G02*
X100921000Y-75216200I50800J0D01*
G01*
X101771000Y-75216200D01*
G75*
G02*
X101821800Y-75267000I0J-50800D01*
G01*
X101821800Y-76117000D01*
G75*
G02*
X101771000Y-76167800I-50800J0D01*
G01*
X100921000Y-76167800D01*
G75*
G02*
X100870200Y-76117000I0J50800D01*
G01*
G37*
D21*
X146177000Y-75565000D03*
X142062200Y-75565000D03*
X58166000Y-78105000D03*
X144145000Y-121285000D03*
M02*
