G04 EAGLE Gerber RS-274X export*
G75*
%MOMM*%
%FSLAX34Y34*%
%LPD*%
%INSoldermask Bottom*%
%IPPOS*%
%AMOC8*
5,1,8,0,0,1.08239X$1,22.5*%
G01*
%ADD10C,6.553200*%
%ADD11C,1.981200*%
%ADD12C,0.903200*%
%ADD13R,1.403200X1.003200*%
%ADD14R,0.903200X0.563200*%
%ADD15R,0.563200X0.903200*%
%ADD16C,0.803200*%
%ADD17R,1.003200X1.003200*%
%ADD18R,1.879600X0.711200*%
%ADD19R,4.703200X1.403200*%
%ADD20R,1.711200X1.711200*%
%ADD21C,1.879600*%
%ADD22P,1.852186X8X112.500000*%
%ADD23C,1.711200*%
%ADD24C,1.311200*%
%ADD25R,1.203200X0.753200*%
%ADD26R,1.503200X1.463200*%
%ADD27P,2.249423X8X22.500000*%
%ADD28C,2.303200*%
%ADD29C,1.853200*%
%ADD30R,1.673200X1.403200*%
%ADD31C,0.959600*%
%ADD32C,3.719200*%
%ADD33C,6.203200*%


D10*
X50800Y50800D03*
X850900Y50800D03*
X825500Y908050D03*
X88900Y908050D03*
D11*
X774700Y908050D03*
X774700Y882650D03*
X139700Y908050D03*
X139700Y882650D03*
X749300Y908050D03*
X749300Y882650D03*
X723900Y908050D03*
X723900Y882650D03*
X698500Y908050D03*
X698500Y882650D03*
X673100Y908050D03*
X673100Y882650D03*
X647700Y908050D03*
X647700Y882650D03*
X622300Y908050D03*
X622300Y882650D03*
X596900Y908050D03*
X596900Y882650D03*
X571500Y908050D03*
X571500Y882650D03*
X546100Y908050D03*
X546100Y882650D03*
X520700Y908050D03*
X520700Y882650D03*
X495300Y908050D03*
X495300Y882650D03*
X469900Y908050D03*
X469900Y882650D03*
X444500Y908050D03*
X444500Y882650D03*
X419100Y908050D03*
X419100Y882650D03*
X393700Y908050D03*
X393700Y882650D03*
X368300Y908050D03*
X368300Y882650D03*
X342900Y908050D03*
X342900Y882650D03*
X317500Y908050D03*
X317500Y882650D03*
X292100Y908050D03*
X292100Y882650D03*
X266700Y908050D03*
X266700Y882650D03*
X241300Y908050D03*
X241300Y882650D03*
X215900Y908050D03*
X215900Y882650D03*
X190500Y908050D03*
X190500Y882650D03*
X165100Y908050D03*
X165100Y882650D03*
X774700Y857250D03*
X774700Y832231D03*
X139700Y857250D03*
X139700Y831850D03*
X749300Y857250D03*
X749300Y832231D03*
X723900Y857250D03*
X723900Y832231D03*
X698500Y857250D03*
X698500Y832231D03*
X673100Y857250D03*
X673100Y832231D03*
X647700Y857250D03*
X647700Y832231D03*
X622300Y857250D03*
X622300Y832231D03*
X596900Y857250D03*
X596900Y832231D03*
X571500Y857250D03*
X571500Y832231D03*
X546100Y857250D03*
X546100Y832231D03*
X520700Y857250D03*
X520700Y832231D03*
X495300Y857250D03*
X495300Y832231D03*
X469900Y857250D03*
X469900Y832231D03*
X444500Y857250D03*
X444500Y832231D03*
X419100Y857250D03*
X419100Y832231D03*
X393700Y857250D03*
X393700Y832231D03*
X368300Y857250D03*
X368300Y832231D03*
X342900Y857250D03*
X342900Y832231D03*
X317500Y857250D03*
X317500Y832231D03*
X292100Y857250D03*
X292100Y832231D03*
X266700Y857250D03*
X266700Y832231D03*
X241300Y857250D03*
X241300Y832231D03*
X215900Y857250D03*
X215900Y832231D03*
X190500Y857250D03*
X190500Y832231D03*
X165100Y857250D03*
X165100Y832231D03*
D12*
X495332Y517230D02*
X513332Y517230D01*
X513332Y529930D02*
X495332Y529930D01*
X495332Y542630D02*
X513332Y542630D01*
X513332Y555330D02*
X495332Y555330D01*
X544332Y517230D02*
X562332Y517230D01*
X562332Y529930D02*
X544332Y529930D01*
X544332Y542630D02*
X562332Y542630D01*
X562332Y555330D02*
X544332Y555330D01*
D13*
X555628Y445500D03*
X555628Y427500D03*
X526898Y445666D03*
X526898Y427666D03*
D14*
X259688Y145494D03*
X259688Y153494D03*
X259688Y161494D03*
X259688Y169494D03*
X259688Y177494D03*
X259688Y185494D03*
X259688Y193494D03*
X259688Y201494D03*
X259688Y209494D03*
X259688Y217494D03*
X259688Y225494D03*
D15*
X268088Y233894D03*
X276088Y233894D03*
X284088Y233894D03*
X292088Y233894D03*
X300088Y233894D03*
X308088Y233894D03*
X316188Y233894D03*
X324088Y233894D03*
X332088Y233894D03*
X340088Y233894D03*
X348088Y233894D03*
D14*
X356488Y225494D03*
X356488Y217494D03*
X356488Y209494D03*
X356488Y201494D03*
X356488Y193494D03*
X356488Y185494D03*
X356488Y177494D03*
X356488Y169494D03*
X356488Y161494D03*
X356488Y153494D03*
X356488Y145494D03*
D15*
X348088Y137094D03*
X340088Y137094D03*
X332088Y137094D03*
X324088Y137094D03*
X316088Y137094D03*
X308088Y137094D03*
X300088Y137094D03*
X292088Y137094D03*
X284088Y137094D03*
X276288Y137094D03*
X268088Y137094D03*
D16*
X278088Y155494D03*
X278088Y170494D03*
X278088Y185494D03*
X278088Y200494D03*
X278088Y215494D03*
X293088Y155494D03*
X293088Y170494D03*
X293088Y185494D03*
X293088Y200494D03*
X293088Y215494D03*
X308088Y155494D03*
X308088Y170494D03*
X308088Y185494D03*
X308088Y200494D03*
X308088Y215494D03*
X323088Y155494D03*
X323088Y170494D03*
X323088Y185494D03*
X323088Y200494D03*
X323088Y215494D03*
X338088Y155494D03*
X338088Y170494D03*
X338088Y185494D03*
X338088Y200494D03*
X338088Y215494D03*
D17*
X195326Y168024D03*
X210326Y168024D03*
D11*
X135040Y428604D03*
X160440Y428604D03*
X185840Y428604D03*
X211240Y428604D03*
X236640Y428604D03*
X262040Y428604D03*
D13*
X657088Y444900D03*
X657088Y426900D03*
X628762Y426900D03*
X628762Y444900D03*
D18*
X683446Y549544D03*
X683446Y536844D03*
X683446Y524144D03*
X683446Y511444D03*
X635186Y511444D03*
X635186Y524144D03*
X635186Y536844D03*
X635186Y549544D03*
D13*
X585442Y427700D03*
X585442Y445700D03*
D19*
X480100Y115900D03*
X480100Y135900D03*
X480100Y155900D03*
X480100Y175900D03*
X480100Y195900D03*
X480100Y215900D03*
X480100Y235900D03*
X644100Y235900D03*
X644100Y215900D03*
X644100Y195900D03*
X644100Y175900D03*
X644100Y155900D03*
X644100Y135900D03*
X644100Y115900D03*
X644100Y95900D03*
X480100Y95900D03*
D13*
X216900Y223300D03*
X216900Y205300D03*
X183300Y223900D03*
X183300Y205900D03*
X346100Y112300D03*
X346100Y94300D03*
D20*
X100400Y641100D03*
X557600Y717300D03*
X125800Y793500D03*
D21*
X100400Y793500D03*
D22*
X151200Y793500D03*
X557600Y691900D03*
D23*
X557600Y666500D03*
X557600Y742700D03*
X557600Y768100D03*
X430600Y793500D03*
X430600Y641100D03*
X125800Y641100D03*
X151200Y641100D03*
X176600Y641100D03*
X202000Y641100D03*
X227400Y641100D03*
X252800Y641100D03*
X278200Y641100D03*
X303600Y641100D03*
X329000Y641100D03*
X354400Y641100D03*
X379800Y641100D03*
X405200Y641100D03*
X125800Y768100D03*
X405200Y793500D03*
X379800Y793500D03*
X354400Y793500D03*
X329000Y793500D03*
X303600Y793500D03*
X278200Y793500D03*
X252800Y793500D03*
X227400Y793500D03*
X202000Y793500D03*
X176600Y793500D03*
D22*
X456000Y641100D03*
D23*
X506800Y641100D03*
X532200Y641100D03*
X557600Y641100D03*
X583000Y641100D03*
X608400Y641100D03*
X633800Y641100D03*
X659200Y641100D03*
X684600Y641100D03*
X481400Y793500D03*
X506800Y793500D03*
X532200Y793500D03*
X557600Y793500D03*
X583000Y793500D03*
X608400Y793500D03*
X633800Y793500D03*
X659200Y793500D03*
X684600Y793500D03*
X163900Y671100D03*
X189300Y671100D03*
X214700Y671100D03*
X240100Y671100D03*
X265500Y671100D03*
X481400Y641100D03*
D20*
X456000Y793500D03*
D23*
X102700Y727300D03*
X102700Y707300D03*
D24*
X230100Y768100D03*
X230100Y748100D03*
X230100Y728100D03*
X250100Y768100D03*
X250100Y748100D03*
X250100Y728100D03*
D25*
X816300Y781400D03*
X816300Y771400D03*
X816300Y761400D03*
X816300Y751400D03*
D26*
X846200Y805150D03*
X846200Y727600D03*
D25*
X99400Y134500D03*
X99400Y144500D03*
D26*
X69500Y110750D03*
X69500Y168300D03*
D25*
X100000Y246500D03*
X100000Y256500D03*
X100000Y266500D03*
X100000Y276500D03*
X100000Y286500D03*
D26*
X70100Y222750D03*
X70100Y310300D03*
D25*
X100000Y360000D03*
X100000Y370000D03*
D26*
X70100Y336250D03*
X70100Y393800D03*
D25*
X815100Y663400D03*
X815100Y653400D03*
D26*
X845000Y687150D03*
X845000Y629600D03*
D25*
X807400Y302400D03*
X807400Y292400D03*
X807400Y282400D03*
X807400Y272400D03*
D26*
X837300Y326150D03*
X837300Y248600D03*
D25*
X809100Y425700D03*
X809100Y415700D03*
D26*
X839000Y449450D03*
X839000Y391900D03*
D27*
X191600Y311900D03*
X191600Y337300D03*
X217000Y311900D03*
X217000Y337300D03*
X242400Y311900D03*
X242400Y337300D03*
X267800Y311900D03*
X267800Y337300D03*
X293200Y311900D03*
X293200Y337300D03*
X318600Y311900D03*
X318600Y337300D03*
X344000Y311900D03*
X344000Y337300D03*
X369400Y311900D03*
X369400Y337300D03*
X394800Y311900D03*
X394800Y337300D03*
X420200Y311900D03*
X420200Y337300D03*
X445600Y311900D03*
X445600Y337300D03*
X471000Y311900D03*
X471000Y337300D03*
X496400Y311900D03*
X496400Y337300D03*
X521800Y311900D03*
X521800Y337300D03*
X547200Y311900D03*
X547200Y337300D03*
X572600Y311900D03*
X572600Y337300D03*
X598000Y311900D03*
X598000Y337300D03*
X623400Y311900D03*
X623400Y337300D03*
X648800Y311900D03*
X648800Y337300D03*
X674200Y311900D03*
X674200Y337300D03*
D25*
X809800Y506500D03*
X809800Y496500D03*
D26*
X839700Y530250D03*
X839700Y472700D03*
D28*
X846000Y604200D03*
X846000Y553400D03*
X795200Y553400D03*
X795200Y604200D03*
D29*
X820600Y578800D03*
D28*
X313600Y466700D03*
X313600Y517500D03*
X364400Y517500D03*
X364400Y466700D03*
D29*
X339000Y492100D03*
D25*
X807600Y179300D03*
X807600Y169300D03*
X807600Y159300D03*
X807600Y149300D03*
D26*
X837500Y203050D03*
X837500Y125500D03*
D30*
X383900Y103500D03*
X383900Y120700D03*
D31*
X101600Y16510D03*
X121920Y16510D03*
X132080Y16510D03*
X142240Y16510D03*
X152400Y16510D03*
X162560Y16510D03*
X172720Y16510D03*
X111760Y16510D03*
X264160Y16510D03*
X274320Y16510D03*
X284480Y16510D03*
X294640Y16510D03*
X304800Y16510D03*
X314960Y16510D03*
X325120Y16510D03*
X335280Y16510D03*
X41656Y796544D03*
X41656Y816864D03*
X41656Y827024D03*
X41656Y837184D03*
X41656Y847344D03*
X41656Y857504D03*
X41656Y867664D03*
X41656Y806704D03*
X41656Y634492D03*
X41656Y654812D03*
X41656Y664972D03*
X41656Y675132D03*
X41656Y685292D03*
X41656Y695452D03*
X41656Y705612D03*
X41656Y644652D03*
X582930Y16510D03*
X603250Y16510D03*
X613410Y16510D03*
X623570Y16510D03*
X633730Y16510D03*
X643890Y16510D03*
X654050Y16510D03*
X593090Y16510D03*
X745490Y16510D03*
X755650Y16510D03*
X765810Y16510D03*
X775970Y16510D03*
X786130Y16510D03*
X796290Y16510D03*
X806450Y16510D03*
X816610Y16510D03*
X885190Y94234D03*
X885190Y114554D03*
X885190Y124714D03*
X885190Y134874D03*
X885190Y145034D03*
X885190Y155194D03*
X885190Y104394D03*
X886206Y751332D03*
X886206Y771652D03*
X886206Y781812D03*
X886206Y791972D03*
X886206Y802132D03*
X886206Y812292D03*
X886206Y822452D03*
X886206Y761492D03*
X798000Y854000D03*
X778700Y64300D03*
X811700Y541700D03*
X767600Y97600D03*
X771800Y552100D03*
X743400Y172500D03*
X723700Y172700D03*
X602800Y557000D03*
X594200Y608700D03*
X762000Y172900D03*
X220600Y136100D03*
X406400Y96000D03*
X595100Y405300D03*
X451500Y256400D03*
X148800Y171500D03*
X149200Y154800D03*
X422000Y265600D03*
X447600Y266600D03*
X468200Y266700D03*
X781900Y291200D03*
X452500Y429100D03*
X781300Y303100D03*
X491600Y417200D03*
X510900Y494700D03*
X191400Y395900D03*
X554200Y590900D03*
X252500Y125900D03*
X780600Y172900D03*
X159500Y226700D03*
X459000Y528100D03*
D32*
X303060Y555600D03*
X96940Y428604D03*
X96940Y555604D03*
X303060Y428604D03*
D31*
X716000Y511700D03*
X702300Y239100D03*
X381000Y594300D03*
X140300Y393300D03*
X886590Y274934D03*
X886590Y295254D03*
X886590Y305414D03*
X886590Y315574D03*
X886590Y325734D03*
X886590Y335894D03*
X886590Y346054D03*
X886590Y285094D03*
X885490Y590834D03*
X885490Y611154D03*
X885490Y621314D03*
X885490Y631474D03*
X885490Y641634D03*
X885490Y651794D03*
X885490Y661954D03*
X885490Y600994D03*
X885190Y434634D03*
X885190Y454954D03*
X885190Y465114D03*
X885190Y475274D03*
X885190Y485434D03*
X885190Y495594D03*
X885190Y505754D03*
X885190Y444794D03*
X717400Y646500D03*
X781700Y668400D03*
X392600Y142900D03*
X393900Y165900D03*
X376000Y199700D03*
X380000Y210800D03*
X742200Y282600D03*
X741900Y265200D03*
D33*
X142600Y324700D03*
X722600Y324600D03*
X722600Y94600D03*
X142600Y94600D03*
D31*
X460900Y593800D03*
X724000Y362800D03*
M02*
