G04 EAGLE Gerber RS-274X export*
G75*
%MOMM*%
%FSLAX34Y34*%
%LPD*%
%INCopper Layer 15*%
%IPPOS*%
%AMOC8*
5,1,8,0,0,1.08239X$1,22.5*%
G01*
%ADD10C,0.756400*%
%ADD11C,0.300000*%

G36*
X396931Y321036D02*
X396931Y321036D01*
X397002Y321038D01*
X397051Y321056D01*
X397103Y321064D01*
X397166Y321098D01*
X397233Y321123D01*
X397274Y321155D01*
X397320Y321180D01*
X397369Y321231D01*
X397425Y321276D01*
X397453Y321320D01*
X397489Y321358D01*
X397520Y321423D01*
X397558Y321483D01*
X397571Y321534D01*
X397593Y321581D01*
X397601Y321652D01*
X397618Y321722D01*
X397614Y321774D01*
X397620Y321825D01*
X397605Y321896D01*
X397599Y321967D01*
X397579Y322015D01*
X397568Y322066D01*
X397531Y322127D01*
X397503Y322193D01*
X397458Y322249D01*
X397442Y322277D01*
X397424Y322292D01*
X397398Y322324D01*
X396752Y322970D01*
X394975Y324747D01*
X394975Y336214D01*
X394972Y336234D01*
X394974Y336253D01*
X394952Y336355D01*
X394936Y336457D01*
X394926Y336474D01*
X394922Y336494D01*
X394869Y336583D01*
X394820Y336674D01*
X394806Y336688D01*
X394796Y336705D01*
X394717Y336772D01*
X394642Y336844D01*
X394624Y336852D01*
X394609Y336865D01*
X394513Y336904D01*
X394419Y336947D01*
X394399Y336949D01*
X394381Y336957D01*
X394214Y336975D01*
X390795Y336975D01*
X390705Y336961D01*
X390614Y336953D01*
X390585Y336941D01*
X390553Y336936D01*
X390472Y336893D01*
X390388Y336857D01*
X390356Y336831D01*
X390335Y336820D01*
X390313Y336797D01*
X390257Y336752D01*
X388043Y334538D01*
X388032Y334522D01*
X388016Y334510D01*
X387960Y334422D01*
X387900Y334339D01*
X387894Y334320D01*
X387883Y334303D01*
X387858Y334202D01*
X387827Y334103D01*
X387828Y334084D01*
X387823Y334064D01*
X387831Y333961D01*
X387834Y333858D01*
X387840Y333839D01*
X387842Y333819D01*
X387882Y333724D01*
X387918Y333627D01*
X387931Y333611D01*
X387938Y333593D01*
X388043Y333462D01*
X391307Y330198D01*
X391307Y325802D01*
X388198Y322693D01*
X383802Y322693D01*
X380693Y325802D01*
X380693Y330198D01*
X383957Y333462D01*
X383968Y333478D01*
X383984Y333490D01*
X384040Y333578D01*
X384100Y333661D01*
X384106Y333680D01*
X384117Y333697D01*
X384142Y333798D01*
X384173Y333897D01*
X384172Y333916D01*
X384177Y333936D01*
X384169Y334039D01*
X384166Y334142D01*
X384160Y334161D01*
X384158Y334181D01*
X384118Y334276D01*
X384082Y334373D01*
X384069Y334389D01*
X384062Y334407D01*
X383957Y334538D01*
X380693Y337802D01*
X380693Y342198D01*
X383802Y345307D01*
X388198Y345307D01*
X390257Y343248D01*
X390331Y343195D01*
X390401Y343135D01*
X390431Y343123D01*
X390457Y343104D01*
X390544Y343077D01*
X390629Y343043D01*
X390670Y343039D01*
X390692Y343032D01*
X390724Y343033D01*
X390795Y343025D01*
X397253Y343025D01*
X401025Y339253D01*
X401025Y327786D01*
X401028Y327766D01*
X401026Y327747D01*
X401048Y327645D01*
X401064Y327543D01*
X401074Y327526D01*
X401078Y327506D01*
X401131Y327417D01*
X401180Y327326D01*
X401194Y327312D01*
X401204Y327295D01*
X401283Y327228D01*
X401358Y327156D01*
X401376Y327148D01*
X401391Y327135D01*
X401487Y327096D01*
X401581Y327053D01*
X401601Y327051D01*
X401619Y327043D01*
X401786Y327025D01*
X508214Y327025D01*
X508234Y327028D01*
X508253Y327026D01*
X508355Y327048D01*
X508457Y327064D01*
X508474Y327074D01*
X508494Y327078D01*
X508583Y327131D01*
X508674Y327180D01*
X508688Y327194D01*
X508705Y327204D01*
X508772Y327283D01*
X508844Y327358D01*
X508852Y327376D01*
X508865Y327391D01*
X508904Y327487D01*
X508947Y327581D01*
X508949Y327601D01*
X508957Y327619D01*
X508975Y327786D01*
X508975Y648214D01*
X508972Y648234D01*
X508974Y648253D01*
X508952Y648355D01*
X508936Y648457D01*
X508926Y648474D01*
X508922Y648494D01*
X508869Y648583D01*
X508820Y648674D01*
X508806Y648688D01*
X508796Y648705D01*
X508717Y648772D01*
X508642Y648844D01*
X508624Y648852D01*
X508609Y648865D01*
X508513Y648904D01*
X508419Y648947D01*
X508399Y648949D01*
X508381Y648957D01*
X508214Y648975D01*
X315786Y648975D01*
X315766Y648972D01*
X315747Y648974D01*
X315645Y648952D01*
X315543Y648936D01*
X315526Y648926D01*
X315506Y648922D01*
X315417Y648869D01*
X315326Y648820D01*
X315312Y648806D01*
X315295Y648796D01*
X315228Y648717D01*
X315156Y648642D01*
X315148Y648624D01*
X315135Y648609D01*
X315096Y648513D01*
X315053Y648419D01*
X315051Y648399D01*
X315043Y648381D01*
X315025Y648214D01*
X315025Y327786D01*
X315028Y327766D01*
X315026Y327747D01*
X315048Y327645D01*
X315064Y327543D01*
X315074Y327526D01*
X315078Y327506D01*
X315131Y327417D01*
X315180Y327326D01*
X315194Y327312D01*
X315204Y327295D01*
X315283Y327228D01*
X315358Y327156D01*
X315376Y327148D01*
X315391Y327135D01*
X315487Y327096D01*
X315581Y327053D01*
X315601Y327051D01*
X315619Y327043D01*
X315786Y327025D01*
X337253Y327025D01*
X343030Y321248D01*
X343104Y321195D01*
X343173Y321135D01*
X343203Y321123D01*
X343230Y321104D01*
X343317Y321077D01*
X343401Y321043D01*
X343442Y321039D01*
X343465Y321032D01*
X343497Y321033D01*
X343568Y321025D01*
X396860Y321025D01*
X396931Y321036D01*
G37*
G36*
X88332Y10172D02*
X88332Y10172D01*
X88404Y10174D01*
X88453Y10192D01*
X88504Y10200D01*
X88568Y10234D01*
X88635Y10259D01*
X88676Y10291D01*
X88722Y10316D01*
X88771Y10367D01*
X88827Y10412D01*
X88855Y10456D01*
X88891Y10494D01*
X88921Y10559D01*
X88960Y10619D01*
X88973Y10670D01*
X88995Y10717D01*
X89002Y10788D01*
X89020Y10858D01*
X89016Y10910D01*
X89022Y10961D01*
X89006Y11032D01*
X89001Y11103D01*
X88980Y11151D01*
X88969Y11202D01*
X88933Y11263D01*
X88905Y11329D01*
X88860Y11385D01*
X88843Y11413D01*
X88826Y11428D01*
X88800Y11460D01*
X88313Y11947D01*
X84939Y20092D01*
X84939Y28908D01*
X88313Y37053D01*
X94547Y43287D01*
X102692Y46661D01*
X111508Y46661D01*
X119653Y43287D01*
X125887Y37053D01*
X129261Y28908D01*
X129261Y20092D01*
X125887Y11947D01*
X125400Y11460D01*
X125358Y11402D01*
X125309Y11350D01*
X125287Y11303D01*
X125257Y11261D01*
X125236Y11192D01*
X125205Y11127D01*
X125200Y11075D01*
X125184Y11025D01*
X125186Y10954D01*
X125178Y10883D01*
X125189Y10832D01*
X125191Y10780D01*
X125215Y10712D01*
X125231Y10642D01*
X125257Y10597D01*
X125275Y10549D01*
X125320Y10493D01*
X125357Y10431D01*
X125396Y10397D01*
X125429Y10357D01*
X125489Y10318D01*
X125544Y10271D01*
X125592Y10252D01*
X125636Y10224D01*
X125705Y10206D01*
X125772Y10179D01*
X125843Y10171D01*
X125874Y10163D01*
X125898Y10165D01*
X125939Y10161D01*
X151497Y10161D01*
X151567Y10172D01*
X151639Y10174D01*
X151688Y10192D01*
X151739Y10200D01*
X151803Y10234D01*
X151870Y10259D01*
X151911Y10291D01*
X151957Y10316D01*
X152006Y10368D01*
X152062Y10412D01*
X152090Y10456D01*
X152126Y10494D01*
X152156Y10559D01*
X152195Y10619D01*
X152208Y10670D01*
X152230Y10717D01*
X152238Y10788D01*
X152255Y10858D01*
X152251Y10910D01*
X152257Y10961D01*
X152242Y11032D01*
X152236Y11103D01*
X152216Y11151D01*
X152205Y11202D01*
X152168Y11263D01*
X152140Y11329D01*
X152095Y11385D01*
X152078Y11413D01*
X152061Y11428D01*
X152035Y11460D01*
X149693Y13802D01*
X149693Y18198D01*
X152802Y21307D01*
X157198Y21307D01*
X160307Y18198D01*
X160307Y13802D01*
X157965Y11460D01*
X157923Y11402D01*
X157874Y11350D01*
X157852Y11303D01*
X157822Y11261D01*
X157800Y11192D01*
X157770Y11127D01*
X157765Y11075D01*
X157749Y11025D01*
X157751Y10954D01*
X157743Y10883D01*
X157754Y10832D01*
X157756Y10780D01*
X157780Y10712D01*
X157795Y10642D01*
X157822Y10597D01*
X157840Y10549D01*
X157885Y10493D01*
X157922Y10431D01*
X157961Y10397D01*
X157994Y10357D01*
X158054Y10318D01*
X158109Y10271D01*
X158157Y10252D01*
X158201Y10224D01*
X158270Y10206D01*
X158337Y10179D01*
X158408Y10171D01*
X158439Y10163D01*
X158462Y10165D01*
X158503Y10161D01*
X165497Y10161D01*
X165567Y10172D01*
X165639Y10174D01*
X165688Y10192D01*
X165739Y10200D01*
X165803Y10234D01*
X165870Y10259D01*
X165911Y10291D01*
X165957Y10316D01*
X166006Y10368D01*
X166062Y10412D01*
X166090Y10456D01*
X166126Y10494D01*
X166156Y10559D01*
X166195Y10619D01*
X166208Y10670D01*
X166230Y10717D01*
X166238Y10788D01*
X166255Y10858D01*
X166251Y10910D01*
X166257Y10961D01*
X166242Y11032D01*
X166236Y11103D01*
X166216Y11151D01*
X166205Y11202D01*
X166168Y11263D01*
X166140Y11329D01*
X166095Y11385D01*
X166078Y11413D01*
X166061Y11428D01*
X166035Y11460D01*
X163693Y13802D01*
X163693Y18198D01*
X166802Y21307D01*
X171198Y21307D01*
X174307Y18198D01*
X174307Y13802D01*
X171965Y11460D01*
X171923Y11402D01*
X171874Y11350D01*
X171852Y11303D01*
X171822Y11261D01*
X171800Y11192D01*
X171770Y11127D01*
X171765Y11075D01*
X171749Y11025D01*
X171751Y10954D01*
X171743Y10883D01*
X171754Y10832D01*
X171756Y10780D01*
X171780Y10712D01*
X171795Y10642D01*
X171822Y10597D01*
X171840Y10549D01*
X171885Y10493D01*
X171922Y10431D01*
X171961Y10397D01*
X171994Y10357D01*
X172054Y10318D01*
X172109Y10271D01*
X172157Y10252D01*
X172201Y10224D01*
X172270Y10206D01*
X172337Y10179D01*
X172408Y10171D01*
X172439Y10163D01*
X172462Y10165D01*
X172503Y10161D01*
X188497Y10161D01*
X188567Y10172D01*
X188639Y10174D01*
X188688Y10192D01*
X188739Y10200D01*
X188803Y10234D01*
X188870Y10259D01*
X188911Y10291D01*
X188957Y10316D01*
X189006Y10368D01*
X189062Y10412D01*
X189090Y10456D01*
X189126Y10494D01*
X189156Y10559D01*
X189195Y10619D01*
X189208Y10670D01*
X189230Y10717D01*
X189238Y10788D01*
X189255Y10858D01*
X189251Y10910D01*
X189257Y10961D01*
X189242Y11032D01*
X189236Y11103D01*
X189216Y11151D01*
X189205Y11202D01*
X189168Y11263D01*
X189140Y11329D01*
X189095Y11385D01*
X189078Y11413D01*
X189061Y11428D01*
X189035Y11460D01*
X186693Y13802D01*
X186693Y18198D01*
X188752Y20257D01*
X188805Y20331D01*
X188865Y20401D01*
X188877Y20431D01*
X188896Y20457D01*
X188923Y20544D01*
X188957Y20629D01*
X188961Y20670D01*
X188968Y20692D01*
X188967Y20724D01*
X188975Y20795D01*
X188975Y24432D01*
X188961Y24522D01*
X188953Y24613D01*
X188941Y24643D01*
X188936Y24675D01*
X188893Y24755D01*
X188857Y24839D01*
X188831Y24871D01*
X188820Y24892D01*
X188797Y24914D01*
X188752Y24970D01*
X186970Y26752D01*
X186896Y26805D01*
X186827Y26865D01*
X186797Y26877D01*
X186770Y26896D01*
X186683Y26923D01*
X186599Y26957D01*
X186558Y26961D01*
X186535Y26968D01*
X186503Y26967D01*
X186432Y26975D01*
X142747Y26975D01*
X116970Y52752D01*
X116896Y52805D01*
X116827Y52865D01*
X116797Y52877D01*
X116770Y52896D01*
X116683Y52923D01*
X116599Y52957D01*
X116558Y52961D01*
X116535Y52968D01*
X116503Y52967D01*
X116432Y52975D01*
X18747Y52975D01*
X16970Y54752D01*
X14975Y56747D01*
X14975Y909253D01*
X18747Y913025D01*
X124432Y913025D01*
X124522Y913039D01*
X124613Y913047D01*
X124643Y913059D01*
X124675Y913064D01*
X124755Y913107D01*
X124839Y913143D01*
X124871Y913169D01*
X124892Y913180D01*
X124914Y913203D01*
X124970Y913248D01*
X160747Y949025D01*
X663253Y949025D01*
X699030Y913248D01*
X699104Y913195D01*
X699173Y913135D01*
X699203Y913123D01*
X699230Y913104D01*
X699317Y913077D01*
X699401Y913043D01*
X699442Y913039D01*
X699465Y913032D01*
X699497Y913033D01*
X699568Y913025D01*
X805253Y913025D01*
X809025Y909253D01*
X809025Y54747D01*
X805253Y50975D01*
X699568Y50975D01*
X699478Y50961D01*
X699387Y50953D01*
X699357Y50941D01*
X699325Y50936D01*
X699245Y50893D01*
X699161Y50857D01*
X699129Y50831D01*
X699108Y50820D01*
X699086Y50797D01*
X699030Y50752D01*
X675253Y26975D01*
X244747Y26975D01*
X238970Y32752D01*
X238896Y32805D01*
X238827Y32865D01*
X238797Y32877D01*
X238770Y32896D01*
X238683Y32923D01*
X238599Y32957D01*
X238558Y32961D01*
X238535Y32968D01*
X238503Y32967D01*
X238432Y32975D01*
X191140Y32975D01*
X191069Y32964D01*
X190998Y32962D01*
X190949Y32944D01*
X190897Y32936D01*
X190834Y32902D01*
X190767Y32877D01*
X190726Y32845D01*
X190680Y32820D01*
X190631Y32768D01*
X190575Y32724D01*
X190546Y32680D01*
X190511Y32642D01*
X190480Y32577D01*
X190442Y32517D01*
X190429Y32466D01*
X190407Y32419D01*
X190399Y32348D01*
X190382Y32278D01*
X190386Y32226D01*
X190380Y32175D01*
X190395Y32104D01*
X190401Y32033D01*
X190421Y31985D01*
X190432Y31934D01*
X190469Y31873D01*
X190497Y31807D01*
X190542Y31751D01*
X190558Y31723D01*
X190576Y31708D01*
X190602Y31676D01*
X195025Y27253D01*
X195025Y20795D01*
X195026Y20785D01*
X195026Y20779D01*
X195033Y20747D01*
X195039Y20705D01*
X195047Y20614D01*
X195059Y20585D01*
X195064Y20553D01*
X195107Y20472D01*
X195143Y20388D01*
X195169Y20356D01*
X195180Y20335D01*
X195203Y20313D01*
X195248Y20257D01*
X197307Y18198D01*
X197307Y13802D01*
X194965Y11460D01*
X194923Y11402D01*
X194874Y11350D01*
X194852Y11303D01*
X194822Y11261D01*
X194800Y11192D01*
X194770Y11127D01*
X194765Y11075D01*
X194749Y11025D01*
X194751Y10954D01*
X194743Y10883D01*
X194754Y10832D01*
X194756Y10780D01*
X194780Y10712D01*
X194795Y10642D01*
X194822Y10597D01*
X194840Y10549D01*
X194885Y10493D01*
X194922Y10431D01*
X194961Y10397D01*
X194994Y10357D01*
X195054Y10318D01*
X195109Y10271D01*
X195157Y10252D01*
X195201Y10224D01*
X195270Y10206D01*
X195337Y10179D01*
X195408Y10171D01*
X195439Y10163D01*
X195462Y10165D01*
X195503Y10161D01*
X698261Y10161D01*
X698332Y10172D01*
X698404Y10174D01*
X698453Y10192D01*
X698504Y10200D01*
X698568Y10234D01*
X698635Y10259D01*
X698676Y10291D01*
X698722Y10316D01*
X698771Y10367D01*
X698827Y10412D01*
X698855Y10456D01*
X698891Y10494D01*
X698921Y10559D01*
X698960Y10619D01*
X698973Y10670D01*
X698995Y10717D01*
X699002Y10788D01*
X699020Y10858D01*
X699016Y10910D01*
X699022Y10961D01*
X699006Y11032D01*
X699001Y11103D01*
X698980Y11151D01*
X698969Y11202D01*
X698933Y11263D01*
X698905Y11329D01*
X698860Y11385D01*
X698843Y11413D01*
X698826Y11428D01*
X698800Y11460D01*
X698313Y11947D01*
X694939Y20092D01*
X694939Y28908D01*
X698313Y37053D01*
X704547Y43287D01*
X712692Y46661D01*
X721508Y46661D01*
X729653Y43287D01*
X735887Y37053D01*
X739261Y28908D01*
X739261Y20092D01*
X735887Y11947D01*
X735400Y11460D01*
X735358Y11402D01*
X735309Y11350D01*
X735287Y11303D01*
X735257Y11261D01*
X735236Y11192D01*
X735205Y11127D01*
X735200Y11075D01*
X735184Y11025D01*
X735186Y10954D01*
X735178Y10883D01*
X735189Y10832D01*
X735191Y10780D01*
X735215Y10712D01*
X735231Y10642D01*
X735257Y10597D01*
X735275Y10549D01*
X735320Y10493D01*
X735357Y10431D01*
X735396Y10397D01*
X735429Y10357D01*
X735489Y10318D01*
X735544Y10271D01*
X735592Y10252D01*
X735636Y10224D01*
X735705Y10206D01*
X735772Y10179D01*
X735843Y10171D01*
X735874Y10163D01*
X735898Y10165D01*
X735939Y10161D01*
X813278Y10161D01*
X813298Y10164D01*
X813317Y10162D01*
X813419Y10184D01*
X813521Y10200D01*
X813538Y10210D01*
X813558Y10214D01*
X813647Y10267D01*
X813738Y10316D01*
X813752Y10330D01*
X813769Y10340D01*
X813836Y10419D01*
X813908Y10494D01*
X813916Y10512D01*
X813929Y10527D01*
X813968Y10623D01*
X814011Y10717D01*
X814013Y10737D01*
X814021Y10755D01*
X814039Y10922D01*
X814039Y956078D01*
X814036Y956098D01*
X814038Y956117D01*
X814016Y956219D01*
X814000Y956321D01*
X813990Y956338D01*
X813986Y956358D01*
X813933Y956447D01*
X813884Y956538D01*
X813870Y956552D01*
X813860Y956569D01*
X813781Y956636D01*
X813706Y956708D01*
X813688Y956716D01*
X813673Y956729D01*
X813577Y956768D01*
X813483Y956811D01*
X813463Y956813D01*
X813445Y956821D01*
X813278Y956839D01*
X733939Y956839D01*
X733868Y956828D01*
X733796Y956826D01*
X733747Y956808D01*
X733696Y956800D01*
X733632Y956766D01*
X733565Y956741D01*
X733524Y956709D01*
X733478Y956684D01*
X733429Y956632D01*
X733373Y956588D01*
X733345Y956544D01*
X733309Y956506D01*
X733279Y956441D01*
X733240Y956381D01*
X733227Y956330D01*
X733205Y956283D01*
X733198Y956212D01*
X733180Y956142D01*
X733184Y956090D01*
X733178Y956039D01*
X733194Y955968D01*
X733199Y955897D01*
X733219Y955849D01*
X733231Y955798D01*
X733267Y955737D01*
X733295Y955671D01*
X733340Y955615D01*
X733357Y955587D01*
X733375Y955572D01*
X733400Y955540D01*
X735887Y953053D01*
X739261Y944908D01*
X739261Y936092D01*
X735887Y927947D01*
X729653Y921713D01*
X721508Y918339D01*
X712692Y918339D01*
X704547Y921713D01*
X698313Y927947D01*
X694939Y936092D01*
X694939Y944908D01*
X698313Y953053D01*
X700800Y955540D01*
X700842Y955598D01*
X700891Y955650D01*
X700913Y955697D01*
X700943Y955739D01*
X700964Y955808D01*
X700995Y955873D01*
X701000Y955925D01*
X701016Y955975D01*
X701014Y956046D01*
X701022Y956117D01*
X701011Y956168D01*
X701009Y956220D01*
X700985Y956288D01*
X700969Y956358D01*
X700943Y956403D01*
X700925Y956451D01*
X700880Y956507D01*
X700843Y956569D01*
X700804Y956603D01*
X700771Y956643D01*
X700711Y956682D01*
X700656Y956729D01*
X700608Y956748D01*
X700564Y956776D01*
X700495Y956794D01*
X700428Y956821D01*
X700357Y956829D01*
X700326Y956837D01*
X700302Y956835D01*
X700261Y956839D01*
X123939Y956839D01*
X123868Y956828D01*
X123796Y956826D01*
X123747Y956808D01*
X123696Y956800D01*
X123632Y956766D01*
X123565Y956741D01*
X123524Y956709D01*
X123478Y956684D01*
X123429Y956632D01*
X123373Y956588D01*
X123345Y956544D01*
X123309Y956506D01*
X123279Y956441D01*
X123240Y956381D01*
X123227Y956330D01*
X123205Y956283D01*
X123198Y956212D01*
X123180Y956142D01*
X123184Y956090D01*
X123178Y956039D01*
X123194Y955968D01*
X123199Y955897D01*
X123219Y955849D01*
X123231Y955798D01*
X123267Y955737D01*
X123295Y955671D01*
X123340Y955615D01*
X123357Y955587D01*
X123375Y955572D01*
X123400Y955540D01*
X125887Y953053D01*
X129261Y944908D01*
X129261Y936092D01*
X125887Y927947D01*
X119653Y921713D01*
X111508Y918339D01*
X102692Y918339D01*
X94547Y921713D01*
X88313Y927947D01*
X84939Y936092D01*
X84939Y944908D01*
X88313Y953053D01*
X90800Y955540D01*
X90842Y955598D01*
X90891Y955650D01*
X90913Y955697D01*
X90943Y955739D01*
X90964Y955808D01*
X90995Y955873D01*
X91000Y955925D01*
X91016Y955975D01*
X91014Y956046D01*
X91022Y956117D01*
X91011Y956168D01*
X91009Y956220D01*
X90985Y956288D01*
X90969Y956358D01*
X90943Y956403D01*
X90925Y956451D01*
X90880Y956507D01*
X90843Y956569D01*
X90804Y956603D01*
X90771Y956643D01*
X90711Y956682D01*
X90656Y956729D01*
X90608Y956748D01*
X90564Y956776D01*
X90495Y956794D01*
X90428Y956821D01*
X90357Y956829D01*
X90326Y956837D01*
X90302Y956835D01*
X90261Y956839D01*
X10922Y956839D01*
X10902Y956836D01*
X10883Y956838D01*
X10781Y956816D01*
X10679Y956800D01*
X10662Y956790D01*
X10642Y956786D01*
X10553Y956733D01*
X10462Y956684D01*
X10448Y956670D01*
X10431Y956660D01*
X10364Y956581D01*
X10292Y956506D01*
X10284Y956488D01*
X10271Y956473D01*
X10232Y956377D01*
X10189Y956283D01*
X10187Y956263D01*
X10179Y956245D01*
X10161Y956078D01*
X10161Y10922D01*
X10164Y10902D01*
X10162Y10883D01*
X10184Y10781D01*
X10200Y10679D01*
X10210Y10662D01*
X10214Y10642D01*
X10267Y10553D01*
X10316Y10462D01*
X10330Y10448D01*
X10340Y10431D01*
X10419Y10364D01*
X10494Y10292D01*
X10512Y10284D01*
X10527Y10271D01*
X10623Y10232D01*
X10717Y10189D01*
X10737Y10187D01*
X10755Y10179D01*
X10922Y10161D01*
X88261Y10161D01*
X88332Y10172D01*
G37*
%LPC*%
G36*
X761802Y922693D02*
X761802Y922693D01*
X758693Y925802D01*
X758693Y930198D01*
X761802Y933307D01*
X766198Y933307D01*
X769307Y930198D01*
X769307Y925802D01*
X766198Y922693D01*
X761802Y922693D01*
G37*
%LPD*%
%LPC*%
G36*
X64802Y922693D02*
X64802Y922693D01*
X61693Y925802D01*
X61693Y930198D01*
X64802Y933307D01*
X69198Y933307D01*
X72307Y930198D01*
X72307Y925802D01*
X69198Y922693D01*
X64802Y922693D01*
G37*
%LPD*%
%LPC*%
G36*
X381802Y496693D02*
X381802Y496693D01*
X378693Y499802D01*
X378693Y504198D01*
X381802Y507307D01*
X386198Y507307D01*
X389307Y504198D01*
X389307Y499802D01*
X386198Y496693D01*
X381802Y496693D01*
G37*
%LPD*%
%LPC*%
G36*
X381802Y376693D02*
X381802Y376693D01*
X378693Y379802D01*
X378693Y384198D01*
X381802Y387307D01*
X386198Y387307D01*
X389307Y384198D01*
X389307Y379802D01*
X386198Y376693D01*
X381802Y376693D01*
G37*
%LPD*%
%LPC*%
G36*
X58802Y21693D02*
X58802Y21693D01*
X55693Y24802D01*
X55693Y29198D01*
X58802Y32307D01*
X63198Y32307D01*
X66307Y29198D01*
X66307Y24802D01*
X63198Y21693D01*
X58802Y21693D01*
G37*
%LPD*%
%LPC*%
G36*
X17802Y20693D02*
X17802Y20693D01*
X14693Y23802D01*
X14693Y28198D01*
X17802Y31307D01*
X22198Y31307D01*
X25307Y28198D01*
X25307Y23802D01*
X22198Y20693D01*
X17802Y20693D01*
G37*
%LPD*%
D10*
X155000Y16000D03*
X169000Y16000D03*
X386000Y328000D03*
X386000Y340000D03*
D11*
X396000Y340000D01*
X398000Y338000D01*
X398000Y326000D01*
X400000Y324000D01*
X510000Y324000D01*
X512000Y326000D01*
X512000Y650000D01*
X510000Y652000D01*
X314000Y652000D01*
X312000Y650000D01*
X312000Y326000D01*
X314000Y324000D01*
X336000Y324000D01*
X342000Y318000D01*
X516000Y318000D01*
X518000Y320000D01*
X518000Y656000D01*
X516000Y658000D01*
X308000Y658000D01*
X306000Y656000D01*
X306000Y320000D01*
X308000Y318000D01*
X334000Y318000D01*
X340000Y312000D01*
X522000Y312000D01*
X524000Y314000D01*
X524000Y662000D01*
X522000Y664000D01*
X302000Y664000D01*
X300000Y662000D01*
X300000Y314000D01*
X302000Y312000D01*
X332000Y312000D01*
X338000Y306000D01*
X528000Y306000D01*
X530000Y308000D01*
X530000Y668000D01*
X528000Y670000D01*
X296000Y670000D01*
X294000Y668000D01*
X294000Y308000D01*
X296000Y306000D01*
X330000Y306000D01*
X336000Y300000D01*
X534000Y300000D01*
X536000Y302000D01*
X536000Y674000D01*
X534000Y676000D01*
X290000Y676000D01*
X288000Y674000D01*
X288000Y302000D01*
X290000Y300000D01*
X328000Y300000D01*
X334000Y294000D01*
X540000Y294000D01*
X542000Y296000D01*
X542000Y680000D01*
X540000Y682000D01*
X284000Y682000D01*
X282000Y680000D01*
X282000Y296000D01*
X284000Y294000D01*
X326000Y294000D01*
X332000Y288000D01*
X546000Y288000D01*
X548000Y290000D01*
X548000Y686000D01*
X546000Y688000D01*
X278000Y688000D01*
X276000Y686000D01*
X276000Y290000D01*
X278000Y288000D01*
X324000Y288000D01*
X330000Y282000D01*
X552000Y282000D01*
X554000Y284000D01*
X554000Y692000D01*
X552000Y694000D01*
X272000Y694000D01*
X270000Y692000D01*
X270000Y284000D01*
X272000Y282000D01*
X322000Y282000D01*
X328000Y276000D01*
X558000Y276000D01*
X560000Y278000D01*
X560000Y698000D01*
X558000Y700000D01*
X266000Y700000D01*
X264000Y698000D01*
X264000Y278000D01*
X266000Y276000D01*
X320000Y276000D01*
X326000Y270000D01*
X564000Y270000D01*
X566000Y272000D01*
X566000Y704000D01*
X564000Y706000D01*
X260000Y706000D01*
X258000Y704000D01*
X258000Y272000D01*
X260000Y270000D01*
X318000Y270000D01*
X324000Y264000D01*
X570000Y264000D01*
X572000Y266000D01*
X572000Y710000D01*
X570000Y712000D01*
X254000Y712000D01*
X252000Y710000D01*
X252000Y266000D01*
X254000Y264000D01*
X316000Y264000D01*
X322000Y258000D01*
X576000Y258000D01*
X578000Y260000D01*
X578000Y716000D01*
X576000Y718000D01*
X248000Y718000D01*
X246000Y716000D01*
X246000Y260000D01*
X248000Y258000D01*
X314000Y258000D01*
X320000Y252000D01*
X582000Y252000D01*
X584000Y254000D01*
X584000Y722000D01*
X582000Y724000D01*
X242000Y724000D01*
X240000Y722000D01*
X240000Y254000D01*
X242000Y252000D01*
X312000Y252000D01*
X318000Y246000D01*
X588000Y246000D01*
X590000Y248000D01*
X590000Y728000D01*
X588000Y730000D01*
X236000Y730000D01*
X234000Y728000D01*
X234000Y248000D01*
X236000Y246000D01*
X310000Y246000D01*
X316000Y240000D01*
X594000Y240000D01*
X596000Y242000D01*
X596000Y732000D01*
X592000Y736000D01*
X232000Y736000D01*
X228000Y732000D01*
X228000Y242000D01*
X230000Y240000D01*
X308000Y240000D01*
X314000Y234000D01*
X600000Y234000D01*
X602000Y236000D01*
X602000Y734000D01*
X594000Y742000D01*
X230000Y742000D01*
X222000Y734000D01*
X222000Y236000D01*
X224000Y234000D01*
X306000Y234000D01*
X312000Y228000D01*
X606000Y228000D01*
X608000Y230000D01*
X608000Y736000D01*
X596000Y748000D01*
X228000Y748000D01*
X216000Y736000D01*
X216000Y230000D01*
X218000Y228000D01*
X304000Y228000D01*
X310000Y222000D01*
X610000Y222000D01*
X614000Y226000D01*
X614000Y738000D01*
X598000Y754000D01*
X226000Y754000D01*
X210000Y738000D01*
X210000Y224000D01*
X212000Y222000D01*
X302000Y222000D01*
X308000Y216000D01*
X612000Y216000D01*
X620000Y224000D01*
X620000Y740000D01*
X600000Y760000D01*
X224000Y760000D01*
X204000Y740000D01*
X204000Y218000D01*
X206000Y216000D01*
X300000Y216000D01*
X306000Y210000D01*
X614000Y210000D01*
X626000Y222000D01*
X626000Y742000D01*
X602000Y766000D01*
X222000Y766000D01*
X198000Y742000D01*
X198000Y216000D01*
X204000Y210000D01*
X298000Y210000D01*
X304000Y204000D01*
X616000Y204000D01*
X632000Y220000D01*
X632000Y744000D01*
X604000Y772000D01*
X220000Y772000D01*
X192000Y744000D01*
X192000Y214000D01*
X202000Y204000D01*
X296000Y204000D01*
X302000Y198000D01*
X618000Y198000D01*
X638000Y218000D01*
X638000Y746000D01*
X606000Y778000D01*
X218000Y778000D01*
X186000Y746000D01*
X186000Y212000D01*
X200000Y198000D01*
X294000Y198000D01*
X300000Y192000D01*
X620000Y192000D01*
X644000Y216000D01*
X644000Y748000D01*
X608000Y784000D01*
X216000Y784000D01*
X180000Y748000D01*
X180000Y210000D01*
X198000Y192000D01*
X292000Y192000D01*
X298000Y186000D01*
X622000Y186000D01*
X650000Y214000D01*
X650000Y754000D01*
X646000Y754000D01*
X610000Y790000D01*
X214000Y790000D01*
X174000Y750000D01*
X174000Y208000D01*
X196000Y186000D01*
X290000Y186000D01*
X296000Y180000D01*
X624000Y180000D01*
X648000Y204000D01*
X654000Y204000D01*
X656000Y206000D01*
X656000Y758000D01*
X654000Y760000D01*
X648000Y760000D01*
X612000Y796000D01*
X212000Y796000D01*
X176000Y760000D01*
X170000Y760000D01*
X168000Y758000D01*
X168000Y206000D01*
X194000Y180000D01*
X288000Y180000D01*
X294000Y174000D01*
X626000Y174000D01*
X650000Y198000D01*
X660000Y198000D01*
X662000Y200000D01*
X662000Y764000D01*
X660000Y766000D01*
X650000Y766000D01*
X614000Y802000D01*
X210000Y802000D01*
X174000Y766000D01*
X164000Y766000D01*
X162000Y764000D01*
X162000Y202000D01*
X164000Y200000D01*
X166000Y200000D01*
X192000Y174000D01*
X286000Y174000D01*
X292000Y168000D01*
X628000Y168000D01*
X652000Y192000D01*
X666000Y192000D01*
X668000Y194000D01*
X668000Y770000D01*
X666000Y772000D01*
X652000Y772000D01*
X616000Y808000D01*
X208000Y808000D01*
X172000Y772000D01*
X158000Y772000D01*
X156000Y770000D01*
X156000Y196000D01*
X158000Y194000D01*
X164000Y194000D01*
X190000Y168000D01*
X284000Y168000D01*
X290000Y162000D01*
X630000Y162000D01*
X654000Y186000D01*
X672000Y186000D01*
X674000Y188000D01*
X674000Y776000D01*
X672000Y778000D01*
X654000Y778000D01*
X618000Y814000D01*
X206000Y814000D01*
X170000Y778000D01*
X152000Y778000D01*
X150000Y776000D01*
X150000Y190000D01*
X152000Y188000D01*
X162000Y188000D01*
X188000Y162000D01*
X282000Y162000D01*
X288000Y156000D01*
X632000Y156000D01*
X656000Y180000D01*
X678000Y180000D01*
X680000Y182000D01*
X680000Y782000D01*
X678000Y784000D01*
X656000Y784000D01*
X620000Y820000D01*
X204000Y820000D01*
X168000Y784000D01*
X146000Y784000D01*
X144000Y782000D01*
X144000Y184000D01*
X146000Y182000D01*
X160000Y182000D01*
X186000Y156000D01*
X280000Y156000D01*
X286000Y150000D01*
X634000Y150000D01*
X658000Y174000D01*
X684000Y174000D01*
X686000Y176000D01*
X686000Y788000D01*
X684000Y790000D01*
X658000Y790000D01*
X622000Y826000D01*
X202000Y826000D01*
X166000Y790000D01*
X140000Y790000D01*
X138000Y788000D01*
X138000Y178000D01*
X140000Y176000D01*
X158000Y176000D01*
X184000Y150000D01*
X278000Y150000D01*
X284000Y144000D01*
X636000Y144000D01*
X660000Y168000D01*
X690000Y168000D01*
X692000Y170000D01*
X692000Y794000D01*
X690000Y796000D01*
X660000Y796000D01*
X624000Y832000D01*
X200000Y832000D01*
X164000Y796000D01*
X134000Y796000D01*
X132000Y794000D01*
X132000Y172000D01*
X134000Y170000D01*
X156000Y170000D01*
X182000Y144000D01*
X276000Y144000D01*
X282000Y138000D01*
X638000Y138000D01*
X662000Y162000D01*
X696000Y162000D01*
X698000Y164000D01*
X698000Y800000D01*
X696000Y802000D01*
X662000Y802000D01*
X626000Y838000D01*
X198000Y838000D01*
X162000Y802000D01*
X128000Y802000D01*
X126000Y800000D01*
X126000Y166000D01*
X128000Y164000D01*
X154000Y164000D01*
X180000Y138000D01*
X274000Y138000D01*
X280000Y132000D01*
X640000Y132000D01*
X664000Y156000D01*
X702000Y156000D01*
X704000Y158000D01*
X704000Y806000D01*
X702000Y808000D01*
X664000Y808000D01*
X628000Y844000D01*
X196000Y844000D01*
X160000Y808000D01*
X122000Y808000D01*
X120000Y806000D01*
X120000Y160000D01*
X122000Y158000D01*
X152000Y158000D01*
X178000Y132000D01*
X272000Y132000D01*
X278000Y126000D01*
X642000Y126000D01*
X666000Y150000D01*
X708000Y150000D01*
X710000Y152000D01*
X710000Y812000D01*
X708000Y814000D01*
X666000Y814000D01*
X630000Y850000D01*
X194000Y850000D01*
X158000Y814000D01*
X116000Y814000D01*
X114000Y812000D01*
X114000Y154000D01*
X116000Y152000D01*
X150000Y152000D01*
X176000Y126000D01*
X270000Y126000D01*
X276000Y120000D01*
X644000Y120000D01*
X668000Y144000D01*
X714000Y144000D01*
X716000Y146000D01*
X716000Y818000D01*
X714000Y820000D01*
X668000Y820000D01*
X632000Y856000D01*
X192000Y856000D01*
X156000Y820000D01*
X110000Y820000D01*
X108000Y818000D01*
X108000Y148000D01*
X110000Y146000D01*
X148000Y146000D01*
X174000Y120000D01*
X268000Y120000D01*
X274000Y114000D01*
X646000Y114000D01*
X670000Y138000D01*
X720000Y138000D01*
X722000Y140000D01*
X722000Y824000D01*
X720000Y826000D01*
X670000Y826000D01*
X634000Y862000D01*
X190000Y862000D01*
X154000Y826000D01*
X104000Y826000D01*
X102000Y824000D01*
X102000Y142000D01*
X104000Y140000D01*
X146000Y140000D01*
X172000Y114000D01*
X266000Y114000D01*
X272000Y108000D01*
X648000Y108000D01*
X672000Y132000D01*
X726000Y132000D01*
X728000Y134000D01*
X728000Y830000D01*
X726000Y832000D01*
X672000Y832000D01*
X636000Y868000D01*
X188000Y868000D01*
X152000Y832000D01*
X98000Y832000D01*
X96000Y830000D01*
X96000Y136000D01*
X98000Y134000D01*
X144000Y134000D01*
X170000Y108000D01*
X264000Y108000D01*
X270000Y102000D01*
X650000Y102000D01*
X674000Y126000D01*
X732000Y126000D01*
X734000Y128000D01*
X734000Y836000D01*
X732000Y838000D01*
X674000Y838000D01*
X638000Y874000D01*
X186000Y874000D01*
X150000Y838000D01*
X92000Y838000D01*
X90000Y836000D01*
X90000Y130000D01*
X92000Y128000D01*
X142000Y128000D01*
X168000Y102000D01*
X262000Y102000D01*
X268000Y96000D01*
X652000Y96000D01*
X676000Y120000D01*
X738000Y120000D01*
X740000Y122000D01*
X740000Y842000D01*
X738000Y844000D01*
X676000Y844000D01*
X640000Y880000D01*
X184000Y880000D01*
X148000Y844000D01*
X86000Y844000D01*
X84000Y842000D01*
X84000Y124000D01*
X86000Y122000D01*
X140000Y122000D01*
X166000Y96000D01*
X260000Y96000D01*
X266000Y90000D01*
X654000Y90000D01*
X678000Y114000D01*
X744000Y114000D01*
X746000Y116000D01*
X746000Y848000D01*
X744000Y850000D01*
X678000Y850000D01*
X642000Y886000D01*
X182000Y886000D01*
X146000Y850000D01*
X80000Y850000D01*
X78000Y848000D01*
X78000Y118000D01*
X80000Y116000D01*
X138000Y116000D01*
X164000Y90000D01*
X258000Y90000D01*
X264000Y84000D01*
X656000Y84000D01*
X680000Y108000D01*
X750000Y108000D01*
X752000Y110000D01*
X752000Y854000D01*
X750000Y856000D01*
X680000Y856000D01*
X644000Y892000D01*
X180000Y892000D01*
X144000Y856000D01*
X74000Y856000D01*
X72000Y854000D01*
X72000Y112000D01*
X74000Y110000D01*
X136000Y110000D01*
X162000Y84000D01*
X256000Y84000D01*
X262000Y78000D01*
X658000Y78000D01*
X682000Y102000D01*
X756000Y102000D01*
X758000Y104000D01*
X758000Y860000D01*
X756000Y862000D01*
X682000Y862000D01*
X646000Y898000D01*
X178000Y898000D01*
X142000Y862000D01*
X68000Y862000D01*
X66000Y860000D01*
X66000Y106000D01*
X68000Y104000D01*
X134000Y104000D01*
X160000Y78000D01*
X254000Y78000D01*
X260000Y72000D01*
X660000Y72000D01*
X684000Y96000D01*
X762000Y96000D01*
X764000Y98000D01*
X764000Y866000D01*
X762000Y868000D01*
X684000Y868000D01*
X648000Y904000D01*
X176000Y904000D01*
X140000Y868000D01*
X62000Y868000D01*
X60000Y866000D01*
X60000Y100000D01*
X62000Y98000D01*
X132000Y98000D01*
X158000Y72000D01*
X252000Y72000D01*
X258000Y66000D01*
X662000Y66000D01*
X686000Y90000D01*
X768000Y90000D01*
X770000Y92000D01*
X770000Y872000D01*
X768000Y874000D01*
X686000Y874000D01*
X650000Y910000D01*
X174000Y910000D01*
X138000Y874000D01*
X56000Y874000D01*
X54000Y872000D01*
X54000Y94000D01*
X56000Y92000D01*
X130000Y92000D01*
X156000Y66000D01*
X250000Y66000D01*
X256000Y60000D01*
X664000Y60000D01*
X688000Y84000D01*
X774000Y84000D01*
X776000Y86000D01*
X776000Y878000D01*
X774000Y880000D01*
X688000Y880000D01*
X652000Y916000D01*
X172000Y916000D01*
X136000Y880000D01*
X50000Y880000D01*
X48000Y878000D01*
X48000Y88000D01*
X50000Y86000D01*
X128000Y86000D01*
X154000Y60000D01*
X248000Y60000D01*
X254000Y54000D01*
X666000Y54000D01*
X690000Y78000D01*
X780000Y78000D01*
X782000Y80000D01*
X782000Y884000D01*
X780000Y886000D01*
X690000Y886000D01*
X654000Y922000D01*
X170000Y922000D01*
X134000Y886000D01*
X44000Y886000D01*
X42000Y884000D01*
X42000Y82000D01*
X44000Y80000D01*
X126000Y80000D01*
X152000Y54000D01*
X246000Y54000D01*
X252000Y48000D01*
X668000Y48000D01*
X692000Y72000D01*
X786000Y72000D01*
X788000Y74000D01*
X788000Y890000D01*
X786000Y892000D01*
X692000Y892000D01*
X656000Y928000D01*
X168000Y928000D01*
X132000Y892000D01*
X38000Y892000D01*
X36000Y890000D01*
X36000Y76000D01*
X38000Y74000D01*
X124000Y74000D01*
X150000Y48000D01*
X244000Y48000D01*
X250000Y42000D01*
X670000Y42000D01*
X694000Y66000D01*
X792000Y66000D01*
X794000Y68000D01*
X794000Y896000D01*
X792000Y898000D01*
D10*
X192000Y16000D03*
D11*
X694000Y898000D02*
X792000Y898000D01*
X694000Y898000D02*
X658000Y934000D01*
X192000Y26000D02*
X192000Y16000D01*
X192000Y26000D02*
X188000Y30000D01*
X166000Y934000D02*
X658000Y934000D01*
X166000Y934000D02*
X130000Y898000D01*
X144000Y30000D02*
X188000Y30000D01*
X144000Y30000D02*
X118000Y56000D01*
X130000Y898000D02*
X32000Y898000D01*
X30000Y896000D01*
X20000Y56000D02*
X118000Y56000D01*
X20000Y56000D02*
X18000Y58000D01*
X30000Y70000D02*
X30000Y896000D01*
X30000Y70000D02*
X32000Y68000D01*
X18000Y58000D02*
X18000Y908000D01*
X20000Y910000D01*
X32000Y68000D02*
X122000Y68000D01*
X148000Y42000D01*
X126000Y910000D02*
X20000Y910000D01*
X126000Y910000D02*
X162000Y946000D01*
X148000Y42000D02*
X242000Y42000D01*
X248000Y36000D01*
X162000Y946000D02*
X662000Y946000D01*
X698000Y910000D01*
X672000Y36000D02*
X248000Y36000D01*
X672000Y36000D02*
X696000Y60000D01*
X698000Y910000D02*
X804000Y910000D01*
X806000Y908000D01*
X798000Y60000D02*
X696000Y60000D01*
X798000Y60000D02*
X800000Y62000D01*
X806000Y56000D02*
X806000Y908000D01*
X806000Y56000D02*
X804000Y54000D01*
X800000Y62000D02*
X800000Y902000D01*
X798000Y904000D01*
X804000Y54000D02*
X698000Y54000D01*
X674000Y30000D01*
X696000Y904000D02*
X798000Y904000D01*
X696000Y904000D02*
X660000Y940000D01*
X674000Y30000D02*
X246000Y30000D01*
X240000Y36000D01*
X164000Y940000D02*
X660000Y940000D01*
X164000Y940000D02*
X128000Y904000D01*
X146000Y36000D02*
X240000Y36000D01*
X146000Y36000D02*
X120000Y62000D01*
X128000Y904000D02*
X26000Y904000D01*
X24000Y902000D01*
X26000Y62000D02*
X120000Y62000D01*
X26000Y62000D02*
X24000Y64000D01*
X24000Y902000D01*
D10*
X225000Y18000D03*
X181000Y21000D03*
X348000Y599000D03*
X781000Y29000D03*
X796000Y946000D03*
X35000Y941000D03*
X384000Y382000D03*
X384000Y502000D03*
X67000Y928000D03*
X764000Y928000D03*
X20000Y26000D03*
X61000Y27000D03*
M02*
