G04 EAGLE Gerber RS-274X export*
G75*
%MOMM*%
%FSLAX34Y34*%
%LPD*%
%INTop Copper*%
%IPPOS*%
%AMOC8*
5,1,8,0,0,1.08239X$1,22.5*%
G01*
%ADD10R,1.981200X0.558800*%
%ADD11R,7.490000X1.960000*%
%ADD12R,1.960000X7.490000*%
%ADD13C,0.756400*%
%ADD14C,0.812800*%
%ADD15C,0.152400*%
%ADD16C,0.508000*%
%ADD17C,0.500000*%
%ADD18C,1.016000*%

G36*
X88332Y10172D02*
X88332Y10172D01*
X88404Y10174D01*
X88453Y10192D01*
X88504Y10200D01*
X88568Y10234D01*
X88635Y10259D01*
X88676Y10291D01*
X88722Y10316D01*
X88771Y10367D01*
X88827Y10412D01*
X88855Y10456D01*
X88891Y10494D01*
X88921Y10559D01*
X88960Y10619D01*
X88973Y10670D01*
X88995Y10717D01*
X89002Y10788D01*
X89020Y10858D01*
X89016Y10910D01*
X89022Y10961D01*
X89006Y11032D01*
X89001Y11103D01*
X88980Y11151D01*
X88969Y11202D01*
X88933Y11263D01*
X88905Y11329D01*
X88860Y11385D01*
X88843Y11413D01*
X88826Y11428D01*
X88800Y11460D01*
X88313Y11947D01*
X84939Y20092D01*
X84939Y28908D01*
X88313Y37053D01*
X94547Y43287D01*
X102692Y46661D01*
X111508Y46661D01*
X119653Y43287D01*
X125887Y37053D01*
X129261Y28908D01*
X129261Y20092D01*
X125887Y11947D01*
X125400Y11460D01*
X125358Y11402D01*
X125309Y11350D01*
X125287Y11303D01*
X125257Y11261D01*
X125236Y11192D01*
X125205Y11127D01*
X125200Y11075D01*
X125184Y11025D01*
X125186Y10954D01*
X125178Y10883D01*
X125189Y10832D01*
X125191Y10780D01*
X125215Y10712D01*
X125231Y10642D01*
X125257Y10597D01*
X125275Y10549D01*
X125320Y10493D01*
X125357Y10431D01*
X125396Y10397D01*
X125429Y10357D01*
X125489Y10318D01*
X125544Y10271D01*
X125592Y10252D01*
X125636Y10224D01*
X125705Y10206D01*
X125772Y10179D01*
X125843Y10171D01*
X125874Y10163D01*
X125898Y10165D01*
X125939Y10161D01*
X151098Y10161D01*
X151169Y10172D01*
X151240Y10174D01*
X151289Y10192D01*
X151341Y10200D01*
X151404Y10234D01*
X151471Y10259D01*
X151512Y10291D01*
X151558Y10316D01*
X151607Y10368D01*
X151663Y10412D01*
X151691Y10456D01*
X151727Y10494D01*
X151757Y10559D01*
X151796Y10619D01*
X151809Y10670D01*
X151831Y10717D01*
X151839Y10788D01*
X151856Y10858D01*
X151852Y10910D01*
X151858Y10961D01*
X151843Y11032D01*
X151837Y11103D01*
X151817Y11151D01*
X151806Y11202D01*
X151769Y11263D01*
X151741Y11329D01*
X151696Y11385D01*
X151680Y11413D01*
X151662Y11428D01*
X151636Y11460D01*
X150262Y12834D01*
X150038Y13375D01*
X150003Y13431D01*
X149978Y13491D01*
X149926Y13556D01*
X149908Y13584D01*
X149893Y13597D01*
X149873Y13622D01*
X149693Y13802D01*
X149693Y14056D01*
X149683Y14121D01*
X149682Y14186D01*
X149659Y14266D01*
X149654Y14299D01*
X149644Y14316D01*
X149635Y14347D01*
X149411Y14888D01*
X149411Y17112D01*
X149635Y17653D01*
X149650Y17716D01*
X149675Y17777D01*
X149684Y17860D01*
X149691Y17892D01*
X149690Y17911D01*
X149693Y17944D01*
X149693Y18198D01*
X149873Y18378D01*
X149911Y18431D01*
X149957Y18478D01*
X149997Y18551D01*
X150017Y18578D01*
X150022Y18596D01*
X150038Y18625D01*
X150262Y19166D01*
X151834Y20738D01*
X152375Y20962D01*
X152431Y20997D01*
X152491Y21022D01*
X152556Y21074D01*
X152584Y21092D01*
X152597Y21107D01*
X152622Y21127D01*
X152802Y21307D01*
X153056Y21307D01*
X153121Y21317D01*
X153186Y21318D01*
X153266Y21341D01*
X153299Y21346D01*
X153316Y21356D01*
X153347Y21365D01*
X153888Y21589D01*
X170112Y21589D01*
X170653Y21365D01*
X170716Y21350D01*
X170777Y21325D01*
X170860Y21316D01*
X170892Y21309D01*
X170911Y21310D01*
X170944Y21307D01*
X171198Y21307D01*
X171378Y21127D01*
X171431Y21089D01*
X171478Y21043D01*
X171551Y21003D01*
X171578Y20983D01*
X171596Y20978D01*
X171625Y20962D01*
X172166Y20738D01*
X173738Y19166D01*
X173962Y18625D01*
X173997Y18569D01*
X174022Y18509D01*
X174074Y18444D01*
X174092Y18416D01*
X174107Y18403D01*
X174127Y18378D01*
X174307Y18198D01*
X174307Y17944D01*
X174317Y17879D01*
X174318Y17814D01*
X174341Y17733D01*
X174346Y17701D01*
X174356Y17684D01*
X174365Y17653D01*
X174589Y17112D01*
X174589Y14888D01*
X174365Y14347D01*
X174350Y14284D01*
X174325Y14223D01*
X174316Y14140D01*
X174309Y14108D01*
X174310Y14089D01*
X174307Y14056D01*
X174307Y13802D01*
X174127Y13622D01*
X174089Y13569D01*
X174043Y13522D01*
X174003Y13449D01*
X173983Y13422D01*
X173978Y13404D01*
X173962Y13375D01*
X173738Y12834D01*
X172364Y11460D01*
X172322Y11402D01*
X172273Y11350D01*
X172251Y11303D01*
X172220Y11261D01*
X172199Y11192D01*
X172169Y11127D01*
X172163Y11075D01*
X172148Y11025D01*
X172150Y10954D01*
X172142Y10883D01*
X172153Y10832D01*
X172154Y10780D01*
X172179Y10712D01*
X172194Y10642D01*
X172221Y10597D01*
X172239Y10549D01*
X172284Y10493D01*
X172320Y10431D01*
X172360Y10397D01*
X172393Y10357D01*
X172453Y10318D01*
X172507Y10271D01*
X172556Y10252D01*
X172599Y10224D01*
X172669Y10206D01*
X172735Y10179D01*
X172807Y10171D01*
X172838Y10163D01*
X172861Y10165D01*
X172902Y10161D01*
X188497Y10161D01*
X188567Y10172D01*
X188639Y10174D01*
X188688Y10192D01*
X188739Y10200D01*
X188803Y10234D01*
X188870Y10259D01*
X188911Y10291D01*
X188957Y10316D01*
X189006Y10368D01*
X189062Y10412D01*
X189090Y10456D01*
X189126Y10494D01*
X189156Y10559D01*
X189195Y10619D01*
X189208Y10670D01*
X189230Y10717D01*
X189238Y10788D01*
X189255Y10858D01*
X189251Y10910D01*
X189257Y10961D01*
X189242Y11032D01*
X189236Y11103D01*
X189216Y11151D01*
X189205Y11202D01*
X189168Y11263D01*
X189140Y11329D01*
X189095Y11385D01*
X189078Y11413D01*
X189061Y11428D01*
X189035Y11460D01*
X186693Y13802D01*
X186693Y18198D01*
X189802Y21307D01*
X194198Y21307D01*
X197307Y18198D01*
X197307Y13802D01*
X194965Y11460D01*
X194923Y11402D01*
X194874Y11350D01*
X194852Y11303D01*
X194822Y11261D01*
X194800Y11192D01*
X194770Y11127D01*
X194765Y11075D01*
X194749Y11025D01*
X194751Y10954D01*
X194743Y10883D01*
X194754Y10832D01*
X194756Y10780D01*
X194780Y10712D01*
X194795Y10642D01*
X194822Y10597D01*
X194840Y10549D01*
X194885Y10493D01*
X194922Y10431D01*
X194961Y10397D01*
X194994Y10357D01*
X195054Y10318D01*
X195109Y10271D01*
X195157Y10252D01*
X195201Y10224D01*
X195270Y10206D01*
X195337Y10179D01*
X195408Y10171D01*
X195439Y10163D01*
X195462Y10165D01*
X195503Y10161D01*
X698261Y10161D01*
X698332Y10172D01*
X698404Y10174D01*
X698453Y10192D01*
X698504Y10200D01*
X698568Y10234D01*
X698635Y10259D01*
X698676Y10291D01*
X698722Y10316D01*
X698771Y10367D01*
X698827Y10412D01*
X698855Y10456D01*
X698891Y10494D01*
X698921Y10559D01*
X698960Y10619D01*
X698973Y10670D01*
X698995Y10717D01*
X699002Y10788D01*
X699020Y10858D01*
X699016Y10910D01*
X699022Y10961D01*
X699006Y11032D01*
X699001Y11103D01*
X698980Y11151D01*
X698969Y11202D01*
X698933Y11263D01*
X698905Y11329D01*
X698860Y11385D01*
X698843Y11413D01*
X698826Y11428D01*
X698800Y11460D01*
X698313Y11947D01*
X694939Y20092D01*
X694939Y28908D01*
X698313Y37053D01*
X704547Y43287D01*
X712692Y46661D01*
X721508Y46661D01*
X729653Y43287D01*
X735887Y37053D01*
X739261Y28908D01*
X739261Y20092D01*
X735887Y11947D01*
X735400Y11460D01*
X735358Y11402D01*
X735309Y11350D01*
X735287Y11303D01*
X735257Y11261D01*
X735236Y11192D01*
X735205Y11127D01*
X735200Y11075D01*
X735184Y11025D01*
X735186Y10954D01*
X735178Y10883D01*
X735189Y10832D01*
X735191Y10780D01*
X735215Y10712D01*
X735231Y10642D01*
X735257Y10597D01*
X735275Y10549D01*
X735320Y10493D01*
X735357Y10431D01*
X735396Y10397D01*
X735429Y10357D01*
X735489Y10318D01*
X735544Y10271D01*
X735592Y10252D01*
X735636Y10224D01*
X735705Y10206D01*
X735772Y10179D01*
X735843Y10171D01*
X735874Y10163D01*
X735898Y10165D01*
X735939Y10161D01*
X813278Y10161D01*
X813298Y10164D01*
X813317Y10162D01*
X813419Y10184D01*
X813521Y10200D01*
X813538Y10210D01*
X813558Y10214D01*
X813647Y10267D01*
X813738Y10316D01*
X813752Y10330D01*
X813769Y10340D01*
X813836Y10419D01*
X813908Y10494D01*
X813916Y10512D01*
X813929Y10527D01*
X813968Y10623D01*
X814011Y10717D01*
X814013Y10737D01*
X814021Y10755D01*
X814039Y10922D01*
X814039Y676298D01*
X814028Y676369D01*
X814026Y676440D01*
X814008Y676489D01*
X814000Y676541D01*
X813966Y676604D01*
X813941Y676671D01*
X813909Y676712D01*
X813884Y676758D01*
X813832Y676807D01*
X813788Y676863D01*
X813744Y676891D01*
X813706Y676927D01*
X813641Y676957D01*
X813581Y676996D01*
X813530Y677009D01*
X813483Y677031D01*
X813412Y677039D01*
X813342Y677056D01*
X813290Y677052D01*
X813239Y677058D01*
X813168Y677043D01*
X813097Y677037D01*
X813049Y677017D01*
X812998Y677006D01*
X812937Y676969D01*
X812871Y676941D01*
X812815Y676896D01*
X812787Y676880D01*
X812772Y676862D01*
X812740Y676836D01*
X795198Y659294D01*
X795145Y659220D01*
X795085Y659151D01*
X795073Y659120D01*
X795054Y659094D01*
X795027Y659007D01*
X795016Y658979D01*
X795003Y658951D01*
X795002Y658945D01*
X794993Y658922D01*
X794989Y658882D01*
X794982Y658859D01*
X794983Y658827D01*
X794975Y658756D01*
X794975Y643568D01*
X794082Y642675D01*
X717918Y642675D01*
X717025Y643568D01*
X717025Y664432D01*
X717918Y665325D01*
X785106Y665325D01*
X785196Y665339D01*
X785287Y665347D01*
X785317Y665359D01*
X785348Y665364D01*
X785429Y665407D01*
X785513Y665443D01*
X785545Y665469D01*
X785566Y665480D01*
X785588Y665503D01*
X785644Y665548D01*
X793456Y673360D01*
X793498Y673418D01*
X793547Y673470D01*
X793569Y673517D01*
X793600Y673559D01*
X793621Y673628D01*
X793651Y673693D01*
X793657Y673745D01*
X793672Y673795D01*
X793670Y673866D01*
X793678Y673937D01*
X793667Y673988D01*
X793666Y674040D01*
X793641Y674108D01*
X793626Y674178D01*
X793599Y674223D01*
X793581Y674271D01*
X793536Y674327D01*
X793500Y674389D01*
X793460Y674423D01*
X793427Y674463D01*
X793367Y674502D01*
X793313Y674549D01*
X793264Y674568D01*
X793221Y674596D01*
X793151Y674614D01*
X793085Y674641D01*
X793013Y674649D01*
X792982Y674657D01*
X792959Y674655D01*
X792918Y674659D01*
X757523Y674659D01*
X757523Y685477D01*
X795991Y685477D01*
X795991Y677732D01*
X796002Y677661D01*
X796004Y677590D01*
X796022Y677541D01*
X796030Y677489D01*
X796064Y677426D01*
X796089Y677359D01*
X796121Y677318D01*
X796146Y677272D01*
X796198Y677223D01*
X796242Y677167D01*
X796286Y677139D01*
X796324Y677103D01*
X796389Y677073D01*
X796449Y677034D01*
X796500Y677021D01*
X796547Y676999D01*
X796618Y676991D01*
X796688Y676974D01*
X796740Y676978D01*
X796791Y676972D01*
X796862Y676987D01*
X796933Y676993D01*
X796981Y677013D01*
X797032Y677024D01*
X797093Y677061D01*
X797159Y677089D01*
X797215Y677134D01*
X797243Y677150D01*
X797258Y677168D01*
X797290Y677194D01*
X804164Y684068D01*
X804217Y684142D01*
X804277Y684211D01*
X804289Y684242D01*
X804308Y684268D01*
X804335Y684355D01*
X804369Y684440D01*
X804373Y684480D01*
X804380Y684503D01*
X804379Y684535D01*
X804387Y684606D01*
X804387Y912394D01*
X804373Y912484D01*
X804365Y912575D01*
X804353Y912605D01*
X804348Y912636D01*
X804305Y912717D01*
X804269Y912801D01*
X804243Y912833D01*
X804232Y912854D01*
X804209Y912876D01*
X804164Y912932D01*
X794908Y922188D01*
X794834Y922241D01*
X794765Y922301D01*
X794734Y922313D01*
X794708Y922332D01*
X794621Y922359D01*
X794536Y922393D01*
X794496Y922397D01*
X794473Y922404D01*
X794441Y922403D01*
X794370Y922411D01*
X749191Y922411D01*
X749101Y922397D01*
X749010Y922389D01*
X748980Y922377D01*
X748948Y922372D01*
X748867Y922329D01*
X748783Y922293D01*
X748751Y922267D01*
X748731Y922256D01*
X748708Y922233D01*
X748652Y922188D01*
X737205Y910741D01*
X736088Y909624D01*
X736047Y909566D01*
X735997Y909514D01*
X735975Y909467D01*
X735945Y909425D01*
X735924Y909356D01*
X735894Y909291D01*
X735888Y909239D01*
X735873Y909189D01*
X735874Y909118D01*
X735866Y909047D01*
X735878Y908996D01*
X735879Y908944D01*
X735904Y908876D01*
X735919Y908806D01*
X735945Y908761D01*
X735963Y908713D01*
X736008Y908657D01*
X736045Y908595D01*
X736084Y908561D01*
X736117Y908521D01*
X736177Y908482D01*
X736232Y908435D01*
X736280Y908416D01*
X736324Y908388D01*
X736393Y908370D01*
X736460Y908343D01*
X736531Y908335D01*
X736562Y908327D01*
X736586Y908329D01*
X736627Y908325D01*
X794082Y908325D01*
X794975Y907432D01*
X794975Y886568D01*
X794082Y885675D01*
X717918Y885675D01*
X717025Y886568D01*
X717025Y889634D01*
X717022Y889654D01*
X717024Y889673D01*
X717002Y889775D01*
X716986Y889877D01*
X716976Y889894D01*
X716972Y889914D01*
X716919Y890003D01*
X716870Y890094D01*
X716856Y890108D01*
X716846Y890125D01*
X716767Y890192D01*
X716692Y890264D01*
X716674Y890272D01*
X716659Y890285D01*
X716563Y890324D01*
X716469Y890367D01*
X716449Y890369D01*
X716431Y890377D01*
X716264Y890395D01*
X710736Y890395D01*
X710716Y890392D01*
X710697Y890394D01*
X710595Y890372D01*
X710493Y890356D01*
X710476Y890346D01*
X710456Y890342D01*
X710367Y890289D01*
X710276Y890240D01*
X710262Y890226D01*
X710245Y890216D01*
X710178Y890137D01*
X710106Y890062D01*
X710098Y890044D01*
X710085Y890029D01*
X710046Y889933D01*
X710003Y889839D01*
X710001Y889819D01*
X709993Y889801D01*
X709975Y889634D01*
X709975Y886568D01*
X709082Y885675D01*
X632918Y885675D01*
X632025Y886568D01*
X632025Y907450D01*
X632022Y907470D01*
X632024Y907489D01*
X632002Y907591D01*
X631986Y907693D01*
X631976Y907710D01*
X631972Y907730D01*
X631919Y907819D01*
X631870Y907910D01*
X631856Y907924D01*
X631846Y907941D01*
X631767Y908008D01*
X631692Y908080D01*
X631674Y908088D01*
X631659Y908101D01*
X631563Y908140D01*
X631469Y908183D01*
X631449Y908185D01*
X631431Y908193D01*
X631264Y908211D01*
X624736Y908211D01*
X624716Y908208D01*
X624697Y908210D01*
X624595Y908188D01*
X624493Y908172D01*
X624476Y908162D01*
X624456Y908158D01*
X624367Y908105D01*
X624276Y908056D01*
X624262Y908042D01*
X624245Y908032D01*
X624178Y907953D01*
X624106Y907878D01*
X624098Y907860D01*
X624085Y907845D01*
X624046Y907749D01*
X624003Y907655D01*
X624001Y907635D01*
X623993Y907617D01*
X623975Y907450D01*
X623975Y886568D01*
X623082Y885675D01*
X546918Y885675D01*
X546025Y886568D01*
X546025Y907432D01*
X546918Y908325D01*
X588106Y908325D01*
X588196Y908339D01*
X588287Y908347D01*
X588317Y908359D01*
X588348Y908364D01*
X588429Y908407D01*
X588513Y908443D01*
X588545Y908469D01*
X588566Y908480D01*
X588588Y908503D01*
X588644Y908548D01*
X598634Y918538D01*
X600688Y919389D01*
X706331Y919389D01*
X706427Y919404D01*
X706524Y919414D01*
X706548Y919424D01*
X706574Y919428D01*
X706660Y919474D01*
X706749Y919514D01*
X706768Y919531D01*
X706791Y919544D01*
X706858Y919614D01*
X706930Y919680D01*
X706943Y919703D01*
X706961Y919722D01*
X707002Y919810D01*
X707049Y919896D01*
X707053Y919921D01*
X707064Y919945D01*
X707075Y920042D01*
X707092Y920138D01*
X707089Y920164D01*
X707092Y920189D01*
X707071Y920285D01*
X707057Y920381D01*
X707045Y920404D01*
X707039Y920430D01*
X706989Y920513D01*
X706945Y920600D01*
X706926Y920619D01*
X706913Y920641D01*
X706839Y920704D01*
X706770Y920772D01*
X706741Y920788D01*
X706726Y920801D01*
X706695Y920813D01*
X706623Y920853D01*
X704547Y921713D01*
X698313Y927947D01*
X694939Y936092D01*
X694939Y944908D01*
X698313Y953053D01*
X700800Y955540D01*
X700842Y955598D01*
X700891Y955650D01*
X700913Y955697D01*
X700943Y955739D01*
X700964Y955808D01*
X700995Y955873D01*
X701000Y955925D01*
X701016Y955975D01*
X701014Y956046D01*
X701022Y956117D01*
X701011Y956168D01*
X701009Y956220D01*
X700985Y956288D01*
X700969Y956358D01*
X700943Y956403D01*
X700925Y956451D01*
X700880Y956507D01*
X700843Y956569D01*
X700804Y956603D01*
X700771Y956643D01*
X700711Y956682D01*
X700656Y956729D01*
X700608Y956748D01*
X700564Y956776D01*
X700495Y956794D01*
X700428Y956821D01*
X700357Y956829D01*
X700326Y956837D01*
X700302Y956835D01*
X700261Y956839D01*
X123939Y956839D01*
X123868Y956828D01*
X123796Y956826D01*
X123747Y956808D01*
X123696Y956800D01*
X123632Y956766D01*
X123565Y956741D01*
X123524Y956709D01*
X123478Y956684D01*
X123429Y956632D01*
X123373Y956588D01*
X123345Y956544D01*
X123309Y956506D01*
X123279Y956441D01*
X123240Y956381D01*
X123227Y956330D01*
X123205Y956283D01*
X123198Y956212D01*
X123180Y956142D01*
X123184Y956090D01*
X123178Y956039D01*
X123194Y955968D01*
X123199Y955897D01*
X123219Y955849D01*
X123231Y955798D01*
X123267Y955737D01*
X123295Y955671D01*
X123340Y955615D01*
X123357Y955587D01*
X123375Y955572D01*
X123400Y955540D01*
X125887Y953053D01*
X129261Y944908D01*
X129261Y936092D01*
X125887Y927947D01*
X119653Y921713D01*
X111508Y918339D01*
X102692Y918339D01*
X94547Y921713D01*
X88313Y927947D01*
X84939Y936092D01*
X84939Y944908D01*
X88313Y953053D01*
X90800Y955540D01*
X90842Y955598D01*
X90891Y955650D01*
X90913Y955697D01*
X90943Y955739D01*
X90964Y955808D01*
X90995Y955873D01*
X91000Y955925D01*
X91016Y955975D01*
X91014Y956046D01*
X91022Y956117D01*
X91011Y956168D01*
X91009Y956220D01*
X90985Y956288D01*
X90969Y956358D01*
X90943Y956403D01*
X90925Y956451D01*
X90880Y956507D01*
X90843Y956569D01*
X90804Y956603D01*
X90771Y956643D01*
X90711Y956682D01*
X90656Y956729D01*
X90608Y956748D01*
X90564Y956776D01*
X90495Y956794D01*
X90428Y956821D01*
X90357Y956829D01*
X90326Y956837D01*
X90302Y956835D01*
X90261Y956839D01*
X10922Y956839D01*
X10902Y956836D01*
X10883Y956838D01*
X10781Y956816D01*
X10679Y956800D01*
X10662Y956790D01*
X10642Y956786D01*
X10553Y956733D01*
X10462Y956684D01*
X10448Y956670D01*
X10431Y956660D01*
X10364Y956581D01*
X10292Y956506D01*
X10284Y956488D01*
X10271Y956473D01*
X10232Y956377D01*
X10189Y956283D01*
X10187Y956263D01*
X10179Y956245D01*
X10161Y956078D01*
X10161Y85030D01*
X10172Y84960D01*
X10174Y84888D01*
X10192Y84839D01*
X10200Y84788D01*
X10234Y84724D01*
X10259Y84657D01*
X10291Y84616D01*
X10316Y84570D01*
X10368Y84521D01*
X10412Y84465D01*
X10456Y84437D01*
X10494Y84401D01*
X10559Y84371D01*
X10619Y84332D01*
X10670Y84319D01*
X10717Y84297D01*
X10788Y84289D01*
X10858Y84272D01*
X10910Y84276D01*
X10961Y84270D01*
X11032Y84285D01*
X11103Y84291D01*
X11151Y84311D01*
X11202Y84322D01*
X11263Y84359D01*
X11329Y84387D01*
X11385Y84432D01*
X11413Y84449D01*
X11428Y84466D01*
X11460Y84492D01*
X14043Y87075D01*
X18215Y87075D01*
X18305Y87089D01*
X18396Y87097D01*
X18426Y87109D01*
X18458Y87114D01*
X18539Y87157D01*
X18622Y87193D01*
X18655Y87219D01*
X18675Y87230D01*
X18697Y87253D01*
X18753Y87298D01*
X18824Y87369D01*
X39900Y87369D01*
X40793Y86476D01*
X40793Y79624D01*
X39900Y78731D01*
X18824Y78731D01*
X18753Y78802D01*
X18679Y78855D01*
X18610Y78915D01*
X18580Y78927D01*
X18554Y78946D01*
X18467Y78973D01*
X18382Y79007D01*
X18341Y79011D01*
X18319Y79018D01*
X18286Y79017D01*
X18215Y79025D01*
X17692Y79025D01*
X17602Y79011D01*
X17511Y79003D01*
X17482Y78991D01*
X17450Y78986D01*
X17369Y78943D01*
X17285Y78907D01*
X17253Y78881D01*
X17232Y78870D01*
X17210Y78847D01*
X17154Y78802D01*
X16908Y78556D01*
X16855Y78482D01*
X16795Y78412D01*
X16783Y78382D01*
X16764Y78356D01*
X16737Y78269D01*
X16703Y78184D01*
X16699Y78143D01*
X16692Y78121D01*
X16693Y78089D01*
X16685Y78018D01*
X16685Y74367D01*
X16696Y74296D01*
X16698Y74224D01*
X16716Y74175D01*
X16724Y74124D01*
X16758Y74061D01*
X16783Y73993D01*
X16815Y73953D01*
X16840Y73907D01*
X16892Y73857D01*
X16936Y73801D01*
X16980Y73773D01*
X17018Y73737D01*
X17083Y73707D01*
X17143Y73668D01*
X17194Y73656D01*
X17241Y73634D01*
X17312Y73626D01*
X17382Y73608D01*
X17434Y73612D01*
X17485Y73607D01*
X17556Y73622D01*
X17627Y73627D01*
X17675Y73648D01*
X17726Y73659D01*
X17787Y73696D01*
X17853Y73724D01*
X17909Y73769D01*
X17937Y73785D01*
X17952Y73803D01*
X17984Y73829D01*
X18824Y74669D01*
X39900Y74669D01*
X40793Y73776D01*
X40793Y66924D01*
X39900Y66031D01*
X18824Y66031D01*
X17984Y66871D01*
X17926Y66913D01*
X17874Y66963D01*
X17827Y66985D01*
X17785Y67015D01*
X17716Y67036D01*
X17651Y67066D01*
X17599Y67072D01*
X17549Y67087D01*
X17478Y67085D01*
X17407Y67093D01*
X17356Y67082D01*
X17304Y67081D01*
X17236Y67056D01*
X17166Y67041D01*
X17121Y67014D01*
X17073Y66997D01*
X17017Y66952D01*
X16955Y66915D01*
X16921Y66875D01*
X16881Y66843D01*
X16842Y66783D01*
X16795Y66728D01*
X16776Y66680D01*
X16748Y66636D01*
X16730Y66566D01*
X16703Y66500D01*
X16695Y66429D01*
X16687Y66397D01*
X16689Y66374D01*
X16685Y66333D01*
X16685Y61667D01*
X16696Y61596D01*
X16698Y61524D01*
X16716Y61475D01*
X16724Y61424D01*
X16758Y61361D01*
X16783Y61293D01*
X16815Y61253D01*
X16840Y61207D01*
X16892Y61157D01*
X16936Y61101D01*
X16980Y61073D01*
X17018Y61037D01*
X17083Y61007D01*
X17143Y60968D01*
X17194Y60956D01*
X17241Y60934D01*
X17312Y60926D01*
X17382Y60908D01*
X17434Y60912D01*
X17485Y60907D01*
X17556Y60922D01*
X17627Y60927D01*
X17675Y60948D01*
X17726Y60959D01*
X17787Y60996D01*
X17853Y61024D01*
X17909Y61069D01*
X17937Y61085D01*
X17952Y61103D01*
X17984Y61129D01*
X18824Y61969D01*
X39900Y61969D01*
X40793Y61076D01*
X40793Y54224D01*
X39900Y53331D01*
X18824Y53331D01*
X17984Y54171D01*
X17926Y54213D01*
X17874Y54263D01*
X17827Y54285D01*
X17785Y54315D01*
X17716Y54336D01*
X17651Y54366D01*
X17599Y54372D01*
X17549Y54387D01*
X17478Y54385D01*
X17407Y54393D01*
X17356Y54382D01*
X17304Y54381D01*
X17236Y54356D01*
X17166Y54341D01*
X17121Y54314D01*
X17073Y54297D01*
X17017Y54252D01*
X16955Y54215D01*
X16921Y54175D01*
X16881Y54143D01*
X16842Y54083D01*
X16795Y54028D01*
X16776Y53980D01*
X16748Y53936D01*
X16730Y53866D01*
X16703Y53800D01*
X16695Y53729D01*
X16687Y53697D01*
X16689Y53674D01*
X16685Y53633D01*
X16685Y51322D01*
X16699Y51232D01*
X16707Y51141D01*
X16719Y51112D01*
X16724Y51080D01*
X16767Y50999D01*
X16803Y50915D01*
X16829Y50883D01*
X16840Y50862D01*
X16863Y50840D01*
X16908Y50784D01*
X18200Y49492D01*
X18274Y49439D01*
X18344Y49379D01*
X18374Y49367D01*
X18400Y49348D01*
X18487Y49321D01*
X18572Y49287D01*
X18613Y49283D01*
X18635Y49276D01*
X18667Y49277D01*
X18738Y49269D01*
X39900Y49269D01*
X40793Y48376D01*
X40793Y41524D01*
X39900Y40631D01*
X18824Y40631D01*
X18753Y40702D01*
X18679Y40755D01*
X18610Y40815D01*
X18580Y40827D01*
X18554Y40846D01*
X18467Y40873D01*
X18382Y40907D01*
X18341Y40911D01*
X18319Y40918D01*
X18286Y40917D01*
X18215Y40925D01*
X17446Y40925D01*
X17426Y40922D01*
X17407Y40924D01*
X17305Y40902D01*
X17203Y40886D01*
X17186Y40876D01*
X17166Y40872D01*
X17077Y40819D01*
X16986Y40770D01*
X16972Y40756D01*
X16955Y40746D01*
X16888Y40667D01*
X16816Y40592D01*
X16808Y40574D01*
X16795Y40559D01*
X16756Y40463D01*
X16713Y40369D01*
X16711Y40349D01*
X16703Y40331D01*
X16685Y40164D01*
X16685Y35322D01*
X16699Y35232D01*
X16707Y35141D01*
X16719Y35112D01*
X16724Y35080D01*
X16767Y34999D01*
X16803Y34915D01*
X16829Y34883D01*
X16840Y34862D01*
X16863Y34840D01*
X16908Y34784D01*
X20162Y31530D01*
X20236Y31477D01*
X20306Y31417D01*
X20336Y31405D01*
X20362Y31386D01*
X20449Y31359D01*
X20534Y31325D01*
X20575Y31321D01*
X20597Y31314D01*
X20629Y31315D01*
X20700Y31307D01*
X22198Y31307D01*
X25307Y28198D01*
X25307Y23802D01*
X22198Y20693D01*
X17802Y20693D01*
X14693Y23802D01*
X14693Y25300D01*
X14679Y25390D01*
X14671Y25481D01*
X14659Y25510D01*
X14654Y25542D01*
X14611Y25623D01*
X14575Y25707D01*
X14549Y25739D01*
X14538Y25760D01*
X14515Y25782D01*
X14470Y25838D01*
X11460Y28848D01*
X11402Y28890D01*
X11350Y28939D01*
X11303Y28961D01*
X11261Y28991D01*
X11192Y29013D01*
X11127Y29043D01*
X11075Y29048D01*
X11025Y29064D01*
X10954Y29062D01*
X10883Y29070D01*
X10832Y29059D01*
X10780Y29057D01*
X10712Y29033D01*
X10642Y29018D01*
X10597Y28991D01*
X10549Y28973D01*
X10493Y28928D01*
X10431Y28891D01*
X10397Y28852D01*
X10357Y28819D01*
X10318Y28759D01*
X10271Y28705D01*
X10252Y28656D01*
X10224Y28612D01*
X10206Y28543D01*
X10179Y28476D01*
X10171Y28405D01*
X10163Y28374D01*
X10165Y28351D01*
X10161Y28310D01*
X10161Y10922D01*
X10164Y10902D01*
X10162Y10883D01*
X10184Y10781D01*
X10200Y10679D01*
X10210Y10662D01*
X10214Y10642D01*
X10267Y10553D01*
X10316Y10462D01*
X10330Y10448D01*
X10340Y10431D01*
X10419Y10364D01*
X10494Y10292D01*
X10512Y10284D01*
X10527Y10271D01*
X10623Y10232D01*
X10717Y10189D01*
X10737Y10187D01*
X10755Y10179D01*
X10922Y10161D01*
X88261Y10161D01*
X88332Y10172D01*
G37*
%LPC*%
G36*
X174568Y103025D02*
X174568Y103025D01*
X173675Y103918D01*
X173675Y180082D01*
X174568Y180975D01*
X195432Y180975D01*
X196325Y180082D01*
X196325Y149350D01*
X196328Y149330D01*
X196326Y149311D01*
X196348Y149209D01*
X196364Y149107D01*
X196374Y149090D01*
X196378Y149070D01*
X196431Y148981D01*
X196480Y148890D01*
X196494Y148876D01*
X196504Y148859D01*
X196583Y148792D01*
X196658Y148720D01*
X196676Y148712D01*
X196691Y148699D01*
X196787Y148660D01*
X196881Y148617D01*
X196901Y148615D01*
X196919Y148607D01*
X197086Y148589D01*
X264370Y148589D01*
X264460Y148603D01*
X264551Y148611D01*
X264581Y148623D01*
X264612Y148628D01*
X264693Y148671D01*
X264777Y148707D01*
X264809Y148733D01*
X264830Y148744D01*
X264852Y148767D01*
X264908Y148812D01*
X303472Y187376D01*
X303514Y187434D01*
X303563Y187486D01*
X303585Y187533D01*
X303616Y187575D01*
X303637Y187644D01*
X303667Y187709D01*
X303673Y187761D01*
X303688Y187811D01*
X303686Y187882D01*
X303694Y187953D01*
X303683Y188004D01*
X303682Y188056D01*
X303657Y188124D01*
X303642Y188194D01*
X303615Y188239D01*
X303597Y188287D01*
X303552Y188343D01*
X303516Y188405D01*
X303476Y188439D01*
X303443Y188479D01*
X303383Y188518D01*
X303329Y188565D01*
X303280Y188584D01*
X303237Y188612D01*
X303167Y188630D01*
X303101Y188657D01*
X303029Y188665D01*
X302998Y188673D01*
X302975Y188671D01*
X302934Y188675D01*
X285918Y188675D01*
X285025Y189568D01*
X285025Y210432D01*
X285918Y211325D01*
X317650Y211325D01*
X317670Y211328D01*
X317689Y211326D01*
X317791Y211348D01*
X317893Y211364D01*
X317910Y211374D01*
X317930Y211378D01*
X318019Y211431D01*
X318110Y211480D01*
X318124Y211494D01*
X318141Y211504D01*
X318208Y211583D01*
X318280Y211658D01*
X318288Y211676D01*
X318301Y211691D01*
X318340Y211787D01*
X318383Y211881D01*
X318385Y211901D01*
X318393Y211919D01*
X318411Y212086D01*
X318411Y323112D01*
X319262Y325166D01*
X369208Y375112D01*
X369250Y375170D01*
X369299Y375222D01*
X369321Y375269D01*
X369352Y375311D01*
X369373Y375380D01*
X369403Y375445D01*
X369409Y375497D01*
X369424Y375547D01*
X369422Y375618D01*
X369430Y375689D01*
X369419Y375740D01*
X369418Y375792D01*
X369393Y375860D01*
X369378Y375930D01*
X369351Y375975D01*
X369333Y376023D01*
X369288Y376079D01*
X369252Y376141D01*
X369212Y376175D01*
X369179Y376215D01*
X369119Y376254D01*
X369065Y376301D01*
X369016Y376320D01*
X368973Y376348D01*
X368903Y376366D01*
X368837Y376393D01*
X368765Y376401D01*
X368734Y376409D01*
X368711Y376407D01*
X368670Y376411D01*
X95888Y376411D01*
X93834Y377262D01*
X70644Y400452D01*
X70570Y400505D01*
X70501Y400565D01*
X70470Y400577D01*
X70444Y400596D01*
X70357Y400623D01*
X70272Y400657D01*
X70232Y400661D01*
X70209Y400668D01*
X70177Y400667D01*
X70106Y400675D01*
X28918Y400675D01*
X28025Y401568D01*
X28025Y422432D01*
X28918Y423325D01*
X105082Y423325D01*
X105975Y422432D01*
X105975Y401568D01*
X105082Y400675D01*
X88066Y400675D01*
X87995Y400664D01*
X87924Y400662D01*
X87875Y400644D01*
X87823Y400636D01*
X87760Y400602D01*
X87693Y400577D01*
X87652Y400545D01*
X87606Y400520D01*
X87557Y400468D01*
X87501Y400424D01*
X87473Y400380D01*
X87437Y400342D01*
X87407Y400277D01*
X87368Y400217D01*
X87355Y400166D01*
X87333Y400119D01*
X87325Y400048D01*
X87308Y399978D01*
X87312Y399926D01*
X87306Y399875D01*
X87321Y399804D01*
X87327Y399733D01*
X87347Y399685D01*
X87358Y399634D01*
X87395Y399573D01*
X87423Y399507D01*
X87468Y399451D01*
X87484Y399423D01*
X87502Y399408D01*
X87528Y399376D01*
X99092Y387812D01*
X99166Y387759D01*
X99235Y387699D01*
X99266Y387687D01*
X99292Y387668D01*
X99379Y387641D01*
X99464Y387607D01*
X99504Y387603D01*
X99527Y387596D01*
X99559Y387597D01*
X99630Y387589D01*
X552370Y387589D01*
X552460Y387603D01*
X552551Y387611D01*
X552581Y387623D01*
X552612Y387628D01*
X552693Y387671D01*
X552777Y387707D01*
X552809Y387733D01*
X552830Y387744D01*
X552852Y387767D01*
X552908Y387812D01*
X564472Y399376D01*
X564514Y399434D01*
X564563Y399486D01*
X564585Y399533D01*
X564616Y399575D01*
X564637Y399644D01*
X564667Y399709D01*
X564673Y399761D01*
X564688Y399811D01*
X564686Y399882D01*
X564694Y399953D01*
X564683Y400004D01*
X564682Y400056D01*
X564657Y400124D01*
X564642Y400194D01*
X564615Y400239D01*
X564597Y400287D01*
X564552Y400343D01*
X564516Y400405D01*
X564476Y400439D01*
X564443Y400479D01*
X564383Y400518D01*
X564329Y400565D01*
X564280Y400584D01*
X564237Y400612D01*
X564167Y400630D01*
X564101Y400657D01*
X564029Y400665D01*
X563998Y400673D01*
X563975Y400671D01*
X563934Y400675D01*
X546918Y400675D01*
X546025Y401568D01*
X546025Y422432D01*
X546918Y423325D01*
X623082Y423325D01*
X623975Y422432D01*
X623975Y401568D01*
X623082Y400675D01*
X581894Y400675D01*
X581804Y400661D01*
X581713Y400653D01*
X581683Y400641D01*
X581651Y400636D01*
X581571Y400593D01*
X581487Y400557D01*
X581455Y400531D01*
X581434Y400520D01*
X581412Y400497D01*
X581356Y400452D01*
X559845Y378941D01*
X558166Y377262D01*
X556112Y376411D01*
X386630Y376411D01*
X386540Y376397D01*
X386449Y376389D01*
X386419Y376377D01*
X386388Y376372D01*
X386307Y376329D01*
X386223Y376293D01*
X386191Y376267D01*
X386170Y376256D01*
X386148Y376233D01*
X386092Y376188D01*
X329812Y319908D01*
X329759Y319834D01*
X329699Y319765D01*
X329687Y319734D01*
X329668Y319708D01*
X329641Y319621D01*
X329607Y319536D01*
X329603Y319496D01*
X329596Y319473D01*
X329597Y319441D01*
X329589Y319370D01*
X329589Y212086D01*
X329592Y212066D01*
X329590Y212047D01*
X329612Y211945D01*
X329628Y211843D01*
X329638Y211826D01*
X329642Y211806D01*
X329695Y211717D01*
X329744Y211626D01*
X329758Y211612D01*
X329768Y211595D01*
X329847Y211528D01*
X329922Y211456D01*
X329940Y211448D01*
X329955Y211435D01*
X330051Y211396D01*
X330145Y211353D01*
X330165Y211351D01*
X330183Y211343D01*
X330350Y211325D01*
X362082Y211325D01*
X362975Y210432D01*
X362975Y189568D01*
X362082Y188675D01*
X320894Y188675D01*
X320804Y188661D01*
X320713Y188653D01*
X320683Y188641D01*
X320652Y188636D01*
X320571Y188593D01*
X320487Y188557D01*
X320455Y188531D01*
X320434Y188520D01*
X320412Y188497D01*
X320356Y188452D01*
X270166Y138262D01*
X268112Y137411D01*
X197086Y137411D01*
X197066Y137408D01*
X197047Y137410D01*
X196945Y137388D01*
X196843Y137372D01*
X196826Y137362D01*
X196806Y137358D01*
X196717Y137305D01*
X196626Y137256D01*
X196612Y137242D01*
X196595Y137232D01*
X196528Y137153D01*
X196456Y137078D01*
X196448Y137060D01*
X196435Y137045D01*
X196396Y136949D01*
X196353Y136855D01*
X196351Y136835D01*
X196343Y136817D01*
X196325Y136650D01*
X196325Y103918D01*
X195432Y103025D01*
X174568Y103025D01*
G37*
%LPD*%
%LPC*%
G36*
X459918Y432675D02*
X459918Y432675D01*
X459025Y433568D01*
X459025Y454432D01*
X459918Y455325D01*
X491650Y455325D01*
X491670Y455328D01*
X491689Y455326D01*
X491791Y455348D01*
X491893Y455364D01*
X491910Y455374D01*
X491930Y455378D01*
X492019Y455431D01*
X492110Y455480D01*
X492124Y455494D01*
X492141Y455504D01*
X492208Y455583D01*
X492280Y455658D01*
X492288Y455676D01*
X492301Y455691D01*
X492340Y455787D01*
X492383Y455881D01*
X492385Y455901D01*
X492393Y455919D01*
X492411Y456086D01*
X492411Y467370D01*
X492397Y467460D01*
X492389Y467551D01*
X492377Y467581D01*
X492372Y467612D01*
X492329Y467693D01*
X492293Y467777D01*
X492267Y467809D01*
X492256Y467830D01*
X492233Y467852D01*
X492188Y467908D01*
X462908Y497188D01*
X462834Y497241D01*
X462765Y497301D01*
X462734Y497313D01*
X462708Y497332D01*
X462621Y497359D01*
X462536Y497393D01*
X462496Y497397D01*
X462473Y497404D01*
X462441Y497403D01*
X462370Y497411D01*
X387231Y497411D01*
X387141Y497397D01*
X387050Y497389D01*
X387021Y497377D01*
X386989Y497372D01*
X386908Y497329D01*
X386824Y497293D01*
X386792Y497267D01*
X386771Y497256D01*
X386749Y497233D01*
X386693Y497188D01*
X386198Y496693D01*
X381802Y496693D01*
X378693Y499802D01*
X378693Y504198D01*
X378757Y504262D01*
X378769Y504278D01*
X378785Y504291D01*
X378841Y504378D01*
X378901Y504462D01*
X378907Y504481D01*
X378918Y504498D01*
X378943Y504598D01*
X378973Y504697D01*
X378973Y504717D01*
X378978Y504736D01*
X378970Y504839D01*
X378967Y504943D01*
X378960Y504962D01*
X378959Y504982D01*
X378918Y505076D01*
X378883Y505174D01*
X378870Y505190D01*
X378862Y505208D01*
X378757Y505339D01*
X241644Y642452D01*
X241570Y642505D01*
X241501Y642565D01*
X241470Y642577D01*
X241444Y642596D01*
X241357Y642623D01*
X241272Y642657D01*
X241232Y642661D01*
X241209Y642668D01*
X241177Y642667D01*
X241106Y642675D01*
X199918Y642675D01*
X199025Y643568D01*
X199025Y664432D01*
X199918Y665325D01*
X276082Y665325D01*
X276975Y664432D01*
X276975Y643568D01*
X276082Y642675D01*
X259066Y642675D01*
X258995Y642664D01*
X258924Y642662D01*
X258875Y642644D01*
X258823Y642636D01*
X258760Y642602D01*
X258693Y642577D01*
X258652Y642545D01*
X258606Y642520D01*
X258557Y642468D01*
X258501Y642424D01*
X258473Y642380D01*
X258437Y642342D01*
X258407Y642277D01*
X258368Y642217D01*
X258355Y642166D01*
X258333Y642119D01*
X258325Y642048D01*
X258308Y641978D01*
X258312Y641926D01*
X258306Y641875D01*
X258321Y641804D01*
X258327Y641733D01*
X258347Y641685D01*
X258358Y641634D01*
X258395Y641573D01*
X258423Y641507D01*
X258468Y641451D01*
X258484Y641423D01*
X258502Y641408D01*
X258528Y641376D01*
X389738Y510166D01*
X390196Y509059D01*
X390258Y508959D01*
X390318Y508859D01*
X390323Y508855D01*
X390326Y508850D01*
X390417Y508775D01*
X390505Y508699D01*
X390511Y508697D01*
X390516Y508693D01*
X390624Y508651D01*
X390733Y508607D01*
X390741Y508606D01*
X390745Y508605D01*
X390763Y508604D01*
X390900Y508589D01*
X466112Y508589D01*
X468166Y507738D01*
X502738Y473166D01*
X503589Y471112D01*
X503589Y456086D01*
X503592Y456066D01*
X503590Y456047D01*
X503612Y455945D01*
X503628Y455843D01*
X503638Y455826D01*
X503642Y455806D01*
X503695Y455717D01*
X503744Y455626D01*
X503758Y455612D01*
X503768Y455595D01*
X503847Y455528D01*
X503922Y455456D01*
X503940Y455448D01*
X503955Y455435D01*
X504051Y455396D01*
X504145Y455353D01*
X504165Y455351D01*
X504183Y455343D01*
X504350Y455325D01*
X536082Y455325D01*
X536975Y454432D01*
X536975Y433568D01*
X536082Y432675D01*
X459918Y432675D01*
G37*
%LPD*%
%LPC*%
G36*
X285918Y675675D02*
X285918Y675675D01*
X285025Y676568D01*
X285025Y697432D01*
X285918Y698325D01*
X302934Y698325D01*
X303005Y698336D01*
X303076Y698338D01*
X303125Y698356D01*
X303177Y698364D01*
X303240Y698398D01*
X303307Y698423D01*
X303348Y698455D01*
X303394Y698480D01*
X303443Y698531D01*
X303499Y698576D01*
X303527Y698620D01*
X303563Y698658D01*
X303593Y698723D01*
X303632Y698783D01*
X303645Y698834D01*
X303667Y698881D01*
X303675Y698952D01*
X303692Y699022D01*
X303688Y699074D01*
X303694Y699125D01*
X303679Y699196D01*
X303673Y699267D01*
X303653Y699315D01*
X303642Y699366D01*
X303605Y699427D01*
X303577Y699493D01*
X303532Y699549D01*
X303516Y699577D01*
X303511Y699581D01*
X303510Y699583D01*
X303496Y699595D01*
X303472Y699624D01*
X167908Y835188D01*
X167834Y835241D01*
X167765Y835301D01*
X167734Y835313D01*
X167708Y835332D01*
X167621Y835359D01*
X167536Y835393D01*
X167496Y835397D01*
X167473Y835404D01*
X167441Y835403D01*
X167370Y835411D01*
X121888Y835411D01*
X119834Y836262D01*
X70644Y885452D01*
X70570Y885505D01*
X70501Y885565D01*
X70470Y885577D01*
X70444Y885596D01*
X70357Y885623D01*
X70272Y885657D01*
X70232Y885661D01*
X70209Y885668D01*
X70177Y885667D01*
X70106Y885675D01*
X28918Y885675D01*
X28025Y886568D01*
X28025Y907432D01*
X28918Y908325D01*
X60650Y908325D01*
X60670Y908328D01*
X60689Y908326D01*
X60791Y908348D01*
X60893Y908364D01*
X60910Y908374D01*
X60930Y908378D01*
X61019Y908431D01*
X61110Y908480D01*
X61124Y908494D01*
X61141Y908504D01*
X61208Y908583D01*
X61280Y908658D01*
X61288Y908676D01*
X61301Y908691D01*
X61340Y908787D01*
X61383Y908881D01*
X61385Y908901D01*
X61393Y908919D01*
X61411Y909086D01*
X61411Y929112D01*
X61635Y929653D01*
X61650Y929716D01*
X61675Y929777D01*
X61684Y929860D01*
X61691Y929892D01*
X61690Y929911D01*
X61693Y929944D01*
X61693Y930198D01*
X61873Y930378D01*
X61911Y930431D01*
X61957Y930478D01*
X61997Y930551D01*
X62017Y930578D01*
X62022Y930596D01*
X62038Y930625D01*
X62262Y931166D01*
X63834Y932738D01*
X64375Y932962D01*
X64431Y932997D01*
X64491Y933022D01*
X64556Y933074D01*
X64584Y933092D01*
X64597Y933107D01*
X64622Y933127D01*
X64802Y933307D01*
X65056Y933307D01*
X65121Y933317D01*
X65186Y933318D01*
X65266Y933341D01*
X65299Y933346D01*
X65316Y933356D01*
X65347Y933365D01*
X65888Y933589D01*
X68112Y933589D01*
X68653Y933365D01*
X68716Y933350D01*
X68777Y933325D01*
X68860Y933316D01*
X68892Y933309D01*
X68911Y933310D01*
X68944Y933307D01*
X69198Y933307D01*
X69378Y933127D01*
X69431Y933089D01*
X69478Y933043D01*
X69551Y933003D01*
X69578Y932983D01*
X69596Y932978D01*
X69625Y932962D01*
X70166Y932738D01*
X71738Y931166D01*
X71962Y930625D01*
X71997Y930569D01*
X72022Y930509D01*
X72074Y930444D01*
X72092Y930416D01*
X72107Y930403D01*
X72127Y930378D01*
X72307Y930198D01*
X72307Y929944D01*
X72317Y929879D01*
X72318Y929814D01*
X72341Y929734D01*
X72346Y929701D01*
X72356Y929684D01*
X72365Y929653D01*
X72589Y929112D01*
X72589Y909086D01*
X72592Y909066D01*
X72590Y909047D01*
X72612Y908945D01*
X72628Y908843D01*
X72638Y908826D01*
X72642Y908806D01*
X72695Y908717D01*
X72744Y908626D01*
X72758Y908612D01*
X72768Y908595D01*
X72847Y908528D01*
X72922Y908456D01*
X72940Y908448D01*
X72955Y908435D01*
X73051Y908396D01*
X73145Y908353D01*
X73165Y908351D01*
X73183Y908343D01*
X73350Y908325D01*
X105082Y908325D01*
X105975Y907432D01*
X105975Y886568D01*
X105082Y885675D01*
X88066Y885675D01*
X87995Y885664D01*
X87924Y885662D01*
X87875Y885644D01*
X87823Y885636D01*
X87760Y885602D01*
X87693Y885577D01*
X87652Y885545D01*
X87606Y885520D01*
X87557Y885468D01*
X87501Y885424D01*
X87473Y885380D01*
X87437Y885342D01*
X87407Y885277D01*
X87368Y885217D01*
X87355Y885166D01*
X87333Y885119D01*
X87325Y885048D01*
X87308Y884978D01*
X87312Y884926D01*
X87306Y884875D01*
X87321Y884804D01*
X87327Y884733D01*
X87347Y884685D01*
X87358Y884634D01*
X87395Y884573D01*
X87423Y884507D01*
X87468Y884451D01*
X87484Y884423D01*
X87502Y884408D01*
X87528Y884376D01*
X125092Y846812D01*
X125166Y846759D01*
X125235Y846699D01*
X125266Y846687D01*
X125292Y846668D01*
X125379Y846641D01*
X125464Y846607D01*
X125504Y846603D01*
X125527Y846596D01*
X125559Y846597D01*
X125630Y846589D01*
X171112Y846589D01*
X173166Y845738D01*
X174845Y844059D01*
X320356Y698548D01*
X320430Y698495D01*
X320499Y698435D01*
X320530Y698423D01*
X320556Y698404D01*
X320643Y698377D01*
X320728Y698343D01*
X320768Y698339D01*
X320791Y698332D01*
X320823Y698333D01*
X320894Y698325D01*
X362082Y698325D01*
X362975Y697432D01*
X362975Y676568D01*
X362082Y675675D01*
X285918Y675675D01*
G37*
%LPD*%
%LPC*%
G36*
X505568Y17025D02*
X505568Y17025D01*
X504675Y17918D01*
X504675Y43775D01*
X504661Y43866D01*
X504653Y43956D01*
X504641Y43986D01*
X504636Y44018D01*
X504593Y44099D01*
X504557Y44183D01*
X504531Y44215D01*
X504520Y44236D01*
X504497Y44258D01*
X504452Y44314D01*
X503713Y45053D01*
X503713Y56290D01*
X503694Y56404D01*
X503677Y56521D01*
X503675Y56526D01*
X503674Y56532D01*
X503619Y56635D01*
X503566Y56740D01*
X503561Y56744D01*
X503558Y56750D01*
X503474Y56830D01*
X503390Y56912D01*
X503384Y56916D01*
X503380Y56919D01*
X503363Y56927D01*
X503243Y56993D01*
X502259Y57401D01*
X439624Y120035D01*
X439566Y120077D01*
X439514Y120126D01*
X439467Y120148D01*
X439425Y120179D01*
X439356Y120200D01*
X439291Y120230D01*
X439239Y120236D01*
X439189Y120251D01*
X439118Y120249D01*
X439047Y120257D01*
X438996Y120246D01*
X438944Y120245D01*
X438876Y120220D01*
X438806Y120205D01*
X438761Y120178D01*
X438713Y120160D01*
X438657Y120115D01*
X438595Y120079D01*
X438561Y120039D01*
X438521Y120007D01*
X438482Y119946D01*
X438435Y119892D01*
X438416Y119843D01*
X438388Y119800D01*
X438370Y119730D01*
X438343Y119664D01*
X438335Y119592D01*
X438327Y119561D01*
X438329Y119538D01*
X438325Y119497D01*
X438325Y103918D01*
X437432Y103025D01*
X416568Y103025D01*
X415675Y103918D01*
X415675Y180082D01*
X416568Y180975D01*
X437432Y180975D01*
X438325Y180082D01*
X438325Y140331D01*
X438328Y140313D01*
X438326Y140295D01*
X438341Y140227D01*
X438347Y140150D01*
X438359Y140120D01*
X438364Y140088D01*
X438375Y140068D01*
X438378Y140055D01*
X438410Y140001D01*
X438443Y139924D01*
X438469Y139892D01*
X438480Y139871D01*
X438499Y139853D01*
X438504Y139844D01*
X438513Y139836D01*
X438548Y139793D01*
X503376Y74965D01*
X503434Y74923D01*
X503486Y74874D01*
X503533Y74852D01*
X503575Y74821D01*
X503644Y74800D01*
X503709Y74770D01*
X503761Y74764D01*
X503811Y74749D01*
X503882Y74751D01*
X503953Y74743D01*
X504004Y74754D01*
X504056Y74755D01*
X504124Y74780D01*
X504194Y74795D01*
X504239Y74822D01*
X504287Y74840D01*
X504343Y74885D01*
X504405Y74921D01*
X504439Y74961D01*
X504479Y74993D01*
X504518Y75054D01*
X504565Y75108D01*
X504584Y75157D01*
X504612Y75200D01*
X504630Y75270D01*
X504657Y75336D01*
X504665Y75408D01*
X504673Y75439D01*
X504671Y75462D01*
X504675Y75503D01*
X504675Y94082D01*
X505568Y94975D01*
X526432Y94975D01*
X527325Y94082D01*
X527325Y17918D01*
X526432Y17025D01*
X505568Y17025D01*
G37*
%LPD*%
%LPC*%
G36*
X295568Y17025D02*
X295568Y17025D01*
X294675Y17918D01*
X294675Y94082D01*
X295568Y94975D01*
X316432Y94975D01*
X317325Y94082D01*
X317325Y75503D01*
X317336Y75432D01*
X317338Y75361D01*
X317356Y75312D01*
X317364Y75260D01*
X317398Y75197D01*
X317423Y75130D01*
X317455Y75089D01*
X317480Y75043D01*
X317532Y74994D01*
X317576Y74938D01*
X317620Y74909D01*
X317658Y74874D01*
X317723Y74843D01*
X317783Y74805D01*
X317834Y74792D01*
X317881Y74770D01*
X317952Y74762D01*
X318022Y74745D01*
X318074Y74749D01*
X318125Y74743D01*
X318196Y74758D01*
X318267Y74764D01*
X318315Y74784D01*
X318366Y74795D01*
X318427Y74832D01*
X318493Y74860D01*
X318549Y74905D01*
X318577Y74921D01*
X318592Y74939D01*
X318624Y74965D01*
X383452Y139793D01*
X383504Y139865D01*
X383544Y139906D01*
X383548Y139917D01*
X383565Y139936D01*
X383577Y139966D01*
X383596Y139993D01*
X383620Y140071D01*
X383647Y140129D01*
X383649Y140145D01*
X383657Y140164D01*
X383661Y140205D01*
X383668Y140228D01*
X383667Y140260D01*
X383675Y140331D01*
X383675Y180082D01*
X384568Y180975D01*
X405432Y180975D01*
X406325Y180082D01*
X406325Y103918D01*
X405432Y103025D01*
X384568Y103025D01*
X383675Y103918D01*
X383675Y119497D01*
X383664Y119568D01*
X383662Y119639D01*
X383644Y119688D01*
X383636Y119740D01*
X383602Y119803D01*
X383577Y119870D01*
X383545Y119911D01*
X383520Y119957D01*
X383468Y120006D01*
X383424Y120062D01*
X383380Y120091D01*
X383342Y120126D01*
X383277Y120157D01*
X383217Y120195D01*
X383166Y120208D01*
X383119Y120230D01*
X383048Y120238D01*
X382978Y120255D01*
X382926Y120251D01*
X382875Y120257D01*
X382804Y120242D01*
X382733Y120236D01*
X382685Y120216D01*
X382634Y120205D01*
X382573Y120168D01*
X382507Y120140D01*
X382451Y120095D01*
X382423Y120079D01*
X382408Y120061D01*
X382376Y120035D01*
X317548Y55207D01*
X317495Y55133D01*
X317435Y55064D01*
X317423Y55034D01*
X317404Y55007D01*
X317377Y54920D01*
X317343Y54836D01*
X317339Y54795D01*
X317332Y54772D01*
X317333Y54740D01*
X317325Y54669D01*
X317325Y17918D01*
X316432Y17025D01*
X295568Y17025D01*
G37*
%LPD*%
%LPC*%
G36*
X371918Y642675D02*
X371918Y642675D01*
X371025Y643568D01*
X371025Y664432D01*
X371918Y665325D01*
X448082Y665325D01*
X448975Y664432D01*
X448975Y661366D01*
X448978Y661346D01*
X448976Y661327D01*
X448998Y661225D01*
X449014Y661123D01*
X449024Y661106D01*
X449028Y661086D01*
X449081Y660997D01*
X449130Y660906D01*
X449144Y660892D01*
X449154Y660875D01*
X449233Y660808D01*
X449308Y660736D01*
X449326Y660728D01*
X449341Y660715D01*
X449437Y660676D01*
X449531Y660633D01*
X449551Y660631D01*
X449569Y660623D01*
X449736Y660605D01*
X458264Y660605D01*
X458284Y660608D01*
X458303Y660606D01*
X458405Y660628D01*
X458507Y660644D01*
X458524Y660654D01*
X458544Y660658D01*
X458633Y660711D01*
X458724Y660760D01*
X458738Y660774D01*
X458755Y660784D01*
X458822Y660863D01*
X458894Y660938D01*
X458902Y660956D01*
X458915Y660971D01*
X458954Y661067D01*
X458997Y661161D01*
X458999Y661181D01*
X459007Y661199D01*
X459025Y661366D01*
X459025Y664432D01*
X459918Y665325D01*
X536082Y665325D01*
X536975Y664432D01*
X536975Y643568D01*
X536082Y642675D01*
X459918Y642675D01*
X459025Y643568D01*
X459025Y646634D01*
X459022Y646654D01*
X459024Y646673D01*
X459002Y646775D01*
X458986Y646877D01*
X458976Y646894D01*
X458972Y646914D01*
X458919Y647003D01*
X458870Y647094D01*
X458856Y647108D01*
X458846Y647125D01*
X458767Y647192D01*
X458692Y647264D01*
X458674Y647272D01*
X458659Y647285D01*
X458563Y647324D01*
X458469Y647367D01*
X458449Y647369D01*
X458431Y647377D01*
X458264Y647395D01*
X449736Y647395D01*
X449716Y647392D01*
X449697Y647394D01*
X449595Y647372D01*
X449493Y647356D01*
X449476Y647346D01*
X449456Y647342D01*
X449367Y647289D01*
X449276Y647240D01*
X449262Y647226D01*
X449245Y647216D01*
X449178Y647137D01*
X449106Y647062D01*
X449098Y647044D01*
X449085Y647029D01*
X449046Y646933D01*
X449003Y646839D01*
X449001Y646819D01*
X448993Y646801D01*
X448975Y646634D01*
X448975Y643568D01*
X448082Y642675D01*
X371918Y642675D01*
G37*
%LPD*%
%LPC*%
G36*
X372918Y675675D02*
X372918Y675675D01*
X372025Y676568D01*
X372025Y697432D01*
X372918Y698325D01*
X449082Y698325D01*
X449975Y697432D01*
X449975Y694366D01*
X449978Y694346D01*
X449976Y694327D01*
X449998Y694225D01*
X450014Y694123D01*
X450024Y694106D01*
X450028Y694086D01*
X450081Y693997D01*
X450130Y693906D01*
X450144Y693892D01*
X450154Y693875D01*
X450233Y693808D01*
X450308Y693736D01*
X450326Y693728D01*
X450341Y693715D01*
X450437Y693676D01*
X450531Y693633D01*
X450551Y693631D01*
X450569Y693623D01*
X450736Y693605D01*
X458264Y693605D01*
X458284Y693608D01*
X458303Y693606D01*
X458405Y693628D01*
X458507Y693644D01*
X458524Y693654D01*
X458544Y693658D01*
X458633Y693711D01*
X458724Y693760D01*
X458738Y693774D01*
X458755Y693784D01*
X458822Y693863D01*
X458894Y693938D01*
X458902Y693956D01*
X458915Y693971D01*
X458954Y694067D01*
X458997Y694161D01*
X458999Y694181D01*
X459007Y694199D01*
X459025Y694366D01*
X459025Y697432D01*
X459918Y698325D01*
X536082Y698325D01*
X536975Y697432D01*
X536975Y676568D01*
X536082Y675675D01*
X459918Y675675D01*
X459025Y676568D01*
X459025Y679634D01*
X459022Y679654D01*
X459024Y679673D01*
X459002Y679775D01*
X458986Y679877D01*
X458976Y679894D01*
X458972Y679914D01*
X458919Y680003D01*
X458870Y680094D01*
X458856Y680108D01*
X458846Y680125D01*
X458767Y680192D01*
X458692Y680264D01*
X458674Y680272D01*
X458659Y680285D01*
X458563Y680324D01*
X458469Y680367D01*
X458449Y680369D01*
X458431Y680377D01*
X458264Y680395D01*
X450736Y680395D01*
X450716Y680392D01*
X450697Y680394D01*
X450595Y680372D01*
X450493Y680356D01*
X450476Y680346D01*
X450456Y680342D01*
X450367Y680289D01*
X450276Y680240D01*
X450262Y680226D01*
X450245Y680216D01*
X450178Y680137D01*
X450106Y680062D01*
X450098Y680044D01*
X450085Y680029D01*
X450046Y679933D01*
X450003Y679839D01*
X450001Y679819D01*
X449993Y679801D01*
X449975Y679634D01*
X449975Y676568D01*
X449082Y675675D01*
X372918Y675675D01*
G37*
%LPD*%
%LPC*%
G36*
X285918Y885675D02*
X285918Y885675D01*
X285025Y886568D01*
X285025Y907432D01*
X285918Y908325D01*
X362082Y908325D01*
X362975Y907432D01*
X362975Y904366D01*
X362978Y904346D01*
X362976Y904327D01*
X362998Y904225D01*
X363014Y904123D01*
X363024Y904106D01*
X363028Y904086D01*
X363081Y903997D01*
X363130Y903906D01*
X363144Y903892D01*
X363154Y903875D01*
X363233Y903808D01*
X363308Y903736D01*
X363326Y903728D01*
X363341Y903715D01*
X363437Y903676D01*
X363531Y903633D01*
X363551Y903631D01*
X363569Y903623D01*
X363736Y903605D01*
X371264Y903605D01*
X371284Y903608D01*
X371303Y903606D01*
X371405Y903628D01*
X371507Y903644D01*
X371524Y903654D01*
X371544Y903658D01*
X371633Y903711D01*
X371724Y903760D01*
X371738Y903774D01*
X371755Y903784D01*
X371822Y903863D01*
X371894Y903938D01*
X371902Y903956D01*
X371915Y903971D01*
X371954Y904067D01*
X371997Y904161D01*
X371999Y904181D01*
X372007Y904199D01*
X372025Y904366D01*
X372025Y907432D01*
X372918Y908325D01*
X449082Y908325D01*
X449975Y907432D01*
X449975Y886568D01*
X449082Y885675D01*
X372918Y885675D01*
X372025Y886568D01*
X372025Y889634D01*
X372022Y889654D01*
X372024Y889673D01*
X372002Y889775D01*
X371986Y889877D01*
X371976Y889894D01*
X371972Y889914D01*
X371919Y890003D01*
X371870Y890094D01*
X371856Y890108D01*
X371846Y890125D01*
X371767Y890192D01*
X371692Y890264D01*
X371674Y890272D01*
X371659Y890285D01*
X371563Y890324D01*
X371469Y890367D01*
X371449Y890369D01*
X371431Y890377D01*
X371264Y890395D01*
X363736Y890395D01*
X363716Y890392D01*
X363697Y890394D01*
X363595Y890372D01*
X363493Y890356D01*
X363476Y890346D01*
X363456Y890342D01*
X363367Y890289D01*
X363276Y890240D01*
X363262Y890226D01*
X363245Y890216D01*
X363178Y890137D01*
X363106Y890062D01*
X363098Y890044D01*
X363085Y890029D01*
X363046Y889933D01*
X363003Y889839D01*
X363001Y889819D01*
X362993Y889801D01*
X362975Y889634D01*
X362975Y886568D01*
X362082Y885675D01*
X285918Y885675D01*
G37*
%LPD*%
%LPC*%
G36*
X285918Y398675D02*
X285918Y398675D01*
X285025Y399568D01*
X285025Y420432D01*
X285918Y421325D01*
X362082Y421325D01*
X362975Y420432D01*
X362975Y417366D01*
X362978Y417346D01*
X362976Y417327D01*
X362998Y417225D01*
X363014Y417123D01*
X363024Y417106D01*
X363028Y417086D01*
X363081Y416997D01*
X363130Y416906D01*
X363144Y416892D01*
X363154Y416875D01*
X363233Y416808D01*
X363308Y416736D01*
X363326Y416728D01*
X363341Y416715D01*
X363437Y416676D01*
X363531Y416633D01*
X363551Y416631D01*
X363569Y416623D01*
X363736Y416605D01*
X371264Y416605D01*
X371284Y416608D01*
X371303Y416606D01*
X371405Y416628D01*
X371507Y416644D01*
X371524Y416654D01*
X371544Y416658D01*
X371633Y416711D01*
X371724Y416760D01*
X371738Y416774D01*
X371755Y416784D01*
X371822Y416863D01*
X371894Y416938D01*
X371902Y416956D01*
X371915Y416971D01*
X371954Y417067D01*
X371997Y417161D01*
X371999Y417181D01*
X372007Y417199D01*
X372025Y417366D01*
X372025Y421432D01*
X372918Y422325D01*
X449082Y422325D01*
X449975Y421432D01*
X449975Y400568D01*
X449082Y399675D01*
X372918Y399675D01*
X372025Y400568D01*
X372025Y402634D01*
X372022Y402654D01*
X372024Y402673D01*
X372002Y402775D01*
X371986Y402877D01*
X371976Y402894D01*
X371972Y402914D01*
X371919Y403003D01*
X371870Y403094D01*
X371856Y403108D01*
X371846Y403125D01*
X371767Y403192D01*
X371692Y403264D01*
X371674Y403272D01*
X371659Y403285D01*
X371563Y403324D01*
X371469Y403367D01*
X371449Y403369D01*
X371431Y403377D01*
X371264Y403395D01*
X363736Y403395D01*
X363716Y403392D01*
X363697Y403394D01*
X363595Y403372D01*
X363493Y403356D01*
X363476Y403346D01*
X363456Y403342D01*
X363367Y403289D01*
X363276Y403240D01*
X363262Y403226D01*
X363245Y403216D01*
X363178Y403137D01*
X363106Y403062D01*
X363098Y403044D01*
X363085Y403029D01*
X363046Y402933D01*
X363003Y402839D01*
X363001Y402819D01*
X362993Y402801D01*
X362975Y402634D01*
X362975Y399568D01*
X362082Y398675D01*
X285918Y398675D01*
G37*
%LPD*%
%LPC*%
G36*
X372918Y189675D02*
X372918Y189675D01*
X372025Y190568D01*
X372025Y211432D01*
X372918Y212325D01*
X449082Y212325D01*
X449975Y211432D01*
X449975Y208366D01*
X449978Y208346D01*
X449976Y208327D01*
X449998Y208225D01*
X450014Y208123D01*
X450024Y208106D01*
X450028Y208086D01*
X450081Y207997D01*
X450130Y207906D01*
X450144Y207892D01*
X450154Y207875D01*
X450233Y207808D01*
X450308Y207736D01*
X450326Y207728D01*
X450341Y207715D01*
X450437Y207676D01*
X450531Y207633D01*
X450551Y207631D01*
X450569Y207623D01*
X450736Y207605D01*
X458264Y207605D01*
X458284Y207608D01*
X458303Y207606D01*
X458405Y207628D01*
X458507Y207644D01*
X458524Y207654D01*
X458544Y207658D01*
X458633Y207711D01*
X458724Y207760D01*
X458738Y207774D01*
X458755Y207784D01*
X458822Y207863D01*
X458894Y207938D01*
X458902Y207956D01*
X458915Y207971D01*
X458954Y208067D01*
X458997Y208161D01*
X458999Y208181D01*
X459007Y208199D01*
X459025Y208366D01*
X459025Y211432D01*
X459918Y212325D01*
X536082Y212325D01*
X536975Y211432D01*
X536975Y190568D01*
X536082Y189675D01*
X459918Y189675D01*
X459025Y190568D01*
X459025Y193634D01*
X459023Y193649D01*
X459024Y193661D01*
X459023Y193666D01*
X459024Y193673D01*
X459002Y193775D01*
X458986Y193877D01*
X458976Y193894D01*
X458972Y193914D01*
X458919Y194003D01*
X458870Y194094D01*
X458856Y194108D01*
X458846Y194125D01*
X458767Y194192D01*
X458692Y194264D01*
X458674Y194272D01*
X458659Y194285D01*
X458563Y194324D01*
X458469Y194367D01*
X458449Y194369D01*
X458431Y194377D01*
X458264Y194395D01*
X450736Y194395D01*
X450716Y194392D01*
X450697Y194394D01*
X450595Y194372D01*
X450493Y194356D01*
X450476Y194346D01*
X450456Y194342D01*
X450367Y194289D01*
X450276Y194240D01*
X450262Y194226D01*
X450245Y194216D01*
X450178Y194137D01*
X450106Y194062D01*
X450098Y194044D01*
X450085Y194029D01*
X450046Y193933D01*
X450003Y193839D01*
X450001Y193819D01*
X449993Y193801D01*
X449975Y193634D01*
X449975Y190568D01*
X449082Y189675D01*
X372918Y189675D01*
G37*
%LPD*%
%LPC*%
G36*
X631918Y399675D02*
X631918Y399675D01*
X631025Y400568D01*
X631025Y421432D01*
X631918Y422325D01*
X708082Y422325D01*
X708975Y421432D01*
X708975Y418366D01*
X708978Y418346D01*
X708976Y418327D01*
X708998Y418225D01*
X709014Y418123D01*
X709024Y418106D01*
X709028Y418086D01*
X709081Y417997D01*
X709130Y417906D01*
X709144Y417892D01*
X709154Y417875D01*
X709233Y417808D01*
X709308Y417736D01*
X709326Y417728D01*
X709341Y417715D01*
X709437Y417676D01*
X709531Y417633D01*
X709551Y417631D01*
X709569Y417623D01*
X709736Y417605D01*
X716264Y417605D01*
X716284Y417608D01*
X716303Y417606D01*
X716405Y417628D01*
X716507Y417644D01*
X716524Y417654D01*
X716544Y417658D01*
X716633Y417711D01*
X716724Y417760D01*
X716738Y417774D01*
X716755Y417784D01*
X716822Y417863D01*
X716894Y417938D01*
X716902Y417956D01*
X716915Y417971D01*
X716954Y418067D01*
X716997Y418161D01*
X716999Y418181D01*
X717007Y418199D01*
X717025Y418366D01*
X717025Y421432D01*
X717918Y422325D01*
X794082Y422325D01*
X794975Y421432D01*
X794975Y400568D01*
X794082Y399675D01*
X717918Y399675D01*
X717025Y400568D01*
X717025Y403634D01*
X717022Y403654D01*
X717024Y403673D01*
X717002Y403775D01*
X716986Y403877D01*
X716976Y403894D01*
X716972Y403914D01*
X716919Y404003D01*
X716870Y404094D01*
X716856Y404108D01*
X716846Y404125D01*
X716767Y404192D01*
X716692Y404264D01*
X716674Y404272D01*
X716659Y404285D01*
X716563Y404324D01*
X716469Y404367D01*
X716449Y404369D01*
X716431Y404377D01*
X716264Y404395D01*
X709736Y404395D01*
X709716Y404392D01*
X709697Y404394D01*
X709595Y404372D01*
X709493Y404356D01*
X709476Y404346D01*
X709456Y404342D01*
X709367Y404289D01*
X709276Y404240D01*
X709262Y404226D01*
X709245Y404216D01*
X709178Y404137D01*
X709106Y404062D01*
X709098Y404044D01*
X709085Y404029D01*
X709046Y403933D01*
X709003Y403839D01*
X709001Y403819D01*
X708993Y403801D01*
X708975Y403634D01*
X708975Y400568D01*
X708082Y399675D01*
X631918Y399675D01*
G37*
%LPD*%
%LPC*%
G36*
X546918Y641675D02*
X546918Y641675D01*
X546025Y642568D01*
X546025Y663432D01*
X546918Y664325D01*
X623082Y664325D01*
X623975Y663432D01*
X623975Y660366D01*
X623978Y660346D01*
X623976Y660327D01*
X623998Y660225D01*
X624014Y660123D01*
X624024Y660106D01*
X624028Y660086D01*
X624081Y659997D01*
X624130Y659906D01*
X624144Y659892D01*
X624154Y659875D01*
X624233Y659808D01*
X624308Y659736D01*
X624326Y659728D01*
X624341Y659715D01*
X624437Y659676D01*
X624531Y659633D01*
X624551Y659631D01*
X624569Y659623D01*
X624736Y659605D01*
X631264Y659605D01*
X631284Y659608D01*
X631303Y659606D01*
X631405Y659628D01*
X631507Y659644D01*
X631524Y659654D01*
X631544Y659658D01*
X631633Y659711D01*
X631724Y659760D01*
X631738Y659774D01*
X631755Y659784D01*
X631822Y659863D01*
X631894Y659938D01*
X631902Y659956D01*
X631915Y659971D01*
X631954Y660067D01*
X631997Y660161D01*
X631999Y660181D01*
X632007Y660199D01*
X632025Y660366D01*
X632025Y664432D01*
X632918Y665325D01*
X709082Y665325D01*
X709975Y664432D01*
X709975Y643568D01*
X709082Y642675D01*
X632918Y642675D01*
X632025Y643568D01*
X632025Y645634D01*
X632022Y645654D01*
X632024Y645673D01*
X632002Y645775D01*
X631986Y645877D01*
X631976Y645894D01*
X631972Y645914D01*
X631919Y646003D01*
X631870Y646094D01*
X631856Y646108D01*
X631846Y646125D01*
X631767Y646192D01*
X631692Y646264D01*
X631674Y646272D01*
X631659Y646285D01*
X631563Y646324D01*
X631469Y646367D01*
X631449Y646369D01*
X631431Y646377D01*
X631264Y646395D01*
X624736Y646395D01*
X624716Y646392D01*
X624697Y646394D01*
X624595Y646372D01*
X624493Y646356D01*
X624476Y646346D01*
X624456Y646342D01*
X624367Y646289D01*
X624276Y646240D01*
X624262Y646226D01*
X624245Y646216D01*
X624178Y646137D01*
X624106Y646062D01*
X624098Y646044D01*
X624085Y646029D01*
X624046Y645933D01*
X624003Y645839D01*
X624001Y645819D01*
X623993Y645801D01*
X623975Y645634D01*
X623975Y642568D01*
X623082Y641675D01*
X546918Y641675D01*
G37*
%LPD*%
%LPC*%
G36*
X285918Y431675D02*
X285918Y431675D01*
X285025Y432568D01*
X285025Y453432D01*
X285918Y454325D01*
X362082Y454325D01*
X362975Y453432D01*
X362975Y451366D01*
X362978Y451346D01*
X362976Y451327D01*
X362998Y451225D01*
X363014Y451123D01*
X363024Y451106D01*
X363028Y451086D01*
X363081Y450997D01*
X363130Y450906D01*
X363144Y450892D01*
X363154Y450875D01*
X363233Y450808D01*
X363308Y450736D01*
X363326Y450728D01*
X363341Y450715D01*
X363437Y450676D01*
X363531Y450633D01*
X363551Y450631D01*
X363569Y450623D01*
X363736Y450605D01*
X370264Y450605D01*
X370284Y450608D01*
X370303Y450606D01*
X370405Y450628D01*
X370507Y450644D01*
X370524Y450654D01*
X370544Y450658D01*
X370633Y450711D01*
X370724Y450760D01*
X370738Y450774D01*
X370755Y450784D01*
X370822Y450863D01*
X370894Y450938D01*
X370902Y450956D01*
X370915Y450971D01*
X370954Y451067D01*
X370997Y451161D01*
X370999Y451181D01*
X371007Y451199D01*
X371025Y451366D01*
X371025Y454432D01*
X371918Y455325D01*
X448082Y455325D01*
X448975Y454432D01*
X448975Y433568D01*
X448082Y432675D01*
X371918Y432675D01*
X371025Y433568D01*
X371025Y436634D01*
X371022Y436654D01*
X371024Y436673D01*
X371002Y436775D01*
X370986Y436877D01*
X370976Y436894D01*
X370972Y436914D01*
X370919Y437003D01*
X370870Y437094D01*
X370856Y437108D01*
X370846Y437125D01*
X370767Y437192D01*
X370692Y437264D01*
X370674Y437272D01*
X370659Y437285D01*
X370563Y437324D01*
X370469Y437367D01*
X370449Y437369D01*
X370431Y437377D01*
X370264Y437395D01*
X363736Y437395D01*
X363716Y437392D01*
X363697Y437394D01*
X363595Y437372D01*
X363493Y437356D01*
X363476Y437346D01*
X363456Y437342D01*
X363367Y437289D01*
X363276Y437240D01*
X363262Y437226D01*
X363245Y437216D01*
X363178Y437137D01*
X363106Y437062D01*
X363098Y437044D01*
X363085Y437029D01*
X363046Y436933D01*
X363003Y436839D01*
X363001Y436819D01*
X362993Y436801D01*
X362975Y436634D01*
X362975Y432568D01*
X362082Y431675D01*
X285918Y431675D01*
G37*
%LPD*%
%LPC*%
G36*
X546918Y675675D02*
X546918Y675675D01*
X546025Y676568D01*
X546025Y697432D01*
X546918Y698325D01*
X623082Y698325D01*
X623975Y697432D01*
X623975Y694366D01*
X623978Y694346D01*
X623976Y694327D01*
X623998Y694225D01*
X624014Y694123D01*
X624024Y694106D01*
X624028Y694086D01*
X624081Y693997D01*
X624130Y693906D01*
X624144Y693892D01*
X624154Y693875D01*
X624233Y693808D01*
X624308Y693736D01*
X624326Y693728D01*
X624341Y693715D01*
X624437Y693676D01*
X624531Y693633D01*
X624551Y693631D01*
X624569Y693623D01*
X624736Y693605D01*
X631264Y693605D01*
X631284Y693608D01*
X631303Y693606D01*
X631405Y693628D01*
X631507Y693644D01*
X631524Y693654D01*
X631544Y693658D01*
X631633Y693711D01*
X631724Y693760D01*
X631738Y693774D01*
X631755Y693784D01*
X631822Y693863D01*
X631894Y693938D01*
X631902Y693956D01*
X631915Y693971D01*
X631954Y694067D01*
X631997Y694161D01*
X631999Y694181D01*
X632007Y694199D01*
X632025Y694366D01*
X632025Y697432D01*
X632918Y698325D01*
X709082Y698325D01*
X709975Y697432D01*
X709975Y676568D01*
X709082Y675675D01*
X632918Y675675D01*
X632025Y676568D01*
X632025Y679634D01*
X632022Y679654D01*
X632024Y679673D01*
X632002Y679775D01*
X631986Y679877D01*
X631976Y679894D01*
X631972Y679914D01*
X631919Y680003D01*
X631870Y680094D01*
X631856Y680108D01*
X631846Y680125D01*
X631767Y680192D01*
X631692Y680264D01*
X631674Y680272D01*
X631659Y680285D01*
X631563Y680324D01*
X631469Y680367D01*
X631449Y680369D01*
X631431Y680377D01*
X631264Y680395D01*
X624736Y680395D01*
X624716Y680392D01*
X624697Y680394D01*
X624595Y680372D01*
X624493Y680356D01*
X624476Y680346D01*
X624456Y680342D01*
X624367Y680289D01*
X624276Y680240D01*
X624262Y680226D01*
X624245Y680216D01*
X624178Y680137D01*
X624106Y680062D01*
X624098Y680044D01*
X624085Y680029D01*
X624046Y679933D01*
X624003Y679839D01*
X624001Y679819D01*
X623993Y679801D01*
X623975Y679634D01*
X623975Y676568D01*
X623082Y675675D01*
X546918Y675675D01*
G37*
%LPD*%
%LPC*%
G36*
X113918Y885675D02*
X113918Y885675D01*
X113025Y886568D01*
X113025Y907432D01*
X113918Y908325D01*
X190082Y908325D01*
X190975Y907432D01*
X190975Y904366D01*
X190978Y904346D01*
X190976Y904327D01*
X190998Y904225D01*
X191014Y904123D01*
X191024Y904106D01*
X191028Y904086D01*
X191081Y903997D01*
X191130Y903906D01*
X191144Y903892D01*
X191154Y903875D01*
X191233Y903808D01*
X191308Y903736D01*
X191326Y903728D01*
X191341Y903715D01*
X191437Y903676D01*
X191531Y903633D01*
X191551Y903631D01*
X191569Y903623D01*
X191736Y903605D01*
X198264Y903605D01*
X198284Y903608D01*
X198303Y903606D01*
X198405Y903628D01*
X198507Y903644D01*
X198524Y903654D01*
X198544Y903658D01*
X198633Y903711D01*
X198724Y903760D01*
X198738Y903774D01*
X198755Y903784D01*
X198822Y903863D01*
X198894Y903938D01*
X198902Y903956D01*
X198915Y903971D01*
X198954Y904067D01*
X198997Y904161D01*
X198999Y904181D01*
X199007Y904199D01*
X199025Y904366D01*
X199025Y907432D01*
X199918Y908325D01*
X276082Y908325D01*
X276975Y907432D01*
X276975Y886568D01*
X276082Y885675D01*
X199918Y885675D01*
X199025Y886568D01*
X199025Y889634D01*
X199022Y889654D01*
X199024Y889673D01*
X199002Y889775D01*
X198986Y889877D01*
X198976Y889894D01*
X198972Y889914D01*
X198919Y890003D01*
X198870Y890094D01*
X198856Y890108D01*
X198846Y890125D01*
X198767Y890192D01*
X198692Y890264D01*
X198674Y890272D01*
X198659Y890285D01*
X198563Y890324D01*
X198469Y890367D01*
X198449Y890369D01*
X198431Y890377D01*
X198264Y890395D01*
X191736Y890395D01*
X191716Y890392D01*
X191697Y890394D01*
X191595Y890372D01*
X191493Y890356D01*
X191476Y890346D01*
X191456Y890342D01*
X191367Y890289D01*
X191276Y890240D01*
X191262Y890226D01*
X191245Y890216D01*
X191178Y890137D01*
X191106Y890062D01*
X191098Y890044D01*
X191085Y890029D01*
X191046Y889933D01*
X191003Y889839D01*
X191001Y889819D01*
X190993Y889801D01*
X190975Y889634D01*
X190975Y886568D01*
X190082Y885675D01*
X113918Y885675D01*
G37*
%LPD*%
%LPC*%
G36*
X28918Y642675D02*
X28918Y642675D01*
X28025Y643568D01*
X28025Y664432D01*
X28918Y665325D01*
X105082Y665325D01*
X105975Y664432D01*
X105975Y661366D01*
X105978Y661346D01*
X105976Y661327D01*
X105998Y661225D01*
X106014Y661123D01*
X106024Y661106D01*
X106028Y661086D01*
X106081Y660997D01*
X106130Y660906D01*
X106144Y660892D01*
X106154Y660875D01*
X106233Y660808D01*
X106308Y660736D01*
X106326Y660728D01*
X106341Y660715D01*
X106437Y660676D01*
X106531Y660633D01*
X106551Y660631D01*
X106569Y660623D01*
X106736Y660605D01*
X113264Y660605D01*
X113284Y660608D01*
X113303Y660606D01*
X113405Y660628D01*
X113507Y660644D01*
X113524Y660654D01*
X113544Y660658D01*
X113633Y660711D01*
X113724Y660760D01*
X113738Y660774D01*
X113755Y660784D01*
X113822Y660863D01*
X113894Y660938D01*
X113902Y660956D01*
X113915Y660971D01*
X113954Y661067D01*
X113997Y661161D01*
X113999Y661181D01*
X114007Y661199D01*
X114025Y661366D01*
X114025Y664432D01*
X114918Y665325D01*
X191082Y665325D01*
X191975Y664432D01*
X191975Y643568D01*
X191082Y642675D01*
X114918Y642675D01*
X114025Y643568D01*
X114025Y646634D01*
X114022Y646654D01*
X114024Y646673D01*
X114002Y646775D01*
X113986Y646877D01*
X113976Y646894D01*
X113972Y646914D01*
X113919Y647003D01*
X113870Y647094D01*
X113856Y647108D01*
X113846Y647125D01*
X113767Y647192D01*
X113692Y647264D01*
X113674Y647272D01*
X113659Y647285D01*
X113563Y647324D01*
X113469Y647367D01*
X113449Y647369D01*
X113431Y647377D01*
X113264Y647395D01*
X106736Y647395D01*
X106716Y647392D01*
X106697Y647394D01*
X106595Y647372D01*
X106493Y647356D01*
X106476Y647346D01*
X106456Y647342D01*
X106367Y647289D01*
X106276Y647240D01*
X106262Y647226D01*
X106245Y647216D01*
X106178Y647137D01*
X106106Y647062D01*
X106098Y647044D01*
X106085Y647029D01*
X106046Y646933D01*
X106003Y646839D01*
X106001Y646819D01*
X105993Y646801D01*
X105975Y646634D01*
X105975Y643568D01*
X105082Y642675D01*
X28918Y642675D01*
G37*
%LPD*%
%LPC*%
G36*
X114918Y189675D02*
X114918Y189675D01*
X114025Y190568D01*
X114025Y193634D01*
X114023Y193649D01*
X114024Y193661D01*
X114023Y193666D01*
X114024Y193673D01*
X114002Y193775D01*
X113986Y193877D01*
X113976Y193894D01*
X113972Y193914D01*
X113919Y194003D01*
X113870Y194094D01*
X113856Y194108D01*
X113846Y194125D01*
X113767Y194192D01*
X113692Y194264D01*
X113674Y194272D01*
X113659Y194285D01*
X113563Y194324D01*
X113469Y194367D01*
X113449Y194369D01*
X113431Y194377D01*
X113264Y194395D01*
X106736Y194395D01*
X106716Y194392D01*
X106697Y194394D01*
X106595Y194372D01*
X106493Y194356D01*
X106476Y194346D01*
X106456Y194342D01*
X106367Y194289D01*
X106276Y194240D01*
X106262Y194226D01*
X106245Y194216D01*
X106178Y194137D01*
X106106Y194062D01*
X106098Y194044D01*
X106085Y194029D01*
X106046Y193933D01*
X106003Y193839D01*
X106001Y193819D01*
X105993Y193801D01*
X105975Y193634D01*
X105975Y191568D01*
X105082Y190675D01*
X28918Y190675D01*
X28025Y191568D01*
X28025Y212432D01*
X28918Y213325D01*
X105082Y213325D01*
X105975Y212432D01*
X105975Y208366D01*
X105978Y208346D01*
X105976Y208327D01*
X105998Y208225D01*
X106014Y208123D01*
X106024Y208106D01*
X106028Y208086D01*
X106081Y207997D01*
X106130Y207906D01*
X106144Y207892D01*
X106154Y207875D01*
X106233Y207808D01*
X106308Y207736D01*
X106326Y207728D01*
X106341Y207715D01*
X106437Y207676D01*
X106531Y207633D01*
X106551Y207631D01*
X106569Y207623D01*
X106736Y207605D01*
X113264Y207605D01*
X113284Y207608D01*
X113303Y207606D01*
X113405Y207628D01*
X113507Y207644D01*
X113524Y207654D01*
X113544Y207658D01*
X113633Y207711D01*
X113724Y207760D01*
X113738Y207774D01*
X113755Y207784D01*
X113822Y207863D01*
X113894Y207938D01*
X113902Y207956D01*
X113915Y207971D01*
X113954Y208067D01*
X113997Y208161D01*
X113999Y208181D01*
X114007Y208199D01*
X114025Y208366D01*
X114025Y211432D01*
X114918Y212325D01*
X191082Y212325D01*
X191975Y211432D01*
X191975Y190568D01*
X191082Y189675D01*
X114918Y189675D01*
G37*
%LPD*%
%LPC*%
G36*
X632918Y432675D02*
X632918Y432675D01*
X632025Y433568D01*
X632025Y454432D01*
X632918Y455325D01*
X709082Y455325D01*
X709975Y454432D01*
X709975Y451366D01*
X709978Y451346D01*
X709976Y451327D01*
X709998Y451225D01*
X710014Y451123D01*
X710024Y451106D01*
X710028Y451086D01*
X710081Y450997D01*
X710130Y450906D01*
X710144Y450892D01*
X710154Y450875D01*
X710233Y450808D01*
X710308Y450736D01*
X710326Y450728D01*
X710341Y450715D01*
X710437Y450676D01*
X710531Y450633D01*
X710551Y450631D01*
X710569Y450623D01*
X710736Y450605D01*
X716264Y450605D01*
X716284Y450608D01*
X716303Y450606D01*
X716405Y450628D01*
X716507Y450644D01*
X716524Y450654D01*
X716544Y450658D01*
X716633Y450711D01*
X716724Y450760D01*
X716738Y450774D01*
X716755Y450784D01*
X716822Y450863D01*
X716894Y450938D01*
X716902Y450956D01*
X716915Y450971D01*
X716954Y451067D01*
X716997Y451161D01*
X716999Y451181D01*
X717007Y451199D01*
X717025Y451366D01*
X717025Y454432D01*
X717918Y455325D01*
X794082Y455325D01*
X794975Y454432D01*
X794975Y433568D01*
X794082Y432675D01*
X717918Y432675D01*
X717025Y433568D01*
X717025Y436634D01*
X717022Y436654D01*
X717024Y436673D01*
X717002Y436775D01*
X716986Y436877D01*
X716976Y436894D01*
X716972Y436914D01*
X716919Y437003D01*
X716870Y437094D01*
X716856Y437108D01*
X716846Y437125D01*
X716767Y437192D01*
X716692Y437264D01*
X716674Y437272D01*
X716659Y437285D01*
X716563Y437324D01*
X716469Y437367D01*
X716449Y437369D01*
X716431Y437377D01*
X716264Y437395D01*
X710736Y437395D01*
X710716Y437392D01*
X710697Y437394D01*
X710595Y437372D01*
X710493Y437356D01*
X710476Y437346D01*
X710456Y437342D01*
X710367Y437289D01*
X710276Y437240D01*
X710262Y437226D01*
X710245Y437216D01*
X710178Y437137D01*
X710106Y437062D01*
X710098Y437044D01*
X710085Y437029D01*
X710046Y436933D01*
X710003Y436839D01*
X710001Y436819D01*
X709993Y436801D01*
X709975Y436634D01*
X709975Y433568D01*
X709082Y432675D01*
X632918Y432675D01*
G37*
%LPD*%
%LPC*%
G36*
X114918Y432675D02*
X114918Y432675D01*
X114025Y433568D01*
X114025Y454432D01*
X114918Y455325D01*
X191082Y455325D01*
X191975Y454432D01*
X191975Y451366D01*
X191978Y451346D01*
X191976Y451327D01*
X191998Y451225D01*
X192014Y451123D01*
X192024Y451106D01*
X192028Y451086D01*
X192081Y450997D01*
X192130Y450906D01*
X192144Y450892D01*
X192154Y450875D01*
X192233Y450808D01*
X192308Y450736D01*
X192326Y450728D01*
X192341Y450715D01*
X192437Y450676D01*
X192531Y450633D01*
X192551Y450631D01*
X192569Y450623D01*
X192736Y450605D01*
X198264Y450605D01*
X198284Y450608D01*
X198303Y450606D01*
X198405Y450628D01*
X198507Y450644D01*
X198524Y450654D01*
X198544Y450658D01*
X198633Y450711D01*
X198724Y450760D01*
X198738Y450774D01*
X198755Y450784D01*
X198822Y450863D01*
X198894Y450938D01*
X198902Y450956D01*
X198915Y450971D01*
X198954Y451067D01*
X198997Y451161D01*
X198999Y451181D01*
X199007Y451199D01*
X199025Y451366D01*
X199025Y454432D01*
X199918Y455325D01*
X276082Y455325D01*
X276975Y454432D01*
X276975Y433568D01*
X276082Y432675D01*
X199918Y432675D01*
X199025Y433568D01*
X199025Y436634D01*
X199022Y436654D01*
X199024Y436673D01*
X199002Y436775D01*
X198986Y436877D01*
X198976Y436894D01*
X198972Y436914D01*
X198919Y437003D01*
X198870Y437094D01*
X198856Y437108D01*
X198846Y437125D01*
X198767Y437192D01*
X198692Y437264D01*
X198674Y437272D01*
X198659Y437285D01*
X198563Y437324D01*
X198469Y437367D01*
X198449Y437369D01*
X198431Y437377D01*
X198264Y437395D01*
X192736Y437395D01*
X192716Y437392D01*
X192697Y437394D01*
X192595Y437372D01*
X192493Y437356D01*
X192476Y437346D01*
X192456Y437342D01*
X192367Y437289D01*
X192276Y437240D01*
X192262Y437226D01*
X192245Y437216D01*
X192178Y437137D01*
X192106Y437062D01*
X192098Y437044D01*
X192085Y437029D01*
X192046Y436933D01*
X192003Y436839D01*
X192001Y436819D01*
X191993Y436801D01*
X191975Y436634D01*
X191975Y433568D01*
X191082Y432675D01*
X114918Y432675D01*
G37*
%LPD*%
%LPC*%
G36*
X28918Y675675D02*
X28918Y675675D01*
X28025Y676568D01*
X28025Y697432D01*
X28918Y698325D01*
X105082Y698325D01*
X105975Y697432D01*
X105975Y694366D01*
X105978Y694346D01*
X105976Y694327D01*
X105998Y694225D01*
X106014Y694123D01*
X106024Y694106D01*
X106028Y694086D01*
X106081Y693997D01*
X106130Y693906D01*
X106144Y693892D01*
X106154Y693875D01*
X106233Y693808D01*
X106308Y693736D01*
X106326Y693728D01*
X106341Y693715D01*
X106437Y693676D01*
X106531Y693633D01*
X106551Y693631D01*
X106569Y693623D01*
X106736Y693605D01*
X112264Y693605D01*
X112284Y693608D01*
X112303Y693606D01*
X112405Y693628D01*
X112507Y693644D01*
X112524Y693654D01*
X112544Y693658D01*
X112633Y693711D01*
X112724Y693760D01*
X112738Y693774D01*
X112755Y693784D01*
X112822Y693863D01*
X112894Y693938D01*
X112902Y693956D01*
X112915Y693971D01*
X112954Y694067D01*
X112997Y694161D01*
X112999Y694181D01*
X113007Y694199D01*
X113025Y694366D01*
X113025Y697432D01*
X113918Y698325D01*
X190082Y698325D01*
X190975Y697432D01*
X190975Y676568D01*
X190082Y675675D01*
X113918Y675675D01*
X113025Y676568D01*
X113025Y679634D01*
X113022Y679654D01*
X113024Y679673D01*
X113002Y679775D01*
X112986Y679877D01*
X112976Y679894D01*
X112972Y679914D01*
X112919Y680003D01*
X112870Y680094D01*
X112856Y680108D01*
X112846Y680125D01*
X112767Y680192D01*
X112692Y680264D01*
X112674Y680272D01*
X112659Y680285D01*
X112563Y680324D01*
X112469Y680367D01*
X112449Y680369D01*
X112431Y680377D01*
X112264Y680395D01*
X106736Y680395D01*
X106716Y680392D01*
X106697Y680394D01*
X106595Y680372D01*
X106493Y680356D01*
X106476Y680346D01*
X106456Y680342D01*
X106367Y680289D01*
X106276Y680240D01*
X106262Y680226D01*
X106245Y680216D01*
X106178Y680137D01*
X106106Y680062D01*
X106098Y680044D01*
X106085Y680029D01*
X106046Y679933D01*
X106003Y679839D01*
X106001Y679819D01*
X105993Y679801D01*
X105975Y679634D01*
X105975Y676568D01*
X105082Y675675D01*
X28918Y675675D01*
G37*
%LPD*%
%LPC*%
G36*
X114918Y399675D02*
X114918Y399675D01*
X114025Y400568D01*
X114025Y421432D01*
X114918Y422325D01*
X191082Y422325D01*
X191975Y421432D01*
X191975Y418366D01*
X191978Y418346D01*
X191976Y418327D01*
X191998Y418225D01*
X192014Y418123D01*
X192024Y418106D01*
X192028Y418086D01*
X192081Y417997D01*
X192130Y417906D01*
X192144Y417892D01*
X192154Y417875D01*
X192233Y417808D01*
X192308Y417736D01*
X192326Y417728D01*
X192341Y417715D01*
X192437Y417676D01*
X192531Y417633D01*
X192551Y417631D01*
X192569Y417623D01*
X192736Y417605D01*
X198264Y417605D01*
X198284Y417608D01*
X198303Y417606D01*
X198405Y417628D01*
X198507Y417644D01*
X198524Y417654D01*
X198544Y417658D01*
X198633Y417711D01*
X198724Y417760D01*
X198738Y417774D01*
X198755Y417784D01*
X198822Y417863D01*
X198894Y417938D01*
X198902Y417956D01*
X198915Y417971D01*
X198954Y418067D01*
X198997Y418161D01*
X198999Y418181D01*
X199007Y418199D01*
X199025Y418366D01*
X199025Y421432D01*
X199918Y422325D01*
X276082Y422325D01*
X276975Y421432D01*
X276975Y400568D01*
X276082Y399675D01*
X199918Y399675D01*
X199025Y400568D01*
X199025Y403634D01*
X199022Y403654D01*
X199024Y403673D01*
X199002Y403775D01*
X198986Y403877D01*
X198976Y403894D01*
X198972Y403914D01*
X198919Y404003D01*
X198870Y404094D01*
X198856Y404108D01*
X198846Y404125D01*
X198767Y404192D01*
X198692Y404264D01*
X198674Y404272D01*
X198659Y404285D01*
X198563Y404324D01*
X198469Y404367D01*
X198449Y404369D01*
X198431Y404377D01*
X198264Y404395D01*
X192736Y404395D01*
X192716Y404392D01*
X192697Y404394D01*
X192595Y404372D01*
X192493Y404356D01*
X192476Y404346D01*
X192456Y404342D01*
X192367Y404289D01*
X192276Y404240D01*
X192262Y404226D01*
X192245Y404216D01*
X192178Y404137D01*
X192106Y404062D01*
X192098Y404044D01*
X192085Y404029D01*
X192046Y403933D01*
X192003Y403839D01*
X192001Y403819D01*
X191993Y403801D01*
X191975Y403634D01*
X191975Y400568D01*
X191082Y399675D01*
X114918Y399675D01*
G37*
%LPD*%
%LPC*%
G36*
X631918Y189675D02*
X631918Y189675D01*
X631025Y190568D01*
X631025Y194634D01*
X631022Y194654D01*
X631024Y194673D01*
X631002Y194775D01*
X630986Y194877D01*
X630976Y194894D01*
X630972Y194914D01*
X630919Y195003D01*
X630870Y195094D01*
X630856Y195108D01*
X630846Y195125D01*
X630767Y195192D01*
X630692Y195264D01*
X630674Y195272D01*
X630659Y195285D01*
X630563Y195324D01*
X630469Y195367D01*
X630449Y195369D01*
X630431Y195377D01*
X630264Y195395D01*
X624736Y195395D01*
X624716Y195392D01*
X624697Y195394D01*
X624595Y195372D01*
X624493Y195356D01*
X624476Y195346D01*
X624456Y195342D01*
X624367Y195289D01*
X624276Y195240D01*
X624262Y195226D01*
X624245Y195216D01*
X624178Y195137D01*
X624106Y195062D01*
X624098Y195044D01*
X624085Y195029D01*
X624046Y194933D01*
X624003Y194839D01*
X624001Y194819D01*
X623993Y194801D01*
X623975Y194634D01*
X623975Y191568D01*
X623082Y190675D01*
X546918Y190675D01*
X546025Y191568D01*
X546025Y212432D01*
X546918Y213325D01*
X623082Y213325D01*
X623975Y212432D01*
X623975Y209366D01*
X623978Y209346D01*
X623976Y209327D01*
X623998Y209225D01*
X624014Y209123D01*
X624024Y209106D01*
X624028Y209086D01*
X624081Y208997D01*
X624130Y208906D01*
X624144Y208892D01*
X624154Y208875D01*
X624233Y208808D01*
X624308Y208736D01*
X624326Y208728D01*
X624341Y208715D01*
X624437Y208676D01*
X624531Y208633D01*
X624551Y208631D01*
X624569Y208623D01*
X624736Y208605D01*
X630264Y208605D01*
X630284Y208608D01*
X630303Y208606D01*
X630405Y208628D01*
X630507Y208644D01*
X630524Y208654D01*
X630544Y208658D01*
X630633Y208711D01*
X630724Y208760D01*
X630738Y208774D01*
X630755Y208784D01*
X630822Y208863D01*
X630894Y208938D01*
X630902Y208956D01*
X630915Y208971D01*
X630954Y209067D01*
X630997Y209161D01*
X630999Y209181D01*
X631007Y209199D01*
X631025Y209366D01*
X631025Y211432D01*
X631918Y212325D01*
X708082Y212325D01*
X708975Y211432D01*
X708975Y190568D01*
X708082Y189675D01*
X631918Y189675D01*
G37*
%LPD*%
G36*
X729820Y919403D02*
X729820Y919403D01*
X729911Y919411D01*
X729941Y919423D01*
X729973Y919428D01*
X730054Y919471D01*
X730138Y919507D01*
X730170Y919533D01*
X730190Y919544D01*
X730213Y919567D01*
X730269Y919612D01*
X743395Y932738D01*
X745449Y933589D01*
X798112Y933589D01*
X800166Y932738D01*
X812740Y920164D01*
X812798Y920122D01*
X812850Y920073D01*
X812897Y920051D01*
X812939Y920020D01*
X813008Y919999D01*
X813073Y919969D01*
X813125Y919963D01*
X813175Y919948D01*
X813246Y919950D01*
X813317Y919942D01*
X813368Y919953D01*
X813420Y919954D01*
X813488Y919979D01*
X813558Y919994D01*
X813603Y920021D01*
X813651Y920039D01*
X813707Y920084D01*
X813769Y920120D01*
X813803Y920160D01*
X813843Y920193D01*
X813882Y920253D01*
X813929Y920307D01*
X813948Y920356D01*
X813976Y920399D01*
X813994Y920469D01*
X814021Y920535D01*
X814029Y920607D01*
X814037Y920638D01*
X814035Y920661D01*
X814039Y920702D01*
X814039Y956078D01*
X814036Y956098D01*
X814038Y956117D01*
X814016Y956219D01*
X814000Y956321D01*
X813990Y956338D01*
X813986Y956358D01*
X813933Y956447D01*
X813884Y956538D01*
X813870Y956552D01*
X813860Y956569D01*
X813781Y956636D01*
X813706Y956708D01*
X813688Y956716D01*
X813673Y956729D01*
X813577Y956768D01*
X813483Y956811D01*
X813463Y956813D01*
X813445Y956821D01*
X813278Y956839D01*
X733939Y956839D01*
X733868Y956828D01*
X733796Y956826D01*
X733747Y956808D01*
X733696Y956800D01*
X733632Y956766D01*
X733565Y956741D01*
X733524Y956709D01*
X733478Y956684D01*
X733429Y956632D01*
X733373Y956588D01*
X733345Y956544D01*
X733309Y956506D01*
X733279Y956441D01*
X733240Y956381D01*
X733227Y956330D01*
X733205Y956283D01*
X733198Y956212D01*
X733180Y956142D01*
X733184Y956090D01*
X733178Y956039D01*
X733194Y955968D01*
X733199Y955897D01*
X733219Y955849D01*
X733231Y955798D01*
X733267Y955737D01*
X733295Y955671D01*
X733340Y955615D01*
X733357Y955587D01*
X733375Y955572D01*
X733400Y955540D01*
X735887Y953053D01*
X739261Y944908D01*
X739261Y936092D01*
X735887Y927947D01*
X729653Y921713D01*
X727577Y920853D01*
X727494Y920802D01*
X727409Y920756D01*
X727391Y920738D01*
X727368Y920724D01*
X727306Y920648D01*
X727239Y920578D01*
X727228Y920554D01*
X727212Y920534D01*
X727177Y920443D01*
X727136Y920355D01*
X727133Y920329D01*
X727123Y920305D01*
X727119Y920207D01*
X727108Y920111D01*
X727114Y920085D01*
X727113Y920059D01*
X727140Y919965D01*
X727161Y919870D01*
X727174Y919848D01*
X727181Y919823D01*
X727237Y919743D01*
X727287Y919659D01*
X727307Y919642D01*
X727322Y919621D01*
X727400Y919562D01*
X727474Y919499D01*
X727498Y919489D01*
X727519Y919474D01*
X727612Y919444D01*
X727702Y919407D01*
X727734Y919404D01*
X727753Y919398D01*
X727786Y919398D01*
X727869Y919389D01*
X729730Y919389D01*
X729820Y919403D01*
G37*
%LPC*%
G36*
X58802Y21693D02*
X58802Y21693D01*
X55693Y24802D01*
X55693Y29198D01*
X58802Y32307D01*
X63198Y32307D01*
X64217Y31288D01*
X64291Y31235D01*
X64361Y31175D01*
X64391Y31163D01*
X64417Y31144D01*
X64504Y31117D01*
X64589Y31083D01*
X64630Y31079D01*
X64652Y31072D01*
X64684Y31073D01*
X64755Y31065D01*
X67001Y31065D01*
X67091Y31079D01*
X67182Y31087D01*
X67212Y31099D01*
X67244Y31104D01*
X67324Y31147D01*
X67408Y31183D01*
X67440Y31209D01*
X67461Y31220D01*
X67483Y31243D01*
X67539Y31288D01*
X74350Y38099D01*
X74403Y38173D01*
X74463Y38242D01*
X74475Y38272D01*
X74494Y38298D01*
X74521Y38385D01*
X74555Y38470D01*
X74559Y38511D01*
X74566Y38534D01*
X74565Y38566D01*
X74573Y38637D01*
X74573Y39870D01*
X74571Y39881D01*
X74572Y39889D01*
X74571Y39896D01*
X74572Y39909D01*
X74550Y40011D01*
X74534Y40113D01*
X74524Y40130D01*
X74520Y40150D01*
X74467Y40239D01*
X74418Y40330D01*
X74404Y40344D01*
X74394Y40361D01*
X74315Y40428D01*
X74240Y40500D01*
X74222Y40508D01*
X74207Y40521D01*
X74111Y40560D01*
X74017Y40603D01*
X73997Y40605D01*
X73979Y40613D01*
X73812Y40631D01*
X68100Y40631D01*
X67207Y41524D01*
X67207Y48376D01*
X68100Y49269D01*
X89176Y49269D01*
X90069Y48376D01*
X90069Y41524D01*
X89176Y40631D01*
X83464Y40631D01*
X83444Y40628D01*
X83425Y40630D01*
X83323Y40608D01*
X83221Y40592D01*
X83204Y40582D01*
X83184Y40578D01*
X83095Y40525D01*
X83004Y40476D01*
X82990Y40462D01*
X82973Y40452D01*
X82906Y40373D01*
X82834Y40298D01*
X82826Y40280D01*
X82813Y40265D01*
X82774Y40169D01*
X82731Y40075D01*
X82729Y40055D01*
X82721Y40037D01*
X82703Y39870D01*
X82703Y34954D01*
X70684Y22935D01*
X64755Y22935D01*
X64665Y22921D01*
X64574Y22913D01*
X64545Y22901D01*
X64513Y22896D01*
X64432Y22853D01*
X64348Y22817D01*
X64316Y22791D01*
X64295Y22780D01*
X64273Y22757D01*
X64217Y22712D01*
X63198Y21693D01*
X58802Y21693D01*
G37*
%LPD*%
%LPC*%
G36*
X325523Y654523D02*
X325523Y654523D01*
X325523Y665341D01*
X361784Y665341D01*
X362431Y665168D01*
X363010Y664833D01*
X363483Y664360D01*
X363818Y663781D01*
X363991Y663134D01*
X363991Y654523D01*
X325523Y654523D01*
G37*
%LPD*%
%LPC*%
G36*
X239523Y688523D02*
X239523Y688523D01*
X239523Y699341D01*
X275784Y699341D01*
X276431Y699168D01*
X277010Y698833D01*
X277483Y698360D01*
X277818Y697781D01*
X277991Y697134D01*
X277991Y688523D01*
X239523Y688523D01*
G37*
%LPD*%
%LPC*%
G36*
X757523Y688523D02*
X757523Y688523D01*
X757523Y699341D01*
X793784Y699341D01*
X794431Y699168D01*
X795010Y698833D01*
X795483Y698360D01*
X795818Y697781D01*
X795991Y697134D01*
X795991Y688523D01*
X757523Y688523D01*
G37*
%LPD*%
%LPC*%
G36*
X638523Y143523D02*
X638523Y143523D01*
X638523Y181991D01*
X647134Y181991D01*
X647781Y181818D01*
X648360Y181483D01*
X648833Y181010D01*
X649168Y180431D01*
X649341Y179784D01*
X649341Y143523D01*
X638523Y143523D01*
G37*
%LPD*%
%LPC*%
G36*
X284009Y654523D02*
X284009Y654523D01*
X284009Y663134D01*
X284182Y663781D01*
X284517Y664360D01*
X284990Y664833D01*
X285569Y665168D01*
X286216Y665341D01*
X322477Y665341D01*
X322477Y654523D01*
X284009Y654523D01*
G37*
%LPD*%
%LPC*%
G36*
X458009Y898523D02*
X458009Y898523D01*
X458009Y907134D01*
X458182Y907781D01*
X458517Y908360D01*
X458990Y908833D01*
X459569Y909168D01*
X460216Y909341D01*
X496477Y909341D01*
X496477Y898523D01*
X458009Y898523D01*
G37*
%LPD*%
%LPC*%
G36*
X27009Y445523D02*
X27009Y445523D01*
X27009Y454134D01*
X27182Y454781D01*
X27517Y455360D01*
X27990Y455833D01*
X28569Y456168D01*
X29216Y456341D01*
X65477Y456341D01*
X65477Y445523D01*
X27009Y445523D01*
G37*
%LPD*%
%LPC*%
G36*
X716009Y202523D02*
X716009Y202523D01*
X716009Y211134D01*
X716182Y211781D01*
X716517Y212360D01*
X716990Y212833D01*
X717569Y213168D01*
X718216Y213341D01*
X754477Y213341D01*
X754477Y202523D01*
X716009Y202523D01*
G37*
%LPD*%
%LPC*%
G36*
X545009Y444523D02*
X545009Y444523D01*
X545009Y453134D01*
X545182Y453781D01*
X545517Y454360D01*
X545990Y454833D01*
X546569Y455168D01*
X547216Y455341D01*
X583477Y455341D01*
X583477Y444523D01*
X545009Y444523D01*
G37*
%LPD*%
%LPC*%
G36*
X198009Y688523D02*
X198009Y688523D01*
X198009Y697134D01*
X198182Y697781D01*
X198517Y698360D01*
X198990Y698833D01*
X199569Y699168D01*
X200216Y699341D01*
X236477Y699341D01*
X236477Y688523D01*
X198009Y688523D01*
G37*
%LPD*%
%LPC*%
G36*
X716009Y688523D02*
X716009Y688523D01*
X716009Y697134D01*
X716182Y697781D01*
X716517Y698360D01*
X716990Y698833D01*
X717569Y699168D01*
X718216Y699341D01*
X754477Y699341D01*
X754477Y688523D01*
X716009Y688523D01*
G37*
%LPD*%
%LPC*%
G36*
X458009Y412523D02*
X458009Y412523D01*
X458009Y421134D01*
X458182Y421781D01*
X458517Y422360D01*
X458990Y422833D01*
X459569Y423168D01*
X460216Y423341D01*
X496477Y423341D01*
X496477Y412523D01*
X458009Y412523D01*
G37*
%LPD*%
%LPC*%
G36*
X198009Y202523D02*
X198009Y202523D01*
X198009Y211134D01*
X198182Y211781D01*
X198517Y212360D01*
X198990Y212833D01*
X199569Y213168D01*
X200216Y213341D01*
X236477Y213341D01*
X236477Y202523D01*
X198009Y202523D01*
G37*
%LPD*%
%LPC*%
G36*
X638523Y102009D02*
X638523Y102009D01*
X638523Y140477D01*
X649341Y140477D01*
X649341Y104216D01*
X649168Y103569D01*
X648833Y102990D01*
X648360Y102517D01*
X647781Y102182D01*
X647134Y102009D01*
X638523Y102009D01*
G37*
%LPD*%
%LPC*%
G36*
X757523Y202523D02*
X757523Y202523D01*
X757523Y213341D01*
X793784Y213341D01*
X794431Y213168D01*
X795010Y212833D01*
X795483Y212360D01*
X795818Y211781D01*
X795991Y211134D01*
X795991Y202523D01*
X757523Y202523D01*
G37*
%LPD*%
%LPC*%
G36*
X68523Y445523D02*
X68523Y445523D01*
X68523Y456341D01*
X104784Y456341D01*
X105431Y456168D01*
X106010Y455833D01*
X106483Y455360D01*
X106818Y454781D01*
X106991Y454134D01*
X106991Y445523D01*
X68523Y445523D01*
G37*
%LPD*%
%LPC*%
G36*
X239523Y202523D02*
X239523Y202523D01*
X239523Y213341D01*
X275784Y213341D01*
X276431Y213168D01*
X277010Y212833D01*
X277483Y212360D01*
X277818Y211781D01*
X277991Y211134D01*
X277991Y202523D01*
X239523Y202523D01*
G37*
%LPD*%
%LPC*%
G36*
X586523Y444523D02*
X586523Y444523D01*
X586523Y455341D01*
X622784Y455341D01*
X623431Y455168D01*
X624010Y454833D01*
X624483Y454360D01*
X624818Y453781D01*
X624991Y453134D01*
X624991Y444523D01*
X586523Y444523D01*
G37*
%LPD*%
%LPC*%
G36*
X499523Y898523D02*
X499523Y898523D01*
X499523Y909341D01*
X535784Y909341D01*
X536431Y909168D01*
X537010Y908833D01*
X537483Y908360D01*
X537818Y907781D01*
X537991Y907134D01*
X537991Y898523D01*
X499523Y898523D01*
G37*
%LPD*%
%LPC*%
G36*
X499523Y412523D02*
X499523Y412523D01*
X499523Y423341D01*
X535784Y423341D01*
X536431Y423168D01*
X537010Y422833D01*
X537483Y422360D01*
X537818Y421781D01*
X537991Y421134D01*
X537991Y412523D01*
X499523Y412523D01*
G37*
%LPD*%
%LPC*%
G36*
X499523Y895477D02*
X499523Y895477D01*
X537991Y895477D01*
X537991Y886866D01*
X537818Y886219D01*
X537483Y885640D01*
X537010Y885167D01*
X536431Y884832D01*
X535784Y884659D01*
X499523Y884659D01*
X499523Y895477D01*
G37*
%LPD*%
%LPC*%
G36*
X757523Y199477D02*
X757523Y199477D01*
X795991Y199477D01*
X795991Y190866D01*
X795818Y190219D01*
X795483Y189640D01*
X795010Y189167D01*
X794431Y188832D01*
X793784Y188659D01*
X757523Y188659D01*
X757523Y199477D01*
G37*
%LPD*%
%LPC*%
G36*
X586523Y441477D02*
X586523Y441477D01*
X624991Y441477D01*
X624991Y432866D01*
X624818Y432219D01*
X624483Y431640D01*
X624010Y431167D01*
X623431Y430832D01*
X622784Y430659D01*
X586523Y430659D01*
X586523Y441477D01*
G37*
%LPD*%
%LPC*%
G36*
X499523Y409477D02*
X499523Y409477D01*
X537991Y409477D01*
X537991Y400866D01*
X537818Y400219D01*
X537483Y399640D01*
X537010Y399167D01*
X536431Y398832D01*
X535784Y398659D01*
X499523Y398659D01*
X499523Y409477D01*
G37*
%LPD*%
%LPC*%
G36*
X68523Y442477D02*
X68523Y442477D01*
X106991Y442477D01*
X106991Y433866D01*
X106818Y433219D01*
X106483Y432640D01*
X106010Y432167D01*
X105431Y431832D01*
X104784Y431659D01*
X68523Y431659D01*
X68523Y442477D01*
G37*
%LPD*%
%LPC*%
G36*
X239523Y199477D02*
X239523Y199477D01*
X277991Y199477D01*
X277991Y190866D01*
X277818Y190219D01*
X277483Y189640D01*
X277010Y189167D01*
X276431Y188832D01*
X275784Y188659D01*
X239523Y188659D01*
X239523Y199477D01*
G37*
%LPD*%
%LPC*%
G36*
X239523Y674659D02*
X239523Y674659D01*
X239523Y685477D01*
X277991Y685477D01*
X277991Y676866D01*
X277818Y676219D01*
X277483Y675640D01*
X277010Y675167D01*
X276431Y674832D01*
X275784Y674659D01*
X239523Y674659D01*
G37*
%LPD*%
%LPC*%
G36*
X624659Y143523D02*
X624659Y143523D01*
X624659Y179784D01*
X624832Y180431D01*
X625167Y181010D01*
X625640Y181483D01*
X626219Y181818D01*
X626866Y181991D01*
X635477Y181991D01*
X635477Y143523D01*
X624659Y143523D01*
G37*
%LPD*%
%LPC*%
G36*
X325523Y640659D02*
X325523Y640659D01*
X325523Y651477D01*
X363991Y651477D01*
X363991Y642866D01*
X363818Y642219D01*
X363483Y641640D01*
X363010Y641167D01*
X362431Y640832D01*
X361784Y640659D01*
X325523Y640659D01*
G37*
%LPD*%
%LPC*%
G36*
X626866Y102009D02*
X626866Y102009D01*
X626219Y102182D01*
X625640Y102517D01*
X625167Y102990D01*
X624832Y103569D01*
X624659Y104216D01*
X624659Y140477D01*
X635477Y140477D01*
X635477Y102009D01*
X626866Y102009D01*
G37*
%LPD*%
%LPC*%
G36*
X29216Y431659D02*
X29216Y431659D01*
X28569Y431832D01*
X27990Y432167D01*
X27517Y432640D01*
X27182Y433219D01*
X27009Y433866D01*
X27009Y442477D01*
X65477Y442477D01*
X65477Y431659D01*
X29216Y431659D01*
G37*
%LPD*%
%LPC*%
G36*
X460216Y398659D02*
X460216Y398659D01*
X459569Y398832D01*
X458990Y399167D01*
X458517Y399640D01*
X458182Y400219D01*
X458009Y400866D01*
X458009Y409477D01*
X496477Y409477D01*
X496477Y398659D01*
X460216Y398659D01*
G37*
%LPD*%
%LPC*%
G36*
X718216Y188659D02*
X718216Y188659D01*
X717569Y188832D01*
X716990Y189167D01*
X716517Y189640D01*
X716182Y190219D01*
X716009Y190866D01*
X716009Y199477D01*
X754477Y199477D01*
X754477Y188659D01*
X718216Y188659D01*
G37*
%LPD*%
%LPC*%
G36*
X547216Y430659D02*
X547216Y430659D01*
X546569Y430832D01*
X545990Y431167D01*
X545517Y431640D01*
X545182Y432219D01*
X545009Y432866D01*
X545009Y441477D01*
X583477Y441477D01*
X583477Y430659D01*
X547216Y430659D01*
G37*
%LPD*%
%LPC*%
G36*
X460216Y884659D02*
X460216Y884659D01*
X459569Y884832D01*
X458990Y885167D01*
X458517Y885640D01*
X458182Y886219D01*
X458009Y886866D01*
X458009Y895477D01*
X496477Y895477D01*
X496477Y884659D01*
X460216Y884659D01*
G37*
%LPD*%
%LPC*%
G36*
X200216Y674659D02*
X200216Y674659D01*
X199569Y674832D01*
X198990Y675167D01*
X198517Y675640D01*
X198182Y676219D01*
X198009Y676866D01*
X198009Y685477D01*
X236477Y685477D01*
X236477Y674659D01*
X200216Y674659D01*
G37*
%LPD*%
%LPC*%
G36*
X718216Y674659D02*
X718216Y674659D01*
X717569Y674832D01*
X716990Y675167D01*
X716517Y675640D01*
X716182Y676219D01*
X716009Y676866D01*
X716009Y685477D01*
X754477Y685477D01*
X754477Y674659D01*
X718216Y674659D01*
G37*
%LPD*%
%LPC*%
G36*
X286216Y640659D02*
X286216Y640659D01*
X285569Y640832D01*
X284990Y641167D01*
X284517Y641640D01*
X284182Y642219D01*
X284009Y642866D01*
X284009Y651477D01*
X322477Y651477D01*
X322477Y640659D01*
X286216Y640659D01*
G37*
%LPD*%
%LPC*%
G36*
X200216Y188659D02*
X200216Y188659D01*
X199569Y188832D01*
X198990Y189167D01*
X198517Y189640D01*
X198182Y190219D01*
X198009Y190866D01*
X198009Y199477D01*
X236477Y199477D01*
X236477Y188659D01*
X200216Y188659D01*
G37*
%LPD*%
%LPC*%
G36*
X68100Y66031D02*
X68100Y66031D01*
X67207Y66924D01*
X67207Y73776D01*
X68100Y74669D01*
X89176Y74669D01*
X90069Y73776D01*
X90069Y66924D01*
X89176Y66031D01*
X68100Y66031D01*
G37*
%LPD*%
%LPC*%
G36*
X68100Y53331D02*
X68100Y53331D01*
X67207Y54224D01*
X67207Y61076D01*
X68100Y61969D01*
X89176Y61969D01*
X90069Y61076D01*
X90069Y54224D01*
X89176Y53331D01*
X68100Y53331D01*
G37*
%LPD*%
%LPC*%
G36*
X383802Y322693D02*
X383802Y322693D01*
X380693Y325802D01*
X380693Y330198D01*
X383957Y333462D01*
X383968Y333478D01*
X383984Y333490D01*
X384040Y333578D01*
X384100Y333661D01*
X384106Y333680D01*
X384117Y333697D01*
X384142Y333798D01*
X384173Y333897D01*
X384172Y333916D01*
X384177Y333936D01*
X384169Y334039D01*
X384166Y334142D01*
X384160Y334161D01*
X384158Y334181D01*
X384118Y334276D01*
X384082Y334373D01*
X384069Y334389D01*
X384062Y334407D01*
X383957Y334538D01*
X380693Y337802D01*
X380693Y342198D01*
X383802Y345307D01*
X388198Y345307D01*
X391307Y342198D01*
X391307Y337802D01*
X388043Y334538D01*
X388032Y334522D01*
X388016Y334510D01*
X387960Y334422D01*
X387900Y334339D01*
X387894Y334320D01*
X387883Y334303D01*
X387858Y334202D01*
X387827Y334103D01*
X387828Y334084D01*
X387823Y334064D01*
X387831Y333961D01*
X387834Y333858D01*
X387840Y333839D01*
X387842Y333819D01*
X387882Y333724D01*
X387918Y333627D01*
X387931Y333611D01*
X387938Y333593D01*
X388043Y333462D01*
X391307Y330198D01*
X391307Y325802D01*
X388198Y322693D01*
X383802Y322693D01*
G37*
%LPD*%
%LPC*%
G36*
X80034Y84446D02*
X80034Y84446D01*
X80034Y88385D01*
X88878Y88385D01*
X89525Y88212D01*
X90104Y87877D01*
X90577Y87404D01*
X90912Y86825D01*
X91085Y86178D01*
X91085Y84446D01*
X80034Y84446D01*
G37*
%LPD*%
%LPC*%
G36*
X66191Y84446D02*
X66191Y84446D01*
X66191Y86178D01*
X66364Y86825D01*
X66699Y87404D01*
X67172Y87877D01*
X67751Y88212D01*
X68398Y88385D01*
X77242Y88385D01*
X77242Y84446D01*
X66191Y84446D01*
G37*
%LPD*%
%LPC*%
G36*
X80034Y77715D02*
X80034Y77715D01*
X80034Y81654D01*
X91085Y81654D01*
X91085Y79921D01*
X90912Y79275D01*
X90577Y78696D01*
X90104Y78223D01*
X89525Y77888D01*
X88878Y77715D01*
X80034Y77715D01*
G37*
%LPD*%
%LPC*%
G36*
X68398Y77715D02*
X68398Y77715D01*
X67751Y77888D01*
X67172Y78223D01*
X66699Y78696D01*
X66364Y79275D01*
X66191Y79922D01*
X66191Y81654D01*
X77242Y81654D01*
X77242Y77715D01*
X68398Y77715D01*
G37*
%LPD*%
%LPC*%
G36*
X636999Y141999D02*
X636999Y141999D01*
X636999Y142001D01*
X637001Y142001D01*
X637001Y141999D01*
X636999Y141999D01*
G37*
%LPD*%
%LPC*%
G36*
X323999Y652999D02*
X323999Y652999D01*
X323999Y653001D01*
X324001Y653001D01*
X324001Y652999D01*
X323999Y652999D01*
G37*
%LPD*%
%LPC*%
G36*
X237999Y200999D02*
X237999Y200999D01*
X237999Y201001D01*
X238001Y201001D01*
X238001Y200999D01*
X237999Y200999D01*
G37*
%LPD*%
%LPC*%
G36*
X755999Y686999D02*
X755999Y686999D01*
X755999Y687001D01*
X756001Y687001D01*
X756001Y686999D01*
X755999Y686999D01*
G37*
%LPD*%
%LPC*%
G36*
X755999Y200999D02*
X755999Y200999D01*
X755999Y201001D01*
X756001Y201001D01*
X756001Y200999D01*
X755999Y200999D01*
G37*
%LPD*%
%LPC*%
G36*
X584999Y442999D02*
X584999Y442999D01*
X584999Y443001D01*
X585001Y443001D01*
X585001Y442999D01*
X584999Y442999D01*
G37*
%LPD*%
%LPC*%
G36*
X66999Y443999D02*
X66999Y443999D01*
X66999Y444001D01*
X67001Y444001D01*
X67001Y443999D01*
X66999Y443999D01*
G37*
%LPD*%
%LPC*%
G36*
X497999Y896999D02*
X497999Y896999D01*
X497999Y897001D01*
X498001Y897001D01*
X498001Y896999D01*
X497999Y896999D01*
G37*
%LPD*%
%LPC*%
G36*
X497999Y410999D02*
X497999Y410999D01*
X497999Y411001D01*
X498001Y411001D01*
X498001Y410999D01*
X497999Y410999D01*
G37*
%LPD*%
%LPC*%
G36*
X237999Y686999D02*
X237999Y686999D01*
X237999Y687001D01*
X238001Y687001D01*
X238001Y686999D01*
X237999Y686999D01*
G37*
%LPD*%
D10*
X78638Y44950D03*
X78638Y57650D03*
X78638Y70350D03*
X78638Y83050D03*
X29362Y83050D03*
X29362Y70350D03*
X29362Y57650D03*
X29362Y44950D03*
D11*
X67000Y897000D03*
X67000Y687000D03*
X152000Y687000D03*
X152000Y897000D03*
X238000Y897000D03*
X238000Y687000D03*
X324000Y687000D03*
X324000Y897000D03*
X411000Y897000D03*
X411000Y687000D03*
X498000Y687000D03*
X498000Y897000D03*
X585000Y897000D03*
X585000Y687000D03*
X671000Y687000D03*
X671000Y897000D03*
X756000Y897000D03*
X756000Y687000D03*
X756000Y654000D03*
X756000Y444000D03*
X671000Y444000D03*
X671000Y654000D03*
X585000Y653000D03*
X585000Y443000D03*
X498000Y444000D03*
X498000Y654000D03*
X410000Y654000D03*
X410000Y444000D03*
X324000Y443000D03*
X324000Y653000D03*
X238000Y654000D03*
X238000Y444000D03*
X153000Y444000D03*
X153000Y654000D03*
X67000Y654000D03*
X67000Y444000D03*
X67000Y412000D03*
X67000Y202000D03*
X153000Y201000D03*
X153000Y411000D03*
X238000Y411000D03*
X238000Y201000D03*
X324000Y200000D03*
X324000Y410000D03*
X411000Y411000D03*
X411000Y201000D03*
X498000Y201000D03*
X498000Y411000D03*
X585000Y412000D03*
X585000Y202000D03*
X670000Y201000D03*
X670000Y411000D03*
X756000Y411000D03*
X756000Y201000D03*
D12*
X185000Y142000D03*
X395000Y142000D03*
X306000Y56000D03*
X516000Y56000D03*
X427000Y142000D03*
X637000Y142000D03*
D13*
X155000Y16000D03*
X169000Y16000D03*
X386000Y328000D03*
D14*
X169000Y16000D02*
X155000Y16000D01*
D13*
X386000Y340000D03*
X192000Y16000D03*
D15*
X585000Y443000D02*
X585000Y444000D01*
X238000Y687000D02*
X212000Y687000D01*
X238000Y687000D02*
X265000Y687000D01*
D13*
X225000Y18000D03*
X181000Y21000D03*
X348000Y599000D03*
X781000Y29000D03*
X796000Y946000D03*
X35000Y941000D03*
X384000Y382000D03*
X384000Y502000D03*
X67000Y928000D03*
X764000Y928000D03*
D15*
X67000Y900000D02*
X67000Y897000D01*
D14*
X324000Y322000D02*
X324000Y200000D01*
X324000Y322000D02*
X384000Y382000D01*
X324000Y200000D02*
X267000Y143000D01*
X186000Y143000D01*
D16*
X185000Y142000D01*
D14*
X67000Y900000D02*
X67000Y928000D01*
X746561Y928000D02*
X764000Y928000D01*
X746561Y928000D02*
X732361Y913800D01*
X601800Y913800D02*
X585000Y897000D01*
X601800Y913800D02*
X732361Y913800D01*
X324000Y687000D02*
X170000Y841000D01*
X123000Y841000D01*
X67000Y897000D01*
X498000Y470000D02*
X498000Y444000D01*
X498000Y470000D02*
X465000Y503000D01*
X385000Y503000D01*
D16*
X384000Y502000D01*
D14*
X385000Y507000D02*
X238000Y654000D01*
D16*
X385000Y507000D02*
X385000Y503000D01*
D14*
X97000Y382000D02*
X67000Y412000D01*
X97000Y382000D02*
X384000Y382000D01*
X555000Y382000D02*
X585000Y412000D01*
X555000Y382000D02*
X384000Y382000D01*
X756000Y654000D02*
X782000Y654000D01*
X797000Y928000D02*
X764000Y928000D01*
X797000Y928000D02*
X809976Y915024D01*
X809976Y681976D02*
X782000Y654000D01*
X809976Y681976D02*
X809976Y915024D01*
D17*
X29362Y83050D02*
X15710Y83050D01*
X12660Y80000D01*
X12660Y49340D01*
X17050Y44950D02*
X29362Y44950D01*
X17050Y44950D02*
X12660Y49340D01*
X12660Y33340D01*
X20000Y26000D01*
D13*
X20000Y26000D03*
D15*
X980000Y764000D02*
X986000Y770000D01*
D18*
X671000Y687000D02*
X585000Y687000D01*
X411000Y897000D02*
X324000Y897000D01*
D15*
X411000Y897000D02*
X415000Y897000D01*
X417000Y895000D01*
X413000Y895000D01*
X411000Y897000D01*
D18*
X411000Y687000D02*
X498000Y687000D01*
X238000Y897000D02*
X152000Y897000D01*
X152000Y687000D02*
X67000Y687000D01*
D15*
X152000Y687000D02*
X153000Y687000D01*
X157000Y683000D01*
X156000Y683000D01*
X152000Y687000D01*
D18*
X325000Y444000D02*
X410000Y444000D01*
D15*
X325000Y444000D02*
X324000Y443000D01*
D18*
X410000Y654000D02*
X498000Y654000D01*
X671000Y444000D02*
X756000Y444000D01*
D15*
X670000Y653000D02*
X671000Y654000D01*
D18*
X670000Y653000D02*
X585000Y653000D01*
X498000Y201000D02*
X411000Y201000D01*
X238000Y411000D02*
X153000Y411000D01*
X324000Y410000D02*
X410000Y410000D01*
D15*
X411000Y411000D01*
D18*
X153000Y654000D02*
X67000Y654000D01*
D15*
X67000Y202000D02*
X68000Y201000D01*
D18*
X153000Y201000D01*
X309000Y56000D02*
X395000Y142000D01*
D15*
X309000Y56000D02*
X306000Y56000D01*
D18*
X427000Y142000D02*
X506000Y63000D01*
D15*
X506000Y46000D01*
X516000Y56000D01*
D18*
X670000Y411000D02*
X756000Y411000D01*
X669000Y202000D02*
X585000Y202000D01*
D15*
X669000Y202000D02*
X670000Y201000D01*
D18*
X671000Y897000D02*
X756000Y897000D01*
X238000Y444000D02*
X153000Y444000D01*
D13*
X61000Y27000D03*
D16*
X78638Y36638D02*
X78638Y44950D01*
X78638Y36638D02*
X69000Y27000D01*
X61000Y27000D01*
M02*
