G04 EAGLE Gerber RS-274X export*
G75*
%MOMM*%
%FSLAX34Y34*%
%LPD*%
%INSoldermask Bottom*%
%IPPOS*%
%AMOC8*
5,1,8,0,0,1.08239X$1,22.5*%
G01*
%ADD10C,2.603200*%
%ADD11R,1.463200X1.503200*%
%ADD12R,0.753200X1.203200*%
%ADD13R,1.003200X1.403200*%
%ADD14R,1.403200X1.003200*%
%ADD15C,0.959600*%


D10*
X107100Y940500D03*
X717100Y940500D03*
X107100Y24500D03*
X717100Y24500D03*
D11*
X594750Y713550D03*
X537250Y713550D03*
D12*
X561000Y683650D03*
X571000Y683650D03*
X421000Y683650D03*
X431000Y683650D03*
X441000Y683650D03*
X451000Y683650D03*
D11*
X474750Y713550D03*
X397250Y713550D03*
X274750Y713550D03*
X217250Y713550D03*
D12*
X241000Y683650D03*
X251000Y683650D03*
D13*
X119000Y165000D03*
X101000Y165000D03*
D14*
X117000Y76000D03*
X117000Y58000D03*
X113000Y127000D03*
X113000Y109000D03*
D15*
X155000Y16000D03*
X169000Y16000D03*
X386000Y328000D03*
X386000Y340000D03*
X192000Y16000D03*
X225000Y18000D03*
X181000Y21000D03*
X348000Y599000D03*
X781000Y29000D03*
X796000Y946000D03*
X35000Y941000D03*
X384000Y382000D03*
X384000Y502000D03*
X67000Y928000D03*
X764000Y928000D03*
X20000Y26000D03*
X61000Y27000D03*
M02*
