G04 EAGLE Gerber RS-274X export*
G75*
%MOMM*%
%FSLAX34Y34*%
%LPD*%
%INSoldermask Bottom*%
%IPPOS*%
%AMOC8*
5,1,8,0,0,1.08239X$1,22.5*%
G01*
%ADD10C,6.553200*%
%ADD11C,1.981200*%
%ADD12C,0.903200*%
%ADD13R,1.403200X1.003200*%
%ADD14R,0.903200X0.563200*%
%ADD15R,0.563200X0.903200*%
%ADD16C,0.803200*%
%ADD17R,1.003200X1.003200*%
%ADD18R,1.879600X0.711200*%
%ADD19R,1.711200X1.711200*%
%ADD20C,1.879600*%
%ADD21P,1.852186X8X112.500000*%
%ADD22C,1.711200*%
%ADD23C,1.311200*%
%ADD24R,1.203200X0.753200*%
%ADD25R,1.503200X1.463200*%
%ADD26P,2.249423X8X22.500000*%
%ADD27C,2.303200*%
%ADD28C,1.853200*%
%ADD29R,1.673200X1.403200*%
%ADD30R,4.703200X1.503200*%
%ADD31R,4.003200X1.403200*%
%ADD32R,3.403200X2.003200*%
%ADD33C,0.959600*%
%ADD34C,3.719200*%
%ADD35C,6.203200*%


D10*
X50800Y50800D03*
X850900Y50800D03*
X825500Y908050D03*
X88900Y908050D03*
D11*
X774700Y908050D03*
X774700Y882650D03*
X139700Y908050D03*
X139700Y882650D03*
X749300Y908050D03*
X749300Y882650D03*
X723900Y908050D03*
X723900Y882650D03*
X698500Y908050D03*
X698500Y882650D03*
X673100Y908050D03*
X673100Y882650D03*
X647700Y908050D03*
X647700Y882650D03*
X622300Y908050D03*
X622300Y882650D03*
X596900Y908050D03*
X596900Y882650D03*
X571500Y908050D03*
X571500Y882650D03*
X546100Y908050D03*
X546100Y882650D03*
X520700Y908050D03*
X520700Y882650D03*
X495300Y908050D03*
X495300Y882650D03*
X469900Y908050D03*
X469900Y882650D03*
X444500Y908050D03*
X444500Y882650D03*
X419100Y908050D03*
X419100Y882650D03*
X393700Y908050D03*
X393700Y882650D03*
X368300Y908050D03*
X368300Y882650D03*
X342900Y908050D03*
X342900Y882650D03*
X317500Y908050D03*
X317500Y882650D03*
X292100Y908050D03*
X292100Y882650D03*
X266700Y908050D03*
X266700Y882650D03*
X241300Y908050D03*
X241300Y882650D03*
X215900Y908050D03*
X215900Y882650D03*
X190500Y908050D03*
X190500Y882650D03*
X165100Y908050D03*
X165100Y882650D03*
X774700Y857250D03*
X774700Y832231D03*
X139700Y857250D03*
X139700Y831850D03*
X749300Y857250D03*
X749300Y832231D03*
X723900Y857250D03*
X723900Y832231D03*
X698500Y857250D03*
X698500Y832231D03*
X673100Y857250D03*
X673100Y832231D03*
X647700Y857250D03*
X647700Y832231D03*
X622300Y857250D03*
X622300Y832231D03*
X596900Y857250D03*
X596900Y832231D03*
X571500Y857250D03*
X571500Y832231D03*
X546100Y857250D03*
X546100Y832231D03*
X520700Y857250D03*
X520700Y832231D03*
X495300Y857250D03*
X495300Y832231D03*
X469900Y857250D03*
X469900Y832231D03*
X444500Y857250D03*
X444500Y832231D03*
X419100Y857250D03*
X419100Y832231D03*
X393700Y857250D03*
X393700Y832231D03*
X368300Y857250D03*
X368300Y832231D03*
X342900Y857250D03*
X342900Y832231D03*
X317500Y857250D03*
X317500Y832231D03*
X292100Y857250D03*
X292100Y832231D03*
X266700Y857250D03*
X266700Y832231D03*
X241300Y857250D03*
X241300Y832231D03*
X215900Y857250D03*
X215900Y832231D03*
X190500Y857250D03*
X190500Y832231D03*
X165100Y857250D03*
X165100Y832231D03*
D12*
X495332Y517230D02*
X513332Y517230D01*
X513332Y529930D02*
X495332Y529930D01*
X495332Y542630D02*
X513332Y542630D01*
X513332Y555330D02*
X495332Y555330D01*
X544332Y517230D02*
X562332Y517230D01*
X562332Y529930D02*
X544332Y529930D01*
X544332Y542630D02*
X562332Y542630D01*
X562332Y555330D02*
X544332Y555330D01*
D13*
X555628Y445500D03*
X555628Y427500D03*
X526898Y445666D03*
X526898Y427666D03*
D14*
X177988Y152894D03*
X177988Y160894D03*
X177988Y168894D03*
X177988Y176894D03*
X177988Y184894D03*
X177988Y192894D03*
X177988Y200894D03*
X177988Y208894D03*
X177988Y216894D03*
X177988Y224894D03*
X177988Y232894D03*
D15*
X186388Y241294D03*
X194388Y241294D03*
X202388Y241294D03*
X210388Y241294D03*
X218388Y241294D03*
X226388Y241294D03*
X234488Y241294D03*
X242388Y241294D03*
X250388Y241294D03*
X258388Y241294D03*
X266388Y241294D03*
D14*
X274788Y232894D03*
X274788Y224894D03*
X274788Y216894D03*
X274788Y208894D03*
X274788Y200894D03*
X274788Y192894D03*
X274788Y184894D03*
X274788Y176894D03*
X274788Y168894D03*
X274788Y160894D03*
X274788Y152894D03*
D15*
X266388Y144494D03*
X258388Y144494D03*
X250388Y144494D03*
X242388Y144494D03*
X234388Y144494D03*
X226388Y144494D03*
X218388Y144494D03*
X210388Y144494D03*
X202388Y144494D03*
X194588Y144494D03*
X186388Y144494D03*
D16*
X196388Y162894D03*
X196388Y177894D03*
X196388Y192894D03*
X196388Y207894D03*
X196388Y222894D03*
X211388Y162894D03*
X211388Y177894D03*
X211388Y192894D03*
X211388Y207894D03*
X211388Y222894D03*
X226388Y162894D03*
X226388Y177894D03*
X226388Y192894D03*
X226388Y207894D03*
X226388Y222894D03*
X241388Y162894D03*
X241388Y177894D03*
X241388Y192894D03*
X241388Y207894D03*
X241388Y222894D03*
X256388Y162894D03*
X256388Y177894D03*
X256388Y192894D03*
X256388Y207894D03*
X256388Y222894D03*
D17*
X142976Y175626D03*
X142976Y190626D03*
D11*
X135040Y428604D03*
X160440Y428604D03*
X185840Y428604D03*
X211240Y428604D03*
X236640Y428604D03*
X262040Y428604D03*
D13*
X657088Y444900D03*
X657088Y426900D03*
X628762Y426900D03*
X628762Y444900D03*
D18*
X683446Y549544D03*
X683446Y536844D03*
X683446Y524144D03*
X683446Y511444D03*
X635186Y511444D03*
X635186Y524144D03*
X635186Y536844D03*
X635186Y549544D03*
D13*
X585442Y427700D03*
X585442Y445700D03*
X249800Y104400D03*
X249800Y86400D03*
D19*
X160400Y641100D03*
X617600Y717300D03*
X185800Y793500D03*
D20*
X160400Y793500D03*
D21*
X211200Y793500D03*
X617600Y691900D03*
D22*
X617600Y666500D03*
X617600Y742700D03*
X617600Y768100D03*
X490600Y793500D03*
X490600Y641100D03*
X185800Y641100D03*
X211200Y641100D03*
X236600Y641100D03*
X262000Y641100D03*
X287400Y641100D03*
X312800Y641100D03*
X338200Y641100D03*
X363600Y641100D03*
X389000Y641100D03*
X414400Y641100D03*
X439800Y641100D03*
X465200Y641100D03*
X162700Y755400D03*
X465200Y793500D03*
X439800Y793500D03*
X414400Y793500D03*
X389000Y793500D03*
X363600Y793500D03*
X338200Y793500D03*
X312800Y793500D03*
X287400Y793500D03*
X262000Y793500D03*
X236600Y793500D03*
D21*
X516000Y641100D03*
D22*
X566800Y641100D03*
X592200Y641100D03*
X617600Y641100D03*
X643000Y641100D03*
X668400Y641100D03*
X693800Y641100D03*
X719200Y641100D03*
X744600Y641100D03*
X541400Y793500D03*
X566800Y793500D03*
X592200Y793500D03*
X617600Y793500D03*
X643000Y793500D03*
X668400Y793500D03*
X693800Y793500D03*
X719200Y793500D03*
X744600Y793500D03*
X223900Y671100D03*
X249300Y671100D03*
X274700Y671100D03*
X300100Y671100D03*
X325500Y671100D03*
X541400Y641100D03*
D19*
X516000Y793500D03*
D22*
X162700Y704600D03*
X162700Y679200D03*
D23*
X290100Y768100D03*
X290100Y748100D03*
X290100Y728100D03*
X310100Y768100D03*
X310100Y748100D03*
X310100Y728100D03*
D22*
X162700Y730000D03*
D24*
X816300Y781400D03*
X816300Y771400D03*
X816300Y761400D03*
X816300Y751400D03*
D25*
X846200Y805150D03*
X846200Y727600D03*
D24*
X99400Y134500D03*
X99400Y144500D03*
D25*
X69500Y110750D03*
X69500Y168300D03*
D24*
X100000Y246500D03*
X100000Y256500D03*
X100000Y266500D03*
X100000Y276500D03*
X100000Y286500D03*
D25*
X70100Y222750D03*
X70100Y310300D03*
D24*
X100000Y360000D03*
X100000Y370000D03*
D25*
X70100Y336250D03*
X70100Y393800D03*
D24*
X815100Y663400D03*
X815100Y653400D03*
D25*
X845000Y687150D03*
X845000Y629600D03*
D24*
X807400Y302400D03*
X807400Y292400D03*
X807400Y282400D03*
X807400Y272400D03*
D25*
X837300Y326150D03*
X837300Y248600D03*
D24*
X809100Y425700D03*
X809100Y415700D03*
D25*
X839000Y449450D03*
X839000Y391900D03*
D26*
X191600Y311900D03*
X191600Y337300D03*
X217000Y311900D03*
X217000Y337300D03*
X242400Y311900D03*
X242400Y337300D03*
X267800Y311900D03*
X267800Y337300D03*
X293200Y311900D03*
X293200Y337300D03*
X318600Y311900D03*
X318600Y337300D03*
X344000Y311900D03*
X344000Y337300D03*
X369400Y311900D03*
X369400Y337300D03*
X394800Y311900D03*
X394800Y337300D03*
X420200Y311900D03*
X420200Y337300D03*
X445600Y311900D03*
X445600Y337300D03*
X471000Y311900D03*
X471000Y337300D03*
X496400Y311900D03*
X496400Y337300D03*
X521800Y311900D03*
X521800Y337300D03*
X547200Y311900D03*
X547200Y337300D03*
X572600Y311900D03*
X572600Y337300D03*
X598000Y311900D03*
X598000Y337300D03*
X623400Y311900D03*
X623400Y337300D03*
X648800Y311900D03*
X648800Y337300D03*
X674200Y311900D03*
X674200Y337300D03*
D24*
X809800Y506500D03*
X809800Y496500D03*
D25*
X839700Y530250D03*
X839700Y472700D03*
D27*
X846000Y604200D03*
X846000Y553400D03*
X795200Y553400D03*
X795200Y604200D03*
D28*
X820600Y578800D03*
D27*
X313600Y466700D03*
X313600Y517500D03*
X364400Y517500D03*
X364400Y466700D03*
D28*
X339000Y492100D03*
D24*
X807600Y179300D03*
X807600Y169300D03*
X807600Y159300D03*
X807600Y149300D03*
D25*
X837500Y203050D03*
X837500Y125500D03*
D29*
X282500Y86800D03*
X282500Y104000D03*
D30*
X657500Y211000D03*
X657500Y191000D03*
X657500Y171000D03*
X657500Y151000D03*
X657500Y131000D03*
X657500Y111000D03*
X657500Y91000D03*
X657500Y231000D03*
X356500Y91000D03*
X356500Y111000D03*
X356500Y131000D03*
X356500Y151000D03*
X356500Y171000D03*
X356500Y191000D03*
X356500Y211000D03*
X356500Y231000D03*
D31*
X491000Y211400D03*
X491000Y191400D03*
X491000Y171400D03*
X491000Y151400D03*
X491000Y131400D03*
X491000Y111400D03*
X491000Y91400D03*
X354000Y91400D03*
X354000Y111400D03*
X354000Y131400D03*
X354000Y151400D03*
X354000Y171400D03*
X354000Y191400D03*
X354000Y211400D03*
X354000Y231400D03*
X491000Y231400D03*
D32*
X407500Y375400D03*
X407500Y431400D03*
X359800Y374900D03*
X359800Y430900D03*
D33*
X101600Y16510D03*
X121920Y16510D03*
X132080Y16510D03*
X142240Y16510D03*
X152400Y16510D03*
X162560Y16510D03*
X172720Y16510D03*
X111760Y16510D03*
X264160Y16510D03*
X274320Y16510D03*
X284480Y16510D03*
X294640Y16510D03*
X304800Y16510D03*
X314960Y16510D03*
X325120Y16510D03*
X41656Y796544D03*
X41656Y816864D03*
X41656Y827024D03*
X41656Y837184D03*
X41656Y847344D03*
X41656Y857504D03*
X41656Y867664D03*
X41656Y806704D03*
X41656Y634492D03*
X41656Y654812D03*
X41656Y664972D03*
X41656Y675132D03*
X41656Y685292D03*
X41656Y695452D03*
X41656Y705612D03*
X41656Y644652D03*
X582930Y16510D03*
X603250Y16510D03*
X613410Y16510D03*
X623570Y16510D03*
X633730Y16510D03*
X643890Y16510D03*
X654050Y16510D03*
X593090Y16510D03*
X745490Y16510D03*
X755650Y16510D03*
X765810Y16510D03*
X775970Y16510D03*
X786130Y16510D03*
X796290Y16510D03*
X806450Y16510D03*
X816610Y16510D03*
X885190Y94234D03*
X885190Y114554D03*
X885190Y124714D03*
X885190Y134874D03*
X885190Y145034D03*
X885190Y155194D03*
X885190Y104394D03*
X886206Y751332D03*
X886206Y771652D03*
X886206Y781812D03*
X886206Y791972D03*
X886206Y802132D03*
X886206Y812292D03*
X886206Y822452D03*
X886206Y761492D03*
X798000Y854000D03*
X335250Y16500D03*
X229000Y98000D03*
X778700Y64300D03*
X811700Y541700D03*
X767600Y97600D03*
X771800Y552100D03*
X754600Y184300D03*
X723700Y172700D03*
X602800Y557000D03*
X594200Y608700D03*
X742800Y172600D03*
X146100Y139000D03*
X406400Y96000D03*
X572200Y408300D03*
X451500Y252400D03*
X361100Y556200D03*
X555600Y580700D03*
X113000Y167400D03*
X113400Y153300D03*
X426200Y268000D03*
X451600Y267000D03*
X470700Y266800D03*
X781900Y291200D03*
X452100Y430600D03*
X781300Y303100D03*
X491600Y417200D03*
X510100Y475800D03*
X191400Y395900D03*
X554200Y590900D03*
X165700Y126200D03*
X770100Y169200D03*
X417600Y258800D03*
X320700Y219900D03*
X159200Y251300D03*
X459000Y528100D03*
X215800Y734400D03*
D34*
X303060Y555600D03*
X96940Y428604D03*
X96940Y555604D03*
X303060Y428604D03*
D33*
X688000Y482000D03*
X313600Y86000D03*
X145700Y216800D03*
X576000Y91000D03*
X433000Y91000D03*
X577000Y239000D03*
X395200Y594500D03*
X140300Y393300D03*
X886590Y274934D03*
X886590Y295254D03*
X886590Y305414D03*
X886590Y315574D03*
X886590Y325734D03*
X886590Y335894D03*
X886590Y346054D03*
X886590Y285094D03*
X885490Y590834D03*
X885490Y611154D03*
X885490Y621314D03*
X885490Y631474D03*
X885490Y641634D03*
X885490Y651794D03*
X885490Y661954D03*
X885490Y600994D03*
X885190Y434634D03*
X885190Y454954D03*
X885190Y465114D03*
X885190Y475274D03*
X885190Y485434D03*
X885190Y495594D03*
X885190Y505754D03*
X885190Y444794D03*
X781700Y668400D03*
X392600Y142900D03*
X393900Y165900D03*
X323100Y249600D03*
X340000Y257500D03*
X551400Y274700D03*
X552400Y262800D03*
D35*
X142600Y324700D03*
X722600Y324600D03*
X722600Y94600D03*
X142600Y94600D03*
D33*
X460900Y593800D03*
X724000Y362800D03*
X778600Y138700D03*
X658400Y730500D03*
X321400Y130400D03*
X321400Y105900D03*
X757000Y111000D03*
X443700Y725800D03*
X471900Y705700D03*
X409000Y573000D03*
X265000Y582000D03*
X143000Y584000D03*
X117000Y798000D03*
M02*
