G04 EAGLE Gerber RS-274X export*
G75*
%MOMM*%
%FSLAX34Y34*%
%LPD*%
%INSolderpaste Top*%
%IPPOS*%
%AMOC8*
5,1,8,0,0,1.08239X$1,22.5*%
G01*
%ADD10R,1.981200X0.558800*%
%ADD11R,7.490000X1.960000*%
%ADD12R,1.960000X7.490000*%


D10*
X78638Y44950D03*
X78638Y57650D03*
X78638Y70350D03*
X78638Y83050D03*
X29362Y83050D03*
X29362Y70350D03*
X29362Y57650D03*
X29362Y44950D03*
D11*
X67000Y897000D03*
X67000Y687000D03*
X152000Y687000D03*
X152000Y897000D03*
X238000Y897000D03*
X238000Y687000D03*
X324000Y687000D03*
X324000Y897000D03*
X411000Y897000D03*
X411000Y687000D03*
X498000Y687000D03*
X498000Y897000D03*
X585000Y897000D03*
X585000Y687000D03*
X671000Y687000D03*
X671000Y897000D03*
X756000Y897000D03*
X756000Y687000D03*
X756000Y654000D03*
X756000Y444000D03*
X671000Y444000D03*
X671000Y654000D03*
X585000Y653000D03*
X585000Y443000D03*
X498000Y444000D03*
X498000Y654000D03*
X410000Y654000D03*
X410000Y444000D03*
X324000Y443000D03*
X324000Y653000D03*
X238000Y654000D03*
X238000Y444000D03*
X153000Y444000D03*
X153000Y654000D03*
X67000Y654000D03*
X67000Y444000D03*
X67000Y412000D03*
X67000Y202000D03*
X153000Y201000D03*
X153000Y411000D03*
X238000Y411000D03*
X238000Y201000D03*
X324000Y200000D03*
X324000Y410000D03*
X411000Y411000D03*
X411000Y201000D03*
X498000Y201000D03*
X498000Y411000D03*
X585000Y412000D03*
X585000Y202000D03*
X670000Y201000D03*
X670000Y411000D03*
X756000Y411000D03*
X756000Y201000D03*
D12*
X185000Y142000D03*
X395000Y142000D03*
X306000Y56000D03*
X516000Y56000D03*
X427000Y142000D03*
X637000Y142000D03*
M02*
