M48
;GenerationSoftware,Autodesk,EAGLE,9.6.2*%
;CreationDate,2022-04-07T21:24:38Z*%
FMAT,2
ICI,OFF
METRIC,TZ,000.000
T17C0.254
T16C0.279
T15C0.300
T14C0.305
T13C0.330
T12C0.330
T11C0.340
T10C0.350
T9C0.356
T8C0.400
T7C0.500
T6C0.600
T5C0.700
T4C1.016
T3C1.067
T2C1.200
T1C3.175
%
G90
M71
T1
X5080Y5080
X85090Y5080
X82550Y90805
X8890Y90805
T2
X62550Y6500
X65090Y6500
T3
X44450Y88265
X77470Y85725
X16510Y88265
X44450Y90805
X46990Y88265
X16510Y90805
X19050Y88265
X19050Y90805
X21590Y88265
X21590Y90805
X24130Y88265
X24130Y90805
X26670Y88265
X26670Y90805
X29210Y88265
X29210Y90805
X21590Y83223
X31750Y88265
X31750Y90805
X34290Y88265
X34290Y90805
X36830Y88265
X16510Y83223
X16510Y85725
X36830Y90805
X39370Y90805
X41910Y88265
X46990Y90805
X49530Y88265
X49530Y90805
X41910Y90805
X19050Y85725
X46990Y85725
X21590Y85725
X24130Y83223
X24130Y85725
X26670Y83223
X26670Y85725
X29210Y83223
X29210Y85725
X31750Y83223
X31750Y85725
X34290Y83223
X39370Y88265
X52070Y88265
X52070Y90805
X54610Y88265
X34290Y85725
X54610Y90805
X57150Y88265
X57150Y90805
X59690Y88265
X59690Y90805
X62230Y88265
X36830Y83223
X36830Y85725
X62230Y90805
X39370Y83223
X39370Y85725
X41910Y83223
X41910Y85725
X44450Y83223
X44450Y85725
X46990Y83223
X49530Y83223
X49530Y85725
X52070Y83223
X52070Y85725
X54610Y83223
X54610Y85725
X57150Y83223
X64770Y88265
X64770Y90805
X67310Y88265
X67310Y90805
X69850Y88265
X69850Y90805
X72390Y88265
X72390Y90805
X57150Y85725
X59690Y83223
X59690Y85725
X62230Y83223
X62230Y85725
X64770Y83223
X74930Y88265
X74930Y90805
X13970Y88265
X13970Y90805
X77470Y88265
X77470Y90805
X64770Y85725
X67310Y83223
X67310Y85725
X69850Y83223
X69850Y85725
X72390Y83223
X72390Y85725
X74930Y83223
X74930Y85725
X13970Y83185
X13970Y85725
X77470Y83223
T4
X19050Y83223
T5
X79068Y8001
X71618Y8001
T6
X79843Y3901
X79843Y9651
X70843Y9651
X70843Y3901
T7
X71293Y9101
X79393Y9101
T8
X77743Y8001
X76943Y8001
X76143Y8001
X72943Y8001
X73743Y8001
X74543Y8001
X78393Y8701
X75743Y8701
X74943Y8701
X74143Y8701
X76543Y8701
X72293Y8701
T9
X35479Y53313
X16307Y42570
X33045Y45466
X57150Y44450
X83718Y13970
X13457Y68945
X63500Y15240
X84760Y82601
X11471Y79705
X67649Y23283
X32334Y7518
X27381Y16104
T10
X49630Y24110
X33430Y17630
X34160Y63710
X32290Y69930
X68260Y45260
X75000Y81300
X74430Y47360
X73336Y75737
X62281Y66256
X59960Y57330
X48210Y76960
X31760Y77650
X26690Y62400
X16430Y63590
X51820Y65020
X32700Y63260
X37780Y37340
X80360Y24090
X39430Y55830
X39610Y50520
X26220Y59040
X56060Y65300
X74510Y62930
X79150Y66390
X73140Y11350
X77590Y11340
X79080Y53300
X15710Y46110
X12120Y19315
X62390Y67340
X71270Y53560
X81290Y42840
X76690Y71150
X83860Y70050
X20580Y78280
X23690Y70260
X28530Y73030
X50673Y56337
X24867Y55047
X6960Y20015
X20170Y55660
X78990Y67650
X66740Y50000
X39330Y68950
X26416Y63475
X64186Y53213
X60223Y53619
X38470Y62500
X36680Y50510
X33110Y69080
X33290Y77820
X24420Y68840
X34430Y70690
X31840Y68860
X40830Y71310
X35170Y64190
X50510Y35740
X52740Y60930
X73300Y69370
X71010Y56750
X79690Y60240
X66740Y53460
X75280Y62480
X78820Y64660
X70750Y63120
X79780Y58570
X73750Y55560
X66970Y74020
X12610Y80270
X18410Y79330
X70650Y74140
X74270Y51270
X16690Y54990
X38600Y54150
X13430Y21880
X65410Y64540
X69320Y56270
X80350Y42860
X8420Y58460
X58580Y61630
X15420Y60030
X76160Y62700
T11
X80391Y32410
X77114Y46253
X79146Y36373
X79346Y33417
X59182Y32715
X66421Y33604
X50317Y34823
X79202Y34924
X77216Y40970
X79019Y37770
X77843Y33420
X66437Y32361
T12
X73635Y18974
X28829Y41707
X36652Y51384
X13995Y24638
X14249Y66167
X49682Y56261
X30404Y37524
X33630Y51511
X46152Y51156
X48666Y54737
X57916Y50159
X14215Y71806
X15367Y47066
X9804Y9347
X11430Y6350
X7341Y49784
X6350Y81356
X32131Y31953
X74879Y23800
X80289Y31191
X77318Y47854
X32334Y46482
X32893Y53188
X46177Y27984
X39549Y34469
X33401Y47244
X54958Y54522
X34595Y20599
X28194Y16789
X35662Y45644
X23508Y3294
X24384Y51892
X40284Y35128
X47574Y23165
X24512Y24995
X40284Y34265
X40513Y33299
X44983Y51333
X37617Y53238
X28931Y44602
T13
X41628Y70569
X19761Y46990
X34544Y45720
X18110Y57175
X41910Y55829
X27667Y55387
X23114Y46965
T14
X86004Y51841
X14783Y61874
X73914Y48768
X57556Y47752
X81915Y29083
X58420Y43180
X38583Y34900
X40361Y26975
X27940Y12700
X54534Y25502
X36670Y35839
X41910Y50800
X37795Y39141
X36805Y45441
X30990Y30080
X34305Y43999
X43180Y21590
X49697Y76251
X40472Y56012
X34372Y53285
X40643Y66612
X23571Y69358
X30912Y10160
X31471Y39294
X14249Y36144
X31912Y48457
X31902Y49443
X47710Y72000
X35560Y80010
X13636Y53517
X59436Y41046
X17041Y63938
X13919Y64541
X61974Y39091
X6909Y28042
X39649Y43764
X86360Y80010
X35520Y12928
X78410Y79350
X44831Y62789
X45314Y34798
X47217Y61381
X63568Y78063
X63500Y81280
X43663Y61468
X77550Y70510
X57542Y39225
X24560Y70529
X81280Y75400
X73660Y16510
X45720Y17780
X62230Y25400
X13568Y61142
X16510Y40640
X37060Y27586
X74930Y80010
X39573Y25578
X53315Y26010
X20320Y80010
X14224Y34925
X37278Y54291
X40589Y39675
X60960Y30480
X38612Y61511
X33020Y80010
X57150Y35560
X76120Y13100
X20695Y66246
X16837Y56315
X44964Y61513
X42280Y13690
X45644Y22682
X59690Y20320
T15
X64872Y79375
X63525Y77140
X79770Y57460
X16713Y24816
X41510Y71520
X13659Y22946
T16
X52045Y44755
X55829Y47193
T17
X49530Y33020
M30