G04 EAGLE Gerber RS-274X export*
G75*
%MOMM*%
%FSLAX34Y34*%
%LPD*%
%IN*%
%IPPOS*%
%AMOC8*
5,1,8,0,0,1.08239X$1,22.5*%
G01*
%ADD10C,0.254000*%


D10*
X0Y11938D02*
X45Y10898D01*
X181Y9865D01*
X407Y8848D01*
X720Y7855D01*
X1119Y6893D01*
X1599Y5969D01*
X2159Y5091D01*
X2793Y4264D01*
X3497Y3497D01*
X4264Y2793D01*
X5091Y2159D01*
X5969Y1599D01*
X6893Y1119D01*
X7855Y720D01*
X8848Y407D01*
X9865Y181D01*
X10898Y45D01*
X11938Y0D01*
X348742Y0D01*
X349782Y45D01*
X350815Y181D01*
X351832Y407D01*
X352825Y720D01*
X353787Y1119D01*
X354711Y1599D01*
X355589Y2159D01*
X356416Y2793D01*
X357183Y3497D01*
X357887Y4264D01*
X358521Y5091D01*
X359081Y5969D01*
X359562Y6893D01*
X359960Y7855D01*
X360273Y8848D01*
X360499Y9865D01*
X360635Y10898D01*
X360680Y11938D01*
X360680Y17272D01*
X360725Y18312D01*
X360861Y19345D01*
X361087Y20362D01*
X361400Y21355D01*
X361799Y22317D01*
X362279Y23241D01*
X362839Y24119D01*
X363473Y24946D01*
X364177Y25713D01*
X364944Y26417D01*
X365771Y27051D01*
X366649Y27611D01*
X367573Y28092D01*
X368535Y28490D01*
X369528Y28803D01*
X370545Y29029D01*
X371578Y29165D01*
X372618Y29210D01*
X551942Y29210D01*
X552982Y29165D01*
X554015Y29029D01*
X555032Y28803D01*
X556025Y28490D01*
X556987Y28092D01*
X557911Y27611D01*
X558789Y27051D01*
X559616Y26417D01*
X560383Y25713D01*
X561087Y24946D01*
X561721Y24119D01*
X562281Y23241D01*
X562762Y22317D01*
X563160Y21355D01*
X563473Y20362D01*
X563699Y19345D01*
X563835Y18312D01*
X563880Y17272D01*
X563880Y11938D01*
X563925Y10898D01*
X564061Y9865D01*
X564287Y8848D01*
X564600Y7855D01*
X564999Y6893D01*
X565479Y5969D01*
X566039Y5091D01*
X566673Y4264D01*
X567377Y3497D01*
X568144Y2793D01*
X568971Y2159D01*
X569849Y1599D01*
X570773Y1119D01*
X571735Y720D01*
X572728Y407D01*
X573745Y181D01*
X574778Y45D01*
X575818Y0D01*
X889762Y0D01*
X890802Y45D01*
X891835Y181D01*
X892852Y407D01*
X893845Y720D01*
X894807Y1119D01*
X895731Y1599D01*
X896609Y2159D01*
X897436Y2793D01*
X898203Y3497D01*
X898907Y4264D01*
X899541Y5091D01*
X900101Y5969D01*
X900582Y6893D01*
X900980Y7855D01*
X901293Y8848D01*
X901519Y9865D01*
X901655Y10898D01*
X901700Y11938D01*
X901700Y868680D01*
X876300Y868680D01*
X876300Y955040D01*
X574040Y955040D01*
X572933Y954992D01*
X571835Y954847D01*
X570753Y954607D01*
X569696Y954274D01*
X568673Y953850D01*
X567690Y953339D01*
X566756Y952743D01*
X565877Y952069D01*
X565060Y951320D01*
X564311Y950503D01*
X563637Y949624D01*
X563041Y948690D01*
X562530Y947707D01*
X562106Y946684D01*
X561773Y945627D01*
X561533Y944545D01*
X561388Y943447D01*
X561340Y942340D01*
X561292Y941233D01*
X561147Y940135D01*
X560907Y939053D01*
X560574Y937996D01*
X560150Y936973D01*
X559639Y935990D01*
X559043Y935056D01*
X558369Y934177D01*
X557620Y933360D01*
X556803Y932611D01*
X555924Y931937D01*
X554990Y931341D01*
X554007Y930830D01*
X552984Y930406D01*
X551927Y930073D01*
X550845Y929833D01*
X549747Y929688D01*
X548640Y929640D01*
X368300Y929640D01*
X367309Y929794D01*
X366335Y930034D01*
X365385Y930358D01*
X364467Y930764D01*
X363588Y931248D01*
X362755Y931806D01*
X361974Y932436D01*
X361250Y933130D01*
X360590Y933886D01*
X359998Y934696D01*
X359479Y935554D01*
X359036Y936455D01*
X358674Y937390D01*
X358395Y938354D01*
X358201Y939338D01*
X358093Y940336D01*
X358073Y941339D01*
X358140Y942340D01*
X358092Y943447D01*
X357947Y944545D01*
X357707Y945627D01*
X357374Y946684D01*
X356950Y947707D01*
X356439Y948690D01*
X355843Y949624D01*
X355169Y950503D01*
X354420Y951320D01*
X353603Y952069D01*
X352724Y952743D01*
X351790Y953339D01*
X350807Y953850D01*
X349784Y954274D01*
X348727Y954607D01*
X347645Y954847D01*
X346547Y954992D01*
X345440Y955040D01*
X25400Y955040D01*
X25400Y127000D01*
X0Y127000D01*
X0Y11938D01*
M02*
