M48
;GenerationSoftware,Autodesk,EAGLE,9.6.2*%
;CreationDate,2021-09-08T01:46:10Z*%
FMAT,2
ICI,OFF
METRIC,TZ,000.000
T2C0.350
T1C2.400
%
G90
M71
T1
X10710Y94050
X71710Y94050
X10710Y2450
X71710Y2450
T2
X15500Y1600
X16900Y1600
X38600Y32800
X38600Y34000
X19200Y1600
X22500Y1800
X18100Y2100
X34800Y59900
X78100Y2900
X79600Y94600
X3500Y94100
X38400Y38200
X38400Y50200
X6700Y92800
X76400Y92800
X2000Y2600
X6100Y2700
M30