G04 EAGLE Gerber RS-274X export*
G75*
%MOMM*%
%FSLAX34Y34*%
%LPD*%
%INSolderpaste Bottom*%
%IPPOS*%
%AMOC8*
5,1,8,0,0,1.08239X$1,22.5*%
G01*
%ADD10C,0.700000*%
%ADD11R,1.200000X0.800000*%
%ADD12R,0.700000X0.360000*%
%ADD13R,0.360000X0.700000*%
%ADD14C,0.600000*%
%ADD15R,0.800000X0.800000*%
%ADD16R,2.260600X1.041400*%
%ADD17R,1.092200X1.041400*%
%ADD18R,1.676400X0.508000*%
%ADD19R,0.800000X1.200000*%
%ADD20R,4.500000X1.200000*%
%ADD21R,1.200000X1.470000*%
%ADD22R,1.000000X0.550000*%
%ADD23R,1.300000X1.260000*%


D10*
X779532Y312830D02*
X797532Y312830D01*
X797532Y325530D02*
X779532Y325530D01*
X779532Y338230D02*
X797532Y338230D01*
X797532Y350930D02*
X779532Y350930D01*
X828532Y312830D02*
X846532Y312830D01*
X846532Y325530D02*
X828532Y325530D01*
X828532Y338230D02*
X846532Y338230D01*
X846532Y350930D02*
X828532Y350930D01*
D11*
X775428Y247570D03*
X775428Y229570D03*
X741798Y247766D03*
X741798Y229766D03*
D12*
X259688Y145494D03*
X259688Y153494D03*
X259688Y161494D03*
X259688Y169494D03*
X259688Y177494D03*
X259688Y185494D03*
X259688Y193494D03*
X259688Y201494D03*
X259688Y209494D03*
X259688Y217494D03*
X259688Y225494D03*
D13*
X268088Y233894D03*
X276088Y233894D03*
X284088Y233894D03*
X292088Y233894D03*
X300088Y233894D03*
X308088Y233894D03*
X316188Y233894D03*
X324088Y233894D03*
X332088Y233894D03*
X340088Y233894D03*
X348088Y233894D03*
D12*
X356488Y225494D03*
X356488Y217494D03*
X356488Y209494D03*
X356488Y201494D03*
X356488Y193494D03*
X356488Y185494D03*
X356488Y177494D03*
X356488Y169494D03*
X356488Y161494D03*
X356488Y153494D03*
X356488Y145494D03*
D13*
X348088Y137094D03*
X340088Y137094D03*
X332088Y137094D03*
X324088Y137094D03*
X316088Y137094D03*
X308088Y137094D03*
X300088Y137094D03*
X292088Y137094D03*
X284088Y137094D03*
X276288Y137094D03*
X268088Y137094D03*
D14*
X278088Y155494D03*
X278088Y170494D03*
X278088Y185494D03*
X278088Y200494D03*
X278088Y215494D03*
X293088Y155494D03*
X293088Y170494D03*
X293088Y185494D03*
X293088Y200494D03*
X293088Y215494D03*
X308088Y155494D03*
X308088Y170494D03*
X308088Y185494D03*
X308088Y200494D03*
X308088Y215494D03*
X323088Y155494D03*
X323088Y170494D03*
X323088Y185494D03*
X323088Y200494D03*
X323088Y215494D03*
X338088Y155494D03*
X338088Y170494D03*
X338088Y185494D03*
X338088Y200494D03*
X338088Y215494D03*
D15*
X195326Y168024D03*
X210326Y168024D03*
D16*
X404199Y151195D03*
X404199Y180605D03*
D17*
X388239Y165900D03*
D16*
X761099Y534395D03*
X761099Y563805D03*
D17*
X745139Y549100D03*
D11*
X847088Y246626D03*
X847088Y228626D03*
X812562Y229074D03*
X812562Y247074D03*
D18*
X817246Y186044D03*
X817246Y173344D03*
X817246Y160644D03*
X817246Y147944D03*
X768986Y147944D03*
X768986Y160644D03*
X768986Y173344D03*
X768986Y186044D03*
D19*
X730878Y186042D03*
X712878Y186042D03*
D20*
X532100Y424900D03*
X532100Y444900D03*
X532100Y464900D03*
X532100Y484900D03*
X532100Y504900D03*
X532100Y524900D03*
X532100Y544900D03*
X696100Y544900D03*
X696100Y524900D03*
X696100Y504900D03*
X696100Y484900D03*
X696100Y464900D03*
X696100Y444900D03*
X696100Y424900D03*
X696100Y404900D03*
X532100Y404900D03*
D11*
X448700Y423500D03*
X448700Y441500D03*
X216900Y223300D03*
X216900Y205300D03*
X183300Y223900D03*
X183300Y205900D03*
D21*
X410400Y113300D03*
X393200Y113300D03*
D19*
X388500Y234400D03*
X406500Y234400D03*
D22*
X808100Y667100D03*
X808100Y657100D03*
X808100Y647100D03*
X808100Y637100D03*
D23*
X838000Y690850D03*
X838000Y613300D03*
D22*
X103800Y149900D03*
X103800Y159900D03*
D23*
X73900Y126150D03*
X73900Y183700D03*
D22*
X103500Y244900D03*
X103500Y254900D03*
X103500Y264900D03*
X103500Y274900D03*
X103500Y284900D03*
D23*
X73600Y221150D03*
X73600Y308700D03*
D22*
X111300Y425900D03*
X111300Y435900D03*
D23*
X81400Y402150D03*
X81400Y459700D03*
D22*
X111600Y550900D03*
X111600Y560900D03*
X111600Y570900D03*
X111600Y580900D03*
D23*
X81700Y527150D03*
X81700Y604700D03*
D22*
X804900Y497900D03*
X804900Y487900D03*
D23*
X834800Y521650D03*
X834800Y464100D03*
M02*
