G04 EAGLE Gerber RS-274X export*
G75*
%MOMM*%
%FSLAX34Y34*%
%LPD*%
%INBottom Copper*%
%IPPOS*%
%AMOC8*
5,1,8,0,0,1.08239X$1,22.5*%
G01*
%ADD10C,0.756400*%
%ADD11C,0.304800*%
%ADD12C,0.508000*%

G36*
X489098Y10164D02*
X489098Y10164D01*
X489117Y10162D01*
X489219Y10184D01*
X489321Y10200D01*
X489338Y10210D01*
X489358Y10214D01*
X489447Y10267D01*
X489538Y10316D01*
X489552Y10330D01*
X489569Y10340D01*
X489636Y10419D01*
X489708Y10494D01*
X489716Y10512D01*
X489729Y10527D01*
X489768Y10623D01*
X489811Y10717D01*
X489813Y10737D01*
X489821Y10755D01*
X489839Y10922D01*
X489839Y489078D01*
X489836Y489098D01*
X489838Y489117D01*
X489816Y489219D01*
X489800Y489321D01*
X489790Y489338D01*
X489786Y489358D01*
X489733Y489447D01*
X489684Y489538D01*
X489670Y489552D01*
X489660Y489569D01*
X489581Y489636D01*
X489506Y489708D01*
X489488Y489716D01*
X489473Y489729D01*
X489377Y489768D01*
X489283Y489811D01*
X489263Y489813D01*
X489245Y489821D01*
X489078Y489839D01*
X10922Y489839D01*
X10902Y489836D01*
X10883Y489838D01*
X10781Y489816D01*
X10679Y489800D01*
X10662Y489790D01*
X10642Y489786D01*
X10553Y489733D01*
X10462Y489684D01*
X10448Y489670D01*
X10431Y489660D01*
X10364Y489581D01*
X10292Y489506D01*
X10284Y489488D01*
X10271Y489473D01*
X10232Y489377D01*
X10189Y489283D01*
X10187Y489263D01*
X10179Y489245D01*
X10161Y489078D01*
X10161Y10922D01*
X10164Y10902D01*
X10162Y10883D01*
X10184Y10781D01*
X10200Y10679D01*
X10210Y10662D01*
X10214Y10642D01*
X10267Y10553D01*
X10316Y10462D01*
X10330Y10448D01*
X10340Y10431D01*
X10419Y10364D01*
X10494Y10292D01*
X10512Y10284D01*
X10527Y10271D01*
X10623Y10232D01*
X10717Y10189D01*
X10737Y10187D01*
X10755Y10179D01*
X10922Y10161D01*
X489078Y10161D01*
X489098Y10164D01*
G37*
%LPC*%
G36*
X186802Y302693D02*
X186802Y302693D01*
X183693Y305802D01*
X183693Y310198D01*
X185728Y312233D01*
X185781Y312307D01*
X185841Y312377D01*
X185853Y312407D01*
X185872Y312433D01*
X185899Y312520D01*
X185933Y312605D01*
X185937Y312646D01*
X185944Y312668D01*
X185943Y312700D01*
X185951Y312771D01*
X185951Y348263D01*
X228470Y390782D01*
X228523Y390856D01*
X228583Y390925D01*
X228595Y390955D01*
X228614Y390982D01*
X228641Y391069D01*
X228675Y391153D01*
X228679Y391194D01*
X228686Y391217D01*
X228685Y391249D01*
X228693Y391320D01*
X228693Y394198D01*
X231802Y397307D01*
X236198Y397307D01*
X239307Y394198D01*
X239307Y389802D01*
X236198Y386693D01*
X233320Y386693D01*
X233230Y386679D01*
X233139Y386671D01*
X233109Y386659D01*
X233077Y386654D01*
X232997Y386611D01*
X232913Y386575D01*
X232881Y386549D01*
X232860Y386538D01*
X232838Y386515D01*
X232782Y386470D01*
X192272Y345960D01*
X192219Y345886D01*
X192159Y345817D01*
X192147Y345787D01*
X192128Y345760D01*
X192101Y345673D01*
X192067Y345589D01*
X192063Y345548D01*
X192056Y345525D01*
X192057Y345493D01*
X192049Y345422D01*
X192049Y312771D01*
X192063Y312681D01*
X192071Y312590D01*
X192083Y312561D01*
X192088Y312529D01*
X192131Y312448D01*
X192167Y312364D01*
X192193Y312332D01*
X192204Y312311D01*
X192227Y312289D01*
X192272Y312233D01*
X194307Y310198D01*
X194307Y305802D01*
X191198Y302693D01*
X186802Y302693D01*
G37*
%LPD*%
%LPC*%
G36*
X298802Y326693D02*
X298802Y326693D01*
X295693Y329802D01*
X295693Y334198D01*
X297728Y336233D01*
X297776Y336299D01*
X297785Y336309D01*
X297788Y336314D01*
X297841Y336377D01*
X297853Y336407D01*
X297872Y336433D01*
X297899Y336520D01*
X297933Y336605D01*
X297937Y336646D01*
X297944Y336668D01*
X297943Y336700D01*
X297951Y336771D01*
X297951Y375422D01*
X297937Y375512D01*
X297929Y375603D01*
X297917Y375633D01*
X297912Y375665D01*
X297869Y375745D01*
X297833Y375829D01*
X297807Y375861D01*
X297796Y375882D01*
X297773Y375904D01*
X297728Y375960D01*
X262218Y411470D01*
X262144Y411523D01*
X262075Y411583D01*
X262045Y411595D01*
X262018Y411614D01*
X261931Y411641D01*
X261847Y411675D01*
X261806Y411679D01*
X261783Y411686D01*
X261751Y411685D01*
X261680Y411693D01*
X258802Y411693D01*
X255693Y414802D01*
X255693Y419198D01*
X258802Y422307D01*
X263198Y422307D01*
X266307Y419198D01*
X266307Y416320D01*
X266321Y416230D01*
X266329Y416139D01*
X266341Y416109D01*
X266346Y416077D01*
X266389Y415997D01*
X266425Y415913D01*
X266451Y415881D01*
X266462Y415860D01*
X266485Y415838D01*
X266530Y415782D01*
X304049Y378263D01*
X304049Y336771D01*
X304063Y336681D01*
X304071Y336590D01*
X304083Y336561D01*
X304088Y336529D01*
X304131Y336448D01*
X304167Y336364D01*
X304193Y336332D01*
X304204Y336311D01*
X304227Y336289D01*
X304272Y336233D01*
X306307Y334198D01*
X306307Y329802D01*
X303198Y326693D01*
X298802Y326693D01*
G37*
%LPD*%
%LPC*%
G36*
X165802Y287693D02*
X165802Y287693D01*
X163767Y289728D01*
X163693Y289781D01*
X163623Y289841D01*
X163593Y289853D01*
X163567Y289872D01*
X163480Y289899D01*
X163395Y289933D01*
X163354Y289937D01*
X163332Y289944D01*
X163300Y289943D01*
X163229Y289951D01*
X103737Y289951D01*
X92218Y301470D01*
X92144Y301523D01*
X92075Y301583D01*
X92045Y301595D01*
X92018Y301614D01*
X91931Y301641D01*
X91847Y301675D01*
X91806Y301679D01*
X91783Y301686D01*
X91751Y301685D01*
X91680Y301693D01*
X88802Y301693D01*
X85693Y304802D01*
X85693Y309198D01*
X88802Y312307D01*
X93198Y312307D01*
X96307Y309198D01*
X96307Y306320D01*
X96321Y306230D01*
X96329Y306139D01*
X96341Y306109D01*
X96346Y306077D01*
X96389Y305997D01*
X96425Y305913D01*
X96451Y305881D01*
X96462Y305860D01*
X96485Y305838D01*
X96530Y305782D01*
X106040Y296272D01*
X106114Y296219D01*
X106183Y296159D01*
X106213Y296147D01*
X106240Y296128D01*
X106327Y296101D01*
X106411Y296067D01*
X106452Y296063D01*
X106475Y296056D01*
X106507Y296057D01*
X106578Y296049D01*
X163229Y296049D01*
X163319Y296063D01*
X163410Y296071D01*
X163439Y296083D01*
X163471Y296088D01*
X163552Y296131D01*
X163636Y296167D01*
X163668Y296193D01*
X163689Y296204D01*
X163711Y296227D01*
X163767Y296272D01*
X165802Y298307D01*
X170198Y298307D01*
X173307Y295198D01*
X173307Y290802D01*
X170198Y287693D01*
X165802Y287693D01*
G37*
%LPD*%
%LPC*%
G36*
X226802Y233693D02*
X226802Y233693D01*
X223693Y236802D01*
X223693Y241198D01*
X226802Y244307D01*
X231198Y244307D01*
X232217Y243288D01*
X232291Y243235D01*
X232361Y243175D01*
X232391Y243163D01*
X232417Y243144D01*
X232504Y243117D01*
X232589Y243083D01*
X232630Y243079D01*
X232652Y243072D01*
X232684Y243073D01*
X232755Y243065D01*
X263245Y243065D01*
X263335Y243079D01*
X263426Y243087D01*
X263455Y243099D01*
X263487Y243104D01*
X263568Y243147D01*
X263652Y243183D01*
X263684Y243209D01*
X263705Y243220D01*
X263727Y243243D01*
X263783Y243288D01*
X264802Y244307D01*
X269198Y244307D01*
X272307Y241198D01*
X272307Y236802D01*
X269198Y233693D01*
X264802Y233693D01*
X263783Y234712D01*
X263709Y234765D01*
X263639Y234825D01*
X263609Y234837D01*
X263583Y234856D01*
X263496Y234883D01*
X263411Y234917D01*
X263370Y234921D01*
X263348Y234928D01*
X263316Y234927D01*
X263245Y234935D01*
X232755Y234935D01*
X232665Y234921D01*
X232574Y234913D01*
X232545Y234901D01*
X232513Y234896D01*
X232432Y234853D01*
X232348Y234817D01*
X232316Y234791D01*
X232295Y234780D01*
X232273Y234757D01*
X232217Y234712D01*
X231198Y233693D01*
X226802Y233693D01*
G37*
%LPD*%
%LPC*%
G36*
X200802Y312693D02*
X200802Y312693D01*
X197693Y315802D01*
X197693Y320198D01*
X200802Y323307D01*
X203680Y323307D01*
X203770Y323321D01*
X203861Y323329D01*
X203891Y323341D01*
X203923Y323346D01*
X204003Y323389D01*
X204087Y323425D01*
X204119Y323451D01*
X204140Y323462D01*
X204162Y323485D01*
X204218Y323530D01*
X230470Y349782D01*
X230523Y349856D01*
X230583Y349925D01*
X230595Y349955D01*
X230614Y349982D01*
X230641Y350069D01*
X230675Y350153D01*
X230679Y350194D01*
X230686Y350217D01*
X230685Y350249D01*
X230693Y350320D01*
X230693Y353198D01*
X233802Y356307D01*
X238198Y356307D01*
X241307Y353198D01*
X241307Y348802D01*
X238198Y345693D01*
X235320Y345693D01*
X235230Y345679D01*
X235139Y345671D01*
X235109Y345659D01*
X235077Y345654D01*
X234997Y345611D01*
X234913Y345575D01*
X234881Y345549D01*
X234860Y345538D01*
X234838Y345515D01*
X234782Y345470D01*
X208530Y319218D01*
X208477Y319144D01*
X208417Y319075D01*
X208405Y319045D01*
X208386Y319018D01*
X208359Y318931D01*
X208325Y318847D01*
X208321Y318806D01*
X208314Y318783D01*
X208315Y318751D01*
X208307Y318680D01*
X208307Y315802D01*
X205198Y312693D01*
X200802Y312693D01*
G37*
%LPD*%
D10*
X34000Y19000D03*
X44000Y19000D03*
X54000Y19000D03*
X64000Y19000D03*
X91000Y307000D03*
D11*
X105000Y293000D01*
X168000Y293000D01*
D10*
X168000Y293000D03*
X203000Y318000D03*
D11*
X236000Y351000D01*
D10*
X236000Y351000D03*
X189000Y308000D03*
D11*
X189000Y347000D01*
X234000Y392000D01*
D10*
X234000Y392000D03*
X301000Y332000D03*
D11*
X301000Y377000D01*
X261000Y417000D01*
D10*
X261000Y417000D03*
X267000Y239000D03*
X229000Y239000D03*
D12*
X267000Y239000D01*
M02*
