G04 EAGLE Gerber RS-274X export*
G75*
%MOMM*%
%FSLAX34Y34*%
%LPD*%
%INSilkscreen Top*%
%IPPOS*%
%AMOC8*
5,1,8,0,0,1.08239X$1,22.5*%
G01*
%ADD10C,0.076200*%
%ADD11C,0.177800*%
%ADD12C,0.127000*%
%ADD13C,0.200000*%
%ADD14C,0.152400*%
%ADD15C,0.050800*%
%ADD16C,0.101600*%
%ADD17R,0.457200X0.762000*%


D10*
X188794Y77381D02*
X188888Y77383D01*
X188982Y77389D01*
X189075Y77398D01*
X189168Y77412D01*
X189261Y77429D01*
X189353Y77451D01*
X189443Y77476D01*
X189533Y77504D01*
X189621Y77537D01*
X189708Y77573D01*
X189793Y77612D01*
X189877Y77655D01*
X189959Y77702D01*
X190038Y77751D01*
X190116Y77805D01*
X190191Y77861D01*
X190264Y77920D01*
X190335Y77982D01*
X190403Y78047D01*
X190468Y78115D01*
X190530Y78186D01*
X190589Y78259D01*
X190646Y78334D01*
X190699Y78412D01*
X190748Y78491D01*
X190795Y78573D01*
X190838Y78657D01*
X190877Y78742D01*
X190913Y78829D01*
X190946Y78917D01*
X190974Y79007D01*
X190999Y79098D01*
X191021Y79189D01*
X191038Y79282D01*
X191052Y79375D01*
X191061Y79468D01*
X191067Y79562D01*
X191069Y79656D01*
X188794Y77381D02*
X188659Y77383D01*
X188523Y77389D01*
X188388Y77398D01*
X188253Y77412D01*
X188119Y77429D01*
X187985Y77450D01*
X187852Y77474D01*
X187719Y77503D01*
X187587Y77535D01*
X187457Y77571D01*
X187327Y77610D01*
X187199Y77654D01*
X187071Y77700D01*
X186946Y77751D01*
X186821Y77805D01*
X186698Y77862D01*
X186577Y77923D01*
X186458Y77987D01*
X186340Y78054D01*
X186225Y78125D01*
X186111Y78199D01*
X186000Y78277D01*
X185891Y78357D01*
X185784Y78440D01*
X185680Y78527D01*
X185578Y78616D01*
X185478Y78708D01*
X185381Y78803D01*
X185666Y85344D02*
X185668Y85438D01*
X185674Y85532D01*
X185683Y85625D01*
X185697Y85718D01*
X185714Y85811D01*
X185736Y85902D01*
X185761Y85993D01*
X185789Y86083D01*
X185822Y86171D01*
X185858Y86258D01*
X185897Y86343D01*
X185940Y86427D01*
X185987Y86509D01*
X186036Y86588D01*
X186089Y86666D01*
X186146Y86741D01*
X186205Y86814D01*
X186267Y86885D01*
X186332Y86953D01*
X186400Y87018D01*
X186471Y87080D01*
X186544Y87139D01*
X186619Y87196D01*
X186697Y87249D01*
X186776Y87298D01*
X186858Y87345D01*
X186942Y87388D01*
X187027Y87427D01*
X187114Y87463D01*
X187202Y87496D01*
X187292Y87524D01*
X187383Y87549D01*
X187474Y87571D01*
X187567Y87588D01*
X187660Y87602D01*
X187753Y87611D01*
X187847Y87617D01*
X187941Y87619D01*
X188066Y87617D01*
X188190Y87612D01*
X188315Y87603D01*
X188439Y87590D01*
X188563Y87573D01*
X188686Y87553D01*
X188808Y87530D01*
X188930Y87503D01*
X189051Y87472D01*
X189171Y87438D01*
X189290Y87400D01*
X189408Y87359D01*
X189524Y87314D01*
X189640Y87266D01*
X189753Y87215D01*
X189865Y87160D01*
X189976Y87102D01*
X190085Y87041D01*
X190192Y86977D01*
X190297Y86910D01*
X190400Y86839D01*
X190501Y86766D01*
X186803Y83353D02*
X186724Y83401D01*
X186648Y83453D01*
X186573Y83507D01*
X186501Y83565D01*
X186431Y83625D01*
X186364Y83688D01*
X186299Y83754D01*
X186237Y83822D01*
X186177Y83893D01*
X186121Y83966D01*
X186067Y84041D01*
X186017Y84118D01*
X185969Y84197D01*
X185925Y84278D01*
X185884Y84361D01*
X185847Y84445D01*
X185813Y84531D01*
X185782Y84618D01*
X185755Y84706D01*
X185731Y84796D01*
X185711Y84886D01*
X185694Y84976D01*
X185682Y85068D01*
X185672Y85160D01*
X185667Y85252D01*
X185665Y85344D01*
X189931Y81647D02*
X190010Y81599D01*
X190086Y81547D01*
X190161Y81493D01*
X190233Y81435D01*
X190303Y81375D01*
X190370Y81312D01*
X190435Y81246D01*
X190497Y81178D01*
X190557Y81107D01*
X190613Y81034D01*
X190667Y80959D01*
X190717Y80882D01*
X190765Y80803D01*
X190809Y80722D01*
X190850Y80639D01*
X190887Y80555D01*
X190921Y80469D01*
X190952Y80382D01*
X190979Y80294D01*
X191003Y80204D01*
X191023Y80114D01*
X191040Y80024D01*
X191052Y79932D01*
X191062Y79840D01*
X191067Y79748D01*
X191069Y79656D01*
X189931Y81647D02*
X186803Y83353D01*
X194860Y81931D02*
X194860Y79656D01*
X194860Y81931D02*
X194862Y82025D01*
X194868Y82119D01*
X194877Y82212D01*
X194891Y82305D01*
X194908Y82398D01*
X194930Y82489D01*
X194955Y82580D01*
X194983Y82670D01*
X195016Y82758D01*
X195052Y82845D01*
X195091Y82930D01*
X195134Y83014D01*
X195181Y83096D01*
X195230Y83175D01*
X195283Y83253D01*
X195340Y83328D01*
X195399Y83401D01*
X195461Y83472D01*
X195526Y83540D01*
X195594Y83605D01*
X195665Y83667D01*
X195738Y83726D01*
X195813Y83783D01*
X195891Y83836D01*
X195970Y83885D01*
X196052Y83932D01*
X196136Y83975D01*
X196221Y84014D01*
X196308Y84050D01*
X196396Y84083D01*
X196486Y84111D01*
X196577Y84136D01*
X196668Y84158D01*
X196761Y84175D01*
X196854Y84189D01*
X196947Y84198D01*
X197041Y84204D01*
X197135Y84206D01*
X197229Y84204D01*
X197323Y84198D01*
X197416Y84189D01*
X197509Y84175D01*
X197602Y84158D01*
X197693Y84136D01*
X197784Y84111D01*
X197874Y84083D01*
X197962Y84050D01*
X198049Y84014D01*
X198134Y83975D01*
X198218Y83932D01*
X198300Y83885D01*
X198379Y83836D01*
X198457Y83783D01*
X198532Y83726D01*
X198605Y83667D01*
X198676Y83605D01*
X198744Y83540D01*
X198809Y83472D01*
X198871Y83401D01*
X198930Y83328D01*
X198987Y83253D01*
X199040Y83175D01*
X199089Y83096D01*
X199136Y83014D01*
X199179Y82930D01*
X199218Y82845D01*
X199254Y82758D01*
X199287Y82670D01*
X199315Y82580D01*
X199340Y82489D01*
X199362Y82398D01*
X199379Y82305D01*
X199393Y82212D01*
X199402Y82119D01*
X199408Y82025D01*
X199410Y81931D01*
X199410Y79656D01*
X199408Y79562D01*
X199402Y79468D01*
X199393Y79375D01*
X199379Y79282D01*
X199362Y79189D01*
X199340Y79098D01*
X199315Y79007D01*
X199287Y78917D01*
X199254Y78829D01*
X199218Y78742D01*
X199179Y78657D01*
X199136Y78573D01*
X199089Y78491D01*
X199040Y78412D01*
X198987Y78334D01*
X198930Y78259D01*
X198871Y78186D01*
X198809Y78115D01*
X198744Y78047D01*
X198676Y77982D01*
X198605Y77920D01*
X198532Y77861D01*
X198457Y77804D01*
X198379Y77751D01*
X198300Y77702D01*
X198218Y77655D01*
X198134Y77612D01*
X198049Y77573D01*
X197962Y77537D01*
X197874Y77504D01*
X197784Y77476D01*
X197693Y77451D01*
X197602Y77429D01*
X197509Y77412D01*
X197416Y77398D01*
X197323Y77389D01*
X197229Y77383D01*
X197135Y77381D01*
X197041Y77383D01*
X196947Y77389D01*
X196854Y77398D01*
X196761Y77412D01*
X196668Y77429D01*
X196577Y77451D01*
X196486Y77476D01*
X196396Y77504D01*
X196308Y77537D01*
X196221Y77573D01*
X196136Y77612D01*
X196052Y77655D01*
X195970Y77702D01*
X195891Y77751D01*
X195813Y77804D01*
X195738Y77861D01*
X195665Y77920D01*
X195594Y77982D01*
X195526Y78047D01*
X195461Y78115D01*
X195399Y78186D01*
X195340Y78259D01*
X195283Y78334D01*
X195230Y78412D01*
X195181Y78491D01*
X195134Y78573D01*
X195091Y78657D01*
X195052Y78742D01*
X195016Y78829D01*
X194983Y78917D01*
X194955Y79007D01*
X194930Y79098D01*
X194908Y79189D01*
X194891Y79282D01*
X194877Y79375D01*
X194868Y79468D01*
X194862Y79562D01*
X194860Y79656D01*
X203583Y79087D02*
X203583Y87619D01*
X203583Y79087D02*
X203585Y79006D01*
X203591Y78925D01*
X203600Y78844D01*
X203614Y78764D01*
X203631Y78685D01*
X203652Y78606D01*
X203677Y78529D01*
X203705Y78453D01*
X203737Y78378D01*
X203773Y78305D01*
X203812Y78234D01*
X203854Y78165D01*
X203899Y78097D01*
X203948Y78032D01*
X204000Y77970D01*
X204054Y77910D01*
X204112Y77852D01*
X204172Y77798D01*
X204234Y77746D01*
X204299Y77697D01*
X204367Y77652D01*
X204436Y77610D01*
X204507Y77571D01*
X204580Y77535D01*
X204655Y77503D01*
X204731Y77475D01*
X204808Y77450D01*
X204887Y77429D01*
X204966Y77412D01*
X205046Y77398D01*
X205127Y77389D01*
X205208Y77383D01*
X205289Y77381D01*
X210663Y81362D02*
X213222Y81362D01*
X210663Y81363D02*
X210575Y81361D01*
X210487Y81355D01*
X210399Y81345D01*
X210312Y81332D01*
X210226Y81314D01*
X210141Y81293D01*
X210056Y81268D01*
X209973Y81240D01*
X209891Y81207D01*
X209810Y81171D01*
X209732Y81132D01*
X209655Y81089D01*
X209580Y81043D01*
X209507Y80993D01*
X209436Y80940D01*
X209368Y80885D01*
X209303Y80826D01*
X209240Y80764D01*
X209179Y80700D01*
X209122Y80633D01*
X209068Y80564D01*
X209017Y80492D01*
X208969Y80418D01*
X208924Y80342D01*
X208883Y80264D01*
X208845Y80184D01*
X208811Y80103D01*
X208781Y80021D01*
X208754Y79937D01*
X208731Y79852D01*
X208711Y79766D01*
X208696Y79679D01*
X208684Y79592D01*
X208676Y79504D01*
X208672Y79416D01*
X208672Y79328D01*
X208676Y79240D01*
X208684Y79152D01*
X208696Y79065D01*
X208711Y78978D01*
X208731Y78892D01*
X208754Y78807D01*
X208781Y78723D01*
X208811Y78641D01*
X208845Y78560D01*
X208883Y78480D01*
X208924Y78402D01*
X208969Y78326D01*
X209017Y78252D01*
X209068Y78180D01*
X209122Y78111D01*
X209179Y78044D01*
X209240Y77980D01*
X209303Y77918D01*
X209368Y77859D01*
X209436Y77804D01*
X209507Y77751D01*
X209580Y77701D01*
X209655Y77655D01*
X209732Y77612D01*
X209810Y77573D01*
X209891Y77537D01*
X209973Y77504D01*
X210056Y77476D01*
X210141Y77451D01*
X210226Y77430D01*
X210312Y77412D01*
X210399Y77399D01*
X210487Y77389D01*
X210575Y77383D01*
X210663Y77381D01*
X213222Y77381D01*
X213222Y82500D01*
X213220Y82581D01*
X213214Y82662D01*
X213205Y82743D01*
X213191Y82823D01*
X213174Y82902D01*
X213153Y82981D01*
X213128Y83058D01*
X213100Y83134D01*
X213068Y83209D01*
X213032Y83282D01*
X212993Y83353D01*
X212951Y83422D01*
X212906Y83490D01*
X212857Y83555D01*
X212805Y83617D01*
X212751Y83677D01*
X212693Y83735D01*
X212633Y83789D01*
X212571Y83841D01*
X212506Y83890D01*
X212438Y83935D01*
X212369Y83977D01*
X212298Y84016D01*
X212225Y84052D01*
X212150Y84084D01*
X212074Y84112D01*
X211997Y84137D01*
X211918Y84158D01*
X211839Y84175D01*
X211759Y84189D01*
X211678Y84198D01*
X211597Y84204D01*
X211516Y84206D01*
X209241Y84206D01*
X218013Y84206D02*
X218013Y77381D01*
X218013Y84206D02*
X221426Y84206D01*
X221426Y83069D01*
X230795Y87619D02*
X230795Y77381D01*
X231932Y77381D02*
X229657Y77381D01*
X229657Y87619D02*
X231932Y87619D01*
X236110Y84206D02*
X236110Y77381D01*
X236110Y84206D02*
X238953Y84206D01*
X239034Y84204D01*
X239115Y84198D01*
X239196Y84189D01*
X239276Y84175D01*
X239355Y84158D01*
X239434Y84137D01*
X239511Y84112D01*
X239587Y84084D01*
X239662Y84052D01*
X239735Y84016D01*
X239806Y83977D01*
X239875Y83935D01*
X239943Y83890D01*
X240008Y83841D01*
X240070Y83789D01*
X240130Y83735D01*
X240188Y83677D01*
X240242Y83617D01*
X240294Y83555D01*
X240343Y83490D01*
X240388Y83422D01*
X240430Y83353D01*
X240469Y83282D01*
X240505Y83209D01*
X240537Y83134D01*
X240565Y83058D01*
X240590Y82981D01*
X240611Y82902D01*
X240628Y82823D01*
X240642Y82743D01*
X240651Y82662D01*
X240657Y82581D01*
X240659Y82500D01*
X240660Y82500D02*
X240660Y77381D01*
X245397Y73968D02*
X245397Y84206D01*
X248241Y84206D01*
X248322Y84204D01*
X248403Y84198D01*
X248484Y84189D01*
X248564Y84175D01*
X248643Y84158D01*
X248722Y84137D01*
X248799Y84112D01*
X248875Y84084D01*
X248950Y84052D01*
X249023Y84016D01*
X249094Y83977D01*
X249163Y83935D01*
X249231Y83890D01*
X249296Y83841D01*
X249358Y83789D01*
X249418Y83735D01*
X249476Y83677D01*
X249530Y83617D01*
X249582Y83555D01*
X249631Y83490D01*
X249676Y83422D01*
X249718Y83353D01*
X249757Y83282D01*
X249793Y83209D01*
X249825Y83134D01*
X249853Y83058D01*
X249878Y82981D01*
X249899Y82902D01*
X249916Y82823D01*
X249930Y82743D01*
X249939Y82662D01*
X249945Y82581D01*
X249947Y82500D01*
X249947Y79087D01*
X249945Y79006D01*
X249939Y78925D01*
X249930Y78844D01*
X249916Y78764D01*
X249899Y78685D01*
X249878Y78606D01*
X249853Y78529D01*
X249825Y78453D01*
X249793Y78378D01*
X249757Y78305D01*
X249718Y78234D01*
X249676Y78165D01*
X249631Y78097D01*
X249582Y78032D01*
X249530Y77970D01*
X249476Y77910D01*
X249418Y77852D01*
X249358Y77798D01*
X249296Y77746D01*
X249231Y77697D01*
X249163Y77652D01*
X249094Y77610D01*
X249023Y77571D01*
X248950Y77535D01*
X248875Y77503D01*
X248799Y77475D01*
X248722Y77450D01*
X248643Y77429D01*
X248564Y77412D01*
X248484Y77398D01*
X248403Y77389D01*
X248322Y77383D01*
X248241Y77381D01*
X245397Y77381D01*
X254260Y79087D02*
X254260Y84206D01*
X254260Y79087D02*
X254262Y79006D01*
X254268Y78925D01*
X254277Y78844D01*
X254291Y78764D01*
X254308Y78685D01*
X254329Y78606D01*
X254354Y78529D01*
X254382Y78453D01*
X254414Y78378D01*
X254450Y78305D01*
X254489Y78234D01*
X254531Y78165D01*
X254576Y78097D01*
X254625Y78032D01*
X254677Y77970D01*
X254731Y77910D01*
X254789Y77852D01*
X254849Y77798D01*
X254911Y77746D01*
X254976Y77697D01*
X255044Y77652D01*
X255113Y77610D01*
X255184Y77571D01*
X255257Y77535D01*
X255332Y77503D01*
X255408Y77475D01*
X255485Y77450D01*
X255564Y77429D01*
X255643Y77412D01*
X255723Y77398D01*
X255804Y77389D01*
X255885Y77383D01*
X255966Y77381D01*
X258810Y77381D01*
X258810Y84206D01*
X262344Y84206D02*
X265756Y84206D01*
X263481Y87619D02*
X263481Y79087D01*
X263483Y79006D01*
X263489Y78925D01*
X263498Y78844D01*
X263512Y78764D01*
X263529Y78685D01*
X263550Y78606D01*
X263575Y78529D01*
X263603Y78453D01*
X263635Y78378D01*
X263671Y78305D01*
X263710Y78234D01*
X263752Y78165D01*
X263797Y78097D01*
X263846Y78032D01*
X263898Y77970D01*
X263952Y77910D01*
X264010Y77852D01*
X264070Y77798D01*
X264132Y77746D01*
X264197Y77697D01*
X264265Y77652D01*
X264334Y77610D01*
X264405Y77571D01*
X264478Y77535D01*
X264553Y77503D01*
X264629Y77475D01*
X264706Y77450D01*
X264785Y77429D01*
X264864Y77412D01*
X264944Y77398D01*
X265025Y77389D01*
X265106Y77383D01*
X265187Y77381D01*
X265188Y77381D02*
X265756Y77381D01*
X324381Y83069D02*
X327225Y83069D01*
X327330Y83067D01*
X327435Y83061D01*
X327540Y83052D01*
X327644Y83038D01*
X327748Y83021D01*
X327851Y82999D01*
X327953Y82974D01*
X328054Y82946D01*
X328154Y82913D01*
X328252Y82877D01*
X328350Y82837D01*
X328445Y82794D01*
X328540Y82747D01*
X328632Y82697D01*
X328722Y82643D01*
X328810Y82586D01*
X328897Y82526D01*
X328981Y82463D01*
X329062Y82396D01*
X329141Y82327D01*
X329217Y82255D01*
X329291Y82180D01*
X329362Y82102D01*
X329430Y82022D01*
X329495Y81939D01*
X329556Y81854D01*
X329615Y81767D01*
X329670Y81677D01*
X329722Y81586D01*
X329771Y81493D01*
X329816Y81398D01*
X329858Y81301D01*
X329895Y81203D01*
X329930Y81104D01*
X329960Y81003D01*
X329987Y80902D01*
X330010Y80799D01*
X330030Y80696D01*
X330045Y80592D01*
X330057Y80487D01*
X330065Y80383D01*
X330069Y80278D01*
X330069Y80172D01*
X330065Y80067D01*
X330057Y79963D01*
X330045Y79858D01*
X330030Y79754D01*
X330010Y79651D01*
X329987Y79548D01*
X329960Y79447D01*
X329930Y79346D01*
X329895Y79247D01*
X329858Y79149D01*
X329816Y79052D01*
X329771Y78957D01*
X329722Y78864D01*
X329670Y78773D01*
X329615Y78683D01*
X329556Y78596D01*
X329495Y78511D01*
X329430Y78428D01*
X329362Y78348D01*
X329291Y78270D01*
X329217Y78195D01*
X329141Y78123D01*
X329062Y78054D01*
X328981Y77987D01*
X328897Y77924D01*
X328810Y77864D01*
X328722Y77807D01*
X328632Y77753D01*
X328540Y77703D01*
X328445Y77656D01*
X328350Y77613D01*
X328252Y77573D01*
X328154Y77537D01*
X328054Y77504D01*
X327953Y77476D01*
X327851Y77451D01*
X327748Y77429D01*
X327644Y77412D01*
X327540Y77398D01*
X327435Y77389D01*
X327330Y77383D01*
X327225Y77381D01*
X324381Y77381D01*
X324381Y87619D01*
X327225Y87619D01*
X327319Y87617D01*
X327413Y87611D01*
X327506Y87602D01*
X327599Y87588D01*
X327692Y87571D01*
X327783Y87549D01*
X327874Y87524D01*
X327964Y87496D01*
X328052Y87463D01*
X328139Y87427D01*
X328224Y87388D01*
X328308Y87345D01*
X328390Y87298D01*
X328469Y87249D01*
X328547Y87196D01*
X328622Y87139D01*
X328695Y87080D01*
X328766Y87018D01*
X328834Y86953D01*
X328899Y86885D01*
X328961Y86814D01*
X329020Y86741D01*
X329077Y86666D01*
X329130Y86588D01*
X329179Y86509D01*
X329226Y86427D01*
X329269Y86343D01*
X329308Y86258D01*
X329344Y86171D01*
X329377Y86083D01*
X329405Y85993D01*
X329430Y85902D01*
X329452Y85811D01*
X329469Y85718D01*
X329483Y85625D01*
X329492Y85532D01*
X329498Y85438D01*
X329500Y85344D01*
X329498Y85250D01*
X329492Y85156D01*
X329483Y85063D01*
X329469Y84970D01*
X329452Y84877D01*
X329430Y84786D01*
X329405Y84695D01*
X329377Y84605D01*
X329344Y84517D01*
X329308Y84430D01*
X329269Y84345D01*
X329226Y84261D01*
X329179Y84179D01*
X329130Y84100D01*
X329077Y84022D01*
X329020Y83947D01*
X328961Y83874D01*
X328899Y83803D01*
X328834Y83735D01*
X328766Y83670D01*
X328695Y83608D01*
X328622Y83549D01*
X328547Y83492D01*
X328469Y83439D01*
X328390Y83390D01*
X328308Y83343D01*
X328224Y83300D01*
X328139Y83261D01*
X328052Y83225D01*
X327964Y83192D01*
X327874Y83164D01*
X327783Y83139D01*
X327692Y83117D01*
X327599Y83100D01*
X327506Y83086D01*
X327413Y83077D01*
X327319Y83071D01*
X327225Y83069D01*
X335666Y81362D02*
X338226Y81362D01*
X335666Y81363D02*
X335578Y81361D01*
X335490Y81355D01*
X335402Y81345D01*
X335315Y81332D01*
X335229Y81314D01*
X335144Y81293D01*
X335059Y81268D01*
X334976Y81240D01*
X334894Y81207D01*
X334813Y81171D01*
X334735Y81132D01*
X334658Y81089D01*
X334583Y81043D01*
X334510Y80993D01*
X334439Y80940D01*
X334371Y80885D01*
X334306Y80826D01*
X334243Y80764D01*
X334182Y80700D01*
X334125Y80633D01*
X334071Y80564D01*
X334020Y80492D01*
X333972Y80418D01*
X333927Y80342D01*
X333886Y80264D01*
X333848Y80184D01*
X333814Y80103D01*
X333784Y80021D01*
X333757Y79937D01*
X333734Y79852D01*
X333714Y79766D01*
X333699Y79679D01*
X333687Y79592D01*
X333679Y79504D01*
X333675Y79416D01*
X333675Y79328D01*
X333679Y79240D01*
X333687Y79152D01*
X333699Y79065D01*
X333714Y78978D01*
X333734Y78892D01*
X333757Y78807D01*
X333784Y78723D01*
X333814Y78641D01*
X333848Y78560D01*
X333886Y78480D01*
X333927Y78402D01*
X333972Y78326D01*
X334020Y78252D01*
X334071Y78180D01*
X334125Y78111D01*
X334182Y78044D01*
X334243Y77980D01*
X334306Y77918D01*
X334371Y77859D01*
X334439Y77804D01*
X334510Y77751D01*
X334583Y77701D01*
X334658Y77655D01*
X334735Y77612D01*
X334813Y77573D01*
X334894Y77537D01*
X334976Y77504D01*
X335059Y77476D01*
X335144Y77451D01*
X335229Y77430D01*
X335315Y77412D01*
X335402Y77399D01*
X335490Y77389D01*
X335578Y77383D01*
X335666Y77381D01*
X338226Y77381D01*
X338226Y82500D01*
X338225Y82500D02*
X338223Y82581D01*
X338217Y82662D01*
X338208Y82743D01*
X338194Y82823D01*
X338177Y82902D01*
X338156Y82981D01*
X338131Y83058D01*
X338103Y83134D01*
X338071Y83209D01*
X338035Y83282D01*
X337996Y83353D01*
X337954Y83422D01*
X337909Y83490D01*
X337860Y83555D01*
X337808Y83617D01*
X337754Y83677D01*
X337696Y83735D01*
X337636Y83789D01*
X337574Y83841D01*
X337509Y83890D01*
X337441Y83935D01*
X337372Y83977D01*
X337301Y84016D01*
X337228Y84052D01*
X337153Y84084D01*
X337077Y84112D01*
X337000Y84137D01*
X336921Y84158D01*
X336842Y84175D01*
X336762Y84189D01*
X336681Y84198D01*
X336600Y84204D01*
X336519Y84206D01*
X334244Y84206D01*
X341807Y84206D02*
X345220Y84206D01*
X342945Y87619D02*
X342945Y79087D01*
X342947Y79006D01*
X342953Y78925D01*
X342962Y78844D01*
X342976Y78764D01*
X342993Y78685D01*
X343014Y78606D01*
X343039Y78529D01*
X343067Y78453D01*
X343099Y78378D01*
X343135Y78305D01*
X343174Y78234D01*
X343216Y78165D01*
X343261Y78097D01*
X343310Y78032D01*
X343362Y77970D01*
X343416Y77910D01*
X343474Y77852D01*
X343534Y77798D01*
X343596Y77746D01*
X343661Y77697D01*
X343729Y77652D01*
X343798Y77610D01*
X343869Y77571D01*
X343942Y77535D01*
X344017Y77503D01*
X344093Y77475D01*
X344170Y77450D01*
X344249Y77429D01*
X344328Y77412D01*
X344408Y77398D01*
X344489Y77389D01*
X344570Y77383D01*
X344651Y77381D01*
X345220Y77381D01*
X348077Y84206D02*
X351490Y84206D01*
X349215Y87619D02*
X349215Y79087D01*
X349217Y79006D01*
X349223Y78925D01*
X349232Y78844D01*
X349246Y78764D01*
X349263Y78685D01*
X349284Y78606D01*
X349309Y78529D01*
X349337Y78453D01*
X349369Y78378D01*
X349405Y78305D01*
X349444Y78234D01*
X349486Y78165D01*
X349531Y78097D01*
X349580Y78032D01*
X349632Y77970D01*
X349686Y77910D01*
X349744Y77852D01*
X349804Y77798D01*
X349866Y77746D01*
X349931Y77697D01*
X349999Y77652D01*
X350068Y77610D01*
X350139Y77571D01*
X350212Y77535D01*
X350287Y77503D01*
X350363Y77475D01*
X350440Y77450D01*
X350519Y77429D01*
X350598Y77412D01*
X350678Y77398D01*
X350759Y77389D01*
X350840Y77383D01*
X350921Y77381D01*
X351490Y77381D01*
X362792Y77381D02*
X365067Y77381D01*
X362792Y77381D02*
X362698Y77383D01*
X362604Y77389D01*
X362511Y77398D01*
X362418Y77412D01*
X362325Y77429D01*
X362234Y77451D01*
X362143Y77476D01*
X362053Y77504D01*
X361965Y77537D01*
X361878Y77573D01*
X361793Y77612D01*
X361709Y77655D01*
X361627Y77702D01*
X361548Y77751D01*
X361470Y77804D01*
X361395Y77861D01*
X361322Y77920D01*
X361251Y77982D01*
X361183Y78047D01*
X361118Y78115D01*
X361056Y78186D01*
X360997Y78259D01*
X360940Y78334D01*
X360887Y78412D01*
X360838Y78491D01*
X360791Y78573D01*
X360748Y78657D01*
X360709Y78742D01*
X360673Y78829D01*
X360640Y78917D01*
X360612Y79007D01*
X360587Y79098D01*
X360565Y79189D01*
X360548Y79282D01*
X360534Y79375D01*
X360525Y79468D01*
X360519Y79562D01*
X360517Y79656D01*
X360517Y85344D01*
X360519Y85438D01*
X360525Y85532D01*
X360534Y85625D01*
X360548Y85718D01*
X360565Y85811D01*
X360587Y85902D01*
X360612Y85993D01*
X360640Y86083D01*
X360673Y86171D01*
X360709Y86258D01*
X360748Y86343D01*
X360791Y86427D01*
X360838Y86509D01*
X360887Y86588D01*
X360940Y86666D01*
X360997Y86741D01*
X361056Y86814D01*
X361118Y86885D01*
X361183Y86953D01*
X361251Y87018D01*
X361322Y87080D01*
X361395Y87139D01*
X361470Y87195D01*
X361548Y87249D01*
X361627Y87298D01*
X361709Y87345D01*
X361793Y87388D01*
X361878Y87427D01*
X361965Y87463D01*
X362053Y87496D01*
X362143Y87524D01*
X362233Y87549D01*
X362325Y87571D01*
X362418Y87588D01*
X362511Y87602D01*
X362604Y87611D01*
X362698Y87617D01*
X362792Y87619D01*
X365067Y87619D01*
X369033Y87619D02*
X369033Y77381D01*
X369033Y84206D02*
X371877Y84206D01*
X371958Y84204D01*
X372039Y84198D01*
X372120Y84189D01*
X372200Y84175D01*
X372279Y84158D01*
X372358Y84137D01*
X372435Y84112D01*
X372511Y84084D01*
X372586Y84052D01*
X372659Y84016D01*
X372730Y83977D01*
X372799Y83935D01*
X372867Y83890D01*
X372932Y83841D01*
X372994Y83789D01*
X373054Y83735D01*
X373112Y83677D01*
X373166Y83617D01*
X373218Y83555D01*
X373267Y83490D01*
X373312Y83422D01*
X373354Y83353D01*
X373393Y83282D01*
X373429Y83209D01*
X373461Y83134D01*
X373489Y83058D01*
X373514Y82981D01*
X373535Y82902D01*
X373552Y82823D01*
X373566Y82743D01*
X373575Y82662D01*
X373581Y82581D01*
X373583Y82500D01*
X373583Y77381D01*
X378326Y77381D02*
X378326Y84206D01*
X381739Y84206D01*
X381739Y83069D01*
X386531Y77381D02*
X389375Y77381D01*
X386531Y77381D02*
X386450Y77383D01*
X386369Y77389D01*
X386288Y77398D01*
X386208Y77412D01*
X386129Y77429D01*
X386050Y77450D01*
X385973Y77475D01*
X385897Y77503D01*
X385822Y77535D01*
X385749Y77571D01*
X385678Y77610D01*
X385609Y77652D01*
X385541Y77697D01*
X385476Y77746D01*
X385414Y77798D01*
X385354Y77852D01*
X385296Y77910D01*
X385242Y77970D01*
X385190Y78032D01*
X385141Y78097D01*
X385096Y78165D01*
X385054Y78234D01*
X385015Y78305D01*
X384979Y78378D01*
X384947Y78453D01*
X384919Y78529D01*
X384894Y78606D01*
X384873Y78685D01*
X384856Y78764D01*
X384842Y78844D01*
X384833Y78925D01*
X384827Y79006D01*
X384825Y79087D01*
X384825Y82500D01*
X384827Y82581D01*
X384833Y82662D01*
X384842Y82743D01*
X384856Y82823D01*
X384873Y82902D01*
X384894Y82981D01*
X384919Y83058D01*
X384947Y83134D01*
X384979Y83209D01*
X385015Y83282D01*
X385054Y83353D01*
X385096Y83422D01*
X385141Y83490D01*
X385190Y83555D01*
X385242Y83617D01*
X385296Y83677D01*
X385354Y83735D01*
X385414Y83789D01*
X385476Y83841D01*
X385541Y83890D01*
X385609Y83935D01*
X385678Y83977D01*
X385749Y84016D01*
X385822Y84052D01*
X385897Y84084D01*
X385973Y84112D01*
X386050Y84137D01*
X386129Y84158D01*
X386208Y84175D01*
X386288Y84189D01*
X386369Y84198D01*
X386450Y84204D01*
X386531Y84206D01*
X389375Y84206D01*
X389375Y75675D01*
X389373Y75594D01*
X389367Y75513D01*
X389358Y75432D01*
X389344Y75352D01*
X389327Y75273D01*
X389306Y75194D01*
X389281Y75117D01*
X389253Y75041D01*
X389221Y74966D01*
X389185Y74893D01*
X389146Y74822D01*
X389104Y74753D01*
X389059Y74685D01*
X389010Y74620D01*
X388958Y74558D01*
X388904Y74498D01*
X388846Y74440D01*
X388786Y74386D01*
X388724Y74334D01*
X388659Y74285D01*
X388591Y74240D01*
X388522Y74198D01*
X388451Y74159D01*
X388378Y74123D01*
X388303Y74091D01*
X388227Y74063D01*
X388150Y74038D01*
X388071Y74017D01*
X387992Y74000D01*
X387912Y73986D01*
X387831Y73977D01*
X387750Y73971D01*
X387669Y73969D01*
X387669Y73968D02*
X385394Y73968D01*
D11*
X179000Y396000D02*
X173000Y396000D01*
X173000Y384000D02*
X179000Y384000D01*
X193780Y398890D02*
X158220Y398890D01*
X193780Y398890D02*
X193780Y381110D01*
X158220Y381110D01*
X158220Y398890D01*
D12*
X196030Y396821D02*
X196030Y395297D01*
X196030Y396821D02*
X196032Y396898D01*
X196038Y396975D01*
X196048Y397052D01*
X196061Y397128D01*
X196079Y397203D01*
X196100Y397277D01*
X196125Y397350D01*
X196154Y397422D01*
X196186Y397492D01*
X196221Y397561D01*
X196261Y397627D01*
X196303Y397692D01*
X196349Y397754D01*
X196398Y397814D01*
X196449Y397871D01*
X196504Y397926D01*
X196561Y397977D01*
X196621Y398026D01*
X196683Y398072D01*
X196748Y398114D01*
X196814Y398154D01*
X196883Y398189D01*
X196953Y398221D01*
X197025Y398250D01*
X197098Y398275D01*
X197172Y398296D01*
X197247Y398314D01*
X197323Y398327D01*
X197400Y398337D01*
X197477Y398343D01*
X197554Y398345D01*
X201364Y398345D01*
X201441Y398343D01*
X201518Y398337D01*
X201595Y398327D01*
X201671Y398314D01*
X201746Y398296D01*
X201820Y398275D01*
X201893Y398250D01*
X201965Y398221D01*
X202035Y398189D01*
X202104Y398154D01*
X202170Y398114D01*
X202235Y398072D01*
X202297Y398026D01*
X202357Y397977D01*
X202414Y397926D01*
X202469Y397871D01*
X202520Y397814D01*
X202569Y397754D01*
X202615Y397692D01*
X202657Y397627D01*
X202697Y397561D01*
X202732Y397492D01*
X202764Y397422D01*
X202793Y397350D01*
X202818Y397277D01*
X202839Y397203D01*
X202857Y397128D01*
X202870Y397052D01*
X202880Y396975D01*
X202886Y396898D01*
X202888Y396821D01*
X202888Y395297D01*
X201364Y392218D02*
X202888Y390313D01*
X196030Y390313D01*
X196030Y392218D02*
X196030Y388408D01*
D11*
X118000Y310000D02*
X112000Y310000D01*
X112000Y322000D02*
X118000Y322000D01*
X132780Y307110D02*
X97220Y307110D01*
X97220Y324890D01*
X132780Y324890D01*
X132780Y307110D01*
D12*
X135415Y321522D02*
X135415Y323046D01*
X135417Y323123D01*
X135423Y323200D01*
X135433Y323277D01*
X135446Y323353D01*
X135464Y323428D01*
X135485Y323502D01*
X135510Y323575D01*
X135539Y323647D01*
X135571Y323717D01*
X135606Y323786D01*
X135646Y323852D01*
X135688Y323917D01*
X135734Y323979D01*
X135783Y324039D01*
X135834Y324096D01*
X135889Y324151D01*
X135946Y324202D01*
X136006Y324251D01*
X136068Y324297D01*
X136133Y324339D01*
X136199Y324379D01*
X136268Y324414D01*
X136338Y324446D01*
X136410Y324475D01*
X136483Y324500D01*
X136557Y324521D01*
X136632Y324539D01*
X136708Y324552D01*
X136785Y324562D01*
X136862Y324568D01*
X136939Y324570D01*
X140749Y324570D01*
X140826Y324568D01*
X140903Y324562D01*
X140980Y324552D01*
X141056Y324539D01*
X141131Y324521D01*
X141205Y324500D01*
X141278Y324475D01*
X141350Y324446D01*
X141420Y324414D01*
X141489Y324379D01*
X141555Y324339D01*
X141620Y324297D01*
X141682Y324251D01*
X141742Y324202D01*
X141799Y324151D01*
X141854Y324096D01*
X141905Y324039D01*
X141954Y323979D01*
X142000Y323917D01*
X142042Y323852D01*
X142082Y323786D01*
X142117Y323717D01*
X142149Y323647D01*
X142178Y323575D01*
X142203Y323502D01*
X142224Y323428D01*
X142242Y323353D01*
X142255Y323277D01*
X142265Y323200D01*
X142271Y323123D01*
X142273Y323046D01*
X142273Y321522D01*
X135415Y318443D02*
X135415Y316538D01*
X135417Y316453D01*
X135423Y316367D01*
X135432Y316282D01*
X135446Y316198D01*
X135463Y316114D01*
X135484Y316031D01*
X135508Y315949D01*
X135536Y315869D01*
X135568Y315789D01*
X135604Y315711D01*
X135642Y315635D01*
X135685Y315561D01*
X135730Y315489D01*
X135779Y315418D01*
X135831Y315350D01*
X135885Y315285D01*
X135943Y315222D01*
X136004Y315161D01*
X136067Y315103D01*
X136132Y315049D01*
X136200Y314997D01*
X136271Y314948D01*
X136343Y314903D01*
X136417Y314860D01*
X136493Y314822D01*
X136571Y314786D01*
X136651Y314754D01*
X136731Y314726D01*
X136813Y314702D01*
X136896Y314681D01*
X136980Y314664D01*
X137064Y314650D01*
X137149Y314641D01*
X137235Y314635D01*
X137320Y314633D01*
X137405Y314635D01*
X137491Y314641D01*
X137576Y314650D01*
X137660Y314664D01*
X137744Y314681D01*
X137827Y314702D01*
X137909Y314726D01*
X137989Y314754D01*
X138069Y314786D01*
X138147Y314822D01*
X138223Y314860D01*
X138297Y314903D01*
X138369Y314948D01*
X138440Y314997D01*
X138508Y315049D01*
X138573Y315103D01*
X138636Y315161D01*
X138697Y315222D01*
X138755Y315285D01*
X138809Y315350D01*
X138861Y315418D01*
X138910Y315489D01*
X138955Y315561D01*
X138998Y315635D01*
X139036Y315711D01*
X139072Y315789D01*
X139104Y315869D01*
X139132Y315949D01*
X139156Y316031D01*
X139177Y316114D01*
X139194Y316198D01*
X139208Y316282D01*
X139217Y316367D01*
X139223Y316453D01*
X139225Y316538D01*
X142273Y316157D02*
X142273Y318443D01*
X142273Y316157D02*
X142271Y316080D01*
X142265Y316003D01*
X142255Y315926D01*
X142242Y315850D01*
X142224Y315775D01*
X142203Y315701D01*
X142178Y315628D01*
X142149Y315556D01*
X142117Y315486D01*
X142082Y315417D01*
X142042Y315351D01*
X142000Y315286D01*
X141954Y315224D01*
X141905Y315164D01*
X141854Y315107D01*
X141799Y315052D01*
X141742Y315001D01*
X141682Y314952D01*
X141620Y314906D01*
X141555Y314864D01*
X141489Y314824D01*
X141420Y314789D01*
X141350Y314757D01*
X141278Y314728D01*
X141205Y314703D01*
X141131Y314682D01*
X141056Y314664D01*
X140980Y314651D01*
X140903Y314641D01*
X140826Y314635D01*
X140749Y314633D01*
X140672Y314635D01*
X140595Y314641D01*
X140518Y314651D01*
X140442Y314664D01*
X140367Y314682D01*
X140293Y314703D01*
X140220Y314728D01*
X140148Y314757D01*
X140078Y314789D01*
X140009Y314824D01*
X139943Y314864D01*
X139878Y314906D01*
X139816Y314952D01*
X139756Y315001D01*
X139699Y315052D01*
X139644Y315107D01*
X139593Y315164D01*
X139544Y315224D01*
X139498Y315286D01*
X139456Y315351D01*
X139416Y315417D01*
X139381Y315486D01*
X139349Y315556D01*
X139320Y315628D01*
X139295Y315701D01*
X139274Y315775D01*
X139256Y315850D01*
X139243Y315926D01*
X139233Y316003D01*
X139227Y316080D01*
X139225Y316157D01*
X139225Y317681D01*
D11*
X118000Y378000D02*
X112000Y378000D01*
X112000Y366000D02*
X118000Y366000D01*
X132780Y380890D02*
X97220Y380890D01*
X132780Y380890D02*
X132780Y363110D01*
X97220Y363110D01*
X97220Y380890D01*
D12*
X134855Y379136D02*
X134855Y377612D01*
X134855Y379136D02*
X134857Y379213D01*
X134863Y379290D01*
X134873Y379367D01*
X134886Y379443D01*
X134904Y379518D01*
X134925Y379592D01*
X134950Y379665D01*
X134979Y379737D01*
X135011Y379807D01*
X135046Y379876D01*
X135086Y379942D01*
X135128Y380007D01*
X135174Y380069D01*
X135223Y380129D01*
X135274Y380186D01*
X135329Y380241D01*
X135386Y380292D01*
X135446Y380341D01*
X135508Y380387D01*
X135573Y380429D01*
X135639Y380469D01*
X135708Y380504D01*
X135778Y380536D01*
X135850Y380565D01*
X135923Y380590D01*
X135997Y380611D01*
X136072Y380629D01*
X136148Y380642D01*
X136225Y380652D01*
X136302Y380658D01*
X136379Y380660D01*
X140189Y380660D01*
X140266Y380658D01*
X140343Y380652D01*
X140420Y380642D01*
X140496Y380629D01*
X140571Y380611D01*
X140645Y380590D01*
X140718Y380565D01*
X140790Y380536D01*
X140860Y380504D01*
X140929Y380469D01*
X140995Y380429D01*
X141060Y380387D01*
X141122Y380341D01*
X141182Y380292D01*
X141239Y380241D01*
X141294Y380186D01*
X141345Y380129D01*
X141394Y380069D01*
X141440Y380007D01*
X141482Y379942D01*
X141522Y379876D01*
X141557Y379807D01*
X141589Y379737D01*
X141618Y379665D01*
X141643Y379592D01*
X141664Y379518D01*
X141682Y379443D01*
X141695Y379367D01*
X141705Y379290D01*
X141711Y379213D01*
X141713Y379136D01*
X141713Y377612D01*
X141713Y373009D02*
X136379Y374533D01*
X136379Y370723D01*
X137903Y371866D02*
X134855Y371866D01*
D11*
X258000Y169000D02*
X264000Y169000D01*
X264000Y157000D02*
X258000Y157000D01*
X243220Y171890D02*
X278780Y171890D01*
X278780Y154110D01*
X243220Y154110D01*
X243220Y171890D01*
D12*
X240570Y156903D02*
X240570Y155379D01*
X240568Y155302D01*
X240562Y155225D01*
X240552Y155148D01*
X240539Y155072D01*
X240521Y154997D01*
X240500Y154923D01*
X240475Y154850D01*
X240446Y154778D01*
X240414Y154708D01*
X240379Y154639D01*
X240339Y154573D01*
X240297Y154508D01*
X240251Y154446D01*
X240202Y154386D01*
X240151Y154329D01*
X240096Y154274D01*
X240039Y154223D01*
X239979Y154174D01*
X239917Y154128D01*
X239852Y154086D01*
X239786Y154046D01*
X239717Y154011D01*
X239647Y153979D01*
X239575Y153950D01*
X239502Y153925D01*
X239428Y153904D01*
X239353Y153886D01*
X239277Y153873D01*
X239200Y153863D01*
X239123Y153857D01*
X239046Y153855D01*
X235236Y153855D01*
X235159Y153857D01*
X235082Y153863D01*
X235005Y153873D01*
X234929Y153886D01*
X234854Y153904D01*
X234780Y153925D01*
X234707Y153950D01*
X234635Y153979D01*
X234565Y154011D01*
X234496Y154046D01*
X234430Y154086D01*
X234365Y154128D01*
X234303Y154174D01*
X234243Y154223D01*
X234186Y154274D01*
X234131Y154329D01*
X234080Y154386D01*
X234031Y154446D01*
X233985Y154508D01*
X233943Y154573D01*
X233903Y154639D01*
X233868Y154708D01*
X233836Y154778D01*
X233807Y154850D01*
X233782Y154923D01*
X233761Y154997D01*
X233743Y155072D01*
X233730Y155148D01*
X233720Y155225D01*
X233714Y155302D01*
X233712Y155379D01*
X233712Y156903D01*
X240570Y159982D02*
X240570Y162268D01*
X240568Y162345D01*
X240562Y162422D01*
X240552Y162499D01*
X240539Y162575D01*
X240521Y162650D01*
X240500Y162724D01*
X240475Y162797D01*
X240446Y162869D01*
X240414Y162939D01*
X240379Y163008D01*
X240339Y163074D01*
X240297Y163139D01*
X240251Y163201D01*
X240202Y163261D01*
X240151Y163318D01*
X240096Y163373D01*
X240039Y163424D01*
X239979Y163473D01*
X239917Y163519D01*
X239852Y163561D01*
X239786Y163601D01*
X239717Y163636D01*
X239647Y163668D01*
X239575Y163697D01*
X239502Y163722D01*
X239428Y163743D01*
X239353Y163761D01*
X239277Y163774D01*
X239200Y163784D01*
X239123Y163790D01*
X239046Y163792D01*
X238284Y163792D01*
X238207Y163790D01*
X238130Y163784D01*
X238053Y163774D01*
X237977Y163761D01*
X237902Y163743D01*
X237828Y163722D01*
X237755Y163697D01*
X237683Y163668D01*
X237613Y163636D01*
X237544Y163601D01*
X237478Y163561D01*
X237413Y163519D01*
X237351Y163473D01*
X237291Y163424D01*
X237234Y163373D01*
X237179Y163318D01*
X237128Y163261D01*
X237079Y163201D01*
X237033Y163139D01*
X236991Y163074D01*
X236951Y163008D01*
X236916Y162939D01*
X236884Y162869D01*
X236855Y162797D01*
X236830Y162724D01*
X236809Y162650D01*
X236791Y162575D01*
X236778Y162499D01*
X236768Y162422D01*
X236762Y162345D01*
X236760Y162268D01*
X236760Y159982D01*
X233712Y159982D01*
X233712Y163792D01*
D11*
X258000Y225000D02*
X264000Y225000D01*
X264000Y213000D02*
X258000Y213000D01*
X243220Y227890D02*
X278780Y227890D01*
X278780Y210110D01*
X243220Y210110D01*
X243220Y227890D01*
D12*
X240570Y212903D02*
X240570Y211379D01*
X240568Y211302D01*
X240562Y211225D01*
X240552Y211148D01*
X240539Y211072D01*
X240521Y210997D01*
X240500Y210923D01*
X240475Y210850D01*
X240446Y210778D01*
X240414Y210708D01*
X240379Y210639D01*
X240339Y210573D01*
X240297Y210508D01*
X240251Y210446D01*
X240202Y210386D01*
X240151Y210329D01*
X240096Y210274D01*
X240039Y210223D01*
X239979Y210174D01*
X239917Y210128D01*
X239852Y210086D01*
X239786Y210046D01*
X239717Y210011D01*
X239647Y209979D01*
X239575Y209950D01*
X239502Y209925D01*
X239428Y209904D01*
X239353Y209886D01*
X239277Y209873D01*
X239200Y209863D01*
X239123Y209857D01*
X239046Y209855D01*
X235236Y209855D01*
X235159Y209857D01*
X235082Y209863D01*
X235005Y209873D01*
X234929Y209886D01*
X234854Y209904D01*
X234780Y209925D01*
X234707Y209950D01*
X234635Y209979D01*
X234565Y210011D01*
X234496Y210046D01*
X234430Y210086D01*
X234365Y210128D01*
X234303Y210174D01*
X234243Y210223D01*
X234186Y210274D01*
X234131Y210329D01*
X234080Y210386D01*
X234031Y210446D01*
X233985Y210508D01*
X233943Y210573D01*
X233903Y210639D01*
X233868Y210708D01*
X233836Y210778D01*
X233807Y210850D01*
X233782Y210923D01*
X233761Y210997D01*
X233743Y211072D01*
X233730Y211148D01*
X233720Y211225D01*
X233714Y211302D01*
X233712Y211379D01*
X233712Y212903D01*
X236760Y215982D02*
X236760Y218268D01*
X236762Y218345D01*
X236768Y218422D01*
X236778Y218499D01*
X236791Y218575D01*
X236809Y218650D01*
X236830Y218724D01*
X236855Y218797D01*
X236884Y218869D01*
X236916Y218939D01*
X236951Y219008D01*
X236991Y219074D01*
X237033Y219139D01*
X237079Y219201D01*
X237128Y219261D01*
X237179Y219318D01*
X237234Y219373D01*
X237291Y219424D01*
X237351Y219473D01*
X237413Y219519D01*
X237478Y219561D01*
X237544Y219601D01*
X237613Y219636D01*
X237683Y219668D01*
X237755Y219697D01*
X237828Y219722D01*
X237902Y219743D01*
X237977Y219761D01*
X238053Y219774D01*
X238130Y219784D01*
X238207Y219790D01*
X238284Y219792D01*
X238665Y219792D01*
X238750Y219790D01*
X238836Y219784D01*
X238921Y219775D01*
X239005Y219761D01*
X239089Y219744D01*
X239172Y219723D01*
X239254Y219699D01*
X239334Y219671D01*
X239414Y219639D01*
X239492Y219603D01*
X239568Y219565D01*
X239642Y219522D01*
X239714Y219477D01*
X239785Y219428D01*
X239853Y219376D01*
X239918Y219322D01*
X239981Y219264D01*
X240042Y219203D01*
X240100Y219140D01*
X240154Y219075D01*
X240206Y219007D01*
X240255Y218936D01*
X240300Y218864D01*
X240343Y218790D01*
X240381Y218714D01*
X240417Y218636D01*
X240449Y218556D01*
X240477Y218476D01*
X240501Y218394D01*
X240522Y218311D01*
X240539Y218227D01*
X240553Y218143D01*
X240562Y218058D01*
X240568Y217972D01*
X240570Y217887D01*
X240568Y217802D01*
X240562Y217716D01*
X240553Y217631D01*
X240539Y217547D01*
X240522Y217463D01*
X240501Y217380D01*
X240477Y217298D01*
X240449Y217218D01*
X240417Y217138D01*
X240381Y217060D01*
X240343Y216984D01*
X240300Y216910D01*
X240255Y216838D01*
X240206Y216767D01*
X240154Y216699D01*
X240100Y216634D01*
X240042Y216571D01*
X239981Y216510D01*
X239918Y216452D01*
X239853Y216398D01*
X239785Y216346D01*
X239714Y216297D01*
X239642Y216252D01*
X239568Y216209D01*
X239492Y216171D01*
X239414Y216135D01*
X239334Y216103D01*
X239254Y216075D01*
X239172Y216051D01*
X239089Y216030D01*
X239005Y216013D01*
X238921Y215999D01*
X238836Y215990D01*
X238750Y215984D01*
X238665Y215982D01*
X236760Y215982D01*
X236651Y215984D01*
X236543Y215990D01*
X236434Y215999D01*
X236326Y216013D01*
X236219Y216030D01*
X236112Y216052D01*
X236006Y216077D01*
X235901Y216105D01*
X235797Y216138D01*
X235695Y216174D01*
X235594Y216214D01*
X235494Y216257D01*
X235396Y216304D01*
X235299Y216355D01*
X235205Y216409D01*
X235112Y216466D01*
X235022Y216526D01*
X234933Y216590D01*
X234847Y216657D01*
X234764Y216726D01*
X234683Y216799D01*
X234605Y216875D01*
X234529Y216953D01*
X234456Y217034D01*
X234387Y217117D01*
X234320Y217203D01*
X234256Y217292D01*
X234196Y217382D01*
X234139Y217475D01*
X234085Y217569D01*
X234034Y217666D01*
X233987Y217764D01*
X233944Y217864D01*
X233904Y217965D01*
X233868Y218067D01*
X233835Y218171D01*
X233807Y218276D01*
X233782Y218382D01*
X233760Y218489D01*
X233743Y218596D01*
X233729Y218704D01*
X233720Y218813D01*
X233714Y218921D01*
X233712Y219030D01*
D11*
X314000Y227000D02*
X314000Y233000D01*
X302000Y233000D02*
X302000Y227000D01*
X316890Y212220D02*
X316890Y247780D01*
X316890Y212220D02*
X299110Y212220D01*
X299110Y247780D01*
X316890Y247780D01*
D12*
X301903Y202430D02*
X300379Y202430D01*
X300302Y202432D01*
X300225Y202438D01*
X300148Y202448D01*
X300072Y202461D01*
X299997Y202479D01*
X299923Y202500D01*
X299850Y202525D01*
X299778Y202554D01*
X299708Y202586D01*
X299639Y202621D01*
X299573Y202661D01*
X299508Y202703D01*
X299446Y202749D01*
X299386Y202798D01*
X299329Y202849D01*
X299274Y202904D01*
X299223Y202961D01*
X299174Y203021D01*
X299128Y203083D01*
X299086Y203148D01*
X299046Y203214D01*
X299011Y203283D01*
X298979Y203353D01*
X298950Y203425D01*
X298925Y203498D01*
X298904Y203572D01*
X298886Y203647D01*
X298873Y203723D01*
X298863Y203800D01*
X298857Y203877D01*
X298855Y203954D01*
X298855Y207764D01*
X298857Y207841D01*
X298863Y207918D01*
X298873Y207995D01*
X298886Y208071D01*
X298904Y208146D01*
X298925Y208220D01*
X298950Y208293D01*
X298979Y208365D01*
X299011Y208435D01*
X299046Y208504D01*
X299086Y208570D01*
X299128Y208635D01*
X299174Y208697D01*
X299223Y208757D01*
X299274Y208814D01*
X299329Y208869D01*
X299386Y208920D01*
X299446Y208969D01*
X299508Y209015D01*
X299573Y209057D01*
X299639Y209097D01*
X299708Y209132D01*
X299778Y209164D01*
X299850Y209193D01*
X299923Y209218D01*
X299997Y209239D01*
X300072Y209257D01*
X300148Y209270D01*
X300225Y209280D01*
X300302Y209286D01*
X300379Y209288D01*
X301903Y209288D01*
X304982Y209288D02*
X304982Y208526D01*
X304982Y209288D02*
X308792Y209288D01*
X306887Y202430D01*
D11*
X150000Y112000D02*
X150000Y106000D01*
X138000Y106000D02*
X138000Y112000D01*
X152890Y126780D02*
X152890Y91220D01*
X135110Y91220D01*
X135110Y126780D01*
X152890Y126780D01*
D12*
X132585Y94478D02*
X132585Y92954D01*
X132583Y92877D01*
X132577Y92800D01*
X132567Y92723D01*
X132554Y92647D01*
X132536Y92572D01*
X132515Y92498D01*
X132490Y92425D01*
X132461Y92353D01*
X132429Y92283D01*
X132394Y92214D01*
X132354Y92148D01*
X132312Y92083D01*
X132266Y92021D01*
X132217Y91961D01*
X132166Y91904D01*
X132111Y91849D01*
X132054Y91798D01*
X131994Y91749D01*
X131932Y91703D01*
X131867Y91661D01*
X131801Y91621D01*
X131732Y91586D01*
X131662Y91554D01*
X131590Y91525D01*
X131517Y91500D01*
X131443Y91479D01*
X131368Y91461D01*
X131292Y91448D01*
X131215Y91438D01*
X131138Y91432D01*
X131061Y91430D01*
X127251Y91430D01*
X127174Y91432D01*
X127097Y91438D01*
X127020Y91448D01*
X126944Y91461D01*
X126869Y91479D01*
X126795Y91500D01*
X126722Y91525D01*
X126650Y91554D01*
X126580Y91586D01*
X126511Y91621D01*
X126445Y91661D01*
X126380Y91703D01*
X126318Y91749D01*
X126258Y91798D01*
X126201Y91849D01*
X126146Y91904D01*
X126095Y91961D01*
X126046Y92021D01*
X126000Y92083D01*
X125958Y92148D01*
X125918Y92214D01*
X125883Y92283D01*
X125851Y92353D01*
X125822Y92425D01*
X125797Y92498D01*
X125776Y92572D01*
X125758Y92647D01*
X125745Y92723D01*
X125735Y92800D01*
X125729Y92877D01*
X125727Y92954D01*
X125727Y94478D01*
X133347Y97207D02*
X133347Y100255D01*
X132585Y103653D02*
X125727Y103653D01*
X125727Y105558D01*
X125729Y105643D01*
X125735Y105729D01*
X125744Y105814D01*
X125758Y105898D01*
X125775Y105982D01*
X125796Y106065D01*
X125820Y106147D01*
X125848Y106227D01*
X125880Y106307D01*
X125916Y106385D01*
X125954Y106461D01*
X125997Y106535D01*
X126042Y106607D01*
X126091Y106678D01*
X126143Y106746D01*
X126197Y106811D01*
X126255Y106874D01*
X126316Y106935D01*
X126379Y106993D01*
X126444Y107047D01*
X126512Y107099D01*
X126583Y107148D01*
X126655Y107193D01*
X126729Y107236D01*
X126805Y107274D01*
X126883Y107310D01*
X126963Y107342D01*
X127043Y107370D01*
X127125Y107394D01*
X127208Y107415D01*
X127292Y107432D01*
X127376Y107446D01*
X127461Y107455D01*
X127547Y107461D01*
X127632Y107463D01*
X130680Y107463D01*
X130765Y107461D01*
X130851Y107455D01*
X130936Y107446D01*
X131020Y107432D01*
X131104Y107415D01*
X131187Y107394D01*
X131269Y107370D01*
X131349Y107342D01*
X131429Y107310D01*
X131507Y107274D01*
X131583Y107236D01*
X131657Y107193D01*
X131729Y107148D01*
X131800Y107099D01*
X131868Y107047D01*
X131933Y106993D01*
X131996Y106935D01*
X132057Y106874D01*
X132115Y106811D01*
X132169Y106746D01*
X132221Y106678D01*
X132270Y106607D01*
X132315Y106535D01*
X132358Y106461D01*
X132396Y106385D01*
X132432Y106307D01*
X132464Y106227D01*
X132492Y106147D01*
X132516Y106065D01*
X132537Y105982D01*
X132554Y105898D01*
X132568Y105814D01*
X132577Y105729D01*
X132583Y105643D01*
X132585Y105558D01*
X132585Y103653D01*
X132585Y112705D02*
X132585Y114229D01*
X132585Y112705D02*
X132583Y112628D01*
X132577Y112551D01*
X132567Y112474D01*
X132554Y112398D01*
X132536Y112323D01*
X132515Y112249D01*
X132490Y112176D01*
X132461Y112104D01*
X132429Y112034D01*
X132394Y111965D01*
X132354Y111899D01*
X132312Y111834D01*
X132266Y111772D01*
X132217Y111712D01*
X132166Y111655D01*
X132111Y111600D01*
X132054Y111549D01*
X131994Y111500D01*
X131932Y111454D01*
X131867Y111412D01*
X131801Y111372D01*
X131732Y111337D01*
X131662Y111305D01*
X131590Y111276D01*
X131517Y111251D01*
X131443Y111230D01*
X131368Y111212D01*
X131292Y111199D01*
X131215Y111189D01*
X131138Y111183D01*
X131061Y111181D01*
X127251Y111181D01*
X127174Y111183D01*
X127097Y111189D01*
X127020Y111199D01*
X126944Y111212D01*
X126869Y111230D01*
X126795Y111251D01*
X126722Y111276D01*
X126650Y111305D01*
X126580Y111337D01*
X126511Y111372D01*
X126445Y111412D01*
X126380Y111454D01*
X126318Y111500D01*
X126258Y111549D01*
X126201Y111600D01*
X126146Y111655D01*
X126095Y111712D01*
X126046Y111772D01*
X126000Y111834D01*
X125958Y111899D01*
X125918Y111965D01*
X125883Y112034D01*
X125851Y112104D01*
X125822Y112176D01*
X125797Y112249D01*
X125776Y112323D01*
X125758Y112398D01*
X125745Y112474D01*
X125735Y112551D01*
X125729Y112628D01*
X125727Y112705D01*
X125727Y114229D01*
X169000Y336800D02*
X187000Y336800D01*
X187000Y323200D02*
X169000Y323200D01*
D13*
X154775Y330000D02*
X154777Y330063D01*
X154783Y330125D01*
X154793Y330187D01*
X154806Y330249D01*
X154824Y330309D01*
X154845Y330368D01*
X154870Y330426D01*
X154899Y330482D01*
X154931Y330536D01*
X154966Y330588D01*
X155004Y330637D01*
X155046Y330685D01*
X155090Y330729D01*
X155138Y330771D01*
X155187Y330809D01*
X155239Y330844D01*
X155293Y330876D01*
X155349Y330905D01*
X155407Y330930D01*
X155466Y330951D01*
X155526Y330969D01*
X155588Y330982D01*
X155650Y330992D01*
X155712Y330998D01*
X155775Y331000D01*
X155838Y330998D01*
X155900Y330992D01*
X155962Y330982D01*
X156024Y330969D01*
X156084Y330951D01*
X156143Y330930D01*
X156201Y330905D01*
X156257Y330876D01*
X156311Y330844D01*
X156363Y330809D01*
X156412Y330771D01*
X156460Y330729D01*
X156504Y330685D01*
X156546Y330637D01*
X156584Y330588D01*
X156619Y330536D01*
X156651Y330482D01*
X156680Y330426D01*
X156705Y330368D01*
X156726Y330309D01*
X156744Y330249D01*
X156757Y330187D01*
X156767Y330125D01*
X156773Y330063D01*
X156775Y330000D01*
X156773Y329937D01*
X156767Y329875D01*
X156757Y329813D01*
X156744Y329751D01*
X156726Y329691D01*
X156705Y329632D01*
X156680Y329574D01*
X156651Y329518D01*
X156619Y329464D01*
X156584Y329412D01*
X156546Y329363D01*
X156504Y329315D01*
X156460Y329271D01*
X156412Y329229D01*
X156363Y329191D01*
X156311Y329156D01*
X156257Y329124D01*
X156201Y329095D01*
X156143Y329070D01*
X156084Y329049D01*
X156024Y329031D01*
X155962Y329018D01*
X155900Y329008D01*
X155838Y329002D01*
X155775Y329000D01*
X155712Y329002D01*
X155650Y329008D01*
X155588Y329018D01*
X155526Y329031D01*
X155466Y329049D01*
X155407Y329070D01*
X155349Y329095D01*
X155293Y329124D01*
X155239Y329156D01*
X155187Y329191D01*
X155138Y329229D01*
X155090Y329271D01*
X155046Y329315D01*
X155004Y329363D01*
X154966Y329412D01*
X154931Y329464D01*
X154899Y329518D01*
X154870Y329574D01*
X154845Y329632D01*
X154824Y329691D01*
X154806Y329751D01*
X154793Y329813D01*
X154783Y329875D01*
X154777Y329937D01*
X154775Y330000D01*
D10*
X159331Y340081D02*
X159331Y347447D01*
X161377Y347447D01*
X161466Y347445D01*
X161555Y347439D01*
X161644Y347429D01*
X161732Y347416D01*
X161820Y347399D01*
X161907Y347377D01*
X161992Y347352D01*
X162077Y347324D01*
X162160Y347291D01*
X162242Y347255D01*
X162322Y347216D01*
X162400Y347173D01*
X162476Y347127D01*
X162551Y347077D01*
X162623Y347024D01*
X162692Y346968D01*
X162759Y346909D01*
X162824Y346848D01*
X162885Y346783D01*
X162944Y346716D01*
X163000Y346647D01*
X163053Y346575D01*
X163103Y346500D01*
X163149Y346424D01*
X163192Y346346D01*
X163231Y346266D01*
X163267Y346184D01*
X163300Y346101D01*
X163328Y346016D01*
X163353Y345931D01*
X163375Y345844D01*
X163392Y345756D01*
X163405Y345668D01*
X163415Y345579D01*
X163421Y345490D01*
X163423Y345401D01*
X163423Y342127D01*
X163421Y342038D01*
X163415Y341949D01*
X163405Y341860D01*
X163392Y341772D01*
X163375Y341684D01*
X163353Y341597D01*
X163328Y341512D01*
X163300Y341427D01*
X163267Y341344D01*
X163231Y341262D01*
X163192Y341182D01*
X163149Y341104D01*
X163103Y341028D01*
X163053Y340953D01*
X163000Y340881D01*
X162944Y340812D01*
X162885Y340745D01*
X162824Y340680D01*
X162759Y340619D01*
X162692Y340560D01*
X162623Y340504D01*
X162551Y340451D01*
X162476Y340401D01*
X162400Y340355D01*
X162322Y340312D01*
X162242Y340273D01*
X162160Y340237D01*
X162077Y340204D01*
X161992Y340176D01*
X161907Y340151D01*
X161820Y340129D01*
X161732Y340112D01*
X161644Y340099D01*
X161555Y340089D01*
X161466Y340083D01*
X161377Y340081D01*
X159331Y340081D01*
X166890Y345810D02*
X168936Y347447D01*
X168936Y340081D01*
X166890Y340081D02*
X170982Y340081D01*
D14*
X336252Y228840D02*
X367748Y228840D01*
X367748Y249160D02*
X336252Y249160D01*
D10*
X325295Y241653D02*
X325295Y237674D01*
X327616Y234689D01*
X325295Y237674D02*
X322973Y234689D01*
X325295Y237674D02*
X328942Y239000D01*
X325295Y237674D02*
X321647Y239000D01*
D15*
X335488Y227124D02*
X335488Y219504D01*
X335488Y227124D02*
X337605Y227124D01*
X337695Y227122D01*
X337785Y227116D01*
X337874Y227107D01*
X337963Y227094D01*
X338051Y227076D01*
X338138Y227056D01*
X338225Y227031D01*
X338310Y227003D01*
X338394Y226971D01*
X338477Y226936D01*
X338558Y226897D01*
X338637Y226855D01*
X338715Y226810D01*
X338790Y226761D01*
X338864Y226709D01*
X338935Y226654D01*
X339004Y226596D01*
X339070Y226535D01*
X339133Y226472D01*
X339194Y226406D01*
X339252Y226337D01*
X339307Y226266D01*
X339359Y226192D01*
X339408Y226117D01*
X339453Y226039D01*
X339495Y225960D01*
X339534Y225879D01*
X339569Y225796D01*
X339601Y225712D01*
X339629Y225627D01*
X339654Y225540D01*
X339674Y225453D01*
X339692Y225365D01*
X339705Y225276D01*
X339714Y225187D01*
X339720Y225097D01*
X339722Y225007D01*
X339721Y225007D02*
X339721Y221621D01*
X339722Y221621D02*
X339720Y221531D01*
X339714Y221441D01*
X339705Y221352D01*
X339692Y221263D01*
X339674Y221175D01*
X339654Y221088D01*
X339629Y221001D01*
X339601Y220916D01*
X339569Y220832D01*
X339534Y220749D01*
X339495Y220668D01*
X339453Y220589D01*
X339408Y220511D01*
X339359Y220436D01*
X339307Y220362D01*
X339252Y220291D01*
X339194Y220222D01*
X339133Y220156D01*
X339070Y220093D01*
X339004Y220032D01*
X338935Y219974D01*
X338864Y219919D01*
X338790Y219867D01*
X338715Y219818D01*
X338637Y219773D01*
X338558Y219731D01*
X338477Y219692D01*
X338394Y219657D01*
X338310Y219625D01*
X338225Y219597D01*
X338138Y219572D01*
X338051Y219552D01*
X337963Y219534D01*
X337874Y219521D01*
X337785Y219512D01*
X337695Y219506D01*
X337605Y219504D01*
X335488Y219504D01*
X345375Y227124D02*
X345460Y227122D01*
X345546Y227116D01*
X345631Y227107D01*
X345715Y227093D01*
X345799Y227076D01*
X345882Y227055D01*
X345964Y227031D01*
X346044Y227003D01*
X346124Y226971D01*
X346202Y226935D01*
X346278Y226897D01*
X346352Y226854D01*
X346424Y226809D01*
X346495Y226760D01*
X346563Y226708D01*
X346628Y226654D01*
X346691Y226596D01*
X346752Y226535D01*
X346810Y226472D01*
X346864Y226407D01*
X346916Y226339D01*
X346965Y226268D01*
X347010Y226196D01*
X347053Y226122D01*
X347091Y226046D01*
X347127Y225968D01*
X347159Y225888D01*
X347187Y225808D01*
X347211Y225726D01*
X347232Y225643D01*
X347249Y225559D01*
X347263Y225475D01*
X347272Y225390D01*
X347278Y225304D01*
X347280Y225219D01*
X345375Y227124D02*
X345279Y227122D01*
X345183Y227116D01*
X345087Y227107D01*
X344992Y227094D01*
X344897Y227077D01*
X344803Y227056D01*
X344710Y227032D01*
X344618Y227004D01*
X344527Y226973D01*
X344438Y226937D01*
X344350Y226899D01*
X344263Y226857D01*
X344179Y226812D01*
X344096Y226763D01*
X344015Y226711D01*
X343936Y226656D01*
X343859Y226598D01*
X343785Y226537D01*
X343713Y226473D01*
X343644Y226406D01*
X343577Y226337D01*
X343513Y226265D01*
X343452Y226191D01*
X343394Y226114D01*
X343339Y226035D01*
X343288Y225954D01*
X343239Y225871D01*
X343194Y225786D01*
X343152Y225700D01*
X343113Y225611D01*
X343078Y225522D01*
X343047Y225431D01*
X346645Y223737D02*
X346707Y223799D01*
X346766Y223863D01*
X346822Y223929D01*
X346876Y223998D01*
X346926Y224069D01*
X346974Y224143D01*
X347018Y224218D01*
X347059Y224295D01*
X347097Y224373D01*
X347131Y224453D01*
X347162Y224535D01*
X347190Y224618D01*
X347213Y224701D01*
X347234Y224786D01*
X347250Y224872D01*
X347263Y224958D01*
X347273Y225045D01*
X347278Y225132D01*
X347280Y225219D01*
X346645Y223737D02*
X343047Y219504D01*
X347280Y219504D01*
D14*
X309748Y417840D02*
X278252Y417840D01*
X278252Y438160D02*
X309748Y438160D01*
D10*
X267295Y430653D02*
X267295Y426674D01*
X269616Y423689D01*
X267295Y426674D02*
X264973Y423689D01*
X267295Y426674D02*
X270942Y428000D01*
X267295Y426674D02*
X263647Y428000D01*
D15*
X277488Y440504D02*
X277488Y448124D01*
X279605Y448124D01*
X279695Y448122D01*
X279785Y448116D01*
X279874Y448107D01*
X279963Y448094D01*
X280051Y448076D01*
X280138Y448056D01*
X280225Y448031D01*
X280310Y448003D01*
X280394Y447971D01*
X280477Y447936D01*
X280558Y447897D01*
X280637Y447855D01*
X280715Y447810D01*
X280790Y447761D01*
X280864Y447709D01*
X280935Y447654D01*
X281004Y447596D01*
X281070Y447535D01*
X281133Y447472D01*
X281194Y447406D01*
X281252Y447337D01*
X281307Y447266D01*
X281359Y447192D01*
X281408Y447117D01*
X281453Y447039D01*
X281495Y446960D01*
X281534Y446879D01*
X281569Y446796D01*
X281601Y446712D01*
X281629Y446627D01*
X281654Y446540D01*
X281674Y446453D01*
X281692Y446365D01*
X281705Y446276D01*
X281714Y446187D01*
X281720Y446097D01*
X281722Y446007D01*
X281721Y446007D02*
X281721Y442621D01*
X281722Y442621D02*
X281720Y442531D01*
X281714Y442441D01*
X281705Y442352D01*
X281692Y442263D01*
X281674Y442175D01*
X281654Y442088D01*
X281629Y442001D01*
X281601Y441916D01*
X281569Y441832D01*
X281534Y441749D01*
X281495Y441668D01*
X281453Y441589D01*
X281408Y441511D01*
X281359Y441436D01*
X281307Y441362D01*
X281252Y441291D01*
X281194Y441222D01*
X281133Y441156D01*
X281070Y441093D01*
X281004Y441032D01*
X280935Y440974D01*
X280864Y440919D01*
X280790Y440867D01*
X280715Y440818D01*
X280637Y440773D01*
X280558Y440731D01*
X280477Y440692D01*
X280394Y440657D01*
X280310Y440625D01*
X280225Y440597D01*
X280138Y440572D01*
X280051Y440552D01*
X279963Y440534D01*
X279874Y440521D01*
X279785Y440512D01*
X279695Y440506D01*
X279605Y440504D01*
X277488Y440504D01*
X285047Y440504D02*
X287164Y440504D01*
X287255Y440506D01*
X287346Y440512D01*
X287437Y440522D01*
X287527Y440535D01*
X287616Y440553D01*
X287705Y440574D01*
X287792Y440599D01*
X287879Y440628D01*
X287964Y440661D01*
X288047Y440697D01*
X288129Y440737D01*
X288209Y440780D01*
X288288Y440827D01*
X288364Y440877D01*
X288438Y440930D01*
X288509Y440986D01*
X288578Y441046D01*
X288645Y441108D01*
X288708Y441173D01*
X288769Y441241D01*
X288827Y441311D01*
X288882Y441384D01*
X288934Y441459D01*
X288982Y441536D01*
X289027Y441616D01*
X289069Y441697D01*
X289107Y441779D01*
X289141Y441864D01*
X289172Y441950D01*
X289199Y442037D01*
X289222Y442125D01*
X289241Y442214D01*
X289257Y442303D01*
X289269Y442394D01*
X289277Y442484D01*
X289281Y442575D01*
X289281Y442667D01*
X289277Y442758D01*
X289269Y442848D01*
X289257Y442939D01*
X289241Y443028D01*
X289222Y443117D01*
X289199Y443205D01*
X289172Y443292D01*
X289141Y443378D01*
X289107Y443463D01*
X289069Y443545D01*
X289027Y443626D01*
X288982Y443706D01*
X288934Y443783D01*
X288882Y443858D01*
X288827Y443931D01*
X288769Y444001D01*
X288708Y444069D01*
X288645Y444134D01*
X288578Y444196D01*
X288509Y444256D01*
X288438Y444312D01*
X288364Y444365D01*
X288288Y444415D01*
X288209Y444462D01*
X288129Y444505D01*
X288047Y444545D01*
X287964Y444581D01*
X287879Y444614D01*
X287792Y444643D01*
X287705Y444668D01*
X287616Y444689D01*
X287527Y444707D01*
X287437Y444720D01*
X287346Y444730D01*
X287255Y444736D01*
X287164Y444738D01*
X287587Y448124D02*
X285047Y448124D01*
X287587Y448124D02*
X287668Y448122D01*
X287748Y448116D01*
X287828Y448107D01*
X287907Y448093D01*
X287986Y448076D01*
X288064Y448055D01*
X288141Y448031D01*
X288216Y448003D01*
X288290Y447971D01*
X288363Y447936D01*
X288434Y447897D01*
X288502Y447855D01*
X288569Y447810D01*
X288634Y447762D01*
X288696Y447710D01*
X288755Y447656D01*
X288812Y447599D01*
X288866Y447540D01*
X288918Y447478D01*
X288966Y447413D01*
X289011Y447346D01*
X289053Y447278D01*
X289092Y447207D01*
X289127Y447134D01*
X289159Y447060D01*
X289187Y446985D01*
X289211Y446908D01*
X289232Y446830D01*
X289249Y446751D01*
X289263Y446672D01*
X289272Y446592D01*
X289278Y446512D01*
X289280Y446431D01*
X289278Y446350D01*
X289272Y446270D01*
X289263Y446190D01*
X289249Y446111D01*
X289232Y446032D01*
X289211Y445954D01*
X289187Y445877D01*
X289159Y445802D01*
X289127Y445728D01*
X289092Y445655D01*
X289053Y445585D01*
X289011Y445516D01*
X288966Y445449D01*
X288918Y445384D01*
X288866Y445322D01*
X288812Y445263D01*
X288755Y445206D01*
X288696Y445152D01*
X288634Y445100D01*
X288569Y445052D01*
X288502Y445007D01*
X288434Y444965D01*
X288363Y444926D01*
X288290Y444891D01*
X288216Y444859D01*
X288141Y444831D01*
X288064Y444807D01*
X287986Y444786D01*
X287907Y444769D01*
X287828Y444755D01*
X287748Y444746D01*
X287668Y444740D01*
X287587Y444738D01*
X287587Y444737D02*
X285894Y444737D01*
D14*
X200318Y425636D02*
X191682Y425636D01*
X191682Y408364D02*
X200318Y408364D01*
D15*
X212904Y425512D02*
X220524Y425512D01*
X212904Y425512D02*
X212904Y422125D01*
X218831Y419429D02*
X220524Y417312D01*
X212904Y417312D01*
X212904Y415196D02*
X212904Y419429D01*
D12*
X153860Y182650D02*
X133540Y182650D01*
X153860Y182650D02*
X153860Y214400D01*
X133540Y214400D01*
X133540Y182650D01*
D10*
X131864Y182853D02*
X124498Y182853D01*
X131864Y182853D02*
X131864Y186127D01*
X131864Y189193D02*
X131864Y192467D01*
X131864Y189193D02*
X124498Y189193D01*
X124498Y192467D01*
X127771Y191648D02*
X127771Y189193D01*
X124498Y195517D02*
X131864Y195517D01*
X124498Y195517D02*
X124498Y197563D01*
X124500Y197652D01*
X124506Y197741D01*
X124516Y197830D01*
X124529Y197918D01*
X124546Y198006D01*
X124568Y198093D01*
X124593Y198178D01*
X124621Y198263D01*
X124654Y198346D01*
X124690Y198428D01*
X124729Y198508D01*
X124772Y198586D01*
X124818Y198662D01*
X124868Y198737D01*
X124921Y198809D01*
X124977Y198878D01*
X125036Y198945D01*
X125097Y199010D01*
X125162Y199071D01*
X125229Y199130D01*
X125298Y199186D01*
X125370Y199239D01*
X125445Y199289D01*
X125521Y199335D01*
X125599Y199378D01*
X125679Y199417D01*
X125761Y199453D01*
X125844Y199486D01*
X125929Y199514D01*
X126014Y199539D01*
X126101Y199561D01*
X126189Y199578D01*
X126277Y199591D01*
X126366Y199601D01*
X126455Y199607D01*
X126544Y199609D01*
X129818Y199609D01*
X129907Y199607D01*
X129996Y199601D01*
X130085Y199591D01*
X130173Y199578D01*
X130261Y199561D01*
X130348Y199539D01*
X130433Y199514D01*
X130518Y199486D01*
X130601Y199453D01*
X130683Y199417D01*
X130763Y199378D01*
X130841Y199335D01*
X130917Y199289D01*
X130992Y199239D01*
X131064Y199186D01*
X131133Y199130D01*
X131200Y199071D01*
X131265Y199010D01*
X131326Y198945D01*
X131385Y198878D01*
X131441Y198809D01*
X131494Y198737D01*
X131544Y198662D01*
X131590Y198586D01*
X131633Y198508D01*
X131672Y198428D01*
X131708Y198346D01*
X131741Y198263D01*
X131769Y198178D01*
X131794Y198093D01*
X131816Y198006D01*
X131833Y197918D01*
X131846Y197830D01*
X131856Y197741D01*
X131862Y197652D01*
X131864Y197563D01*
X131864Y195517D01*
X126135Y203076D02*
X124498Y205122D01*
X131864Y205122D01*
X131864Y203076D02*
X131864Y207168D01*
D11*
X149700Y158000D02*
X149700Y152000D01*
X137700Y152000D02*
X137700Y158000D01*
X152590Y172780D02*
X152590Y137220D01*
X134810Y137220D01*
X134810Y172780D01*
X152590Y172780D01*
D12*
X132145Y137140D02*
X125287Y137140D01*
X125287Y139045D01*
X125289Y139130D01*
X125295Y139216D01*
X125304Y139301D01*
X125318Y139385D01*
X125335Y139469D01*
X125356Y139552D01*
X125380Y139634D01*
X125408Y139714D01*
X125440Y139794D01*
X125476Y139872D01*
X125514Y139948D01*
X125557Y140022D01*
X125602Y140094D01*
X125651Y140165D01*
X125703Y140233D01*
X125757Y140298D01*
X125815Y140361D01*
X125876Y140422D01*
X125939Y140480D01*
X126004Y140534D01*
X126072Y140586D01*
X126143Y140635D01*
X126215Y140680D01*
X126289Y140723D01*
X126365Y140761D01*
X126443Y140797D01*
X126523Y140829D01*
X126603Y140857D01*
X126685Y140881D01*
X126768Y140902D01*
X126852Y140919D01*
X126936Y140933D01*
X127021Y140942D01*
X127107Y140948D01*
X127192Y140950D01*
X127277Y140948D01*
X127363Y140942D01*
X127448Y140933D01*
X127532Y140919D01*
X127616Y140902D01*
X127699Y140881D01*
X127781Y140857D01*
X127861Y140829D01*
X127941Y140797D01*
X128019Y140761D01*
X128095Y140723D01*
X128169Y140680D01*
X128241Y140635D01*
X128312Y140586D01*
X128380Y140534D01*
X128445Y140480D01*
X128508Y140422D01*
X128569Y140361D01*
X128627Y140298D01*
X128681Y140233D01*
X128733Y140165D01*
X128782Y140094D01*
X128827Y140022D01*
X128870Y139948D01*
X128908Y139872D01*
X128944Y139794D01*
X128976Y139714D01*
X129004Y139634D01*
X129028Y139552D01*
X129049Y139469D01*
X129066Y139385D01*
X129080Y139301D01*
X129089Y139216D01*
X129095Y139130D01*
X129097Y139045D01*
X129097Y137140D01*
X129097Y139426D02*
X132145Y140950D01*
X126811Y144386D02*
X125287Y146291D01*
X132145Y146291D01*
X132145Y144386D02*
X132145Y148196D01*
D11*
X258000Y141000D02*
X264000Y141000D01*
X264000Y129000D02*
X258000Y129000D01*
X243220Y143890D02*
X278780Y143890D01*
X278780Y126110D01*
X243220Y126110D01*
X243220Y143890D01*
D12*
X240970Y126655D02*
X234112Y126655D01*
X234112Y128560D01*
X234114Y128645D01*
X234120Y128731D01*
X234129Y128816D01*
X234143Y128900D01*
X234160Y128984D01*
X234181Y129067D01*
X234205Y129149D01*
X234233Y129229D01*
X234265Y129309D01*
X234301Y129387D01*
X234339Y129463D01*
X234382Y129537D01*
X234427Y129609D01*
X234476Y129680D01*
X234528Y129748D01*
X234582Y129813D01*
X234640Y129876D01*
X234701Y129937D01*
X234764Y129995D01*
X234829Y130049D01*
X234897Y130101D01*
X234968Y130150D01*
X235040Y130195D01*
X235114Y130238D01*
X235190Y130276D01*
X235268Y130312D01*
X235348Y130344D01*
X235428Y130372D01*
X235510Y130396D01*
X235593Y130417D01*
X235677Y130434D01*
X235761Y130448D01*
X235846Y130457D01*
X235932Y130463D01*
X236017Y130465D01*
X236102Y130463D01*
X236188Y130457D01*
X236273Y130448D01*
X236357Y130434D01*
X236441Y130417D01*
X236524Y130396D01*
X236606Y130372D01*
X236686Y130344D01*
X236766Y130312D01*
X236844Y130276D01*
X236920Y130238D01*
X236994Y130195D01*
X237066Y130150D01*
X237137Y130101D01*
X237205Y130049D01*
X237270Y129995D01*
X237333Y129937D01*
X237394Y129876D01*
X237452Y129813D01*
X237506Y129748D01*
X237558Y129680D01*
X237607Y129609D01*
X237652Y129537D01*
X237695Y129463D01*
X237733Y129387D01*
X237769Y129309D01*
X237801Y129229D01*
X237829Y129149D01*
X237853Y129067D01*
X237874Y128984D01*
X237891Y128900D01*
X237905Y128816D01*
X237914Y128731D01*
X237920Y128645D01*
X237922Y128560D01*
X237922Y126655D01*
X237922Y128941D02*
X240970Y130465D01*
X234112Y135996D02*
X234114Y136078D01*
X234120Y136159D01*
X234129Y136240D01*
X234143Y136321D01*
X234160Y136400D01*
X234181Y136479D01*
X234206Y136557D01*
X234235Y136633D01*
X234267Y136708D01*
X234303Y136782D01*
X234342Y136854D01*
X234384Y136923D01*
X234430Y136991D01*
X234479Y137056D01*
X234531Y137119D01*
X234586Y137179D01*
X234644Y137237D01*
X234704Y137292D01*
X234767Y137344D01*
X234832Y137393D01*
X234900Y137439D01*
X234970Y137481D01*
X235041Y137520D01*
X235115Y137556D01*
X235190Y137588D01*
X235266Y137617D01*
X235344Y137642D01*
X235423Y137663D01*
X235502Y137680D01*
X235583Y137694D01*
X235664Y137703D01*
X235745Y137709D01*
X235827Y137711D01*
X234112Y135996D02*
X234114Y135904D01*
X234120Y135812D01*
X234129Y135720D01*
X234143Y135628D01*
X234160Y135538D01*
X234181Y135448D01*
X234206Y135359D01*
X234235Y135271D01*
X234267Y135184D01*
X234303Y135099D01*
X234342Y135016D01*
X234385Y134934D01*
X234431Y134854D01*
X234481Y134776D01*
X234533Y134700D01*
X234589Y134627D01*
X234648Y134556D01*
X234710Y134487D01*
X234775Y134421D01*
X234842Y134358D01*
X234912Y134298D01*
X234984Y134240D01*
X235059Y134186D01*
X235136Y134135D01*
X235215Y134087D01*
X235296Y134043D01*
X235379Y134002D01*
X235463Y133964D01*
X235549Y133930D01*
X235636Y133900D01*
X237161Y137139D02*
X237102Y137198D01*
X237041Y137254D01*
X236978Y137307D01*
X236912Y137358D01*
X236844Y137405D01*
X236774Y137449D01*
X236702Y137490D01*
X236628Y137528D01*
X236553Y137562D01*
X236476Y137593D01*
X236398Y137620D01*
X236318Y137644D01*
X236238Y137665D01*
X236157Y137681D01*
X236075Y137694D01*
X235993Y137704D01*
X235910Y137709D01*
X235827Y137711D01*
X237160Y137139D02*
X240970Y133901D01*
X240970Y137711D01*
D11*
X179000Y357000D02*
X173000Y357000D01*
X173000Y369000D02*
X179000Y369000D01*
X193780Y354110D02*
X158220Y354110D01*
X158220Y371890D01*
X193780Y371890D01*
X193780Y354110D01*
D12*
X196630Y370945D02*
X203488Y370945D01*
X203488Y369040D01*
X203486Y368955D01*
X203480Y368869D01*
X203471Y368784D01*
X203457Y368700D01*
X203440Y368616D01*
X203419Y368533D01*
X203395Y368451D01*
X203367Y368371D01*
X203335Y368291D01*
X203299Y368213D01*
X203261Y368137D01*
X203218Y368063D01*
X203173Y367991D01*
X203124Y367920D01*
X203072Y367852D01*
X203018Y367787D01*
X202960Y367724D01*
X202899Y367663D01*
X202836Y367605D01*
X202771Y367551D01*
X202703Y367499D01*
X202632Y367450D01*
X202560Y367405D01*
X202486Y367362D01*
X202410Y367324D01*
X202332Y367288D01*
X202252Y367256D01*
X202172Y367228D01*
X202090Y367204D01*
X202007Y367183D01*
X201923Y367166D01*
X201839Y367152D01*
X201754Y367143D01*
X201668Y367137D01*
X201583Y367135D01*
X201498Y367137D01*
X201412Y367143D01*
X201327Y367152D01*
X201243Y367166D01*
X201159Y367183D01*
X201076Y367204D01*
X200994Y367228D01*
X200914Y367256D01*
X200834Y367288D01*
X200756Y367324D01*
X200680Y367362D01*
X200606Y367405D01*
X200534Y367450D01*
X200463Y367499D01*
X200395Y367551D01*
X200330Y367605D01*
X200267Y367663D01*
X200206Y367724D01*
X200148Y367787D01*
X200094Y367852D01*
X200042Y367920D01*
X199993Y367991D01*
X199948Y368063D01*
X199905Y368137D01*
X199867Y368213D01*
X199831Y368291D01*
X199799Y368371D01*
X199771Y368451D01*
X199747Y368533D01*
X199726Y368616D01*
X199709Y368700D01*
X199695Y368784D01*
X199686Y368869D01*
X199680Y368955D01*
X199678Y369040D01*
X199678Y370945D01*
X199678Y368659D02*
X196630Y367135D01*
X196630Y363699D02*
X196630Y361794D01*
X196632Y361709D01*
X196638Y361623D01*
X196647Y361538D01*
X196661Y361454D01*
X196678Y361370D01*
X196699Y361287D01*
X196723Y361205D01*
X196751Y361125D01*
X196783Y361045D01*
X196819Y360967D01*
X196857Y360891D01*
X196900Y360817D01*
X196945Y360745D01*
X196994Y360674D01*
X197046Y360606D01*
X197100Y360541D01*
X197158Y360478D01*
X197219Y360417D01*
X197282Y360359D01*
X197347Y360305D01*
X197415Y360253D01*
X197486Y360204D01*
X197558Y360159D01*
X197632Y360116D01*
X197708Y360078D01*
X197786Y360042D01*
X197866Y360010D01*
X197946Y359982D01*
X198028Y359958D01*
X198111Y359937D01*
X198195Y359920D01*
X198279Y359906D01*
X198364Y359897D01*
X198450Y359891D01*
X198535Y359889D01*
X198620Y359891D01*
X198706Y359897D01*
X198791Y359906D01*
X198875Y359920D01*
X198959Y359937D01*
X199042Y359958D01*
X199124Y359982D01*
X199204Y360010D01*
X199284Y360042D01*
X199362Y360078D01*
X199438Y360116D01*
X199512Y360159D01*
X199584Y360204D01*
X199655Y360253D01*
X199723Y360305D01*
X199788Y360359D01*
X199851Y360417D01*
X199912Y360478D01*
X199970Y360541D01*
X200024Y360606D01*
X200076Y360674D01*
X200125Y360745D01*
X200170Y360817D01*
X200213Y360891D01*
X200251Y360967D01*
X200287Y361045D01*
X200319Y361125D01*
X200347Y361205D01*
X200371Y361287D01*
X200392Y361370D01*
X200409Y361454D01*
X200423Y361538D01*
X200432Y361623D01*
X200438Y361709D01*
X200440Y361794D01*
X203488Y361413D02*
X203488Y363699D01*
X203488Y361413D02*
X203486Y361336D01*
X203480Y361259D01*
X203470Y361182D01*
X203457Y361106D01*
X203439Y361031D01*
X203418Y360957D01*
X203393Y360884D01*
X203364Y360812D01*
X203332Y360742D01*
X203297Y360673D01*
X203257Y360607D01*
X203215Y360542D01*
X203169Y360480D01*
X203120Y360420D01*
X203069Y360363D01*
X203014Y360308D01*
X202957Y360257D01*
X202897Y360208D01*
X202835Y360162D01*
X202770Y360120D01*
X202704Y360080D01*
X202635Y360045D01*
X202565Y360013D01*
X202493Y359984D01*
X202420Y359959D01*
X202346Y359938D01*
X202271Y359920D01*
X202195Y359907D01*
X202118Y359897D01*
X202041Y359891D01*
X201964Y359889D01*
X201887Y359891D01*
X201810Y359897D01*
X201733Y359907D01*
X201657Y359920D01*
X201582Y359938D01*
X201508Y359959D01*
X201435Y359984D01*
X201363Y360013D01*
X201293Y360045D01*
X201224Y360080D01*
X201158Y360120D01*
X201093Y360162D01*
X201031Y360208D01*
X200971Y360257D01*
X200914Y360308D01*
X200859Y360363D01*
X200808Y360420D01*
X200759Y360480D01*
X200713Y360542D01*
X200671Y360607D01*
X200631Y360673D01*
X200596Y360742D01*
X200564Y360812D01*
X200535Y360884D01*
X200510Y360957D01*
X200489Y361031D01*
X200471Y361106D01*
X200458Y361182D01*
X200448Y361259D01*
X200442Y361336D01*
X200440Y361413D01*
X200440Y362937D01*
D11*
X258000Y185000D02*
X264000Y185000D01*
X264000Y197000D02*
X258000Y197000D01*
X243220Y182110D02*
X278780Y182110D01*
X243220Y182110D02*
X243220Y199890D01*
X278780Y199890D01*
X278780Y182110D01*
D12*
X239970Y182255D02*
X233112Y182255D01*
X233112Y184160D01*
X233114Y184245D01*
X233120Y184331D01*
X233129Y184416D01*
X233143Y184500D01*
X233160Y184584D01*
X233181Y184667D01*
X233205Y184749D01*
X233233Y184829D01*
X233265Y184909D01*
X233301Y184987D01*
X233339Y185063D01*
X233382Y185137D01*
X233427Y185209D01*
X233476Y185280D01*
X233528Y185348D01*
X233582Y185413D01*
X233640Y185476D01*
X233701Y185537D01*
X233764Y185595D01*
X233829Y185649D01*
X233897Y185701D01*
X233968Y185750D01*
X234040Y185795D01*
X234114Y185838D01*
X234190Y185876D01*
X234268Y185912D01*
X234348Y185944D01*
X234428Y185972D01*
X234510Y185996D01*
X234593Y186017D01*
X234677Y186034D01*
X234761Y186048D01*
X234846Y186057D01*
X234932Y186063D01*
X235017Y186065D01*
X235102Y186063D01*
X235188Y186057D01*
X235273Y186048D01*
X235357Y186034D01*
X235441Y186017D01*
X235524Y185996D01*
X235606Y185972D01*
X235686Y185944D01*
X235766Y185912D01*
X235844Y185876D01*
X235920Y185838D01*
X235994Y185795D01*
X236066Y185750D01*
X236137Y185701D01*
X236205Y185649D01*
X236270Y185595D01*
X236333Y185537D01*
X236394Y185476D01*
X236452Y185413D01*
X236506Y185348D01*
X236558Y185280D01*
X236607Y185209D01*
X236652Y185137D01*
X236695Y185063D01*
X236733Y184987D01*
X236769Y184909D01*
X236801Y184829D01*
X236829Y184749D01*
X236853Y184667D01*
X236874Y184584D01*
X236891Y184500D01*
X236905Y184416D01*
X236914Y184331D01*
X236920Y184245D01*
X236922Y184160D01*
X236922Y182255D01*
X236922Y184541D02*
X239970Y186065D01*
X238446Y189501D02*
X233112Y191025D01*
X238446Y189501D02*
X238446Y193311D01*
X236922Y192168D02*
X239970Y192168D01*
D11*
X198600Y202000D02*
X192600Y202000D01*
X192600Y214000D02*
X198600Y214000D01*
X213380Y199110D02*
X177820Y199110D01*
X177820Y216890D01*
X213380Y216890D01*
X213380Y199110D01*
D12*
X174985Y199430D02*
X168127Y199430D01*
X168127Y201335D01*
X168129Y201420D01*
X168135Y201506D01*
X168144Y201591D01*
X168158Y201675D01*
X168175Y201759D01*
X168196Y201842D01*
X168220Y201924D01*
X168248Y202004D01*
X168280Y202084D01*
X168316Y202162D01*
X168354Y202238D01*
X168397Y202312D01*
X168442Y202384D01*
X168491Y202455D01*
X168543Y202523D01*
X168597Y202588D01*
X168655Y202651D01*
X168716Y202712D01*
X168779Y202770D01*
X168844Y202824D01*
X168912Y202876D01*
X168983Y202925D01*
X169055Y202970D01*
X169129Y203013D01*
X169205Y203051D01*
X169283Y203087D01*
X169363Y203119D01*
X169443Y203147D01*
X169525Y203171D01*
X169608Y203192D01*
X169692Y203209D01*
X169776Y203223D01*
X169861Y203232D01*
X169947Y203238D01*
X170032Y203240D01*
X170117Y203238D01*
X170203Y203232D01*
X170288Y203223D01*
X170372Y203209D01*
X170456Y203192D01*
X170539Y203171D01*
X170621Y203147D01*
X170701Y203119D01*
X170781Y203087D01*
X170859Y203051D01*
X170935Y203013D01*
X171009Y202970D01*
X171081Y202925D01*
X171152Y202876D01*
X171220Y202824D01*
X171285Y202770D01*
X171348Y202712D01*
X171409Y202651D01*
X171467Y202588D01*
X171521Y202523D01*
X171573Y202455D01*
X171622Y202384D01*
X171667Y202312D01*
X171710Y202238D01*
X171748Y202162D01*
X171784Y202084D01*
X171816Y202004D01*
X171844Y201924D01*
X171868Y201842D01*
X171889Y201759D01*
X171906Y201675D01*
X171920Y201591D01*
X171929Y201506D01*
X171935Y201420D01*
X171937Y201335D01*
X171937Y199430D01*
X171937Y201716D02*
X174985Y203240D01*
X174985Y206676D02*
X174985Y208962D01*
X174983Y209039D01*
X174977Y209116D01*
X174967Y209193D01*
X174954Y209269D01*
X174936Y209344D01*
X174915Y209418D01*
X174890Y209491D01*
X174861Y209563D01*
X174829Y209633D01*
X174794Y209702D01*
X174754Y209768D01*
X174712Y209833D01*
X174666Y209895D01*
X174617Y209955D01*
X174566Y210012D01*
X174511Y210067D01*
X174454Y210118D01*
X174394Y210167D01*
X174332Y210213D01*
X174267Y210255D01*
X174201Y210295D01*
X174132Y210330D01*
X174062Y210362D01*
X173990Y210391D01*
X173917Y210416D01*
X173843Y210437D01*
X173768Y210455D01*
X173692Y210468D01*
X173615Y210478D01*
X173538Y210484D01*
X173461Y210486D01*
X172699Y210486D01*
X172622Y210484D01*
X172545Y210478D01*
X172468Y210468D01*
X172392Y210455D01*
X172317Y210437D01*
X172243Y210416D01*
X172170Y210391D01*
X172098Y210362D01*
X172028Y210330D01*
X171959Y210295D01*
X171893Y210255D01*
X171828Y210213D01*
X171766Y210167D01*
X171706Y210118D01*
X171649Y210067D01*
X171594Y210012D01*
X171543Y209955D01*
X171494Y209895D01*
X171448Y209833D01*
X171406Y209768D01*
X171366Y209702D01*
X171331Y209633D01*
X171299Y209563D01*
X171270Y209491D01*
X171245Y209418D01*
X171224Y209344D01*
X171206Y209269D01*
X171193Y209193D01*
X171183Y209116D01*
X171177Y209039D01*
X171175Y208962D01*
X171175Y206676D01*
X168127Y206676D01*
X168127Y210486D01*
D11*
X118000Y338000D02*
X112000Y338000D01*
X112000Y350000D02*
X118000Y350000D01*
X132780Y335110D02*
X97220Y335110D01*
X97220Y352890D01*
X132780Y352890D01*
X132780Y335110D01*
D12*
X135415Y355570D02*
X142273Y355570D01*
X142273Y353665D01*
X142271Y353580D01*
X142265Y353494D01*
X142256Y353409D01*
X142242Y353325D01*
X142225Y353241D01*
X142204Y353158D01*
X142180Y353076D01*
X142152Y352996D01*
X142120Y352916D01*
X142084Y352838D01*
X142046Y352762D01*
X142003Y352688D01*
X141958Y352616D01*
X141909Y352545D01*
X141857Y352477D01*
X141803Y352412D01*
X141745Y352349D01*
X141684Y352288D01*
X141621Y352230D01*
X141556Y352176D01*
X141488Y352124D01*
X141417Y352075D01*
X141345Y352030D01*
X141271Y351987D01*
X141195Y351949D01*
X141117Y351913D01*
X141037Y351881D01*
X140957Y351853D01*
X140875Y351829D01*
X140792Y351808D01*
X140708Y351791D01*
X140624Y351777D01*
X140539Y351768D01*
X140453Y351762D01*
X140368Y351760D01*
X140283Y351762D01*
X140197Y351768D01*
X140112Y351777D01*
X140028Y351791D01*
X139944Y351808D01*
X139861Y351829D01*
X139779Y351853D01*
X139699Y351881D01*
X139619Y351913D01*
X139541Y351949D01*
X139465Y351987D01*
X139391Y352030D01*
X139319Y352075D01*
X139248Y352124D01*
X139180Y352176D01*
X139115Y352230D01*
X139052Y352288D01*
X138991Y352349D01*
X138933Y352412D01*
X138879Y352477D01*
X138827Y352545D01*
X138778Y352616D01*
X138733Y352688D01*
X138690Y352762D01*
X138652Y352838D01*
X138616Y352916D01*
X138584Y352996D01*
X138556Y353076D01*
X138532Y353158D01*
X138511Y353241D01*
X138494Y353325D01*
X138480Y353409D01*
X138471Y353494D01*
X138465Y353580D01*
X138463Y353665D01*
X138463Y355570D01*
X138463Y353284D02*
X135415Y351760D01*
X134653Y348675D02*
X134653Y345627D01*
X135415Y340980D02*
X135415Y339456D01*
X135415Y340980D02*
X135417Y341057D01*
X135423Y341134D01*
X135433Y341211D01*
X135446Y341287D01*
X135464Y341362D01*
X135485Y341436D01*
X135510Y341509D01*
X135539Y341581D01*
X135571Y341651D01*
X135606Y341720D01*
X135646Y341786D01*
X135688Y341851D01*
X135734Y341913D01*
X135783Y341973D01*
X135834Y342030D01*
X135889Y342085D01*
X135946Y342136D01*
X136006Y342185D01*
X136068Y342231D01*
X136133Y342273D01*
X136199Y342313D01*
X136268Y342348D01*
X136338Y342380D01*
X136410Y342409D01*
X136483Y342434D01*
X136557Y342455D01*
X136632Y342473D01*
X136708Y342486D01*
X136785Y342496D01*
X136862Y342502D01*
X136939Y342504D01*
X140749Y342504D01*
X140826Y342502D01*
X140903Y342496D01*
X140980Y342486D01*
X141056Y342473D01*
X141131Y342455D01*
X141205Y342434D01*
X141278Y342409D01*
X141350Y342380D01*
X141420Y342348D01*
X141489Y342313D01*
X141555Y342273D01*
X141620Y342231D01*
X141682Y342185D01*
X141742Y342136D01*
X141799Y342085D01*
X141854Y342030D01*
X141905Y341973D01*
X141954Y341913D01*
X142000Y341851D01*
X142042Y341786D01*
X142082Y341720D01*
X142117Y341651D01*
X142149Y341581D01*
X142178Y341509D01*
X142203Y341436D01*
X142224Y341362D01*
X142242Y341287D01*
X142255Y341211D01*
X142265Y341134D01*
X142271Y341057D01*
X142273Y340980D01*
X142273Y339456D01*
X142273Y336111D02*
X135415Y336111D01*
X135415Y333063D01*
D11*
X71000Y310000D02*
X65000Y310000D01*
X65000Y322000D02*
X71000Y322000D01*
X85780Y307110D02*
X50220Y307110D01*
X50220Y324890D01*
X85780Y324890D01*
X85780Y307110D01*
D12*
X47145Y307840D02*
X40287Y307840D01*
X40287Y309745D01*
X40289Y309830D01*
X40295Y309916D01*
X40304Y310001D01*
X40318Y310085D01*
X40335Y310169D01*
X40356Y310252D01*
X40380Y310334D01*
X40408Y310414D01*
X40440Y310494D01*
X40476Y310572D01*
X40514Y310648D01*
X40557Y310722D01*
X40602Y310794D01*
X40651Y310865D01*
X40703Y310933D01*
X40757Y310998D01*
X40815Y311061D01*
X40876Y311122D01*
X40939Y311180D01*
X41004Y311234D01*
X41072Y311286D01*
X41143Y311335D01*
X41215Y311380D01*
X41289Y311423D01*
X41365Y311461D01*
X41443Y311497D01*
X41523Y311529D01*
X41603Y311557D01*
X41685Y311581D01*
X41768Y311602D01*
X41852Y311619D01*
X41936Y311633D01*
X42021Y311642D01*
X42107Y311648D01*
X42192Y311650D01*
X42277Y311648D01*
X42363Y311642D01*
X42448Y311633D01*
X42532Y311619D01*
X42616Y311602D01*
X42699Y311581D01*
X42781Y311557D01*
X42861Y311529D01*
X42941Y311497D01*
X43019Y311461D01*
X43095Y311423D01*
X43169Y311380D01*
X43241Y311335D01*
X43312Y311286D01*
X43380Y311234D01*
X43445Y311180D01*
X43508Y311122D01*
X43569Y311061D01*
X43627Y310998D01*
X43681Y310933D01*
X43733Y310865D01*
X43782Y310794D01*
X43827Y310722D01*
X43870Y310648D01*
X43908Y310572D01*
X43944Y310494D01*
X43976Y310414D01*
X44004Y310334D01*
X44028Y310252D01*
X44049Y310169D01*
X44066Y310085D01*
X44080Y310001D01*
X44089Y309916D01*
X44095Y309830D01*
X44097Y309745D01*
X44097Y307840D01*
X44097Y310126D02*
X47145Y311650D01*
X47907Y314735D02*
X47907Y317783D01*
X47145Y321203D02*
X40287Y321203D01*
X40287Y324251D01*
X43335Y324251D02*
X43335Y321203D01*
D11*
X267000Y304000D02*
X273000Y304000D01*
X273000Y292000D02*
X267000Y292000D01*
X252220Y306890D02*
X287780Y306890D01*
X287780Y289110D01*
X252220Y289110D01*
X252220Y306890D01*
D12*
X252855Y309430D02*
X252855Y316288D01*
X254760Y316288D01*
X254845Y316286D01*
X254931Y316280D01*
X255016Y316271D01*
X255100Y316257D01*
X255184Y316240D01*
X255267Y316219D01*
X255349Y316195D01*
X255429Y316167D01*
X255509Y316135D01*
X255587Y316099D01*
X255663Y316061D01*
X255737Y316018D01*
X255809Y315973D01*
X255880Y315924D01*
X255948Y315872D01*
X256013Y315818D01*
X256076Y315760D01*
X256137Y315699D01*
X256195Y315636D01*
X256249Y315571D01*
X256301Y315503D01*
X256350Y315432D01*
X256395Y315360D01*
X256438Y315286D01*
X256476Y315210D01*
X256512Y315132D01*
X256544Y315052D01*
X256572Y314972D01*
X256596Y314890D01*
X256617Y314807D01*
X256634Y314723D01*
X256648Y314639D01*
X256657Y314554D01*
X256663Y314468D01*
X256665Y314383D01*
X256663Y314298D01*
X256657Y314212D01*
X256648Y314127D01*
X256634Y314043D01*
X256617Y313959D01*
X256596Y313876D01*
X256572Y313794D01*
X256544Y313714D01*
X256512Y313634D01*
X256476Y313556D01*
X256438Y313480D01*
X256395Y313406D01*
X256350Y313334D01*
X256301Y313263D01*
X256249Y313195D01*
X256195Y313130D01*
X256137Y313067D01*
X256076Y313006D01*
X256013Y312948D01*
X255948Y312894D01*
X255880Y312842D01*
X255809Y312793D01*
X255737Y312748D01*
X255663Y312705D01*
X255587Y312667D01*
X255509Y312631D01*
X255429Y312599D01*
X255349Y312571D01*
X255267Y312547D01*
X255184Y312526D01*
X255100Y312509D01*
X255016Y312495D01*
X254931Y312486D01*
X254845Y312480D01*
X254760Y312478D01*
X252855Y312478D01*
X255141Y312478D02*
X256665Y309430D01*
X259750Y308668D02*
X262798Y308668D01*
X266395Y309430D02*
X266395Y316288D01*
X265633Y309430D02*
X267157Y309430D01*
X267157Y316288D02*
X265633Y316288D01*
X270586Y316288D02*
X270586Y309430D01*
X274396Y309430D02*
X270586Y316288D01*
X274396Y316288D02*
X274396Y309430D01*
X278145Y314764D02*
X280050Y316288D01*
X280050Y309430D01*
X278145Y309430D02*
X281955Y309430D01*
D11*
X273000Y272000D02*
X267000Y272000D01*
X267000Y260000D02*
X273000Y260000D01*
X287780Y274890D02*
X252220Y274890D01*
X287780Y274890D02*
X287780Y257110D01*
X252220Y257110D01*
X252220Y274890D01*
D12*
X252255Y277430D02*
X252255Y284288D01*
X254160Y284288D01*
X254245Y284286D01*
X254331Y284280D01*
X254416Y284271D01*
X254500Y284257D01*
X254584Y284240D01*
X254667Y284219D01*
X254749Y284195D01*
X254829Y284167D01*
X254909Y284135D01*
X254987Y284099D01*
X255063Y284061D01*
X255137Y284018D01*
X255209Y283973D01*
X255280Y283924D01*
X255348Y283872D01*
X255413Y283818D01*
X255476Y283760D01*
X255537Y283699D01*
X255595Y283636D01*
X255649Y283571D01*
X255701Y283503D01*
X255750Y283432D01*
X255795Y283360D01*
X255838Y283286D01*
X255876Y283210D01*
X255912Y283132D01*
X255944Y283052D01*
X255972Y282972D01*
X255996Y282890D01*
X256017Y282807D01*
X256034Y282723D01*
X256048Y282639D01*
X256057Y282554D01*
X256063Y282468D01*
X256065Y282383D01*
X256063Y282298D01*
X256057Y282212D01*
X256048Y282127D01*
X256034Y282043D01*
X256017Y281959D01*
X255996Y281876D01*
X255972Y281794D01*
X255944Y281714D01*
X255912Y281634D01*
X255876Y281556D01*
X255838Y281480D01*
X255795Y281406D01*
X255750Y281334D01*
X255701Y281263D01*
X255649Y281195D01*
X255595Y281130D01*
X255537Y281067D01*
X255476Y281006D01*
X255413Y280948D01*
X255348Y280894D01*
X255280Y280842D01*
X255209Y280793D01*
X255137Y280748D01*
X255063Y280705D01*
X254987Y280667D01*
X254909Y280631D01*
X254829Y280599D01*
X254749Y280571D01*
X254667Y280547D01*
X254584Y280526D01*
X254500Y280509D01*
X254416Y280495D01*
X254331Y280486D01*
X254245Y280480D01*
X254160Y280478D01*
X252255Y280478D01*
X254541Y280478D02*
X256065Y277430D01*
X259150Y276668D02*
X262198Y276668D01*
X265795Y277430D02*
X265795Y284288D01*
X265033Y277430D02*
X266557Y277430D01*
X266557Y284288D02*
X265033Y284288D01*
X269986Y284288D02*
X269986Y277430D01*
X273796Y277430D02*
X269986Y284288D01*
X273796Y284288D02*
X273796Y277430D01*
X279640Y284289D02*
X279722Y284287D01*
X279803Y284281D01*
X279884Y284272D01*
X279965Y284258D01*
X280044Y284241D01*
X280123Y284220D01*
X280201Y284195D01*
X280277Y284166D01*
X280352Y284134D01*
X280426Y284098D01*
X280498Y284059D01*
X280567Y284017D01*
X280635Y283971D01*
X280700Y283922D01*
X280763Y283870D01*
X280823Y283815D01*
X280881Y283757D01*
X280936Y283697D01*
X280988Y283634D01*
X281037Y283569D01*
X281083Y283501D01*
X281125Y283432D01*
X281164Y283360D01*
X281200Y283286D01*
X281232Y283211D01*
X281261Y283135D01*
X281286Y283057D01*
X281307Y282978D01*
X281324Y282899D01*
X281338Y282818D01*
X281347Y282737D01*
X281353Y282656D01*
X281355Y282574D01*
X279640Y284288D02*
X279548Y284286D01*
X279456Y284280D01*
X279364Y284271D01*
X279272Y284257D01*
X279182Y284240D01*
X279092Y284219D01*
X279003Y284194D01*
X278915Y284165D01*
X278828Y284133D01*
X278743Y284097D01*
X278660Y284058D01*
X278578Y284015D01*
X278498Y283969D01*
X278420Y283919D01*
X278344Y283867D01*
X278271Y283811D01*
X278200Y283752D01*
X278131Y283690D01*
X278065Y283625D01*
X278002Y283558D01*
X277942Y283488D01*
X277884Y283416D01*
X277830Y283341D01*
X277779Y283264D01*
X277731Y283185D01*
X277687Y283104D01*
X277646Y283021D01*
X277608Y282937D01*
X277574Y282851D01*
X277544Y282764D01*
X280783Y281240D02*
X280842Y281299D01*
X280898Y281360D01*
X280951Y281423D01*
X281002Y281489D01*
X281049Y281557D01*
X281093Y281627D01*
X281134Y281699D01*
X281172Y281773D01*
X281206Y281848D01*
X281237Y281925D01*
X281264Y282003D01*
X281288Y282083D01*
X281309Y282163D01*
X281325Y282244D01*
X281338Y282326D01*
X281348Y282408D01*
X281353Y282491D01*
X281355Y282574D01*
X280783Y281240D02*
X277545Y277430D01*
X281355Y277430D01*
D11*
X302000Y278900D02*
X302000Y284900D01*
X314000Y284900D02*
X314000Y278900D01*
X299110Y264120D02*
X299110Y299680D01*
X316890Y299680D01*
X316890Y264120D01*
X299110Y264120D01*
D12*
X320712Y263755D02*
X327570Y263755D01*
X320712Y263755D02*
X320712Y265660D01*
X320714Y265745D01*
X320720Y265831D01*
X320729Y265916D01*
X320743Y266000D01*
X320760Y266084D01*
X320781Y266167D01*
X320805Y266249D01*
X320833Y266329D01*
X320865Y266409D01*
X320901Y266487D01*
X320939Y266563D01*
X320982Y266637D01*
X321027Y266709D01*
X321076Y266780D01*
X321128Y266848D01*
X321182Y266913D01*
X321240Y266976D01*
X321301Y267037D01*
X321364Y267095D01*
X321429Y267149D01*
X321497Y267201D01*
X321568Y267250D01*
X321640Y267295D01*
X321714Y267338D01*
X321790Y267376D01*
X321868Y267412D01*
X321948Y267444D01*
X322028Y267472D01*
X322110Y267496D01*
X322193Y267517D01*
X322277Y267534D01*
X322361Y267548D01*
X322446Y267557D01*
X322532Y267563D01*
X322617Y267565D01*
X322702Y267563D01*
X322788Y267557D01*
X322873Y267548D01*
X322957Y267534D01*
X323041Y267517D01*
X323124Y267496D01*
X323206Y267472D01*
X323286Y267444D01*
X323366Y267412D01*
X323444Y267376D01*
X323520Y267338D01*
X323594Y267295D01*
X323666Y267250D01*
X323737Y267201D01*
X323805Y267149D01*
X323870Y267095D01*
X323933Y267037D01*
X323994Y266976D01*
X324052Y266913D01*
X324106Y266848D01*
X324158Y266780D01*
X324207Y266709D01*
X324252Y266637D01*
X324295Y266563D01*
X324333Y266487D01*
X324369Y266409D01*
X324401Y266329D01*
X324429Y266249D01*
X324453Y266167D01*
X324474Y266084D01*
X324491Y266000D01*
X324505Y265916D01*
X324514Y265831D01*
X324520Y265745D01*
X324522Y265660D01*
X324522Y263755D01*
X324522Y266041D02*
X327570Y267565D01*
X328332Y270650D02*
X328332Y273698D01*
X327570Y278895D02*
X327568Y278972D01*
X327562Y279049D01*
X327552Y279126D01*
X327539Y279202D01*
X327521Y279277D01*
X327500Y279351D01*
X327475Y279424D01*
X327446Y279496D01*
X327414Y279566D01*
X327379Y279635D01*
X327339Y279701D01*
X327297Y279766D01*
X327251Y279828D01*
X327202Y279888D01*
X327151Y279945D01*
X327096Y280000D01*
X327039Y280051D01*
X326979Y280100D01*
X326917Y280146D01*
X326852Y280188D01*
X326786Y280228D01*
X326717Y280263D01*
X326647Y280295D01*
X326575Y280324D01*
X326502Y280349D01*
X326428Y280370D01*
X326353Y280388D01*
X326277Y280401D01*
X326200Y280411D01*
X326123Y280417D01*
X326046Y280419D01*
X327570Y278895D02*
X327568Y278785D01*
X327562Y278674D01*
X327553Y278564D01*
X327540Y278454D01*
X327523Y278345D01*
X327502Y278237D01*
X327478Y278129D01*
X327449Y278022D01*
X327418Y277916D01*
X327382Y277812D01*
X327343Y277708D01*
X327301Y277606D01*
X327255Y277506D01*
X327205Y277407D01*
X327153Y277310D01*
X327096Y277214D01*
X327037Y277121D01*
X326975Y277030D01*
X326909Y276941D01*
X326841Y276854D01*
X326769Y276770D01*
X326695Y276688D01*
X326618Y276609D01*
X322236Y276799D02*
X322159Y276801D01*
X322082Y276807D01*
X322005Y276817D01*
X321929Y276830D01*
X321854Y276848D01*
X321780Y276869D01*
X321707Y276894D01*
X321635Y276923D01*
X321565Y276955D01*
X321496Y276990D01*
X321430Y277030D01*
X321365Y277072D01*
X321303Y277118D01*
X321243Y277167D01*
X321186Y277218D01*
X321131Y277273D01*
X321080Y277330D01*
X321031Y277390D01*
X320985Y277452D01*
X320943Y277517D01*
X320903Y277583D01*
X320868Y277652D01*
X320836Y277722D01*
X320807Y277794D01*
X320782Y277867D01*
X320761Y277941D01*
X320743Y278016D01*
X320730Y278092D01*
X320720Y278169D01*
X320714Y278246D01*
X320712Y278323D01*
X320714Y278425D01*
X320719Y278527D01*
X320728Y278629D01*
X320741Y278730D01*
X320758Y278831D01*
X320777Y278931D01*
X320801Y279031D01*
X320828Y279129D01*
X320859Y279227D01*
X320893Y279323D01*
X320930Y279418D01*
X320971Y279512D01*
X321015Y279604D01*
X321063Y279694D01*
X321113Y279783D01*
X321167Y279870D01*
X321224Y279955D01*
X321284Y280038D01*
X323570Y277561D02*
X323529Y277496D01*
X323486Y277433D01*
X323439Y277373D01*
X323389Y277314D01*
X323337Y277259D01*
X323282Y277206D01*
X323224Y277155D01*
X323164Y277108D01*
X323101Y277064D01*
X323037Y277022D01*
X322971Y276984D01*
X322902Y276950D01*
X322832Y276919D01*
X322761Y276891D01*
X322689Y276867D01*
X322615Y276846D01*
X322540Y276829D01*
X322465Y276816D01*
X322389Y276807D01*
X322313Y276801D01*
X322236Y276799D01*
X324712Y279657D02*
X324753Y279722D01*
X324796Y279785D01*
X324843Y279845D01*
X324893Y279904D01*
X324945Y279959D01*
X325000Y280012D01*
X325058Y280063D01*
X325118Y280110D01*
X325181Y280154D01*
X325245Y280196D01*
X325311Y280234D01*
X325380Y280268D01*
X325450Y280299D01*
X325521Y280327D01*
X325593Y280351D01*
X325667Y280372D01*
X325742Y280389D01*
X325817Y280402D01*
X325893Y280411D01*
X325969Y280417D01*
X326046Y280419D01*
X324713Y279657D02*
X323570Y277561D01*
X327570Y283945D02*
X327570Y286993D01*
X327570Y283945D02*
X320712Y283945D01*
X320712Y286993D01*
X323760Y286231D02*
X323760Y283945D01*
X320712Y290264D02*
X327570Y290264D01*
X327570Y294074D02*
X320712Y290264D01*
X320712Y294074D02*
X327570Y294074D01*
X327570Y299865D02*
X327568Y299942D01*
X327562Y300019D01*
X327552Y300096D01*
X327539Y300172D01*
X327521Y300247D01*
X327500Y300321D01*
X327475Y300394D01*
X327446Y300466D01*
X327414Y300536D01*
X327379Y300605D01*
X327339Y300671D01*
X327297Y300736D01*
X327251Y300798D01*
X327202Y300858D01*
X327151Y300915D01*
X327096Y300970D01*
X327039Y301021D01*
X326979Y301070D01*
X326917Y301116D01*
X326852Y301158D01*
X326786Y301198D01*
X326717Y301233D01*
X326647Y301265D01*
X326575Y301294D01*
X326502Y301319D01*
X326428Y301340D01*
X326353Y301358D01*
X326277Y301371D01*
X326200Y301381D01*
X326123Y301387D01*
X326046Y301389D01*
X327570Y299865D02*
X327568Y299755D01*
X327562Y299644D01*
X327553Y299534D01*
X327540Y299424D01*
X327523Y299315D01*
X327502Y299207D01*
X327478Y299099D01*
X327449Y298992D01*
X327418Y298886D01*
X327382Y298782D01*
X327343Y298678D01*
X327301Y298576D01*
X327255Y298476D01*
X327205Y298377D01*
X327153Y298280D01*
X327096Y298184D01*
X327037Y298091D01*
X326975Y298000D01*
X326909Y297911D01*
X326841Y297824D01*
X326769Y297740D01*
X326695Y297658D01*
X326618Y297579D01*
X322236Y297770D02*
X322159Y297772D01*
X322082Y297778D01*
X322005Y297788D01*
X321929Y297801D01*
X321854Y297819D01*
X321780Y297840D01*
X321707Y297865D01*
X321635Y297894D01*
X321565Y297926D01*
X321496Y297961D01*
X321430Y298001D01*
X321365Y298043D01*
X321303Y298089D01*
X321243Y298138D01*
X321186Y298189D01*
X321131Y298244D01*
X321080Y298301D01*
X321031Y298361D01*
X320985Y298423D01*
X320943Y298488D01*
X320903Y298554D01*
X320868Y298623D01*
X320836Y298693D01*
X320807Y298765D01*
X320782Y298838D01*
X320761Y298912D01*
X320743Y298987D01*
X320730Y299063D01*
X320720Y299140D01*
X320714Y299217D01*
X320712Y299294D01*
X320714Y299396D01*
X320719Y299498D01*
X320728Y299600D01*
X320741Y299701D01*
X320758Y299802D01*
X320777Y299902D01*
X320801Y300002D01*
X320828Y300100D01*
X320859Y300198D01*
X320893Y300294D01*
X320930Y300389D01*
X320971Y300483D01*
X321015Y300575D01*
X321063Y300665D01*
X321113Y300754D01*
X321167Y300841D01*
X321224Y300926D01*
X321284Y301009D01*
X323570Y298531D02*
X323529Y298466D01*
X323486Y298403D01*
X323439Y298343D01*
X323389Y298284D01*
X323337Y298229D01*
X323282Y298176D01*
X323224Y298125D01*
X323164Y298078D01*
X323101Y298034D01*
X323037Y297992D01*
X322971Y297954D01*
X322902Y297920D01*
X322832Y297889D01*
X322761Y297861D01*
X322689Y297837D01*
X322615Y297816D01*
X322540Y297799D01*
X322465Y297786D01*
X322389Y297777D01*
X322313Y297771D01*
X322236Y297769D01*
X324712Y300627D02*
X324753Y300692D01*
X324796Y300755D01*
X324843Y300815D01*
X324893Y300874D01*
X324945Y300929D01*
X325000Y300982D01*
X325058Y301033D01*
X325118Y301080D01*
X325181Y301124D01*
X325245Y301166D01*
X325311Y301204D01*
X325380Y301238D01*
X325450Y301269D01*
X325521Y301297D01*
X325593Y301321D01*
X325667Y301342D01*
X325742Y301359D01*
X325817Y301372D01*
X325893Y301381D01*
X325969Y301387D01*
X326046Y301389D01*
X324713Y300627D02*
X323570Y298532D01*
X327570Y304916D02*
X327570Y307964D01*
X327570Y304916D02*
X320712Y304916D01*
X320712Y307964D01*
X323760Y307202D02*
X323760Y304916D01*
D14*
X188640Y309030D02*
X188640Y298870D01*
X208452Y245530D02*
X208452Y235116D01*
X219374Y286932D02*
X219374Y292774D01*
X219374Y251626D02*
X213532Y251626D01*
X184068Y292774D02*
X178226Y292774D01*
X178226Y251626D02*
X184068Y251626D01*
X219374Y251626D02*
X219374Y257468D01*
X219374Y292774D02*
X213532Y292774D01*
X178226Y292774D02*
X178226Y286932D01*
X178226Y257468D02*
X178226Y251626D01*
D16*
X174764Y245652D02*
X174764Y239048D01*
X174766Y238948D01*
X174772Y238849D01*
X174782Y238749D01*
X174795Y238651D01*
X174813Y238552D01*
X174834Y238455D01*
X174859Y238359D01*
X174888Y238263D01*
X174921Y238169D01*
X174957Y238076D01*
X174997Y237985D01*
X175041Y237895D01*
X175088Y237807D01*
X175138Y237721D01*
X175192Y237637D01*
X175249Y237555D01*
X175309Y237476D01*
X175373Y237398D01*
X175439Y237324D01*
X175508Y237252D01*
X175580Y237183D01*
X175654Y237117D01*
X175732Y237053D01*
X175811Y236993D01*
X175893Y236936D01*
X175977Y236882D01*
X176063Y236832D01*
X176151Y236785D01*
X176241Y236741D01*
X176332Y236701D01*
X176425Y236665D01*
X176519Y236632D01*
X176615Y236603D01*
X176711Y236578D01*
X176808Y236557D01*
X176907Y236539D01*
X177005Y236526D01*
X177105Y236516D01*
X177204Y236510D01*
X177304Y236508D01*
X177404Y236510D01*
X177503Y236516D01*
X177603Y236526D01*
X177701Y236539D01*
X177800Y236557D01*
X177897Y236578D01*
X177993Y236603D01*
X178089Y236632D01*
X178183Y236665D01*
X178276Y236701D01*
X178367Y236741D01*
X178457Y236785D01*
X178545Y236832D01*
X178631Y236882D01*
X178715Y236936D01*
X178797Y236993D01*
X178876Y237053D01*
X178954Y237117D01*
X179028Y237183D01*
X179100Y237252D01*
X179169Y237324D01*
X179235Y237398D01*
X179299Y237476D01*
X179359Y237555D01*
X179416Y237637D01*
X179470Y237721D01*
X179520Y237807D01*
X179567Y237895D01*
X179611Y237985D01*
X179651Y238076D01*
X179687Y238169D01*
X179720Y238263D01*
X179749Y238359D01*
X179774Y238455D01*
X179795Y238552D01*
X179813Y238651D01*
X179826Y238749D01*
X179836Y238849D01*
X179842Y238948D01*
X179844Y239048D01*
X179844Y245652D01*
X184213Y243620D02*
X186753Y245652D01*
X186753Y236508D01*
X184213Y236508D02*
X189293Y236508D01*
D14*
X129336Y233838D02*
X86664Y233838D01*
X86664Y286162D02*
X129336Y286162D01*
D10*
X77485Y288392D02*
X77485Y292371D01*
X77485Y288392D02*
X79806Y285407D01*
X77485Y288392D02*
X75163Y285407D01*
X77485Y288392D02*
X81132Y289718D01*
X77485Y288392D02*
X73837Y289718D01*
D15*
X86488Y231556D02*
X86488Y224585D01*
X86490Y224482D01*
X86496Y224380D01*
X86506Y224278D01*
X86519Y224176D01*
X86537Y224075D01*
X86559Y223974D01*
X86584Y223875D01*
X86613Y223776D01*
X86646Y223679D01*
X86682Y223583D01*
X86723Y223488D01*
X86766Y223395D01*
X86814Y223304D01*
X86864Y223215D01*
X86919Y223128D01*
X86976Y223043D01*
X87037Y222960D01*
X87101Y222879D01*
X87167Y222801D01*
X87237Y222726D01*
X87310Y222653D01*
X87385Y222583D01*
X87463Y222517D01*
X87544Y222453D01*
X87627Y222392D01*
X87712Y222335D01*
X87799Y222280D01*
X87888Y222230D01*
X87979Y222182D01*
X88072Y222139D01*
X88167Y222098D01*
X88263Y222062D01*
X88360Y222029D01*
X88459Y222000D01*
X88558Y221975D01*
X88659Y221953D01*
X88760Y221935D01*
X88862Y221922D01*
X88964Y221912D01*
X89066Y221906D01*
X89169Y221904D01*
X89272Y221906D01*
X89374Y221912D01*
X89476Y221922D01*
X89578Y221935D01*
X89679Y221953D01*
X89780Y221975D01*
X89879Y222000D01*
X89978Y222029D01*
X90075Y222062D01*
X90171Y222098D01*
X90266Y222139D01*
X90359Y222182D01*
X90450Y222230D01*
X90539Y222280D01*
X90626Y222335D01*
X90711Y222392D01*
X90794Y222453D01*
X90875Y222517D01*
X90953Y222583D01*
X91028Y222653D01*
X91101Y222726D01*
X91171Y222801D01*
X91237Y222879D01*
X91301Y222960D01*
X91362Y223043D01*
X91419Y223128D01*
X91474Y223215D01*
X91524Y223304D01*
X91572Y223395D01*
X91615Y223488D01*
X91656Y223583D01*
X91692Y223679D01*
X91725Y223776D01*
X91754Y223875D01*
X91779Y223974D01*
X91801Y224075D01*
X91819Y224176D01*
X91832Y224278D01*
X91842Y224380D01*
X91848Y224482D01*
X91850Y224585D01*
X91850Y231556D01*
X98886Y231556D02*
X98983Y231554D01*
X99080Y231548D01*
X99177Y231538D01*
X99273Y231525D01*
X99369Y231507D01*
X99463Y231486D01*
X99557Y231461D01*
X99650Y231432D01*
X99742Y231399D01*
X99832Y231363D01*
X99920Y231323D01*
X100007Y231280D01*
X100093Y231233D01*
X100176Y231182D01*
X100257Y231129D01*
X100336Y231072D01*
X100412Y231012D01*
X100486Y230949D01*
X100558Y230883D01*
X100626Y230815D01*
X100692Y230743D01*
X100755Y230669D01*
X100815Y230593D01*
X100872Y230514D01*
X100925Y230433D01*
X100976Y230350D01*
X101023Y230264D01*
X101066Y230177D01*
X101106Y230089D01*
X101142Y229999D01*
X101175Y229907D01*
X101204Y229814D01*
X101229Y229720D01*
X101250Y229626D01*
X101268Y229530D01*
X101281Y229434D01*
X101291Y229337D01*
X101297Y229240D01*
X101299Y229143D01*
X98886Y231556D02*
X98778Y231554D01*
X98670Y231548D01*
X98562Y231539D01*
X98454Y231526D01*
X98347Y231509D01*
X98241Y231488D01*
X98135Y231464D01*
X98031Y231436D01*
X97927Y231404D01*
X97825Y231369D01*
X97724Y231330D01*
X97624Y231288D01*
X97526Y231242D01*
X97430Y231193D01*
X97335Y231140D01*
X97242Y231084D01*
X97151Y231025D01*
X97063Y230963D01*
X96976Y230898D01*
X96892Y230830D01*
X96810Y230759D01*
X96731Y230685D01*
X96655Y230608D01*
X96581Y230529D01*
X96510Y230447D01*
X96442Y230363D01*
X96377Y230276D01*
X96315Y230188D01*
X96256Y230097D01*
X96200Y230004D01*
X96148Y229909D01*
X96099Y229813D01*
X96053Y229714D01*
X96011Y229615D01*
X95972Y229514D01*
X95937Y229411D01*
X100495Y227266D02*
X100566Y227336D01*
X100634Y227409D01*
X100699Y227485D01*
X100762Y227563D01*
X100821Y227643D01*
X100877Y227726D01*
X100930Y227811D01*
X100980Y227897D01*
X101026Y227986D01*
X101069Y228076D01*
X101109Y228168D01*
X101144Y228261D01*
X101177Y228356D01*
X101205Y228452D01*
X101230Y228549D01*
X101251Y228646D01*
X101268Y228745D01*
X101282Y228844D01*
X101291Y228943D01*
X101297Y229043D01*
X101299Y229143D01*
X100495Y227266D02*
X95937Y221904D01*
X101299Y221904D01*
D14*
X273664Y346838D02*
X316336Y346838D01*
X316336Y399162D02*
X273664Y399162D01*
D10*
X263469Y401392D02*
X263469Y405371D01*
X263469Y401392D02*
X265790Y398407D01*
X263469Y401392D02*
X261147Y398407D01*
X263469Y401392D02*
X267116Y402718D01*
X263469Y401392D02*
X259821Y402718D01*
D15*
X273188Y343356D02*
X273188Y336385D01*
X273190Y336282D01*
X273196Y336180D01*
X273206Y336078D01*
X273219Y335976D01*
X273237Y335875D01*
X273259Y335774D01*
X273284Y335675D01*
X273313Y335576D01*
X273346Y335479D01*
X273382Y335383D01*
X273423Y335288D01*
X273466Y335195D01*
X273514Y335104D01*
X273564Y335015D01*
X273619Y334928D01*
X273676Y334843D01*
X273737Y334760D01*
X273801Y334679D01*
X273867Y334601D01*
X273937Y334526D01*
X274010Y334453D01*
X274085Y334383D01*
X274163Y334317D01*
X274244Y334253D01*
X274327Y334192D01*
X274412Y334135D01*
X274499Y334080D01*
X274588Y334030D01*
X274679Y333982D01*
X274772Y333939D01*
X274867Y333898D01*
X274963Y333862D01*
X275060Y333829D01*
X275159Y333800D01*
X275258Y333775D01*
X275359Y333753D01*
X275460Y333735D01*
X275562Y333722D01*
X275664Y333712D01*
X275766Y333706D01*
X275869Y333704D01*
X275972Y333706D01*
X276074Y333712D01*
X276176Y333722D01*
X276278Y333735D01*
X276379Y333753D01*
X276480Y333775D01*
X276579Y333800D01*
X276678Y333829D01*
X276775Y333862D01*
X276871Y333898D01*
X276966Y333939D01*
X277059Y333982D01*
X277150Y334030D01*
X277239Y334080D01*
X277326Y334135D01*
X277411Y334192D01*
X277494Y334253D01*
X277575Y334317D01*
X277653Y334383D01*
X277728Y334453D01*
X277801Y334526D01*
X277871Y334601D01*
X277937Y334679D01*
X278001Y334760D01*
X278062Y334843D01*
X278119Y334928D01*
X278174Y335015D01*
X278224Y335104D01*
X278272Y335195D01*
X278315Y335288D01*
X278356Y335383D01*
X278392Y335479D01*
X278425Y335576D01*
X278454Y335675D01*
X278479Y335774D01*
X278501Y335875D01*
X278519Y335976D01*
X278532Y336078D01*
X278542Y336180D01*
X278548Y336282D01*
X278550Y336385D01*
X278550Y343356D01*
X282637Y333704D02*
X285318Y333704D01*
X285421Y333706D01*
X285523Y333712D01*
X285625Y333722D01*
X285727Y333735D01*
X285828Y333753D01*
X285929Y333775D01*
X286028Y333800D01*
X286127Y333829D01*
X286224Y333862D01*
X286320Y333898D01*
X286415Y333939D01*
X286508Y333982D01*
X286599Y334030D01*
X286688Y334080D01*
X286775Y334135D01*
X286860Y334192D01*
X286943Y334253D01*
X287024Y334317D01*
X287102Y334383D01*
X287177Y334453D01*
X287250Y334526D01*
X287320Y334601D01*
X287386Y334679D01*
X287450Y334760D01*
X287511Y334843D01*
X287568Y334928D01*
X287623Y335015D01*
X287673Y335104D01*
X287721Y335195D01*
X287764Y335288D01*
X287805Y335383D01*
X287841Y335479D01*
X287874Y335576D01*
X287903Y335675D01*
X287928Y335774D01*
X287950Y335875D01*
X287968Y335976D01*
X287981Y336078D01*
X287991Y336180D01*
X287997Y336282D01*
X287999Y336385D01*
X287997Y336488D01*
X287991Y336590D01*
X287981Y336692D01*
X287968Y336794D01*
X287950Y336895D01*
X287928Y336996D01*
X287903Y337095D01*
X287874Y337194D01*
X287841Y337291D01*
X287805Y337387D01*
X287764Y337482D01*
X287721Y337575D01*
X287673Y337666D01*
X287623Y337755D01*
X287568Y337842D01*
X287511Y337927D01*
X287450Y338010D01*
X287386Y338091D01*
X287320Y338169D01*
X287250Y338244D01*
X287177Y338317D01*
X287102Y338387D01*
X287024Y338453D01*
X286943Y338517D01*
X286860Y338578D01*
X286775Y338635D01*
X286688Y338690D01*
X286599Y338740D01*
X286508Y338788D01*
X286415Y338831D01*
X286320Y338872D01*
X286224Y338908D01*
X286127Y338941D01*
X286028Y338970D01*
X285929Y338995D01*
X285828Y339017D01*
X285727Y339035D01*
X285625Y339048D01*
X285523Y339058D01*
X285421Y339064D01*
X285318Y339066D01*
X285854Y343356D02*
X282637Y343356D01*
X285854Y343356D02*
X285945Y343354D01*
X286036Y343348D01*
X286126Y343339D01*
X286217Y343325D01*
X286306Y343308D01*
X286394Y343287D01*
X286482Y343262D01*
X286569Y343233D01*
X286654Y343201D01*
X286738Y343166D01*
X286820Y343126D01*
X286900Y343084D01*
X286979Y343038D01*
X287055Y342988D01*
X287129Y342936D01*
X287202Y342880D01*
X287271Y342821D01*
X287338Y342760D01*
X287403Y342695D01*
X287464Y342628D01*
X287523Y342559D01*
X287579Y342486D01*
X287631Y342412D01*
X287681Y342336D01*
X287727Y342257D01*
X287769Y342177D01*
X287809Y342095D01*
X287844Y342011D01*
X287876Y341926D01*
X287905Y341839D01*
X287930Y341751D01*
X287951Y341663D01*
X287968Y341574D01*
X287982Y341483D01*
X287991Y341393D01*
X287997Y341302D01*
X287999Y341211D01*
X287997Y341120D01*
X287991Y341029D01*
X287982Y340939D01*
X287968Y340848D01*
X287951Y340759D01*
X287930Y340671D01*
X287905Y340583D01*
X287876Y340496D01*
X287844Y340411D01*
X287809Y340327D01*
X287769Y340245D01*
X287727Y340165D01*
X287681Y340086D01*
X287631Y340010D01*
X287579Y339936D01*
X287523Y339863D01*
X287464Y339794D01*
X287403Y339727D01*
X287338Y339662D01*
X287271Y339601D01*
X287202Y339542D01*
X287129Y339486D01*
X287055Y339434D01*
X286979Y339384D01*
X286900Y339338D01*
X286820Y339296D01*
X286738Y339256D01*
X286654Y339221D01*
X286569Y339189D01*
X286482Y339160D01*
X286394Y339135D01*
X286306Y339114D01*
X286217Y339097D01*
X286126Y339083D01*
X286036Y339074D01*
X285945Y339068D01*
X285854Y339066D01*
X283709Y339066D01*
D14*
X184520Y67000D02*
X169280Y60650D01*
X169280Y73350D01*
X184520Y67000D01*
X253100Y27376D02*
X253100Y18486D01*
X253100Y70302D02*
X231002Y70302D01*
X187060Y70302D02*
X187060Y46680D01*
X187060Y18486D02*
X253100Y18486D01*
X209158Y70302D02*
X187060Y70302D01*
X187060Y27376D02*
X187060Y18486D01*
X253100Y46680D02*
X253100Y70302D01*
D16*
X265828Y31992D02*
X265828Y22904D01*
X265827Y22904D02*
X265825Y22805D01*
X265819Y22705D01*
X265810Y22606D01*
X265797Y22508D01*
X265780Y22410D01*
X265759Y22312D01*
X265734Y22216D01*
X265706Y22121D01*
X265674Y22027D01*
X265639Y21934D01*
X265600Y21842D01*
X265557Y21752D01*
X265512Y21664D01*
X265462Y21577D01*
X265410Y21493D01*
X265354Y21410D01*
X265296Y21330D01*
X265234Y21252D01*
X265169Y21177D01*
X265101Y21104D01*
X265031Y21034D01*
X264958Y20966D01*
X264883Y20901D01*
X264805Y20839D01*
X264725Y20781D01*
X264642Y20725D01*
X264558Y20673D01*
X264471Y20623D01*
X264383Y20578D01*
X264293Y20535D01*
X264201Y20496D01*
X264108Y20461D01*
X264014Y20429D01*
X263919Y20401D01*
X263823Y20376D01*
X263725Y20355D01*
X263627Y20338D01*
X263529Y20325D01*
X263430Y20316D01*
X263330Y20310D01*
X263231Y20308D01*
X261933Y20308D01*
X271101Y29396D02*
X274346Y31992D01*
X274346Y20308D01*
X271101Y20308D02*
X277592Y20308D01*
D14*
X307280Y60650D02*
X322520Y67000D01*
X307280Y60650D02*
X307280Y73350D01*
X322520Y67000D01*
X391100Y27376D02*
X391100Y18486D01*
X391100Y70302D02*
X369002Y70302D01*
X325060Y70302D02*
X325060Y46680D01*
X325060Y18486D02*
X391100Y18486D01*
X347158Y70302D02*
X325060Y70302D01*
X325060Y27376D02*
X325060Y18486D01*
X391100Y46680D02*
X391100Y70302D01*
D16*
X403828Y31992D02*
X403828Y22904D01*
X403827Y22904D02*
X403825Y22805D01*
X403819Y22705D01*
X403810Y22606D01*
X403797Y22508D01*
X403780Y22410D01*
X403759Y22312D01*
X403734Y22216D01*
X403706Y22121D01*
X403674Y22027D01*
X403639Y21934D01*
X403600Y21842D01*
X403557Y21752D01*
X403512Y21664D01*
X403462Y21577D01*
X403410Y21493D01*
X403354Y21410D01*
X403296Y21330D01*
X403234Y21252D01*
X403169Y21177D01*
X403101Y21104D01*
X403031Y21034D01*
X402958Y20966D01*
X402883Y20901D01*
X402805Y20839D01*
X402725Y20781D01*
X402642Y20725D01*
X402558Y20673D01*
X402471Y20623D01*
X402383Y20578D01*
X402293Y20535D01*
X402201Y20496D01*
X402108Y20461D01*
X402014Y20429D01*
X401919Y20401D01*
X401823Y20376D01*
X401725Y20355D01*
X401627Y20338D01*
X401529Y20325D01*
X401430Y20316D01*
X401330Y20310D01*
X401231Y20308D01*
X399933Y20308D01*
X412671Y31992D02*
X412778Y31990D01*
X412884Y31984D01*
X412990Y31974D01*
X413096Y31961D01*
X413202Y31943D01*
X413306Y31922D01*
X413410Y31897D01*
X413513Y31868D01*
X413614Y31836D01*
X413714Y31799D01*
X413813Y31759D01*
X413911Y31716D01*
X414007Y31669D01*
X414101Y31618D01*
X414193Y31564D01*
X414283Y31507D01*
X414371Y31447D01*
X414456Y31383D01*
X414539Y31316D01*
X414620Y31246D01*
X414698Y31174D01*
X414774Y31098D01*
X414846Y31020D01*
X414916Y30939D01*
X414983Y30856D01*
X415047Y30771D01*
X415107Y30683D01*
X415164Y30593D01*
X415218Y30501D01*
X415269Y30407D01*
X415316Y30311D01*
X415359Y30213D01*
X415399Y30114D01*
X415436Y30014D01*
X415468Y29913D01*
X415497Y29810D01*
X415522Y29706D01*
X415543Y29602D01*
X415561Y29496D01*
X415574Y29390D01*
X415584Y29284D01*
X415590Y29178D01*
X415592Y29071D01*
X412671Y31992D02*
X412550Y31990D01*
X412429Y31984D01*
X412309Y31974D01*
X412188Y31961D01*
X412069Y31943D01*
X411949Y31922D01*
X411831Y31897D01*
X411714Y31868D01*
X411597Y31835D01*
X411482Y31799D01*
X411368Y31758D01*
X411255Y31715D01*
X411143Y31667D01*
X411034Y31616D01*
X410926Y31561D01*
X410819Y31503D01*
X410715Y31442D01*
X410613Y31377D01*
X410513Y31309D01*
X410415Y31238D01*
X410319Y31164D01*
X410226Y31087D01*
X410136Y31006D01*
X410048Y30923D01*
X409963Y30837D01*
X409880Y30748D01*
X409801Y30657D01*
X409724Y30563D01*
X409651Y30467D01*
X409581Y30369D01*
X409514Y30268D01*
X409450Y30165D01*
X409390Y30060D01*
X409333Y29953D01*
X409279Y29845D01*
X409229Y29735D01*
X409183Y29623D01*
X409140Y29510D01*
X409101Y29395D01*
X414619Y26799D02*
X414698Y26876D01*
X414774Y26957D01*
X414847Y27040D01*
X414917Y27125D01*
X414984Y27213D01*
X415048Y27303D01*
X415108Y27395D01*
X415165Y27490D01*
X415219Y27586D01*
X415270Y27684D01*
X415317Y27784D01*
X415361Y27886D01*
X415401Y27989D01*
X415437Y28093D01*
X415469Y28199D01*
X415498Y28305D01*
X415523Y28413D01*
X415545Y28521D01*
X415562Y28631D01*
X415576Y28740D01*
X415585Y28850D01*
X415591Y28961D01*
X415593Y29071D01*
X414618Y26799D02*
X409101Y20308D01*
X415592Y20308D01*
D17*
X196000Y174000D03*
D10*
X178649Y168641D02*
X171411Y168641D01*
X171411Y170652D01*
X171413Y170741D01*
X171419Y170830D01*
X171429Y170918D01*
X171442Y171006D01*
X171460Y171093D01*
X171481Y171180D01*
X171507Y171265D01*
X171536Y171349D01*
X171568Y171432D01*
X171605Y171513D01*
X171645Y171593D01*
X171688Y171670D01*
X171735Y171746D01*
X171785Y171820D01*
X171838Y171891D01*
X171894Y171960D01*
X171954Y172026D01*
X172016Y172090D01*
X172081Y172150D01*
X172148Y172208D01*
X172218Y172263D01*
X172291Y172315D01*
X172366Y172363D01*
X172442Y172408D01*
X172521Y172450D01*
X172601Y172488D01*
X172683Y172522D01*
X172767Y172553D01*
X172852Y172580D01*
X172937Y172604D01*
X173024Y172623D01*
X173112Y172639D01*
X173200Y172651D01*
X173289Y172659D01*
X173378Y172663D01*
X173466Y172663D01*
X173555Y172659D01*
X173644Y172651D01*
X173732Y172639D01*
X173820Y172623D01*
X173907Y172604D01*
X173992Y172580D01*
X174077Y172553D01*
X174161Y172522D01*
X174243Y172488D01*
X174323Y172450D01*
X174402Y172408D01*
X174478Y172363D01*
X174553Y172315D01*
X174626Y172263D01*
X174696Y172208D01*
X174763Y172150D01*
X174828Y172090D01*
X174890Y172026D01*
X174950Y171960D01*
X175006Y171891D01*
X175059Y171820D01*
X175109Y171746D01*
X175156Y171670D01*
X175199Y171593D01*
X175239Y171513D01*
X175276Y171432D01*
X175308Y171349D01*
X175337Y171265D01*
X175363Y171180D01*
X175384Y171093D01*
X175402Y171006D01*
X175415Y170918D01*
X175425Y170830D01*
X175431Y170741D01*
X175433Y170652D01*
X175432Y170652D02*
X175432Y168641D01*
X175432Y171054D02*
X178649Y172662D01*
X174628Y175790D02*
X174628Y178203D01*
X174630Y178282D01*
X174636Y178361D01*
X174645Y178439D01*
X174659Y178517D01*
X174676Y178594D01*
X174697Y178670D01*
X174722Y178745D01*
X174750Y178818D01*
X174782Y178891D01*
X174818Y178961D01*
X174857Y179030D01*
X174899Y179096D01*
X174944Y179161D01*
X174993Y179223D01*
X175045Y179283D01*
X175099Y179340D01*
X175156Y179394D01*
X175216Y179446D01*
X175278Y179495D01*
X175343Y179540D01*
X175409Y179582D01*
X175478Y179621D01*
X175548Y179657D01*
X175621Y179689D01*
X175694Y179717D01*
X175769Y179742D01*
X175845Y179763D01*
X175922Y179780D01*
X176000Y179794D01*
X176078Y179803D01*
X176157Y179809D01*
X176236Y179811D01*
X176638Y179811D01*
X176638Y179812D02*
X176727Y179810D01*
X176816Y179804D01*
X176904Y179794D01*
X176992Y179781D01*
X177079Y179763D01*
X177166Y179742D01*
X177251Y179716D01*
X177335Y179687D01*
X177418Y179655D01*
X177499Y179618D01*
X177579Y179578D01*
X177656Y179535D01*
X177732Y179488D01*
X177806Y179438D01*
X177877Y179385D01*
X177946Y179329D01*
X178012Y179269D01*
X178076Y179207D01*
X178136Y179142D01*
X178194Y179075D01*
X178249Y179005D01*
X178301Y178932D01*
X178349Y178857D01*
X178394Y178781D01*
X178436Y178702D01*
X178474Y178622D01*
X178508Y178540D01*
X178539Y178456D01*
X178566Y178371D01*
X178590Y178286D01*
X178609Y178199D01*
X178625Y178111D01*
X178637Y178023D01*
X178645Y177934D01*
X178649Y177845D01*
X178649Y177757D01*
X178645Y177668D01*
X178637Y177579D01*
X178625Y177491D01*
X178609Y177403D01*
X178590Y177316D01*
X178566Y177231D01*
X178539Y177146D01*
X178508Y177062D01*
X178474Y176980D01*
X178436Y176900D01*
X178394Y176821D01*
X178349Y176745D01*
X178301Y176670D01*
X178249Y176597D01*
X178194Y176527D01*
X178136Y176460D01*
X178076Y176395D01*
X178012Y176333D01*
X177946Y176273D01*
X177877Y176217D01*
X177806Y176164D01*
X177732Y176114D01*
X177656Y176067D01*
X177579Y176024D01*
X177499Y175984D01*
X177418Y175947D01*
X177335Y175915D01*
X177251Y175886D01*
X177166Y175860D01*
X177079Y175839D01*
X176992Y175821D01*
X176904Y175808D01*
X176816Y175798D01*
X176727Y175792D01*
X176638Y175790D01*
X174628Y175790D01*
X174516Y175792D01*
X174404Y175798D01*
X174292Y175808D01*
X174180Y175821D01*
X174069Y175839D01*
X173959Y175860D01*
X173850Y175886D01*
X173741Y175915D01*
X173634Y175947D01*
X173528Y175984D01*
X173423Y176024D01*
X173320Y176068D01*
X173218Y176116D01*
X173118Y176167D01*
X173020Y176221D01*
X172923Y176279D01*
X172829Y176340D01*
X172737Y176404D01*
X172647Y176472D01*
X172560Y176543D01*
X172475Y176616D01*
X172393Y176693D01*
X172314Y176772D01*
X172237Y176854D01*
X172164Y176939D01*
X172093Y177026D01*
X172025Y177116D01*
X171961Y177208D01*
X171900Y177302D01*
X171842Y177398D01*
X171788Y177497D01*
X171737Y177597D01*
X171689Y177698D01*
X171645Y177802D01*
X171605Y177907D01*
X171568Y178013D01*
X171536Y178120D01*
X171507Y178229D01*
X171481Y178338D01*
X171460Y178448D01*
X171442Y178559D01*
X171429Y178671D01*
X171419Y178783D01*
X171413Y178895D01*
X171411Y179007D01*
D11*
X225000Y340000D02*
X231000Y340000D01*
X231000Y328000D02*
X225000Y328000D01*
X210220Y342890D02*
X245780Y342890D01*
X245780Y325110D01*
X210220Y325110D01*
X210220Y342890D01*
D12*
X212379Y345430D02*
X213903Y345430D01*
X212379Y345430D02*
X212302Y345432D01*
X212225Y345438D01*
X212148Y345448D01*
X212072Y345461D01*
X211997Y345479D01*
X211923Y345500D01*
X211850Y345525D01*
X211778Y345554D01*
X211708Y345586D01*
X211639Y345621D01*
X211573Y345661D01*
X211508Y345703D01*
X211446Y345749D01*
X211386Y345798D01*
X211329Y345849D01*
X211274Y345904D01*
X211223Y345961D01*
X211174Y346021D01*
X211128Y346083D01*
X211086Y346148D01*
X211046Y346214D01*
X211011Y346283D01*
X210979Y346353D01*
X210950Y346425D01*
X210925Y346498D01*
X210904Y346572D01*
X210886Y346647D01*
X210873Y346723D01*
X210863Y346800D01*
X210857Y346877D01*
X210855Y346954D01*
X210855Y350764D01*
X210857Y350841D01*
X210863Y350918D01*
X210873Y350995D01*
X210886Y351071D01*
X210904Y351146D01*
X210925Y351220D01*
X210950Y351293D01*
X210979Y351365D01*
X211011Y351435D01*
X211046Y351504D01*
X211086Y351570D01*
X211128Y351635D01*
X211174Y351697D01*
X211223Y351757D01*
X211274Y351814D01*
X211329Y351869D01*
X211386Y351920D01*
X211446Y351969D01*
X211508Y352015D01*
X211573Y352057D01*
X211639Y352097D01*
X211708Y352132D01*
X211778Y352164D01*
X211850Y352193D01*
X211923Y352218D01*
X211997Y352239D01*
X212072Y352257D01*
X212148Y352270D01*
X212225Y352280D01*
X212302Y352286D01*
X212379Y352288D01*
X213903Y352288D01*
X216982Y347335D02*
X216984Y347420D01*
X216990Y347506D01*
X216999Y347591D01*
X217013Y347675D01*
X217030Y347759D01*
X217051Y347842D01*
X217075Y347924D01*
X217103Y348004D01*
X217135Y348084D01*
X217171Y348162D01*
X217209Y348238D01*
X217252Y348312D01*
X217297Y348384D01*
X217346Y348455D01*
X217398Y348523D01*
X217452Y348588D01*
X217510Y348651D01*
X217571Y348712D01*
X217634Y348770D01*
X217699Y348824D01*
X217767Y348876D01*
X217838Y348925D01*
X217910Y348970D01*
X217984Y349013D01*
X218060Y349051D01*
X218138Y349087D01*
X218218Y349119D01*
X218298Y349147D01*
X218380Y349171D01*
X218463Y349192D01*
X218547Y349209D01*
X218631Y349223D01*
X218716Y349232D01*
X218802Y349238D01*
X218887Y349240D01*
X218972Y349238D01*
X219058Y349232D01*
X219143Y349223D01*
X219227Y349209D01*
X219311Y349192D01*
X219394Y349171D01*
X219476Y349147D01*
X219556Y349119D01*
X219636Y349087D01*
X219714Y349051D01*
X219790Y349013D01*
X219864Y348970D01*
X219936Y348925D01*
X220007Y348876D01*
X220075Y348824D01*
X220140Y348770D01*
X220203Y348712D01*
X220264Y348651D01*
X220322Y348588D01*
X220376Y348523D01*
X220428Y348455D01*
X220477Y348384D01*
X220522Y348312D01*
X220565Y348238D01*
X220603Y348162D01*
X220639Y348084D01*
X220671Y348004D01*
X220699Y347924D01*
X220723Y347842D01*
X220744Y347759D01*
X220761Y347675D01*
X220775Y347591D01*
X220784Y347506D01*
X220790Y347420D01*
X220792Y347335D01*
X220790Y347250D01*
X220784Y347164D01*
X220775Y347079D01*
X220761Y346995D01*
X220744Y346911D01*
X220723Y346828D01*
X220699Y346746D01*
X220671Y346666D01*
X220639Y346586D01*
X220603Y346508D01*
X220565Y346432D01*
X220522Y346358D01*
X220477Y346286D01*
X220428Y346215D01*
X220376Y346147D01*
X220322Y346082D01*
X220264Y346019D01*
X220203Y345958D01*
X220140Y345900D01*
X220075Y345846D01*
X220007Y345794D01*
X219936Y345745D01*
X219864Y345700D01*
X219790Y345657D01*
X219714Y345619D01*
X219636Y345583D01*
X219556Y345551D01*
X219476Y345523D01*
X219394Y345499D01*
X219311Y345478D01*
X219227Y345461D01*
X219143Y345447D01*
X219058Y345438D01*
X218972Y345432D01*
X218887Y345430D01*
X218802Y345432D01*
X218716Y345438D01*
X218631Y345447D01*
X218547Y345461D01*
X218463Y345478D01*
X218380Y345499D01*
X218298Y345523D01*
X218218Y345551D01*
X218138Y345583D01*
X218060Y345619D01*
X217984Y345657D01*
X217910Y345700D01*
X217838Y345745D01*
X217767Y345794D01*
X217699Y345846D01*
X217634Y345900D01*
X217571Y345958D01*
X217510Y346019D01*
X217452Y346082D01*
X217398Y346147D01*
X217346Y346215D01*
X217297Y346286D01*
X217252Y346358D01*
X217209Y346432D01*
X217171Y346508D01*
X217135Y346586D01*
X217103Y346666D01*
X217075Y346746D01*
X217051Y346828D01*
X217030Y346911D01*
X217013Y346995D01*
X216999Y347079D01*
X216990Y347164D01*
X216984Y347250D01*
X216982Y347335D01*
X217363Y350764D02*
X217365Y350841D01*
X217371Y350918D01*
X217381Y350995D01*
X217394Y351071D01*
X217412Y351146D01*
X217433Y351220D01*
X217458Y351293D01*
X217487Y351365D01*
X217519Y351435D01*
X217554Y351504D01*
X217594Y351570D01*
X217636Y351635D01*
X217682Y351697D01*
X217731Y351757D01*
X217782Y351814D01*
X217837Y351869D01*
X217894Y351920D01*
X217954Y351969D01*
X218016Y352015D01*
X218081Y352057D01*
X218147Y352097D01*
X218216Y352132D01*
X218286Y352164D01*
X218358Y352193D01*
X218431Y352218D01*
X218505Y352239D01*
X218580Y352257D01*
X218656Y352270D01*
X218733Y352280D01*
X218810Y352286D01*
X218887Y352288D01*
X218964Y352286D01*
X219041Y352280D01*
X219118Y352270D01*
X219194Y352257D01*
X219269Y352239D01*
X219343Y352218D01*
X219416Y352193D01*
X219488Y352164D01*
X219558Y352132D01*
X219627Y352097D01*
X219693Y352057D01*
X219758Y352015D01*
X219820Y351969D01*
X219880Y351920D01*
X219937Y351869D01*
X219992Y351814D01*
X220043Y351757D01*
X220092Y351697D01*
X220138Y351635D01*
X220180Y351570D01*
X220220Y351504D01*
X220255Y351435D01*
X220287Y351365D01*
X220316Y351293D01*
X220341Y351220D01*
X220362Y351146D01*
X220380Y351071D01*
X220393Y350995D01*
X220403Y350918D01*
X220409Y350841D01*
X220411Y350764D01*
X220409Y350687D01*
X220403Y350610D01*
X220393Y350533D01*
X220380Y350457D01*
X220362Y350382D01*
X220341Y350308D01*
X220316Y350235D01*
X220287Y350163D01*
X220255Y350093D01*
X220220Y350024D01*
X220180Y349958D01*
X220138Y349893D01*
X220092Y349831D01*
X220043Y349771D01*
X219992Y349714D01*
X219937Y349659D01*
X219880Y349608D01*
X219820Y349559D01*
X219758Y349513D01*
X219693Y349471D01*
X219627Y349431D01*
X219558Y349396D01*
X219488Y349364D01*
X219416Y349335D01*
X219343Y349310D01*
X219269Y349289D01*
X219194Y349271D01*
X219118Y349258D01*
X219041Y349248D01*
X218964Y349242D01*
X218887Y349240D01*
X218810Y349242D01*
X218733Y349248D01*
X218656Y349258D01*
X218580Y349271D01*
X218505Y349289D01*
X218431Y349310D01*
X218358Y349335D01*
X218286Y349364D01*
X218216Y349396D01*
X218147Y349431D01*
X218081Y349471D01*
X218016Y349513D01*
X217954Y349559D01*
X217894Y349608D01*
X217837Y349659D01*
X217782Y349714D01*
X217731Y349771D01*
X217682Y349831D01*
X217636Y349893D01*
X217594Y349958D01*
X217554Y350024D01*
X217519Y350093D01*
X217487Y350163D01*
X217458Y350235D01*
X217433Y350308D01*
X217412Y350382D01*
X217394Y350457D01*
X217381Y350533D01*
X217371Y350610D01*
X217365Y350687D01*
X217363Y350764D01*
D11*
X228000Y378000D02*
X234000Y378000D01*
X234000Y366000D02*
X228000Y366000D01*
X213220Y380890D02*
X248780Y380890D01*
X248780Y363110D01*
X213220Y363110D01*
X213220Y380890D01*
D12*
X215379Y383430D02*
X216903Y383430D01*
X215379Y383430D02*
X215302Y383432D01*
X215225Y383438D01*
X215148Y383448D01*
X215072Y383461D01*
X214997Y383479D01*
X214923Y383500D01*
X214850Y383525D01*
X214778Y383554D01*
X214708Y383586D01*
X214639Y383621D01*
X214573Y383661D01*
X214508Y383703D01*
X214446Y383749D01*
X214386Y383798D01*
X214329Y383849D01*
X214274Y383904D01*
X214223Y383961D01*
X214174Y384021D01*
X214128Y384083D01*
X214086Y384148D01*
X214046Y384214D01*
X214011Y384283D01*
X213979Y384353D01*
X213950Y384425D01*
X213925Y384498D01*
X213904Y384572D01*
X213886Y384647D01*
X213873Y384723D01*
X213863Y384800D01*
X213857Y384877D01*
X213855Y384954D01*
X213855Y388764D01*
X213857Y388841D01*
X213863Y388918D01*
X213873Y388995D01*
X213886Y389071D01*
X213904Y389146D01*
X213925Y389220D01*
X213950Y389293D01*
X213979Y389365D01*
X214011Y389435D01*
X214046Y389504D01*
X214086Y389570D01*
X214128Y389635D01*
X214174Y389697D01*
X214223Y389757D01*
X214274Y389814D01*
X214329Y389869D01*
X214386Y389920D01*
X214446Y389969D01*
X214508Y390015D01*
X214573Y390057D01*
X214639Y390097D01*
X214708Y390132D01*
X214778Y390164D01*
X214850Y390193D01*
X214923Y390218D01*
X214997Y390239D01*
X215072Y390257D01*
X215148Y390270D01*
X215225Y390280D01*
X215302Y390286D01*
X215379Y390288D01*
X216903Y390288D01*
X221506Y386478D02*
X223792Y386478D01*
X221506Y386478D02*
X221429Y386480D01*
X221352Y386486D01*
X221275Y386496D01*
X221199Y386509D01*
X221124Y386527D01*
X221050Y386548D01*
X220977Y386573D01*
X220905Y386602D01*
X220835Y386634D01*
X220766Y386669D01*
X220700Y386709D01*
X220635Y386751D01*
X220573Y386797D01*
X220513Y386846D01*
X220456Y386897D01*
X220401Y386952D01*
X220350Y387009D01*
X220301Y387069D01*
X220255Y387131D01*
X220213Y387196D01*
X220173Y387262D01*
X220138Y387331D01*
X220106Y387401D01*
X220077Y387473D01*
X220052Y387546D01*
X220031Y387620D01*
X220013Y387695D01*
X220000Y387771D01*
X219990Y387848D01*
X219984Y387925D01*
X219982Y388002D01*
X219982Y388383D01*
X219984Y388468D01*
X219990Y388554D01*
X219999Y388639D01*
X220013Y388723D01*
X220030Y388807D01*
X220051Y388890D01*
X220075Y388972D01*
X220103Y389052D01*
X220135Y389132D01*
X220171Y389210D01*
X220209Y389286D01*
X220252Y389360D01*
X220297Y389432D01*
X220346Y389503D01*
X220398Y389571D01*
X220452Y389636D01*
X220510Y389699D01*
X220571Y389760D01*
X220634Y389818D01*
X220699Y389872D01*
X220767Y389924D01*
X220838Y389973D01*
X220910Y390018D01*
X220984Y390061D01*
X221060Y390099D01*
X221138Y390135D01*
X221218Y390167D01*
X221298Y390195D01*
X221380Y390219D01*
X221463Y390240D01*
X221547Y390257D01*
X221631Y390271D01*
X221716Y390280D01*
X221802Y390286D01*
X221887Y390288D01*
X221972Y390286D01*
X222058Y390280D01*
X222143Y390271D01*
X222227Y390257D01*
X222311Y390240D01*
X222394Y390219D01*
X222476Y390195D01*
X222556Y390167D01*
X222636Y390135D01*
X222714Y390099D01*
X222790Y390061D01*
X222864Y390018D01*
X222936Y389973D01*
X223007Y389924D01*
X223075Y389872D01*
X223140Y389818D01*
X223203Y389760D01*
X223264Y389699D01*
X223322Y389636D01*
X223376Y389571D01*
X223428Y389503D01*
X223477Y389432D01*
X223522Y389360D01*
X223565Y389286D01*
X223603Y389210D01*
X223639Y389132D01*
X223671Y389052D01*
X223699Y388972D01*
X223723Y388890D01*
X223744Y388807D01*
X223761Y388723D01*
X223775Y388639D01*
X223784Y388554D01*
X223790Y388468D01*
X223792Y388383D01*
X223792Y386478D01*
X223790Y386369D01*
X223784Y386261D01*
X223775Y386152D01*
X223761Y386044D01*
X223744Y385937D01*
X223722Y385830D01*
X223697Y385724D01*
X223669Y385619D01*
X223636Y385515D01*
X223600Y385413D01*
X223560Y385312D01*
X223517Y385212D01*
X223470Y385114D01*
X223419Y385017D01*
X223365Y384923D01*
X223308Y384830D01*
X223248Y384740D01*
X223184Y384651D01*
X223117Y384565D01*
X223048Y384482D01*
X222975Y384401D01*
X222899Y384323D01*
X222821Y384247D01*
X222740Y384174D01*
X222657Y384105D01*
X222571Y384038D01*
X222482Y383974D01*
X222392Y383914D01*
X222299Y383857D01*
X222205Y383803D01*
X222108Y383752D01*
X222010Y383705D01*
X221910Y383662D01*
X221809Y383622D01*
X221707Y383586D01*
X221603Y383553D01*
X221498Y383525D01*
X221392Y383500D01*
X221285Y383478D01*
X221178Y383461D01*
X221070Y383447D01*
X220961Y383438D01*
X220853Y383432D01*
X220744Y383430D01*
M02*
