G04 EAGLE Gerber RS-274X export*
G75*
%MOMM*%
%FSLAX34Y34*%
%LPD*%
%INSolderpaste Top*%
%IPPOS*%
%AMOC8*
5,1,8,0,0,1.08239X$1,22.5*%
G01*
%ADD10R,0.800000X1.200000*%
%ADD11R,1.200000X0.800000*%
%ADD12C,0.130000*%
%ADD13R,1.143000X1.092200*%
%ADD14R,0.711200X1.447800*%
%ADD15R,1.524000X0.711200*%
%ADD16R,0.787400X0.304800*%
%ADD17R,0.304800X0.787400*%
%ADD18R,2.438400X2.438400*%
%ADD19R,1.651000X0.558800*%
%ADD20R,1.460500X0.558800*%
%ADD21R,0.550000X1.000000*%
%ADD22R,1.260000X1.300000*%
%ADD23R,1.100000X1.000000*%


D10*
X167000Y390000D03*
X185000Y390000D03*
X124000Y316000D03*
X106000Y316000D03*
X106000Y372000D03*
X124000Y372000D03*
X252000Y163000D03*
X270000Y163000D03*
X252000Y219000D03*
X270000Y219000D03*
D11*
X308000Y239000D03*
X308000Y221000D03*
X144000Y118000D03*
X144000Y100000D03*
D12*
X162000Y328050D02*
X171000Y328050D01*
X162000Y328050D02*
X162000Y331950D01*
X171000Y331950D01*
X171000Y328050D01*
X171000Y329285D02*
X162000Y329285D01*
X162000Y330520D02*
X171000Y330520D01*
X171000Y331755D02*
X162000Y331755D01*
X185000Y328050D02*
X194000Y328050D01*
X185000Y328050D02*
X185000Y331950D01*
X194000Y331950D01*
X194000Y328050D01*
X194000Y329285D02*
X185000Y329285D01*
X185000Y330520D02*
X194000Y330520D01*
X194000Y331755D02*
X185000Y331755D01*
D13*
X336633Y239000D03*
X367367Y239000D03*
X278633Y428000D03*
X309367Y428000D03*
D14*
X207049Y417000D03*
X184951Y417000D03*
D15*
X143700Y189000D03*
X143700Y208050D03*
D11*
X143700Y164000D03*
X143700Y146000D03*
D10*
X252000Y135000D03*
X270000Y135000D03*
X185000Y363000D03*
X167000Y363000D03*
X270000Y191000D03*
X252000Y191000D03*
X204600Y208000D03*
X186600Y208000D03*
X124000Y344000D03*
X106000Y344000D03*
X77000Y316000D03*
X59000Y316000D03*
X261000Y298000D03*
X279000Y298000D03*
X261000Y266000D03*
X279000Y266000D03*
D11*
X308000Y272900D03*
X308000Y290900D03*
D16*
X179242Y282106D03*
X179242Y277280D03*
X179242Y272200D03*
X179242Y267120D03*
X179242Y262294D03*
D17*
X188894Y252642D03*
X193720Y252642D03*
X198800Y252642D03*
X203880Y252642D03*
X208706Y252642D03*
D16*
X218358Y262294D03*
X218358Y267120D03*
X218358Y272200D03*
X218358Y277280D03*
X218358Y282106D03*
D17*
X208706Y291758D03*
X203880Y291758D03*
X198800Y291758D03*
X193720Y291758D03*
X188894Y291758D03*
D18*
X198800Y272200D03*
D19*
X81711Y279050D03*
X81711Y266350D03*
X81711Y253650D03*
X81711Y240950D03*
X134289Y240950D03*
X134289Y253650D03*
X134289Y266350D03*
X134289Y279050D03*
D20*
X267759Y392050D03*
X267759Y379350D03*
X267759Y366650D03*
X267759Y353950D03*
X322242Y353950D03*
X322242Y366650D03*
X322242Y379350D03*
X322242Y392050D03*
D21*
X215000Y67000D03*
X225000Y67000D03*
D22*
X191250Y37100D03*
X248800Y37100D03*
D21*
X353000Y67000D03*
X363000Y67000D03*
D22*
X329250Y37100D03*
X386800Y37100D03*
D23*
X204500Y174000D03*
X187500Y174000D03*
D10*
X219000Y334000D03*
X237000Y334000D03*
X222000Y372000D03*
X240000Y372000D03*
M02*
