M48
;GenerationSoftware,Autodesk,EAGLE,9.6.2*%
;CreationDate,2021-12-24T01:48:56Z*%
FMAT,2
ICI,OFF
METRIC,TZ,000.000
T10C0.350
T9C0.600
T8C1.000
T7C1.016
T6C1.067
T5C1.250
T4C2.500
T3C2.540
T2C2.800
T1C3.175
%
G90
M71
T1
X8890Y90805
X5080Y5080
X85090Y5080
X82550Y90805
T2
X14260Y9460
X72260Y9460
X72260Y32460
X14260Y32470
T3
X40120Y39370
X19800Y39370
X40120Y59690
X19800Y59690
T4
X65476Y10410
X44864Y10410
X65476Y23110
X44864Y23110
T5
X62340Y33730
X62340Y31190
X59800Y33730
X59800Y31190
X57260Y33730
X57260Y31190
X54720Y33730
X54720Y31190
X52180Y33730
X52180Y31190
X49640Y33730
X49640Y31190
X47100Y33730
X47100Y31190
X44560Y33730
X44560Y31190
X42020Y33730
X42020Y31190
X39480Y33730
X39480Y31190
X36940Y33730
X36940Y31190
X34400Y33730
X34400Y31190
X31860Y33730
X19160Y31190
X29320Y33730
X29320Y31190
X67420Y33730
X26780Y33730
X26780Y31190
X24240Y33730
X31860Y31190
X21700Y33730
X21700Y31190
X19160Y33730
X67420Y31190
X64880Y33730
X64880Y31190
X24240Y31190
T6
X29210Y90805
X29210Y88265
X26670Y90805
X26670Y88265
X24130Y90805
X24130Y88265
X21590Y90805
X21590Y88265
X19050Y90805
X16510Y83223
X16510Y85725
X19050Y85725
X21590Y83223
X21590Y85725
X24130Y83223
X24130Y85725
X26670Y83223
X26670Y85725
X29210Y83223
X29210Y85725
X31750Y83223
X31750Y85725
X34290Y83223
X34290Y85725
X36830Y83223
X36830Y85725
X39370Y83223
X39370Y85725
X41910Y83223
X41910Y85725
X44450Y83223
X44450Y85725
X46990Y83223
X46990Y85725
X49530Y83223
X49530Y85725
X52070Y83223
X52070Y85725
X54610Y83223
X54610Y85725
X57150Y83223
X57150Y85725
X59690Y83223
X59690Y85725
X62230Y83223
X62230Y85725
X64770Y83223
X64770Y85725
X67310Y83223
X67310Y85725
X69850Y83223
X69850Y85725
X72390Y83223
X72390Y85725
X74930Y83223
X74930Y85725
X13970Y83185
X13970Y85725
X77470Y83223
X77470Y85725
X16510Y88265
X16510Y90805
X19050Y88265
X34290Y90805
X34290Y88265
X31750Y90805
X31750Y88265
X77470Y90805
X77470Y88265
X13970Y90805
X13970Y88265
X74930Y90805
X74930Y88265
X72390Y90805
X72390Y88265
X69850Y90805
X69850Y88265
X67310Y90805
X67310Y88265
X64770Y90805
X64770Y88265
X62230Y90805
X62230Y88265
X59690Y90805
X59690Y88265
X57150Y90805
X57150Y88265
X54610Y90805
X54610Y88265
X52070Y90805
X52070Y88265
X49530Y90805
X49530Y88265
X46990Y90805
X46990Y88265
X44450Y90805
X44450Y88265
X41910Y90805
X41910Y88265
X39370Y90805
X39370Y88265
X36830Y90805
X36830Y88265
T7
X36310Y39370
X19050Y83223
X23610Y39370
X26150Y39370
X28690Y39370
X31230Y39370
X33770Y39370
T8
X63380Y79350
X65920Y79350
X68460Y79350
X16390Y67110
X18930Y67110
X21470Y67110
X24010Y67110
X26550Y67110
X48140Y64110
X45600Y79350
X10270Y72730
X10270Y70730
X30360Y64110
X61666Y10410
X59126Y10410
X56586Y10410
X54046Y10410
X51506Y10410
X48966Y10410
X10040Y64110
X55760Y71730
X12580Y79350
X10040Y79350
X15120Y79350
X55760Y69190
X55760Y66650
X55760Y74270
X55760Y76810
X43060Y79350
X43060Y64110
X12580Y64110
X15120Y64110
X17660Y64110
X20200Y64110
X22740Y64110
X25280Y64110
X27820Y64110
X32900Y64110
X35440Y64110
X37980Y64110
X40520Y64110
X12580Y76810
X40520Y79350
X37980Y79350
X35440Y79350
X32900Y79350
X30360Y79350
X27820Y79350
X25280Y79350
X22740Y79350
X20200Y79350
X17660Y79350
X45600Y64110
X50680Y64110
X53220Y64110
X55760Y64110
X58300Y64110
X60840Y64110
X63380Y64110
X65920Y64110
X68460Y64110
X48140Y79350
X50680Y79350
X53220Y79350
X55760Y79350
X58300Y79350
X60840Y79350
T9
X23010Y76810
X23010Y72810
X25010Y76810
X25010Y74810
X25010Y72810
X23010Y74810
T10
X11176Y1651
X26416Y1651
X27432Y1651
X28448Y1651
X29464Y1651
X30480Y1651
X88621Y78181
X88621Y77165
X88621Y75133
X88519Y10439
X88519Y16535
X88519Y48543
X88519Y47527
X88519Y46511
X88519Y45495
X88519Y43463
X88549Y60099
X88549Y66195
X88549Y65179
X88549Y64163
X88549Y63147
X88549Y62131
X88549Y61115
X88549Y59083
X88659Y28509
X88659Y34605
X88659Y33589
X88659Y32573
X88659Y31557
X88519Y15519
X88659Y30541
X88659Y29525
X88659Y27493
X19070Y50360
X79320Y20740
X80370Y86810
X83100Y39170
X78613Y1651
X15950Y22670
X52050Y61680
X25250Y12590
X84420Y39520
X23630Y42650
X78130Y30310
X44650Y38150
X78190Y29120
X42070Y37830
X78210Y27950
X37210Y38090
X49700Y48210
X47120Y49150
X44960Y50170
X12310Y14910
X28000Y27070
X12310Y16460
X25030Y27080
X22060Y13610
X56170Y61530
X27290Y12450
X29560Y12400
X79800Y85400
X21910Y44030
X15000Y58320
X14980Y60050
X88519Y44479
X88519Y50575
X88519Y49559
X88621Y76149
X88621Y82245
X88621Y81229
X88621Y80213
X88621Y79197
X12192Y1651
X10160Y1651
X13208Y1651
X14224Y1651
X15240Y1651
X16256Y1651
X88519Y14503
X88519Y13487
X88519Y12471
X88519Y11455
X88519Y9423
X81661Y1651
X80645Y1651
X79629Y1651
X77597Y1651
X17272Y1651
X75565Y1651
X74549Y1651
X59309Y1651
X65405Y1651
X64389Y1651
X63373Y1651
X62357Y1651
X61341Y1651
X60325Y1651
X58293Y1651
X4166Y64465
X4166Y70561
X4166Y69545
X4166Y68529
X76581Y1651
X4166Y66497
X4166Y65481
X4166Y63449
X4166Y80670
X4166Y86766
X4166Y85750
X4166Y84734
X4166Y83718
X4166Y82702
X4166Y81686
X4166Y79654
X33528Y1651
X32512Y1651
X31496Y1651
X4166Y67513
M30