G04 EAGLE Gerber RS-274X export*
G75*
%MOMM*%
%FSLAX34Y34*%
%LPD*%
%INSolderpaste Bottom*%
%IPPOS*%
%AMOC8*
5,1,8,0,0,1.08239X$1,22.5*%
G01*
%ADD10C,0.700000*%
%ADD11R,1.200000X0.800000*%
%ADD12R,0.700000X0.360000*%
%ADD13R,0.360000X0.700000*%
%ADD14C,0.600000*%
%ADD15R,0.800000X0.800000*%
%ADD16R,1.676400X0.508000*%
%ADD17R,4.500000X1.200000*%
%ADD18R,1.000000X0.550000*%
%ADD19R,1.300000X1.260000*%
%ADD20R,1.470000X1.200000*%


D10*
X495332Y517230D02*
X513332Y517230D01*
X513332Y529930D02*
X495332Y529930D01*
X495332Y542630D02*
X513332Y542630D01*
X513332Y555330D02*
X495332Y555330D01*
X544332Y517230D02*
X562332Y517230D01*
X562332Y529930D02*
X544332Y529930D01*
X544332Y542630D02*
X562332Y542630D01*
X562332Y555330D02*
X544332Y555330D01*
D11*
X555628Y445500D03*
X555628Y427500D03*
X526898Y445666D03*
X526898Y427666D03*
D12*
X259688Y145494D03*
X259688Y153494D03*
X259688Y161494D03*
X259688Y169494D03*
X259688Y177494D03*
X259688Y185494D03*
X259688Y193494D03*
X259688Y201494D03*
X259688Y209494D03*
X259688Y217494D03*
X259688Y225494D03*
D13*
X268088Y233894D03*
X276088Y233894D03*
X284088Y233894D03*
X292088Y233894D03*
X300088Y233894D03*
X308088Y233894D03*
X316188Y233894D03*
X324088Y233894D03*
X332088Y233894D03*
X340088Y233894D03*
X348088Y233894D03*
D12*
X356488Y225494D03*
X356488Y217494D03*
X356488Y209494D03*
X356488Y201494D03*
X356488Y193494D03*
X356488Y185494D03*
X356488Y177494D03*
X356488Y169494D03*
X356488Y161494D03*
X356488Y153494D03*
X356488Y145494D03*
D13*
X348088Y137094D03*
X340088Y137094D03*
X332088Y137094D03*
X324088Y137094D03*
X316088Y137094D03*
X308088Y137094D03*
X300088Y137094D03*
X292088Y137094D03*
X284088Y137094D03*
X276288Y137094D03*
X268088Y137094D03*
D14*
X278088Y155494D03*
X278088Y170494D03*
X278088Y185494D03*
X278088Y200494D03*
X278088Y215494D03*
X293088Y155494D03*
X293088Y170494D03*
X293088Y185494D03*
X293088Y200494D03*
X293088Y215494D03*
X308088Y155494D03*
X308088Y170494D03*
X308088Y185494D03*
X308088Y200494D03*
X308088Y215494D03*
X323088Y155494D03*
X323088Y170494D03*
X323088Y185494D03*
X323088Y200494D03*
X323088Y215494D03*
X338088Y155494D03*
X338088Y170494D03*
X338088Y185494D03*
X338088Y200494D03*
X338088Y215494D03*
D15*
X195326Y168024D03*
X210326Y168024D03*
D11*
X657088Y444900D03*
X657088Y426900D03*
X628762Y426900D03*
X628762Y444900D03*
D16*
X683446Y549544D03*
X683446Y536844D03*
X683446Y524144D03*
X683446Y511444D03*
X635186Y511444D03*
X635186Y524144D03*
X635186Y536844D03*
X635186Y549544D03*
D11*
X585442Y427700D03*
X585442Y445700D03*
D17*
X480100Y115900D03*
X480100Y135900D03*
X480100Y155900D03*
X480100Y175900D03*
X480100Y195900D03*
X480100Y215900D03*
X480100Y235900D03*
X644100Y235900D03*
X644100Y215900D03*
X644100Y195900D03*
X644100Y175900D03*
X644100Y155900D03*
X644100Y135900D03*
X644100Y115900D03*
X644100Y95900D03*
X480100Y95900D03*
D11*
X216900Y223300D03*
X216900Y205300D03*
X183300Y223900D03*
X183300Y205900D03*
X346100Y112300D03*
X346100Y94300D03*
D18*
X816300Y781400D03*
X816300Y771400D03*
X816300Y761400D03*
X816300Y751400D03*
D19*
X846200Y805150D03*
X846200Y727600D03*
D18*
X99400Y134500D03*
X99400Y144500D03*
D19*
X69500Y110750D03*
X69500Y168300D03*
D18*
X100000Y246500D03*
X100000Y256500D03*
X100000Y266500D03*
X100000Y276500D03*
X100000Y286500D03*
D19*
X70100Y222750D03*
X70100Y310300D03*
D18*
X100000Y360000D03*
X100000Y370000D03*
D19*
X70100Y336250D03*
X70100Y393800D03*
D18*
X815100Y663400D03*
X815100Y653400D03*
D19*
X845000Y687150D03*
X845000Y629600D03*
D18*
X807400Y302400D03*
X807400Y292400D03*
X807400Y282400D03*
X807400Y272400D03*
D19*
X837300Y326150D03*
X837300Y248600D03*
D18*
X809100Y425700D03*
X809100Y415700D03*
D19*
X839000Y449450D03*
X839000Y391900D03*
D18*
X809800Y506500D03*
X809800Y496500D03*
D19*
X839700Y530250D03*
X839700Y472700D03*
D18*
X807600Y179300D03*
X807600Y169300D03*
X807600Y159300D03*
X807600Y149300D03*
D19*
X837500Y203050D03*
X837500Y125500D03*
D20*
X383900Y103500D03*
X383900Y120700D03*
M02*
